<?xml version="1.0" encoding="UTF-8" standalone="no"?>
<svg width="36px" height="28px" viewBox="0 0 36 28" version="1.1" xmlns="http://www.w3.org/2000/svg" xmlns:xlink="http://www.w3.org/1999/xlink">
    <!-- Generator: Sketch 40.1 (33804) - http://www.bohemiancoding.com/sketch -->
    <title>AW@1x</title>
    <desc>Created with Sketch.</desc>
    <defs>
        <filter x="-50%" y="-50%" width="200%" height="200%" filterUnits="objectBoundingBox" id="filter-1">
            <feOffset dx="0" dy="2" in="SourceAlpha" result="shadowOffsetOuter1"></feOffset>
            <feGaussianBlur stdDeviation="2" in="shadowOffsetOuter1" result="shadowBlurOuter1"></feGaussianBlur>
            <feColorMatrix values="0 0 0 0 0   0 0 0 0 0   0 0 0 0 0  0 0 0 0.5 0" type="matrix" in="shadowBlurOuter1" result="shadowMatrixOuter1"></feColorMatrix>
            <feMerge>
                <feMergeNode in="shadowMatrixOuter1"></feMergeNode>
                <feMergeNode in="SourceGraphic"></feMergeNode>
            </feMerge>
        </filter>
        <rect id="path-2" x="0" y="0" width="28" height="20" rx="2"></rect>
    </defs>
    <g id="Page-1" stroke="none" stroke-width="1" fill="none" fill-rule="evenodd">
        <g id="AW" filter="url(#filter-1)" transform="translate(4.000000, 2.000000)">
            <mask id="mask-3" fill="white">
                <use xlink:href="#path-2"></use>
            </mask>
            <use id="Mask" fill="#FFFFFF" xlink:href="#path-2"></use>
            <rect id="Mask-Copy" fill="#ED233C" mask="url(#mask-3)" x="0" y="0" width="28" height="20"></rect>
            <g id="2-01" mask="url(#mask-3)">
                <path d="M0.0289003984,13.3519914 C0.0289003984,8.95421771 0.0293944223,4.55644406 0.0261420983,0.158670412 C0.0260185923,0.0408454532 0.0416215139,0.000918323972 0.179618858,0.000998178231 C10.4009323,0.00499089115 20.6222457,0.00499089115 30.8435179,0.000998178231 C30.9815153,0.000918323972 30.9971182,0.0408454532 30.9969947,0.158670412 C30.9937424,4.55644406 30.9942364,8.95421771 30.9942364,13.3519914 C30.9460691,13.4085681 30.8809402,13.4220235 30.8094303,13.4232613 C30.7291926,13.4246587 30.6489548,13.4254573 30.5686348,13.4254573 C20.5305219,13.4255371 10.4923679,13.4257767 0.454213811,13.4233811 C0.311111554,13.4233411 0.153270916,13.4712138 0.0289003984,13.3519914" id="Fill-1" fill="#4C78AF"></path>
                <path d="M30.9942364,16.6888613 L30.9942364,20.0256912 C30.9347888,20.0569542 30.8704422,20.0415423 30.8086069,20.0415423 C20.6105538,20.0423408 10.4124595,20.0423408 0.214365206,20.0415423 C0.152612218,20.0415423 0.0882656042,20.0569142 0.0289003984,20.0256912 L0.0289003984,16.6888613 C0.0770677291,16.6322446 0.142196547,16.6188291 0.213665339,16.6175913 C0.293944223,16.616154 0.374181939,16.6153554 0.454460823,16.6153554 C10.4925325,16.6152756 20.5306042,16.615036 30.5686348,16.6175115 C30.7118194,16.6175514 30.8697835,16.569559 30.9942364,16.6888613" id="Fill-2" fill="#4C78AF"></path>
                <path d="M0.0289003984,15.587671 L0.0289003984,14.4531816 C0.0770677291,14.3965649 0.142196547,14.3831494 0.213665339,14.3818717 C0.293944223,14.3804743 0.374181939,14.3796757 0.454460823,14.3796757 C10.4925325,14.3795959 20.5306042,14.3793963 30.5686348,14.3817919 C30.7118194,14.3818318 30.8697835,14.3338793 30.9942364,14.4531816 L30.9942364,15.587671 C30.9460691,15.6442877 30.8809402,15.6577032 30.8094303,15.6589809 C30.7291926,15.6603384 30.6489548,15.661137 30.5686348,15.661137 C20.5305219,15.6612168 10.4923679,15.6614564 0.454213811,15.6590607 C0.311111554,15.6590208 0.153270916,15.7068934 0.0289003984,15.587671" id="Fill-3" fill="#4C78AF"></path>
                <path d="M30.9942364,14.4531816 C30.9258141,14.4563758 30.8574329,14.4624846 30.7890518,14.4624846 C20.6040491,14.4628839 10.4190876,14.4628839 0.234084993,14.4624846 C0.165662683,14.4624447 0.0972815405,14.4563758 0.0289003984,14.4531816 L0.0289003984,13.3519914 L30.9942364,13.3519914 L30.9942364,14.4531816" id="Fill-4" fill="#F6D522"></path>
                <path d="M0.0289003984,15.587671 C0.0972815405,15.5844769 0.165662683,15.578368 0.234084993,15.5783281 C10.4190876,15.5779288 20.6040491,15.5779288 30.7890518,15.5783281 C30.8574329,15.578368 30.9258141,15.5844769 30.9942364,15.587671 L30.9942364,16.6888613 L0.0289003984,16.6888613 L0.0289003984,15.587671" id="Fill-5" fill="#F6D522"></path>
                <path d="M0.0289003984,20.0256912 L30.9942364,20.0256912 C30.9867437,20.0819145 31.0116507,20.2162376 30.9770279,20.2103309 C30.9312072,20.2026741 30.8853041,20.208362 30.8394422,20.208362 C20.6208459,20.208362 10.4022908,20.2087995 0.183694555,20.1972049 C0.133345286,20.1969861 0.0670225764,20.4080966 0.0289003984,20.0256912" id="Fill-6" fill="#FFFFFF"></path>
                <path d="M4.62888048,1.1663513 C4.8379761,1.82055731 5.07358433,2.46370351 5.24299336,3.12286049 C5.34682072,3.52668347 5.5324502,3.74400684 5.96624436,3.84075027 C6.59987118,3.98209231 7.21554847,4.19933582 7.83805976,4.38679369 C7.89005578,4.40244512 7.95197344,4.4038825 8.00508101,4.46297465 C7.61986587,4.57932231 7.24617795,4.69267543 6.87216069,4.80499044 C6.45145817,4.93127995 6.03207304,5.06208123 5.60873572,5.17930728 C5.47098539,5.21747761 5.40404515,5.28667133 5.36341169,5.41807151 C5.13854847,6.14594308 4.904834,6.87125931 4.67391899,7.59737408 C4.66049801,7.63953713 4.64505976,7.6811412 4.62850996,7.72881419 C4.55918194,7.67738805 4.55996414,7.60104737 4.53958566,7.53748339 C4.31533997,6.83839928 4.09138247,6.13927525 3.87524701,5.43783544 C3.83210226,5.297811 3.76627357,5.22043222 3.61238513,5.17611311 C2.81770651,4.94741051 2.02755644,4.7039748 1.2302842,4.46397283 C1.28298008,4.39561759 1.36301195,4.39777365 1.42949934,4.3776903 C2.17741036,4.15198224 2.92581541,3.92775148 3.67545551,3.70747351 C3.7737251,3.6786062 3.82090438,3.62953576 3.8509575,3.53315167 C4.08084329,2.79505876 4.31731607,2.05892227 4.55337716,1.32266601 C4.56980345,1.27135965 4.56898008,1.21090998 4.62888048,1.1663513" id="Fill-7" fill="#FFFFFE"></path>
                <path d="M7.22127092,4.46493108 C6.60588181,4.64835631 5.99572112,4.83262001 5.38354316,5.01029574 C5.27909827,5.04064036 5.22479681,5.09122803 5.19334396,5.19308214 C5.00985525,5.78691833 4.81961487,6.37875817 4.62772776,6.98377396 C4.54946614,6.88152058 4.53830943,6.768966 4.50496282,6.66635328 C4.34856308,6.18579035 4.195251,5.70418932 4.04811421,5.22091135 C4.01242098,5.10364537 3.95416733,5.04135905 3.82782072,5.00522499 C3.22033599,4.83134235 2.6164741,4.64548156 1.97868924,4.45411083 C2.17806906,4.39174465 2.34949535,4.33648551 2.52195086,4.28458024 C2.96924834,4.14994596 3.41584595,4.01299591 3.86549004,3.88614742 C3.96145418,3.8590369 4.00402258,3.81679399 4.03222311,3.72595977 C4.20665471,3.16390558 4.38800266,2.60396751 4.56741567,2.04343055 C4.57910757,2.00689722 4.59372244,1.97128222 4.61924701,1.90204858 C4.75765604,2.33294216 4.88651394,2.73365083 5.015166,3.13447928 C5.05925764,3.27194839 5.1226162,3.40694201 5.14217131,3.54768514 C5.17646481,3.79455458 5.32401328,3.8867064 5.55818061,3.94807439 C6.076,4.08374678 6.5851328,4.25060225 7.09813546,4.40368287 C7.14148606,4.41661926 7.18788313,4.42049219 7.22127092,4.46493108" id="Fill-8" fill="#C22634"></path>
            </g>
        </g>
    </g>
</svg>