<?xml version="1.0" encoding="UTF-8" standalone="no"?>
<svg width="36px" height="28px" viewBox="0 0 36 28" version="1.1" xmlns="http://www.w3.org/2000/svg" xmlns:xlink="http://www.w3.org/1999/xlink">
    <!-- Generator: Sketch 40.1 (33804) - http://www.bohemiancoding.com/sketch -->
    <title>DM Copy@1x</title>
    <desc>Created with Sketch.</desc>
    <defs>
        <filter x="-50%" y="-50%" width="200%" height="200%" filterUnits="objectBoundingBox" id="filter-1">
            <feOffset dx="0" dy="2" in="SourceAlpha" result="shadowOffsetOuter1"></feOffset>
            <feGaussianBlur stdDeviation="2" in="shadowOffsetOuter1" result="shadowBlurOuter1"></feGaussianBlur>
            <feColorMatrix values="0 0 0 0 0   0 0 0 0 0   0 0 0 0 0  0 0 0 0.5 0" type="matrix" in="shadowBlurOuter1" result="shadowMatrixOuter1"></feColorMatrix>
            <feMerge>
                <feMergeNode in="shadowMatrixOuter1"></feMergeNode>
                <feMergeNode in="SourceGraphic"></feMergeNode>
            </feMerge>
        </filter>
        <rect id="path-2" x="0" y="0" width="28" height="20" rx="2"></rect>
        <linearGradient x1="50%" y1="0%" x2="50%" y2="100%" id="linearGradient-4">
            <stop stop-color="#E12C42" offset="0%"></stop>
            <stop stop-color="#D22036" offset="100%"></stop>
        </linearGradient>
    </defs>
    <g id="Page-1" stroke="none" stroke-width="1" fill="none" fill-rule="evenodd">
        <g id="DM-Copy" filter="url(#filter-1)" transform="translate(4.000000, 2.000000)">
            <mask id="mask-3" fill="white">
                <use xlink:href="#path-2"></use>
            </mask>
            <use id="Mask" fill="#FFFFFF" xlink:href="#path-2"></use>
            <rect id="Rectangle-2" fill="#108753" mask="url(#mask-3)" x="0" y="0" width="28" height="8"></rect>
            <rect id="Rectangle-2" fill="#108753" mask="url(#mask-3)" x="0" y="12" width="28" height="8"></rect>
            <path d="M12,12 L0,12 L0,8 L12,8 L12,0 L16,0 L16,8 L28,8 L28,12 L16,12 L16,20 L12,20 L12,12 Z" id="Rectangle-2" fill="#FFFFFF" mask="url(#mask-3)"></path>
            <path d="M14.6666667,10.6666667 L14.6666667,20 L13.3333333,20 L13.3333333,10.6666667 L0,10.6666667 L0,9.33333333 L13.3333333,9.33333333 L13.3333333,0 L14.6666667,0 L14.6666667,9.33333333 L28,9.33333333 L28,10.6666667 L14.6666667,10.6666667 Z" id="Rectangle-2" fill="#262626" mask="url(#mask-3)"></path>
            <path d="M13.3333333,9.33333333 L13.3333333,20 L12,20 L12,9.33333333 L0,9.33333333 L0,8 L12,8 L12,0 L13.3333333,0 L13.3333333,8 L28,8 L28,9.33333333 L13.3333333,9.33333333 Z" id="Rectangle-2" fill="#FCD449" mask="url(#mask-3)"></path>
            <circle id="Oval-83" fill="url(#linearGradient-4)" mask="url(#mask-3)" cx="14" cy="10" r="4.66666667"></circle>
            <circle id="Oval-73" stroke="#0E673F" stroke-width="1.33333333" stroke-linecap="round" stroke-dasharray="0.6666666666666666,2.666666666666667" mask="url(#mask-3)" cx="14" cy="10" r="3.33333333"></circle>
            <path d="M14,11.3333333 C14.7363797,11.3333333 14.6666667,10.7363797 14.6666667,10 C14.6666667,9.26362033 14.7363797,8.66666667 14,8.66666667 C13.2636203,8.66666667 13.3333333,9.26362033 13.3333333,10 C13.3333333,10.7363797 13.2636203,11.3333333 14,11.3333333 Z" id="Oval-84" fill="#0E673F" mask="url(#mask-3)"></path>
        </g>
    </g>
</svg>