<?xml version="1.0" encoding="UTF-8" standalone="no"?>
<svg width="36px" height="28px" viewBox="0 0 36 28" version="1.1" xmlns="http://www.w3.org/2000/svg" xmlns:xlink="http://www.w3.org/1999/xlink">
    <!-- Generator: Sketch 40.1 (33804) - http://www.bohemiancoding.com/sketch -->
    <title>GP@1x</title>
    <desc>Created with Sketch.</desc>
    <defs>
        <filter x="-50%" y="-50%" width="200%" height="200%" filterUnits="objectBoundingBox" id="filter-1">
            <feOffset dx="0" dy="2" in="SourceAlpha" result="shadowOffsetOuter1"></feOffset>
            <feGaussianBlur stdDeviation="2" in="shadowOffsetOuter1" result="shadowBlurOuter1"></feGaussianBlur>
            <feColorMatrix values="0 0 0 0 0   0 0 0 0 0   0 0 0 0 0  0 0 0 0.5 0" type="matrix" in="shadowBlurOuter1" result="shadowMatrixOuter1"></feColorMatrix>
            <feMerge>
                <feMergeNode in="shadowMatrixOuter1"></feMergeNode>
                <feMergeNode in="SourceGraphic"></feMergeNode>
            </feMerge>
        </filter>
        <rect id="path-2" x="0" y="0" width="28" height="20" rx="2"></rect>
        <mask id="mask-3" maskContentUnits="userSpaceOnUse" maskUnits="objectBoundingBox" x="0" y="0" width="28" height="20" fill="white">
            <use xlink:href="#path-2"></use>
        </mask>
        <mask id="mask-5" maskContentUnits="userSpaceOnUse" maskUnits="objectBoundingBox" x="0" y="0" width="28" height="20" fill="white">
            <use xlink:href="#path-2"></use>
        </mask>
    </defs>
    <g id="Page-1" stroke="none" stroke-width="1" fill="none" fill-rule="evenodd">
        <g id="GP" filter="url(#filter-1)" transform="translate(4.000000, 2.000000)">
            <mask id="mask-4" fill="white">
                <use xlink:href="#path-2"></use>
            </mask>
            <g id="Mask" stroke="#F5F5F5" mask="url(#mask-3)" fill="#FFFFFF">
                <use mask="url(#mask-5)" xlink:href="#path-2"></use>
            </g>
            <g id="1-01" mask="url(#mask-4)">
                <g transform="translate(-1.000000, 0.000000)">
                    <path d="M0.0663716814,21.7915347 L0.0663716814,6.62876887 C0.213185841,6.49786516 0.395774336,6.51530583 0.570862832,6.51602978 C2.31783186,6.52333512 4.06513274,6.52827115 5.81190265,6.52300605 C8.66475664,6.51445025 11.5176106,6.52043931 14.3704646,6.51576653 C17.4331858,6.51069886 20.4960398,6.51425281 23.5586947,6.51464769 C25.4934292,6.51484513 27.4280973,6.51319979 29.3627655,6.51609559 C29.5586283,6.51635885 29.765177,6.48345194 29.9336283,6.62876887 C29.9336283,11.0163136 29.9336278,17.4039897 29.9336278,21.7915344 C29.8188048,21.8522806 25.3096994,23.2763014 25.1904295,23.2763672 C15.4734162,23.2779467 13.4250211,21.793114 3.70800781,21.7915344 C3.5887379,21.7914686 0.181128319,19.852215 0.0663716814,19.7915347" id="Fill-1" fill="#0A0B09"></path>
                    <path d="M29.9336283,6.62876887 L0.0663716814,6.62876887 C0.0663716814,4.51338077 0.0688274336,2.39799268 0.0620575221,0.282604582 C0.0613938053,0.100563531 0.0811725664,0.0408045741 0.293362832,0.0410020155 C10.0977876,0.0483731644 19.902146,0.0483731644 29.7065708,0.0410020155 C29.9188274,0.0408045741 29.9385398,0.100563531 29.9379425,0.282604582 C29.9311726,2.39799268 29.9336283,4.51338077 29.9336283,6.62876887" id="Fill-2" fill="#292F69"></path>
                    <path d="M20.2349336,15.685015 C20.2800664,15.7622804 20.3251327,15.8396117 20.3703319,15.9168771 C20.4152655,15.9658426 20.4187168,16.013426 20.3655531,16.059035 C20.0091372,15.8017029 19.6390487,15.5843199 19.1698673,15.6554646 C19.0926106,15.7281231 19.0028097,15.7441158 18.9025885,15.7141705 C18.8376106,15.7176587 18.7726991,15.721081 18.6099558,15.7297026 C19.1366814,16.0728559 19.5657743,16.4077167 19.6328097,17.0129406 C19.2252212,16.5167702 18.6931195,16.3910658 18.0434071,16.4543129 C18.492677,16.8980297 18.8217478,17.3718235 18.7723009,18.1078853 C18.5111947,17.3316112 17.9717257,17.0788861 17.2534513,17.0230102 C17.6827434,17.5147711 17.8113053,18.0506931 17.6725221,18.6686191 C17.560354,17.9498005 17.0742478,17.6146765 16.3878982,17.3857102 C16.7110619,17.9626342 16.7402655,18.5031632 16.5185841,19.0563942 C16.412854,19.0756777 16.4352876,18.9959771 16.428385,18.9404303 C16.4144469,18.8281519 16.4563938,18.7110032 16.3984513,18.6025421 C16.2639159,18.1646827 16.0565708,17.9309119 15.4984513,17.6071079 C15.6548894,18.1892312 15.6195133,18.7205463 15.2293805,19.1938135 C15.3605973,18.5454157 15.0763274,18.0717535 14.5793363,17.6191518 C14.5561062,18.2180577 14.4534292,18.7510839 13.9561062,19.1269466 C14.2126991,18.5181687 14.0722566,17.9839579 13.6653982,17.4510633 C13.509823,17.9983711 13.3255752,18.495463 12.7747566,18.7342355 C13.1355531,18.1969972 13.0595575,17.6625231 12.8056195,17.069014 C12.5263274,17.6286948 12.1975221,18.0813623 11.5682522,18.1998931 C12.1420354,17.7831599 12.1379204,17.2028135 12.055354,16.5267081 C11.634292,17.0292625 11.1953097,17.424672 10.4557965,17.4197359 C11.2181416,17.1209411 11.3910398,16.5471104 11.413208,15.8353338 C10.9264381,16.2656904 10.4095354,16.516112 9.68469027,16.404426 C10.4646239,16.2350212 10.7788938,15.7389824 10.9266372,15.0439225 C10.3987832,15.3439678 9.87006637,15.475398 9.29993363,15.3108634 C9.28161504,15.1332977 9.4579646,15.2730863 9.49831858,15.1912139 C10.1009735,15.1169759 10.3651991,14.6757599 10.6421018,14.1630702 C10.0884292,14.312665 9.58373894,14.3922998 9.09670354,14.1226605 C9.14190265,13.9191642 9.34075221,14.0161079 9.45238938,13.9424623 C9.78690265,13.8496648 10.0529867,13.6566986 10.2896018,13.3714615 C10.1714602,13.3373041 10.055177,13.3661964 9.95137168,13.3319074 C9.84856195,13.2964337 9.73918142,13.2991321 9.63365044,13.2793879 C9.51066372,13.2508247 9.40088496,13.191 9.28871681,13.1367035 C9.19553097,13.0832627 9.09079646,13.0429188 9.04526549,12.9333388 C8.9779646,12.8136893 8.9779646,12.8136893 9.26628319,12.8088191 C9.37911504,12.7705154 9.50090708,12.7930237 9.6140708,12.7570236 C9.71528761,12.732475 9.81391593,12.6995681 9.91207965,12.6654107 C10.0969248,12.6075604 10.2557522,12.5064045 10.394469,12.3792522 C10.1317035,12.2796101 9.83986726,12.2670396 9.60909292,12.0917116 C9.53263274,12.0380075 9.45298673,11.9885813 9.38097345,11.9285591 C9.28971239,11.8218749 9.13871681,11.7544157 9.14727876,11.5816544 C9.23634956,11.4706923 9.35084071,11.5014932 9.44880531,11.5488791 C9.74767699,11.6933405 10.0489381,11.6668833 10.3539823,11.5854058 C10.4064159,11.5654642 10.4611062,11.5496689 10.5058407,11.5151166 C10.5523673,11.4533174 10.4967478,11.4260705 10.4625664,11.3920448 C10.3154867,11.2531118 10.1200221,11.1750566 9.98688053,11.0191436 C9.91307522,10.9430628 9.83668142,10.8697462 9.76121681,10.7951133 C9.66504425,10.6693431 9.5285177,10.5571305 9.6114823,10.3694953 C9.6529646,10.3390235 9.69935841,10.3325079 9.74887168,10.3421167 C9.94825221,10.4511044 10.1223451,10.6118218 10.3622788,10.6388713 C10.5542257,10.7051458 10.744115,10.6838221 10.9346681,10.6295257 C11.0163053,10.6062276 11.0433186,10.5697668 10.9849779,10.4975032 C10.9082522,10.4292542 10.8715487,10.334943 10.8175221,10.2520176 C10.5661062,9.96039653 10.3388496,9.65659989 10.2927876,9.17569824 C10.685708,9.85390975 11.2515929,9.99185554 11.9607743,9.90491547 C11.4884735,9.48021883 11.1919248,9.00991321 11.2426327,8.37494138 C11.4821018,9.04999383 12.0209071,9.28192176 12.7237832,9.36761137 C12.3528982,8.86834766 12.1711062,8.34914236 12.3246239,7.7301633 C12.4477434,8.41370573 12.9149336,8.76074205 13.5632522,8.98292954 C13.3261726,8.42423594 13.2411504,7.86764839 13.4853319,7.30572992 C13.6798673,7.41695529 13.5009292,7.6207149 13.5986947,7.75589651 C13.6842478,8.25456789 14.0804867,8.49867138 14.4858186,8.80990498 C14.3882522,8.25608161 14.3482965,7.74470816 14.6714602,7.28822344 C14.7996903,7.28703879 14.7649115,7.36318539 14.741615,7.43386944 C14.7345133,7.96590844 14.9871903,8.3721772 15.3985619,8.74882975 C15.4715708,8.45589239 15.435,8.1694048 15.5475664,7.91227017 C15.6629204,7.64901485 15.7945354,7.40162067 16.1090044,7.17798527 C15.777146,7.85158982 15.9297345,8.39244786 16.3401106,8.94640286 C16.4812832,8.32874008 16.7290487,7.83796635 17.306615,7.5654971 C16.8653097,8.11352886 16.9117035,8.68097569 17.2026106,9.30851055 C17.4684956,8.73882605 17.8157522,8.31044383 18.440177,8.16486364 C17.8699779,8.59232446 17.8508628,9.1759615 17.9478982,9.84838139 C18.33,9.40183456 18.7146239,9.00241043 19.4344248,8.98865534 C18.7613496,9.33819259 18.610354,9.87385134 18.5852655,10.5324503 C18.8393363,10.3468553 19.0500664,10.1561269 19.3159513,10.0678047 C19.5845575,9.97842952 19.8569469,9.88707992 20.2563053,9.98863066 C19.5042478,10.1773189 19.2268142,10.6771091 19.063208,11.3301798 C19.6283628,11.0444819 20.1913938,10.8582288 20.8657301,11.1610382 C20.0529425,11.1394513 19.6650664,11.5895521 19.3640708,12.2283411 C19.9517257,12.0330714 20.4984292,12.0145778 21.0244912,12.3023158 C21.0347788,12.4237423 20.9622345,12.3804368 20.9025664,12.3626013 C20.2756195,12.2944182 19.8686283,12.6354654 19.4713938,13.1442063 C20.0711283,13.113932 20.6202212,13.1336761 21.0300664,13.5912797 C20.3917699,13.3979845 19.8874115,13.6301098 19.3890929,14.0677718 C19.9651991,14.1352968 20.4487168,14.3161532 20.8154204,14.7287401 C20.8887611,14.7746781 20.8748894,14.8258155 20.8243805,14.8790589 C20.791792,14.8703714 20.7591372,14.8616182 20.7265487,14.8529308 C20.4874115,14.744338 20.2336726,14.6936613 19.9738938,14.6669409 C19.9017478,14.6649007 19.8217699,14.6280449 19.7685398,14.7116943 C19.6988496,14.8234462 19.5591372,14.8218008 19.4670133,14.8958414 C19.4383407,14.9234832 19.3403761,14.9398708 19.4334292,14.9936407 C19.5519027,15.0619555 19.682854,15.1087491 19.795885,15.188318 C19.8907965,15.2549216 19.989823,15.316655 20.0717257,15.3999095 C20.1386283,15.4877052 20.2244469,15.5652997 20.2349336,15.685015" id="Fill-4" fill="#F9DD1E"></path>
                    <path d="M9.82261062,10.7790547 C9.88884956,10.8440788 9.9550885,10.9091029 10.0213274,10.9741269 C10.0668584,11.2444901 10.3607522,11.21132 10.5038496,11.3623627 C10.5722124,11.3468965 10.6526549,11.3040517 10.6845133,11.4077084 C10.7156416,11.5091276 10.6698451,11.5656616 10.5611947,11.5678993 C10.3159513,11.5756653 10.1176327,11.4398914 9.90219027,11.3565053 C9.86495575,11.3329439 9.91274336,11.3642055 9.87544248,11.3406442 C9.84915929,11.3239274 9.82446903,11.3047756 9.79672566,11.2902308 C9.81451327,11.3107647 9.84112832,11.3194521 9.86123894,11.3378142 C10.0290929,11.4592407 10.2682301,11.4589116 10.3955973,11.6478631 C10.0426991,11.7915347 9.69584071,11.7800831 9.35528761,11.6077825 C9.2875885,11.5735593 9.21809735,11.5239357 9.16413717,11.6267369 C9.04201327,11.768434 8.84429204,11.8170046 8.73126106,11.982329 C8.96608407,11.9764057 9.18086283,11.8199663 9.42232301,11.8922299 C9.48988938,11.9387602 9.55745575,11.9852906 9.62502212,12.031821 C9.38163717,12.2984986 9.03245575,12.2047139 8.82298673,12.276451 C9.34340708,12.2053062 9.9405531,12.3959689 10.546792,12.3587841 C10.3777434,12.5272017 10.1810177,12.6536959 9.95893805,12.742018 C9.82287611,12.6774547 9.73002212,12.788351 9.61871681,12.8244827 C9.49772124,12.8992473 9.38196903,12.8578504 9.2664823,12.8088191 C9.34871681,12.7424129 9.43108407,12.6759409 9.54637168,12.5830118 C9.12690265,12.4842911 8.75011062,12.3774094 8.43915929,12.7444531 C8.45581858,12.8124388 8.4260177,12.8308009 8.36336283,12.8143474 C8.29108407,12.740965 8.25544248,12.8770022 8.18621681,12.8419892 C8.15794248,12.7537987 8.25086283,12.7189832 8.27561947,12.6542224 C8.30794248,12.5695858 8.32168142,12.4724446 8.26938053,12.4015631 C8.19889381,12.3060672 8.10955752,12.3924808 8.03017699,12.4120275 C7.68391593,12.4969931 7.44550885,12.6929209 7.3835177,13.076089 C7.24938053,12.8077002 7.27095133,12.6036115 7.54035398,12.4713916 C7.59962389,12.4423677 7.65663717,12.4024187 7.71949115,12.3876105 C8.13272124,12.2904693 8.4754646,12.1063222 8.60754425,11.6718852 C8.41977876,11.5770474 7.62829646,11.7879149 6.75039823,12.1892477 C6.86834071,11.9414586 6.99484513,11.8826868 8.16942478,11.5308461 C7.6535177,11.2712764 6.7994469,11.3993501 6.47674779,11.7869277 C6.46433628,11.7756077 6.43984513,11.7622475 6.44143805,11.7534943 C6.51630531,11.3462383 6.51099558,11.338209 6.11103982,11.4469993 C5.94603982,11.4919501 5.78674779,11.5573691 5.6149115,11.5725063 C6.13699115,11.1851919 6.76035398,11.2441611 7.37150442,11.2013821 C7.07263274,11.0165769 6.80064159,10.7943236 6.43632743,10.7626013 C6.27411504,10.6727654 6.05528761,10.8544774 5.91577434,10.6558513 C6.01280973,10.6443338 6.10984513,10.6327506 6.24683628,10.6162971 C6.04579646,10.3878573 5.81867257,10.2579408 5.53971239,10.1571141 C5.72761062,10.0027148 5.96316372,10.0751758 6.14064159,9.94302168 C5.83778761,9.69872074 5.49617257,9.87418041 5.17692478,9.85529184 C4.78539823,9.83219119 4.65584071,10.2008803 4.3985177,10.3960841 C4.43488938,9.97178232 4.56736726,9.81823866 4.97575221,9.71352886 C5.05513274,9.67114475 5.16338496,9.69687796 5.22358407,9.60927975 C5.24747788,9.57327959 5.28272124,9.56005101 5.3240708,9.55866892 C5.37876106,9.54590103 5.4785177,9.58670561 5.43929204,9.46297561 C5.22026549,9.32713586 5.00130531,9.19136193 4.78227876,9.05552219 C4.77471239,8.99642137 4.78360619,8.95601168 4.85794248,8.98997162 C4.90971239,9.00372671 4.9870354,9.04551849 5.00840708,9.02630085 C5.07763274,8.96377771 5.00316372,8.91217967 4.96028761,8.87532393 C4.74816372,8.69308543 4.53165929,8.51591461 4.31674779,8.33690099 C4.30115044,8.27806343 4.31210177,8.24574884 4.38219027,8.27260088 C4.97130531,8.56218173 5.46285398,8.98398256 5.9519469,9.40973222 C6.19878319,9.62454856 6.44369469,9.85410719 6.77283186,9.93183333 C7.62603982,10.1333553 8.4159292,10.4606474 9.10858407,11.0056518 C9.20847345,11.0842993 9.32137168,11.2217186 9.48557522,11.102793 C9.52294248,11.0302003 9.58141593,10.9775493 9.64752212,10.9318745 C9.68668142,10.8976513 9.72172566,10.8594134 9.75696903,10.8212414 C9.77568584,10.802287 9.79772124,10.7884003 9.82261062,10.7790547" id="Fill-5" fill="#10793F"></path>
                    <path d="M9.82261062,10.7790547 C9.8214823,10.8017605 9.82035398,10.8245321 9.81922566,10.8472379 C9.68707965,10.9254247 9.57079646,10.8366418 9.44688053,10.8163054 C9.33603982,10.7982066 9.24650442,10.6761877 9.11834071,10.750689 C9.09384956,10.7808317 9.06862832,10.8091975 9.02747788,10.7745136 C8.68785398,10.486973 8.30787611,10.2868331 7.88727876,10.1220353 C7.42473451,9.94078401 6.94360619,9.5852577 6.79539823,9.17299988 C6.62449115,8.69756077 6.25460177,8.30939081 6.19977876,7.73924561 C6.62873894,8.25423882 6.93564159,8.80621941 7.36659292,9.2616511 C7.62292035,9.37939204 7.70256637,9.67200033 7.90884956,9.80375961 C7.74119469,9.62625972 7.53876106,9.44395541 7.44165929,9.1826087 C7.28449115,8.87683765 7.03719027,8.61141047 7.00519912,8.17822385 C7.29451327,8.58192588 7.54314159,8.94140101 7.80537611,9.29074082 C8.00920354,9.56235449 8.22889381,9.82238493 8.44380531,10.0859035 C8.52099558,10.1805438 8.60415929,10.270972 8.74752212,10.2436592 C8.97862832,10.1996298 9.21146018,10.1994324 9.44502212,10.2161491 C9.54896018,10.2260211 9.64274336,10.2468183 9.62615044,10.3843692 C9.64088496,10.5407429 9.76533186,10.6434124 9.82261062,10.7790547" id="Fill-6" fill="#11793E"></path>
                    <path d="M19.4237389,14.8409527 C19.5098894,14.7223561 19.6361947,14.7091276 19.7685398,14.7117601 C20.7670354,15.0560322 21.7886947,15.320538 22.8124115,15.5773436 C23.5278319,15.7567521 24.2453097,15.9279339 24.9607965,16.1071449 C25.0450221,16.1282053 25.1899779,16.1128049 25.1660841,16.2553577 C25.1384735,16.4196948 25.0091814,16.3656616 24.9027876,16.3363087 C23.4913274,15.9460327 22.0799336,15.5556908 20.668208,15.1662046 C20.5945354,15.1458681 20.5184071,15.1340216 20.4434071,15.1182263 C20.305885,15.0618239 20.1533628,15.1375756 20.0169027,15.0710378 C19.8890044,15.0347744 19.7589159,15.0084489 19.6275,14.9877833 C19.5434735,14.9608655 19.4616372,14.9307227 19.4237389,14.8409527" id="Fill-7" fill="#11783E"></path>
                    <path d="M19.4237389,14.8409527 C19.497677,14.8677389 19.5714823,14.8944593 19.645354,14.9211797 C19.7540044,14.9699478 19.8789823,14.969158 19.9837168,15.0300358 C20.1027212,15.059652 20.2213274,15.0901238 20.3137832,15.1779195 C21.7253097,15.7066019 23.1797788,16.1031303 24.616792,16.5536917 C24.7060619,16.5817284 24.8808186,16.5415162 24.8427212,16.7120398 C24.7977212,16.9132327 24.6375664,16.7906873 24.5471681,16.7611369 C23.2618805,16.3404549 21.9798451,15.9099009 20.6964159,15.4834931 C20.5717699,15.4420962 20.4432743,15.4124799 20.3165044,15.3774012 C20.1296681,15.3570647 19.9452212,15.3264613 19.7705973,15.2532105 C19.6446903,15.1906215 19.5206416,15.1237547 19.3920133,15.0672206 C19.3183407,15.0348402 19.1891814,15.0537946 19.206969,14.9372383 C19.221969,14.8392415 19.3345354,14.8386492 19.4237389,14.8409527" id="Fill-8" fill="#12783E"></path>
                    <path d="M18.9025885,15.7141705 C18.9843584,15.6615853 19.0730973,15.6397351 19.17,15.6553988 C20.0292478,16.1713792 20.9416593,16.5852824 21.8459071,17.013862 C22.4827434,17.3156843 23.1302655,17.5951298 23.7677655,17.8955699 C23.8570354,17.9376908 24.0583407,17.9366377 23.9864602,18.1122948 C23.9113938,18.2959154 23.7737389,18.1542841 23.6834735,18.1099914 C22.7051549,17.6298137 21.7294912,17.144305 20.7556858,16.6551109 C20.1367035,16.3440747 19.4984071,16.0700917 18.9025885,15.7141705" id="Fill-9" fill="#11783E"></path>
                    <path d="M9.93988938,13.2573403 L10.4946239,13.2573403 C10.2417478,13.6239891 9.93384956,13.9011312 9.49108407,14.0109745 C9.29103982,14.0214389 9.08820796,14.0937683 8.89353982,13.9845173 C8.89207965,13.9412776 8.89068584,13.8980379 8.88922566,13.8547982 C8.81734513,13.618724 8.90966814,13.4096335 9.0075,13.2058081 C9.05528761,13.1061659 9.13254425,13.02482 9.26668142,13.0620707 C9.38847345,13.1111678 9.51026549,13.1602649 9.63199115,13.2092962 C9.67798673,13.3309202 9.59993363,13.4105549 9.54033186,13.4942043 C9.65309735,13.3880466 9.73513274,13.2194315 9.93988938,13.2573403" id="Fill-10" fill="#0B0D09"></path>
                    <path d="M20.8243805,14.8790589 C20.8214602,14.8290404 20.8185398,14.7788902 20.8155531,14.7287401 C22.255885,15.0813706 23.7070354,15.3860228 25.1590487,15.6873843 C25.2457965,15.7054173 25.4266593,15.6515158 25.4040265,15.8265147 C25.3783407,16.0253383 25.2059735,15.928592 25.1115265,15.9066102 C24.062854,15.6625067 23.0167035,15.4074123 21.9699558,15.1552795 C21.5880531,15.063206 21.2062832,14.9711324 20.8243805,14.8790589" id="Fill-11" fill="#12783E"></path>
                    <path d="M20.2349336,15.685015 C20.1627212,15.5988647 20.0905088,15.5127144 20.0182965,15.4265641 C20.0756416,15.3999753 20.1296681,15.4038583 20.1798451,15.4434783 C21.4997788,16.02264 22.8688274,16.4735305 24.2226106,16.9641068 C24.2948894,16.9903665 24.372146,17.0058986 24.4401106,17.0399901 C24.498385,17.0692773 24.6111504,17.0649994 24.5676106,17.1846489 C24.5277212,17.2942289 24.4532522,17.2942948 24.3555531,17.2565176 C23.8633407,17.0667105 23.3676106,16.8857225 22.8767257,16.6928222 C22.0784735,16.3792851 21.2834735,16.057982 20.4857522,15.7432603 C20.4068363,15.7121303 20.3188274,15.7039036 20.2349336,15.685015" id="Fill-12" fill="#12783E"></path>
                    <path d="M9.62615044,10.3843692 C9.6,10.3205298 9.55526549,10.2747234 9.49115044,10.2478055 C9.46904867,10.2369462 9.46181416,10.2261528 9.46918142,10.2154909 C9.47654867,10.2049607 9.4839823,10.199564 9.4914823,10.199564 C9.66278761,10.1640903 9.55738938,10.0957098 9.51497788,10.0283164 C9.31373894,9.70865863 9.09623894,9.39683271 8.95493363,8.97200444 C9.43141593,9.39308132 9.71130531,9.90333594 10.158385,10.2590597 C10.3000885,10.3608737 10.3717035,10.1724487 10.490708,10.1802147 C10.5960398,10.2312862 10.6756195,10.3485665 10.8175885,10.3053268 C10.9087832,10.3207931 10.9180088,10.4722965 11.0398009,10.4369545 C11.0767699,10.5121797 11.229823,10.4855909 11.2054646,10.6047139 C11.1829646,10.7146888 11.0749115,10.7036979 10.9901549,10.711793 C10.7749115,10.7323927 10.5584071,10.8232816 10.3446903,10.7044877 C10.1240708,10.6436757 9.96112832,10.4730204 9.74873894,10.3963473 C9.70792035,10.3923985 9.6670354,10.3883839 9.62615044,10.3843692" id="Fill-13" fill="#14773E"></path>
                    <path d="M20.3655531,16.059035 C20.367146,16.011649 20.3687389,15.9643289 20.3702655,15.9168771 C21.6367699,16.4289087 22.9036726,16.9399531 24.1685177,17.4559335 C24.2325664,17.4819958 24.3771903,17.4726502 24.312146,17.6154662 C24.264292,17.7201102 24.1657965,17.7060919 24.0820354,17.6709473 C23.6144469,17.4754144 23.1475221,17.2780387 22.682854,17.075727 C21.9094248,16.7390235 21.137854,16.3981079 20.3655531,16.059035" id="Fill-14" fill="#12783E"></path>
                    <path d="M7.02172566,9.8555551 C6.2285177,9.40749455 5.46238938,8.93291103 5.02221239,7.97782074 C5.78196903,8.59785282 6.43068584,9.19702192 7.02172566,9.8555551" id="Fill-15" fill="#11783E"></path>
                    <path d="M10.490708,10.1802147 C10.3943363,10.2661676 10.3073894,10.3914771 10.1583186,10.2589939 C10.3028097,10.2594546 10.3644027,10.2350376 10.2498451,10.0842582 C10.0231195,9.78598988 9.86276549,9.44836494 9.71754425,9.10527745 C9.65050885,8.94692937 9.57922566,8.78417177 9.65170354,8.50933322 C9.88254425,9.1512155 10.1352212,9.69299494 10.490708,10.1802147" id="Fill-16" fill="#13743C"></path>
                    <path d="M9.4914823,10.199564 C9.49141593,10.2156226 9.49128319,10.2317469 9.49115044,10.2478055 C9.24331858,10.2464234 8.99542035,10.2450413 8.7475885,10.2436592 C8.73391593,10.1941672 8.72030973,10.1446094 8.70663717,10.0951174 C8.69641593,10.0660935 8.7075,10.0551026 8.73710177,10.0598412 C8.8420354,10.2105549 8.98971239,10.2130558 9.1774115,10.1707375 C8.94610619,9.8779318 8.68918142,9.61480811 8.55159292,9.2740241 C8.52424779,9.20004936 8.56161504,9.18688659 8.62446903,9.19781169 C8.87362832,9.47640163 9.12643805,9.75255646 9.30564159,10.0836 C9.34738938,10.1607996 9.4099115,10.1919296 9.4914823,10.199564" id="Fill-17" fill="#12763D"></path>
                    <path d="M9.31899575,13.0620707 C8.97808316,13.2422689 8.95769808,13.5569907 8.89743238,13.8547982 C8.71040858,13.5110526 8.89394839,13.2225906 9.07170625,12.933273 C9.15421021,12.9761836 9.23656592,13.0191601 9.31899575,13.0620707" id="Fill-18" fill="#1C743C"></path>
                    <path d="M7.44165929,9.1826087 C7.67701327,9.43539961 7.91422566,9.68680844 8.07451327,10.000872 C7.77371681,9.81626424 7.56743363,9.54155732 7.36659292,9.2616511 C7.39161504,9.23525976 7.41663717,9.20893423 7.44165929,9.1826087" id="Fill-19" fill="#101810"></path>
                    <path d="M9.02747788,10.7909276 C9.04878319,10.7680156 9.0700885,10.7451036 9.09139381,10.7221916 C9.32382743,10.7343825 9.51477876,10.872719 9.69086283,11.0563607 C9.62243363,11.1116089 9.55400442,11.1669435 9.48557522,11.2221916 C9.33285398,11.0784946 9.18013274,10.9347111 9.02747788,10.7909276" id="Fill-20" fill="#14713B"></path>
                    <path d="M19.9738938,14.6794898 C20.2467478,14.6134625 20.5055973,14.6901832 20.7264159,15.1589937 C20.4653097,15.1060361 20.2142257,14.9485212 19.9738938,14.6794898" id="Fill-21" fill="#224226"></path>
                    <path d="M8.8440255,10.0598412 C8.82452311,10.0674098 8.81152151,10.0793221 8.80518956,10.0952491 C8.60442463,9.98560322 8.47255128,9.83252026 8.36043361,9.66693266 C8.31568785,9.59249722 8.36870736,9.58473119 8.44418416,9.59223397 C8.59555991,9.73873555 8.77141918,9.87240344 8.8440255,10.0598412" id="Fill-22" fill="#176F3A"></path>
                    <path d="M5.91577434,10.6558513 C6.07088496,11.1546592 6.28274336,10.5581029 6.43639381,11.085785 C6.14926991,11.101944 5.86227876,11.1186327 5.57522124,11.1350566 C5.55511062,11.0815466 5.54853982,11.0290963 5.55557522,10.9769109 C5.56247788,10.925785 5.56938053,10.9000897 5.57628319,10.9000897 C5.6894469,10.8190301 5.80261062,10.7371758 5.91577434,10.6558513" id="Fill-23" fill="#1B6636"></path>
                    <path d="M6.18316643,8.40185924 C6.32626178,8.56855188 6.46928133,8.73524453 6.61230088,8.90185924 C6.36840214,8.84006061 6.23038486,8.67212109 6.11230088,8.48212732 C6.12510974,8.44526635 6.14868106,8.4185363 6.18316643,8.40185924" id="Fill-24" fill="#186B38"></path>
                    <path d="M20.1798451,15.7447358 C20.1262832,15.7311586 20.072854,15.7175814 20.0188274,15.7030107 C19.9357301,15.5568074 19.8531637,15.4112664 19.7705973,15.2660566 C19.9685177,15.1966804 20.1509071,15.295529 20.3165044,15.5784978 C20.2637389,15.5972079 20.2097788,15.6092949 20.1798451,15.7447358" id="Fill-25" fill="#162C1A"></path>
                    <path d="M4.74199115,9.81956727 C4.59451327,9.67000055 4.41922566,9.78247889 4.24088496,9.31956727 C4.45141593,9.43291216 4.60274336,9.51454128 4.75400442,9.59582377 C4.75002212,9.67052048 4.74597345,9.74504388 4.74199115,9.81956727" id="Fill-26" fill="#176E39"></path>
                    <path d="M20.336415,15.49601 C20.2059987,15.452052 20.0799721,15.3767987 19.9746903,15.158094 C19.9904082,15.082298 20.0139143,15.0282097 20.0449961,14.99601 C20.1929712,15.0683689 20.346752,15.0920665 20.4746903,15.3319362 C20.4285277,15.3867481 20.3824359,15.4413791 20.336415,15.49601" id="Fill-27" fill="#162819"></path>
                    <path d="M8.89353982,13.9845173 C9.09272124,14.0164373 9.29190265,14.0483572 9.49108407,14.0802772 C9.38429204,14.5245364 9.2055531,14.0662229 9.09670354,14.4845173 C9.02946903,14.3151509 8.90057522,14.4687955 8.89353982,13.9845173" id="Fill-28" fill="#D5BF2F"></path>
                    <path d="M5.7680531,10.7165316 C5.76708411,10.7460967 5.76643811,10.7758621 5.76633044,10.8054272 C5.61872063,10.9271951 5.47100314,11.0490632 5.2680531,11.2165316 C5.30013751,10.8493238 5.55541313,10.8034228 5.7680531,10.7165316" id="Fill-29" fill="#1A5D31"></path>
                    <path d="M13.9150588,7.75589651 C13.4224327,7.62867838 13.9409733,7.43538316 13.4853319,7.30572992 C13.5867253,7.25163095 13.7190651,7.1076961 13.9044918,7.26972975 C14.0750743,7.41873226 13.9241163,7.59287565 13.9150588,7.75589651" id="Fill-30" fill="#5D5529"></path>
                    <path d="M16.4332129,18.6025421 C16.9379145,18.7293653 16.4262101,18.9263461 16.8858937,19.0563942 C16.7883548,19.1191148 16.6290411,19.2442927 16.4652257,19.086866 C16.3081629,18.9359549 16.4327127,18.7647073 16.4332129,18.6025421" id="Fill-31" fill="#6D632D"></path>
                    <path d="M5.40349376,9.75062938 C5.37313358,9.8100399 5.34285308,9.86945042 5.31257258,9.92923109 C5.22914184,10.0845128 5.18555387,9.90517076 5.13168646,9.81281609 C5.06387408,9.76395511 4.97542315,9.82244023 4.91621681,9.49022253 C5.08706257,9.52871907 5.23495889,9.56221846 5.38285521,9.59553277 C5.40692024,9.61607659 5.41791684,9.64568931 5.41600438,9.68492616 C5.41393256,9.72879 5.40978891,9.75062938 5.40349376,9.75062938" id="Fill-32" fill="#176C39"></path>
                    <path d="M6.39494317,8.53636379 C6.35788728,8.57058041 6.32083138,8.60469756 6.28389425,8.63881472 C6.16049336,8.50861253 6.03721124,8.3785098 5.91381035,8.24820814 C5.86273972,8.14327055 5.9201051,8.12486917 6.02865988,8.14724923 C6.15075431,8.27695408 6.27284874,8.40665894 6.39494317,8.53636379" id="Fill-33" fill="#15703A"></path>
                    <path d="M9.65588324,15.218604 C9.58339362,15.4711565 9.40924408,15.2940709 9.36621548,15.6714052 C9.26717218,15.7062744 9.1606667,15.6589519 9.15601496,15.3802476 C9.15136322,15.0950675 9.27104863,15.2041582 9.33559153,15.1922031 C9.44151553,15.1725269 9.54908703,15.207147 9.65588324,15.218604" id="Fill-34" fill="#5F5729"></path>
                    <path d="M4.40617257,9.61851629 C4.13065747,9.84315205 4.00919125,9.68553615 3.90617257,9.36209245 C4.08346054,9.20845006 4.23667089,9.18937721 4.40617257,9.61851629" id="Fill-35" fill="#1E3C23"></path>
                    <path d="M6.19701044,8.27552293 C6.15781903,8.30858838 6.1185059,8.34175165 6.07931449,8.37481709 C5.95760202,8.24392489 5.83601127,8.11303269 5.71442052,7.98214048 C5.66488355,7.87815064 5.7259832,7.86152009 5.83540271,7.88304198 C5.95589805,8.01383635 6.0765151,8.14463073 6.19701044,8.27552293" id="Fill-36" fill="#166E39"></path>
                    <path d="M4.98778761,9.18948721 C4.95371912,9.25943803 4.91965062,9.32938884 4.88558212,9.39933965 C4.75298395,9.26133428 4.62038578,9.12332891 4.48778761,8.98532354 C4.68395042,8.78326682 4.837169,8.97268183 4.98778761,9.18948721" id="Fill-37" fill="#13703B"></path>
                    <path d="M8.8664823,9.36299925 C8.81953092,9.41008391 8.77245091,9.45716856 8.72524227,9.50425322 C8.62516509,9.36482897 8.52521654,9.22528274 8.3664823,9.00425322 C8.68446532,9.05024004 8.78016895,9.20076456 8.8664823,9.36299925" id="Fill-38" fill="#1A6535"></path>
                    <path d="M8.65867257,9.75969253 C8.61720486,9.80612987 8.5756115,9.85256722 8.53401813,9.89900457 C8.4255738,9.75465567 8.31725512,9.61030678 8.15867257,9.39900457 C8.48237199,9.41386943 8.56731795,9.59089646 8.65867257,9.75969253" id="Fill-39" fill="#166D39"></path>
                    <path d="M8.36336283,12.8571681 C8.45958301,12.8197025 8.55555065,12.7820248 8.65151828,12.7444531 C8.91265127,12.8758477 8.90431724,13.0241177 8.77728639,13.2444531 C8.60378701,13.0819611 8.48357492,12.9695646 8.36336283,12.8571681" id="Fill-40" fill="#1E4E2B"></path>
                    <path d="M11.3163601,10.6812571 C10.9575313,10.9119161 10.962284,10.5168935 10.8191089,10.3759013 C10.8155444,10.3346577 10.8153959,10.2932613 10.8189604,10.2520176 C10.9848593,10.3951484 11.1506097,10.5382791 11.3163601,10.6812571" id="Fill-41" fill="#192618"></path>
                    <path d="M5.19741561,9.60493604 C5.29015359,9.65838143 5.38301423,9.71182682 5.47575221,9.7650177 C5.37798479,10.420869 5.13816634,9.90346671 4.97575221,10.0248641 C5.04959912,9.88463357 5.1235687,9.74491206 5.19741561,9.60493604" id="Fill-42" fill="#1F3B22"></path>
                    <path d="M20.9025664,12.5413915 C20.9880132,12.4615256 21.0731811,12.3821817 21.1586279,12.3023158 C21.2679106,12.3644337 21.4520463,12.5301685 21.3901566,12.6544044 C21.2457474,12.9433311 21.0564542,12.7561943 20.9025664,12.5413915" id="Fill-43" fill="#796F2F"></path>
                    <path d="M5.34153174,9.90789391 C5.32908183,9.83948253 5.31691486,9.77131548 5.30488938,9.70314842 C5.40038587,9.62300938 5.49588236,9.54311465 5.59137885,9.46297561 C5.69677869,9.53407458 5.86018379,9.64768634 5.78633317,9.83630629 C5.69097816,10.080144 5.49404317,9.89445596 5.34153174,9.90789391" id="Fill-44" fill="#17281A"></path>
                    <path d="M4.69131912,8.47452439 C4.63411748,8.54348302 4.57691585,8.61223013 4.51988808,8.68140029 C4.35941055,8.604192 4.11078338,8.45294838 4.21684112,8.28562851 C4.38062209,8.02692788 4.55327019,8.31143512 4.69131912,8.47452439" id="Fill-45" fill="#1C5E31"></path>
                    <path d="M6.11060542,8.08166488 C6.04274636,8.14043107 5.97468228,8.19937163 5.90682322,8.2583122 C5.76023944,8.12613187 5.49105832,7.93274403 5.66982902,7.80910834 C5.91235855,7.64135441 6.0050241,7.93012832 6.11060542,8.08166488" id="Fill-46" fill="#1B5F32"></path>
                    <path d="M14.926509,7.67084999 C14.8415731,7.57851726 14.756396,7.48618454 14.6714602,7.39385181 C14.7158585,7.27099174 14.957636,7.11885543 15.0645297,7.18829264 C15.2778345,7.32716707 15.1407789,7.52034014 14.926509,7.67084999" id="Fill-47" fill="#DDC52C"></path>
                    <path d="M5.58059735,4.50890543 C5.54064159,3.88373987 5.3880531,3.28022706 5.20539823,2.68500679 C4.99712389,2.00613714 4.97462389,1.35359302 5.39767699,0.739352556 C5.67969027,0.329727284 5.84396018,0.324396364 6.12969027,0.728427461 C6.43393805,1.15858665 6.57391593,1.62514088 6.44747788,2.15369174 C6.25984513,2.93819259 6.0710177,3.72269343 5.97411504,4.52509564 C5.83845133,4.62664637 5.70670354,4.63480729 5.58059735,4.50890543" id="Fill-48" fill="#F8DD1E"></path>
                    <path d="M15.1912832,4.51976472 C14.8827876,4.59689852 14.7712832,4.45526716 14.7454646,4.16298795 C14.6868584,3.49899223 14.4488496,2.87224713 14.309469,2.22463905 C14.179115,1.61875694 14.3304425,1.07987331 14.7163938,0.603183744 C14.9155088,0.357303278 15.0331858,0.360462342 15.2407301,0.602459792 C15.6813717,1.11620254 15.7825885,1.70220888 15.6232301,2.34817161 C15.4698451,2.97037555 15.2686726,3.58402369 15.2584513,4.23360619 C15.2001106,4.3207437 15.2761726,4.43881371 15.1912832,4.51976472" id="Fill-49" fill="#F8DD1E"></path>
                    <path d="M24.8941593,1.80435194 C24.9063717,2.32823002 24.6825,2.78234544 24.6075664,3.26594546 C24.5510177,3.63081733 24.4821903,3.99391222 24.4279646,4.35911316 C24.4140929,4.45263461 24.4167478,4.54273374 24.2882522,4.52141006 C24.1852434,4.50436428 24.0219027,4.60025503 24.0039823,4.40123401 C23.9275885,3.55065608 23.5694469,2.7578627 23.486615,1.90945662 C23.4384292,1.41493151 23.6201549,0.987536506 23.9178982,0.604960717 C24.1109071,0.357105837 24.2313053,0.359080252 24.4420354,0.602459792 C24.7464159,0.953971453 24.9319248,1.35128954 24.8941593,1.80435194" id="Fill-50" fill="#F9DD1E"></path>
                    <path d="M23.6285841,4.58492041 C23.5658628,4.28467772 23.4985619,3.98509317 23.285177,3.74691292 C23.1748673,3.62384106 23.045708,3.46950763 22.868031,3.55059027 C22.6822566,3.63542429 22.7598451,3.83576159 22.7634292,3.99496524 C22.764823,4.05887047 22.8450664,4.10500596 22.7982743,4.1865493 C22.3634735,4.01990868 21.9954425,3.79350911 21.8919027,3.29121797 C21.826792,2.97498252 21.8871239,2.70014397 22.1477655,2.49842458 C22.3583628,2.33553535 22.7486283,2.37397063 23.0161062,2.57062235 C23.5324115,2.9501707 23.698208,3.51768335 23.8198009,4.0999383 C23.8480752,4.23525153 23.9656858,4.38267451 23.8348009,4.52878121 C23.7826991,4.60775781 23.7221681,4.65619678 23.6285841,4.58492041" id="Fill-51" fill="#F8DC1F"></path>
                    <path d="M7.14225664,4.17391304 C7.20384956,4.09111925 7.24984513,4.01247172 7.24612832,3.9076961 C7.24154867,3.77922751 7.28641593,3.62502571 7.14126106,3.55322282 C7.00307522,3.48490807 6.89077434,3.57941672 6.78935841,3.66885772 C6.59070796,3.84411995 6.4945354,4.07532393 6.43573009,4.32291555 C6.40440265,4.45480647 6.35867257,4.56379417 6.19964602,4.51877751 C6.02807522,4.47027272 6.13154867,4.34331784 6.14721239,4.25104685 C6.21484513,3.85135947 6.31884956,3.46088602 6.51756637,3.10371437 C6.66902655,2.83144256 6.86535398,2.59602649 7.16681416,2.4737444 C7.41411504,2.37350993 7.66838496,2.34580231 7.88661504,2.52527662 C8.09688053,2.69816955 8.16059735,2.9420756 8.12309735,3.20717371 C8.04338496,3.7706059 7.65205752,4.03149192 7.14225664,4.17391304" id="Fill-52" fill="#F8DC1F"></path>
                    <path d="M25.5743363,4.19826416 C25.6705088,3.95284439 25.8060398,3.67682119 25.5427434,3.56506931 C25.2712832,3.44969767 25.1210177,3.72822179 25.0038053,3.93619349 C24.9244912,4.07683765 24.8593142,4.23465921 24.8322345,4.39234914 C24.8014381,4.57129694 24.679646,4.53141376 24.5853982,4.51798774 C24.4086504,4.49271523 24.5127876,4.39287565 24.5367478,4.30238164 C24.6587389,3.83990786 24.747146,3.36729875 25.025177,2.95958208 C25.1448451,2.7840566 25.2827655,2.6313027 25.4707301,2.52955452 C25.7356195,2.386212 26.0163717,2.31776562 26.2778761,2.51066595 C26.5587611,2.71797952 26.6059513,3.02506684 26.5191372,3.33985439 C26.3919027,3.80068282 26.043385,4.03945539 25.5743363,4.19826416" id="Fill-53" fill="#F8DC1F"></path>
                    <path d="M14.4039159,4.58386739 C14.3731195,4.26216939 14.275354,3.96501995 14.0540708,3.72170622 C13.9511947,3.60857225 13.8232301,3.4712846 13.6588938,3.55105096 C13.4761726,3.63976801 13.5354425,3.83306322 13.5493805,3.99384641 C13.5545575,4.05432932 13.6382522,4.0984904 13.5900664,4.17213607 C12.9517035,3.94942207 12.6481195,3.58270742 12.6663053,3.05698655 C12.6836283,2.55410308 13.0684513,2.28393731 13.5511062,2.44261445 C13.7876549,2.52034059 13.9756195,2.67098844 14.1215044,2.87073341 C14.446792,3.31616141 14.5759513,3.83279997 14.6634956,4.36319362 C14.673385,4.4230842 14.6892478,4.49679569 14.6070133,4.53187446 C14.5551106,4.60992966 14.4949115,4.65593353 14.4039159,4.58386739" id="Fill-54" fill="#F8DC1F"></path>
                    <path d="M5.18256637,4.50877381 C5.15190265,4.21906133 5.04869469,3.95606927 4.85973451,3.73427666 C4.75393805,3.61015178 4.6129646,3.45785858 4.44119469,3.56098885 C4.26942478,3.66405331 4.28289823,3.8567562 4.36221239,4.03346633 C4.38192478,4.0775616 4.39353982,4.12521081 4.4135177,4.18503558 C3.77183628,3.96330879 3.45013274,3.5935667 3.45139381,3.09792275 C3.45272124,2.54765333 3.87670354,2.26603595 4.39579646,2.46736045 C4.74915929,2.60438485 4.9539823,2.88238246 5.11400442,3.20217186 C5.29154867,3.55710584 5.38181416,3.9390893 5.45422566,4.32587717 C5.45867257,4.5863025 5.42561947,4.60854757 5.18256637,4.50877381" id="Fill-55" fill="#F8DC1F"></path>
                    <path d="M15.3216372,4.45513554 C15.3888053,3.96548065 15.5072788,3.49037061 15.7529204,3.05599934 C15.8614381,2.86408622 16.0018142,2.69520793 16.1899779,2.56970096 C16.4921681,2.36804739 16.8649779,2.34422278 17.0852655,2.51672083 C17.3195575,2.70014397 17.4065044,3.08252232 17.284646,3.42047633 C17.1347788,3.83641973 16.8009956,4.04340422 16.3785398,4.19885648 C16.4421903,3.95784624 16.5956416,3.66504052 16.3372566,3.56395048 C16.0597566,3.45535766 15.9021239,3.74322735 15.7811947,3.96534902 C15.719469,4.07848299 15.6745354,4.20504298 15.6468584,4.33087903 C15.6075,4.50949776 15.5034956,4.5549093 15.339823,4.51943565 C15.3132743,4.51140636 15.301792,4.4992308 15.305177,4.48284316 C15.3090265,4.46434947 15.314469,4.45513554 15.3216372,4.45513554" id="Fill-56" fill="#F8DC1F"></path>
                    <path d="M6.71243363,5.50855168 C6.44495575,5.52026655 6.22891593,5.51579121 5.99163717,5.45300481 C6.06617257,5.82965736 6.06610619,6.17787833 5.81323009,6.49167866 C5.49192478,6.19327876 5.60409292,5.81030809 5.5720354,5.45241249 C5.33661504,5.52816421 5.11300885,5.51526469 4.82243363,5.50447123 C5.06787611,5.32848505 5.24548673,5.17875859 5.35254425,4.95630784 C5.44785398,4.75827403 5.64783186,4.88641356 5.79836283,4.85864012 C6.05734513,4.81079347 6.26595133,4.86989429 6.35893805,5.15012957 C6.40977876,5.30327835 6.56734513,5.36349801 6.71243363,5.50855168" id="Fill-57" fill="#F5DA21"></path>
                    <path d="M23.233208,5.50611657 C23.4811726,5.32927481 23.6417257,5.18757764 23.754823,4.98993871 C23.8689159,4.79065444 24.5846681,4.78532352 24.6763938,4.98579244 C24.7711062,5.19257949 24.9311283,5.33078853 25.1403319,5.51651516 C24.8771018,5.50993377 24.6660398,5.52842746 24.440708,5.45392621 C24.4022788,5.7313315 24.4980531,6.01966188 24.3627876,6.28383859 C24.3283407,6.35123195 24.3140708,6.44685945 24.2311062,6.45442804 C24.1184735,6.46469499 24.1024115,6.35267986 24.0714159,6.27534861 C23.9672788,6.01564724 23.989115,5.74429682 24.0277434,5.44286948 C23.7720796,5.52572909 23.5385841,5.51526469 23.233208,5.50611657" id="Fill-58" fill="#F6DB20"></path>
                    <path d="M14.0238053,5.50651146 C14.2811283,5.32170622 14.4475885,5.17704743 14.5579646,4.96098063 C14.6585177,4.7643289 15.3724779,4.81586113 15.4774115,5.01442146 C15.5759735,5.20100366 15.7101106,5.35191477 15.9546239,5.51105261 C15.6629867,5.51539632 15.4448894,5.52500514 15.1914823,5.44214553 C15.2443142,5.7018469 15.276969,5.93871087 15.1948673,6.16892765 C15.1559071,6.27824442 15.1407743,6.4552178 15.023031,6.45561269 C14.8744248,6.45607338 14.8366593,6.27028094 14.8230531,6.15148698 C14.7972345,5.92594299 14.8156195,5.69546296 14.8156195,5.4482004 C14.5590265,5.5248077 14.3341593,5.51421167 14.0238053,5.50651146" id="Fill-59" fill="#F6DB20"></path>
                    <path d="M23.6285841,4.70038497 C23.6972788,4.64325078 23.7660398,4.5859154 23.8348009,4.52878121 C24.0788496,4.90799937 24.3406195,4.60422249 24.5912389,4.71205322 C24.7106416,4.76335329 24.8511504,4.51650943 24.9468584,4.92670881 C24.462146,5.06451487 23.9775,5.05988781 23.4927212,4.93032999 C23.5077876,4.68952143 23.5738938,4.72613559 23.6285841,4.70038497" id="Fill-60" fill="#5E684F"></path>
                    <path d="M6.52201327,4.80471576 C6.53840708,5.07636907 6.47429204,5.08475077 6.42418142,5.08539552 C5.99814159,5.09033858 5.5720354,5.08518061 5.14599558,5.08088229 C5.09867257,5.08045246 5.06396018,5.01361371 5.05460177,4.84920328 C5.24024336,4.40497275 5.45349558,4.66673995 5.65207965,4.63966058 C5.94172566,4.60011611 6.23389381,4.64610805 6.52201327,4.80471576" id="Fill-61" fill="#F2D824"></path>
                    <path d="M14.4039159,4.69415659 C14.4716814,4.6399722 14.5393805,4.58599304 14.6070796,4.53180865 C14.865531,4.90063198 15.1394469,4.59687097 15.4033407,4.7091394 C15.5131858,4.75572977 15.6461947,4.51600486 15.7294248,4.93531821 C15.2454425,5.06256944 14.7615265,5.06646908 14.277677,4.93203431 C14.2845133,4.67383744 14.3531416,4.72945855 14.4039159,4.69415659" id="Fill-62" fill="#5E684F"></path>
                    <path d="M23.4927212,4.66372918 C23.9774336,4.66240467 24.462146,4.66081527 24.9468584,4.65896096 C24.9190487,5.21180865 24.8072788,4.97074904 24.7340708,4.97684176 C24.3929867,5.00492123 24.0515708,5.00306692 23.710354,4.97869606 C23.6346903,4.97339805 23.5263053,5.18743779 23.4927212,4.66372918" id="Fill-63" fill="#F9DD1E"></path>
                    <path d="M14.277677,4.66014561 C14.7615265,4.66147012 15.2454425,4.66279462 15.7294248,4.66411912 C15.439646,5.36451647 15.1227876,4.90782773 14.8202655,4.94729793 C14.6440487,4.97034429 14.4353761,5.38676813 14.277677,4.66014561" id="Fill-64" fill="#F9DD1E"></path>
                    <path d="M6.52201327,4.96118188 C6.03292035,4.97946003 5.54376106,4.99747327 5.05460177,5.01575142 C5.05858407,4.69840043 5.1264823,4.72462559 5.17652655,4.65442692 C5.28756637,4.53124811 5.39853982,4.50581765 5.50951327,4.65522162 C5.53121681,4.6856852 5.55298673,4.68542029 5.57462389,4.65469182 C5.70783186,4.51800308 5.84103982,4.52303619 5.97438053,4.65151301 C6.15345133,4.85177791 6.3555531,4.40383089 6.52201327,4.96118188" id="Fill-65" fill="#5E6750"></path>
                    <path d="M5.67422541,4.82587717 C5.50835886,4.82574663 5.3424923,4.82561608 5.17652655,4.82548553 C5.17950262,4.77992417 5.1825779,4.73423227 5.18555397,4.68867091 C5.40786674,4.73619049 5.64575429,4.81399728 5.59158974,4.32587717 C5.71142634,4.46608605 5.66698363,4.65342287 5.67422541,4.82587717" id="Fill-66" fill="#293167"></path>
                    <path d="M6.07459395,4.78307762 C5.9079096,4.78413722 5.74130825,4.78519682 5.57462389,4.78625643 C5.5771142,4.6938061 5.5796045,4.60135576 5.58209481,4.50890543 C5.74612284,4.53062729 5.91015087,4.55234914 6.07426191,4.574071 C6.07459395,4.64373987 6.07467696,4.71340875 6.07459395,4.78307762" id="Fill-67" fill="#293167"></path>
                    <path d="M15.6300678,4.62084944 C15.6503985,4.65836382 15.6707291,4.69587821 15.6912832,4.73327751 C15.5246165,4.73350766 15.3579499,4.73362274 15.1912832,4.73373781 C15.2665736,4.56722458 15.3418641,4.40059627 15.4173779,4.23373781 C15.4861894,4.36296681 15.3970473,4.51532585 15.6300678,4.62084944" id="Fill-68" fill="#2D3565"></path>
                    <path d="M10.546792,12.4261693 C10.1721903,12.5035625 9.80920354,12.5682553 9.41933628,12.4415686 C9.12225664,12.3451247 8.78814159,12.3567138 8.47586283,12.531821 C8.55418142,12.3072615 8.55404867,12.3065471 8.72688053,12.2618575 C9.02615044,12.184623 9.3255531,12.1084204 9.62495575,12.031821 C9.9189823,12.18883 10.2161947,12.3324243 10.5438053,12.3521099 C10.551969,12.3525862 10.5671018,12.3685411 10.5661062,12.3739388 C10.5627876,12.392275 10.5536947,12.4089443 10.546792,12.4261693" id="Fill-69" fill="#0F150D"></path>
                    <path d="M9.42232301,11.9030004 C9.16042035,11.9775792 8.89845133,12.052158 8.6364823,12.1267369 C8.7255531,11.8423238 8.86845133,11.6424197 9.16413717,11.6267369 C9.25022124,11.7188475 9.33630531,11.8109582 9.42232301,11.9030004" id="Fill-70" fill="#11170E"></path>
                    <path d="M9.90650442,11.2944283 C10.1311726,11.400135 10.3575664,11.500089 10.5611283,11.6725815 C10.5061062,11.7088957 10.4510841,11.7452099 10.3957965,11.7817039 C10.1828097,11.7143788 9.98688053,11.6005823 9.82214602,11.4005844 C9.8125885,11.3104281 9.82725664,11.2554175 9.90650442,11.2944283" id="Fill-71" fill="#12180F"></path>
                    <path d="M9.93988938,13.2573403 C9.69073009,13.3315125 9.6199115,13.6016783 9.40646018,13.7552877 C9.37977876,13.5092756 9.56581858,13.3839003 9.63192478,13.2092962 C9.73619469,13.2152853 9.84378319,13.2002139 9.93988938,13.2573403" id="Fill-72" fill="#1B753C"></path>
                    <path d="M10.5038496,11.4741269 C10.3121681,11.4515807 10.1597788,11.2947745 9.98196903,11.2245084 C9.93106195,11.2044202 9.85035398,11.1675496 9.86814159,11.1095736 C9.88699115,11.0482921 9.96763274,11.0180327 10.0213274,10.9741269 C10.1696018,11.160684 10.4067478,11.2071325 10.5038496,11.4741269" id="Fill-73" fill="#151B11"></path>
                    <path d="M9.74873894,10.3994522 C10.025177,10.3275166 10.1413938,10.7416977 10.3447566,10.8911347 C10.0932743,10.8874592 9.90059735,10.7053623 9.74873894,10.3994522" id="Fill-74" fill="#222F1C"></path>
                    <path d="M9.61871681,13.1701103 C9.76271681,12.852291 9.89686316,12.4392883 10.1187168,12.8792209 C9.94457047,12.9029006 9.80583877,13.2715618 9.61871681,13.1701103" id="Fill-75" fill="#20311E"></path>
                    <path d="M7.60221239,10.7471265 C7.32995575,10.7178338 7.16595133,10.6183051 7.0129646,10.4856556 C6.97128319,10.449539 6.9084292,10.415919 6.93225664,10.3304541 C6.95435841,10.2509809 7.01926991,10.2606342 7.07183628,10.2516467 C7.34183628,10.2062929 7.39984513,10.5116196 7.60221239,10.7471265" id="Fill-76" fill="#0E170F"></path>
                    <path d="M9.69086283,11.0748273 C9.45404867,11.0758922 9.29303097,10.8584972 9.09146018,10.7580728 C9.06059735,10.7210485 9.00358407,10.6836965 9.00371681,10.646918 C9.00431416,10.529292 9.07692478,10.5870401 9.11634956,10.6039141 C9.35163717,10.7036012 9.58513274,10.8097594 9.81922566,10.9138698 C9.77641593,10.9675223 9.73367257,11.0210929 9.69086283,11.0748273" id="Fill-77" fill="#101910"></path>
                    <path d="M6.24969027,10.4457492 C6.47435151,10.3614774 6.6433217,10.2535447 6.74969027,10.7737611 C6.55964962,11.0029156 6.4229965,10.8214071 6.24969027,10.4457492" id="Fill-78" fill="#101810"></path>
                    <path d="M6.54649307,10.2711479 C6.3930722,10.4630699 6.29081953,10.7193973 6.10817164,10.6043412 C6.05206248,10.568902 6.02459412,10.3844239 6.06747157,10.3502793 C6.20380846,10.2416961 6.34048033,9.96837726 6.54649307,10.2711479" id="Fill-79" fill="#121E13"></path>
                    <path d="M8.03070796,11.1115416 C8.26619465,10.9144319 8.38411987,11.1761936 8.53070796,11.4715955 C8.31937376,11.6758888 8.20166679,11.4064178 8.03070796,11.1115416" id="Fill-80" fill="#111B11"></path>
                    <path d="M7.56924779,11.3436261 C7.32230114,11.2359046 7.17027629,11.1828272 7.06924779,10.8843407 C7.29155334,10.7772067 7.43307894,10.8653425 7.56924779,11.3436261" id="Fill-81" fill="#172819"></path>
                    <path d="M10.1100885,11.4743985 C10.0626187,11.5414517 10.0152609,11.6083347 9.96779114,11.6753879 C9.83355468,11.5528541 9.69304864,11.4408719 9.6100885,11.1958043 C9.83277099,11.10952 9.96588787,11.3147642 10.1100885,11.4743985" id="Fill-82" fill="#142116"></path>
                    <path d="M8.49221239,11.0957547 C8.18920762,11.1367356 8.08488299,10.924665 7.99221239,10.6245861 C8.23034774,10.539937 8.37286389,10.6778837 8.49221239,11.0957547" id="Fill-83" fill="#192C1B"></path>
                    <path d="M7.09196903,10.2883972 C6.93735781,10.5485297 6.79243402,10.4812449 6.59196903,10.3254833 C6.81245469,9.80919192 6.94446192,10.3090595 7.09196903,10.2883972" id="Fill-84" fill="#111A11"></path>
                    <path d="M9.08263274,10.5423254 C9.33878934,10.2999413 9.47402403,10.3182195 9.58263274,10.727491 C9.40193394,10.9672261 9.30700656,10.5862989 9.08263274,10.5423254" id="Fill-85" fill="#141F15"></path>
                    <path d="M20.145354,15.2037652 C20.1174782,15.274642 20.0897704,15.3452817 20.0619787,15.4161585 C19.9116848,15.3341405 19.7592079,15.2675306 19.645354,14.9342438 C19.8240274,14.8465367 19.9796109,15.1008872 20.145354,15.2037652" id="Fill-86" fill="#101410"></path>
                    <path d="M10.4439823,10.5249697 C10.7071961,10.3549035 10.838862,10.4513273 10.9439823,10.825632 C10.7528544,11.0314598 10.636408,10.7085459 10.4439823,10.5249697" id="Fill-87" fill="#131C13"></path>
                </g>
            </g>
        </g>
    </g>
</svg>