<?xml version="1.0" encoding="UTF-8" standalone="no"?>
<svg width="36px" height="28px" viewBox="0 0 36 28" version="1.1" xmlns="http://www.w3.org/2000/svg" xmlns:xlink="http://www.w3.org/1999/xlink">
    <!-- Generator: Sketch 40.1 (33804) - http://www.bohemiancoding.com/sketch -->
    <title>HN Copy@1x</title>
    <desc>Created with Sketch.</desc>
    <defs>
        <filter x="-50%" y="-50%" width="200%" height="200%" filterUnits="objectBoundingBox" id="filter-1">
            <feOffset dx="0" dy="2" in="SourceAlpha" result="shadowOffsetOuter1"></feOffset>
            <feGaussianBlur stdDeviation="2" in="shadowOffsetOuter1" result="shadowBlurOuter1"></feGaussianBlur>
            <feColorMatrix values="0 0 0 0 0   0 0 0 0 0   0 0 0 0 0  0 0 0 0.5 0" type="matrix" in="shadowBlurOuter1" result="shadowMatrixOuter1"></feColorMatrix>
            <feMerge>
                <feMergeNode in="shadowMatrixOuter1"></feMergeNode>
                <feMergeNode in="SourceGraphic"></feMergeNode>
            </feMerge>
        </filter>
        <rect id="path-2" x="0" y="0" width="28" height="20" rx="2"></rect>
        <mask id="mask-3" maskContentUnits="userSpaceOnUse" maskUnits="objectBoundingBox" x="0" y="0" width="28" height="20" fill="white">
            <use xlink:href="#path-2"></use>
        </mask>
        <mask id="mask-5" maskContentUnits="userSpaceOnUse" maskUnits="objectBoundingBox" x="0" y="0" width="28" height="20" fill="white">
            <use xlink:href="#path-2"></use>
        </mask>
    </defs>
    <g id="Page-1" stroke="none" stroke-width="1" fill="none" fill-rule="evenodd">
        <g id="HN-Copy" filter="url(#filter-1)" transform="translate(4.000000, 2.000000)">
            <mask id="mask-4" fill="white">
                <use xlink:href="#path-2"></use>
            </mask>
            <g id="Mask" stroke="#F5F5F5" mask="url(#mask-3)" fill="#FFFFFF">
                <use mask="url(#mask-5)" xlink:href="#path-2"></use>
            </g>
            <rect id="Rectangle-2" fill="#0884E6" mask="url(#mask-4)" x="0" y="0" width="28" height="6.66666667"></rect>
            <rect id="Rectangle-2" fill="#0884E6" mask="url(#mask-4)" x="0" y="13.3333333" width="28" height="6.66666667"></rect>
            <polygon id="Star-20" fill="#0E88E9" mask="url(#mask-4)" points="14 10.6666667 13.057191 10.942809 13.3333333 10 13.057191 9.05719096 14 9.33333333 14.942809 9.05719096 14.6666667 10 14.942809 10.942809"></polygon>
            <polygon id="Star-20-Copy" fill="#0E88E9" mask="url(#mask-4)" points="19.3333333 9.33333333 18.3905243 9.60947571 18.6666667 8.66666667 18.3905243 7.72385763 19.3333333 8 20.2761424 7.72385763 20 8.66666667 20.2761424 9.60947571"></polygon>
            <polygon id="Star-20-Copy-2" fill="#0E88E9" mask="url(#mask-4)" points="19.3333333 12 18.3905243 12.2761424 18.6666667 11.3333333 18.3905243 10.3905243 19.3333333 10.6666667 20.2761424 10.3905243 20 11.3333333 20.2761424 12.2761424"></polygon>
            <polygon id="Star-20-Copy-3" fill="#0E88E9" mask="url(#mask-4)" points="8.66666667 12 7.72385763 12.2761424 8 11.3333333 7.72385763 10.3905243 8.66666667 10.6666667 9.60947571 10.3905243 9.33333333 11.3333333 9.60947571 12.2761424"></polygon>
            <polygon id="Star-20-Copy-4" fill="#0E88E9" mask="url(#mask-4)" points="8.66666667 9.33333333 7.72385763 9.60947571 8 8.66666667 7.72385763 7.72385763 8.66666667 8 9.60947571 7.72385763 9.33333333 8.66666667 9.60947571 9.60947571"></polygon>
        </g>
    </g>
</svg>