<?xml version="1.0" encoding="UTF-8" standalone="no"?>
<svg width="36px" height="28px" viewBox="0 0 36 28" version="1.1" xmlns="http://www.w3.org/2000/svg" xmlns:xlink="http://www.w3.org/1999/xlink">
    <!-- Generator: Sketch 40.1 (33804) - http://www.bohemiancoding.com/sketch -->
    <title>JM Copy@1x</title>
    <desc>Created with Sketch.</desc>
    <defs>
        <filter x="-50%" y="-50%" width="200%" height="200%" filterUnits="objectBoundingBox" id="filter-1">
            <feOffset dx="0" dy="2" in="SourceAlpha" result="shadowOffsetOuter1"></feOffset>
            <feGaussianBlur stdDeviation="2" in="shadowOffsetOuter1" result="shadowBlurOuter1"></feGaussianBlur>
            <feColorMatrix values="0 0 0 0 0   0 0 0 0 0   0 0 0 0 0  0 0 0 0.5 0" type="matrix" in="shadowBlurOuter1" result="shadowMatrixOuter1"></feColorMatrix>
            <feMerge>
                <feMergeNode in="shadowMatrixOuter1"></feMergeNode>
                <feMergeNode in="SourceGraphic"></feMergeNode>
            </feMerge>
        </filter>
        <rect id="path-2" x="0" y="0" width="28" height="20" rx="2"></rect>
    </defs>
    <g id="Page-1" stroke="none" stroke-width="1" fill="none" fill-rule="evenodd">
        <g id="JM-Copy" filter="url(#filter-1)" transform="translate(4.000000, 2.000000)">
            <mask id="mask-3" fill="white">
                <use xlink:href="#path-2"></use>
            </mask>
            <use id="Mask" fill="#FFFFFF" xlink:href="#path-2"></use>
            <rect id="Mask-Copy" fill="#1DBE4F" mask="url(#mask-3)" x="0" y="0" width="28" height="20"></rect>
            <polygon id="Rectangle-253" fill="#262626" mask="url(#mask-3)" points="0 0 12 10 0 20"></polygon>
            <polygon id="Rectangle-253" fill="#262626" mask="url(#mask-3)" transform="translate(22.000000, 10.000000) scale(-1, 1) translate(-22.000000, -10.000000) " points="16 0 28 10 16 20"></polygon>
            <path d="M14,8.3917094 L-1.2824692,-1.91644623 L-2.77365027,0.29432063 L11.6156111,10 L-2.77365027,19.7056794 L-1.2824692,21.9164462 L14,11.6082906 L29.2824692,21.9164462 L30.7736503,19.7056794 L16.3843889,10 L30.7736503,0.29432063 L29.2824692,-1.91644623 L14,8.3917094 Z" id="Rectangle-2" fill="#FFD646" mask="url(#mask-3)"></path>
        </g>
    </g>
</svg>