<?xml version="1.0" encoding="UTF-8" standalone="no"?>
<svg width="36px" height="28px" viewBox="0 0 36 28" version="1.1" xmlns="http://www.w3.org/2000/svg" xmlns:xlink="http://www.w3.org/1999/xlink">
    <!-- Generator: Sketch 40.1 (33804) - http://www.bohemiancoding.com/sketch -->
    <title>PA Copy@1x</title>
    <desc>Created with Sketch.</desc>
    <defs>
        <filter x="-50%" y="-50%" width="200%" height="200%" filterUnits="objectBoundingBox" id="filter-1">
            <feOffset dx="0" dy="2" in="SourceAlpha" result="shadowOffsetOuter1"></feOffset>
            <feGaussianBlur stdDeviation="2" in="shadowOffsetOuter1" result="shadowBlurOuter1"></feGaussianBlur>
            <feColorMatrix values="0 0 0 0 0   0 0 0 0 0   0 0 0 0 0  0 0 0 0.5 0" type="matrix" in="shadowBlurOuter1" result="shadowMatrixOuter1"></feColorMatrix>
            <feMerge>
                <feMergeNode in="shadowMatrixOuter1"></feMergeNode>
                <feMergeNode in="SourceGraphic"></feMergeNode>
            </feMerge>
        </filter>
        <rect id="path-2" x="0" y="0" width="28" height="20" rx="2"></rect>
        <mask id="mask-3" maskContentUnits="userSpaceOnUse" maskUnits="objectBoundingBox" x="0" y="0" width="28" height="20" fill="white">
            <use xlink:href="#path-2"></use>
        </mask>
        <mask id="mask-5" maskContentUnits="userSpaceOnUse" maskUnits="objectBoundingBox" x="0" y="0" width="28" height="20" fill="white">
            <use xlink:href="#path-2"></use>
        </mask>
    </defs>
    <g id="Page-1" stroke="none" stroke-width="1" fill="none" fill-rule="evenodd">
        <g id="PA-Copy" filter="url(#filter-1)" transform="translate(4.000000, 2.000000)">
            <mask id="mask-4" fill="white">
                <use xlink:href="#path-2"></use>
            </mask>
            <g id="Mask" stroke="#F5F5F5" mask="url(#mask-3)" fill="#FFFFFF">
                <use mask="url(#mask-5)" xlink:href="#path-2"></use>
            </g>
            <path d="M0,9.33333333 L28,9.33333333 L28,0 L0,0 L0,9.33333333 Z M0,9.33333333 L13.3333333,9.33333333 L13.3333333,0 L0,0 L0,9.33333333 Z" id="Combined-Shape" fill="#E52448" mask="url(#mask-4)"></path>
            <path d="M0,20 L28,20 L28,9.33333333 L0,9.33333333 L0,20 Z M13.3333333,20 L28,20 L28,9.33333333 L13.3333333,9.33333333 L13.3333333,20 Z" id="Combined-Shape" fill="#1367AE" mask="url(#mask-4)"></path>
            <polygon id="Star-33" fill="#1367AE" mask="url(#mask-4)" points="6.66666667 5.75999999 5.09923933 6.82404532 5.62684488 5.00452524 4.13051596 3.84262135 6.02402146 3.78214143 6.66666667 2 7.30931187 3.78214143 9.20281738 3.84262135 7.70648845 5.00452524 8.23409401 6.82404532"></polygon>
            <polygon id="Star-33" fill="#E52448" mask="url(#mask-4)" points="20.6666667 15.76 19.0992393 16.8240453 19.6268449 15.0045252 18.130516 13.8426213 20.0240215 13.7821414 20.6666667 12 21.3093119 13.7821414 23.2028174 13.8426213 21.7064884 15.0045252 22.234094 16.8240453"></polygon>
        </g>
    </g>
</svg>