<?xml version="1.0" encoding="UTF-8" standalone="no"?>
<svg width="36px" height="28px" viewBox="0 0 36 28" version="1.1" xmlns="http://www.w3.org/2000/svg" xmlns:xlink="http://www.w3.org/1999/xlink">
    <!-- Generator: Sketch 40.1 (33804) - http://www.bohemiancoding.com/sketch -->
    <title>TC Copy@1x</title>
    <desc>Created with Sketch.</desc>
    <defs>
        <filter x="-50%" y="-50%" width="200%" height="200%" filterUnits="objectBoundingBox" id="filter-1">
            <feOffset dx="0" dy="2" in="SourceAlpha" result="shadowOffsetOuter1"></feOffset>
            <feGaussianBlur stdDeviation="2" in="shadowOffsetOuter1" result="shadowBlurOuter1"></feGaussianBlur>
            <feColorMatrix values="0 0 0 0 0   0 0 0 0 0   0 0 0 0 0  0 0 0 0.5 0" type="matrix" in="shadowBlurOuter1" result="shadowMatrixOuter1"></feColorMatrix>
            <feMerge>
                <feMergeNode in="shadowMatrixOuter1"></feMergeNode>
                <feMergeNode in="SourceGraphic"></feMergeNode>
            </feMerge>
        </filter>
        <rect id="path-2" x="0" y="0" width="28" height="20" rx="2"></rect>
        <path d="M0,4.66666667 L3.43775544e-17,1.33245595 C1.53913554e-17,0.59656085 0.591622194,0 1.33307666,0 L5.33359001,0 C6.06982792,0 6.66666667,0.587946256 6.66666667,1.33245595 L6.66666667,4.66666667 C6.66666667,8 3.33333333,9.33333333 3.33333333,9.33333333 C3.33333333,9.33333333 0,8 0,4.66666667 Z" id="path-4"></path>
        <mask id="mask-5" maskContentUnits="userSpaceOnUse" maskUnits="objectBoundingBox" x="0" y="0" width="6.66666667" height="9.33333333" fill="white">
            <use xlink:href="#path-4"></use>
        </mask>
        <mask id="mask-7" maskContentUnits="userSpaceOnUse" maskUnits="objectBoundingBox" x="0" y="0" width="6.66666667" height="9.33333333" fill="white">
            <use xlink:href="#path-4"></use>
        </mask>
        <path d="M4.66666667,4 L0,0 L0.666666667,0 L5.33333333,3.33333333 L6.66666667,3.33333333 L12,0 L12,0.333333333 C12,0.51742825 11.8846436,0.749064128 11.7220542,0.865199407 L7.33333333,4 L7.33333333,5.33333333 L11.7490997,9.11827596 C11.8876681,9.23704887 11.8453776,9.33333333 11.6666667,9.33333333 L11.6666667,9.33333333 C11.4825718,9.33333333 11.2179769,9.25093587 11.0553875,9.13480059 L6.66666667,6 L5.33333333,6 L0,9.33333333 L0,8.66666667 L4.66666667,5.33333333 L4.66666667,4 Z" id="path-8"></path>
        <mask id="mask-9" maskContentUnits="userSpaceOnUse" maskUnits="objectBoundingBox" x="-0.666666667" y="-0.666666667" width="13.3333333" height="10.6666667">
            <rect x="-0.666666667" y="-0.666666667" width="13.3333333" height="10.6666667" fill="white"></rect>
            <use xlink:href="#path-8" fill="black"></use>
        </mask>
    </defs>
    <g id="Page-1" stroke="none" stroke-width="1" fill="none" fill-rule="evenodd">
        <g id="TC-Copy" filter="url(#filter-1)" transform="translate(4.000000, 2.000000)">
            <mask id="mask-3" fill="white">
                <use xlink:href="#path-2"></use>
            </mask>
            <use id="Mask" fill="#FFFFFF" xlink:href="#path-2"></use>
            <rect id="Mask-Copy" fill="#07319C" mask="url(#mask-3)" x="0" y="0" width="28" height="20"></rect>
            <g id="Rectangle-1105" mask="url(#mask-3)">
                <g transform="translate(17.333333, 5.333333)">
                    <mask id="mask-6" fill="white">
                        <use xlink:href="#path-4"></use>
                    </mask>
                    <g id="Mask" stroke="#FFFFFF" mask="url(#mask-5)" stroke-width="1.33333333" fill="#FFD033" fill-rule="evenodd">
                        <use mask="url(#mask-7)" xlink:href="#path-4"></use>
                    </g>
                    <ellipse id="Oval-193" stroke="none" fill="#BA5B1F" fill-rule="evenodd" mask="url(#mask-6)" cx="4.66666667" cy="2.66666667" rx="0.666666667" ry="1.33333333"></ellipse>
                    <ellipse id="Oval-193" stroke="none" fill="#FF9F3E" fill-rule="evenodd" mask="url(#mask-6)" transform="translate(1.749155, 2.706872) rotate(-20.000000) translate(-1.749155, -2.706872) " cx="1.74915527" cy="2.70687159" rx="0.666666667" ry="1.33333333"></ellipse>
                    <ellipse id="Oval-193" stroke="none" fill="#FF937F" fill-rule="evenodd" mask="url(#mask-6)" transform="translate(2.281746, 2.729128) rotate(25.000000) translate(-2.281746, -2.729128) " cx="2.28174551" cy="2.72912814" rx="0.666666667" ry="1.33333333"></ellipse>
                    <polygon id="Rectangle-1188" stroke="none" fill="#01A827" fill-rule="evenodd" mask="url(#mask-6)" points="2.66666667 5.33333333 3.33333333 4 4 5.33333333 4 6.66666667 2.66666667 6.66666667"></polygon>
                </g>
            </g>
            <g id="Rectangle-36" mask="url(#mask-3)">
                <use fill="#DB1E36" fill-rule="evenodd" xlink:href="#path-8"></use>
                <use stroke="#FFFFFF" mask="url(#mask-9)" stroke-width="1.33333333" xlink:href="#path-8"></use>
            </g>
            <path d="M0,3.33333333 L0,6 L4.66666667,6 L4.66666667,9.33948135 C4.66666667,9.70427573 4.97256724,10 5.33957926,10 L6.66042074,10 C7.0320601,10 7.33333333,9.69934988 7.33333333,9.33948135 L7.33333333,6 L11.9911963,6 C12.3642483,6 12.6666667,5.69409943 12.6666667,5.3270874 L12.6666667,4.00624593 C12.6666667,3.63460657 12.3646425,3.33333333 11.9911963,3.33333333 L7.33333333,3.33333333 L7.33333333,0 L4.66666667,0 L4.66666667,3.33333333 L0,3.33333333 Z" id="Rectangle-2" fill="#FFFFFF" mask="url(#mask-3)"></path>
            <polygon id="Rectangle-36" fill="#DB1E36" mask="url(#mask-3)" points="0 4 5.33333333 4 5.33333333 3.33333333 5.33333333 0 6.66666667 0 6.66666667 3.33333333 6.66666667 4 12 4 12 5.33333333 6.66666667 5.33333333 6.66666667 6 6.66666667 9.33333333 5.33333333 9.33333333 5.33333333 6 5.33333333 5.33333333 0 5.33333333"></polygon>
        </g>
    </g>
</svg>