<?xml version="1.0" encoding="UTF-8" standalone="no"?>
<svg width="51px" height="36px" viewBox="0 0 51 36" version="1.1" xmlns="http://www.w3.org/2000/svg" xmlns:xlink="http://www.w3.org/1999/xlink">
    <!-- Generator: Sketch 40.1 (33804) - http://www.bohemiancoding.com/sketch -->
    <title>EU Copy 2</title>
    <desc>Created with Sketch.</desc>
    <defs>
        <rect id="path-1" x="0" y="0" width="50.4" height="36" rx="2"></rect>
    </defs>
    <g id="Page-1" stroke="none" stroke-width="1" fill="none" fill-rule="evenodd">
        <g id="EU-Copy-2">
            <mask id="mask-2" fill="white">
                <use xlink:href="#path-1"></use>
            </mask>
            <use id="Mask" fill="#FFFFFF" xlink:href="#path-1"></use>
            <rect id="Mask-Copy" fill="#043CAE" mask="url(#mask-2)" x="0" y="0" width="50.4" height="36"></rect>
            <path d="M25.2,7.2 L23.5029437,7.69705627 L24,6 L23.5029437,4.30294373 L25.2,4.8 L26.8970563,4.30294373 L26.4,6 L26.8970563,7.69705627 L25.2,7.2 Z M25.2,31.2 L23.5029437,31.6970563 L24,30 L23.5029437,28.3029437 L25.2,28.8 L26.8970563,28.3029437 L26.4,30 L26.8970563,31.6970563 L25.2,31.2 Z M37.2,19.2 L35.5029437,19.6970563 L36,18 L35.5029437,16.3029437 L37.2,16.8 L38.8970563,16.3029437 L38.4,18 L38.8970563,19.6970563 L37.2,19.2 Z M13.2,19.2 L11.5029437,19.6970563 L12,18 L11.5029437,16.3029437 L13.2,16.8 L14.8970563,16.3029437 L14.4,18 L14.8970563,19.6970563 L13.2,19.2 Z M35.5923048,13.2 L33.8952486,13.6970563 L34.3923048,12 L33.8952486,10.3029437 L35.5923048,10.8 L37.2893611,10.3029437 L36.7923048,12 L37.2893611,13.6970563 L35.5923048,13.2 Z M14.8076952,25.2 L13.1106389,25.6970563 L13.6076952,24 L13.1106389,22.3029437 L14.8076952,22.8 L16.5047514,22.3029437 L16.0076952,24 L16.5047514,25.6970563 L14.8076952,25.2 Z M31.2,8.80769515 L29.5029437,9.30475143 L30,7.60769515 L29.5029437,5.91063888 L31.2,6.40769515 L32.8970563,5.91063888 L32.4,7.60769515 L32.8970563,9.30475143 L31.2,8.80769515 Z M19.2,29.5923048 L17.5029437,30.0893611 L18,28.3923048 L17.5029437,26.6952486 L19.2,27.1923048 L20.8970563,26.6952486 L20.4,28.3923048 L20.8970563,30.0893611 L19.2,29.5923048 Z M35.5923048,25.2 L33.8952486,25.6970563 L34.3923048,24 L33.8952486,22.3029437 L35.5923048,22.8 L37.2893611,22.3029437 L36.7923048,24 L37.2893611,25.6970563 L35.5923048,25.2 Z M14.8076952,13.2 L13.1106389,13.6970563 L13.6076952,12 L13.1106389,10.3029437 L14.8076952,10.8 L16.5047514,10.3029437 L16.0076952,12 L16.5047514,13.6970563 L14.8076952,13.2 Z M31.2,29.5923048 L29.5029437,30.0893611 L30,28.3923048 L29.5029437,26.6952486 L31.2,27.1923048 L32.8970563,26.6952486 L32.4,28.3923048 L32.8970563,30.0893611 L31.2,29.5923048 Z M19.2,8.80769515 L17.5029437,9.30475143 L18,7.60769515 L17.5029437,5.91063888 L19.2,6.40769515 L20.8970563,5.91063888 L20.4,7.60769515 L20.8970563,9.30475143 L19.2,8.80769515 Z" id="Star-2" fill="#FFD429" mask="url(#mask-2)"></path>
        </g>
    </g>
</svg>