<?xml version="1.0" encoding="UTF-8" standalone="no"?>
<svg width="29px" height="20px" viewBox="0 0 29 20" version="1.1" xmlns="http://www.w3.org/2000/svg" xmlns:xlink="http://www.w3.org/1999/xlink">
    <!-- Generator: Sketch 40.1 (33804) - http://www.bohemiancoding.com/sketch -->
    <title>GI Copy</title>
    <desc>Created with Sketch.</desc>
    <defs>
        <rect id="path-1" x="0" y="0" width="28" height="20" rx="2"></rect>
        <mask id="mask-2" maskContentUnits="userSpaceOnUse" maskUnits="objectBoundingBox" x="0" y="0" width="28" height="20" fill="white">
            <use xlink:href="#path-1"></use>
        </mask>
        <mask id="mask-4" maskContentUnits="userSpaceOnUse" maskUnits="objectBoundingBox" x="0" y="0" width="28" height="20" fill="white">
            <use xlink:href="#path-1"></use>
        </mask>
    </defs>
    <g id="Page-1" stroke="none" stroke-width="1" fill="none" fill-rule="evenodd">
        <g id="GI-Copy" transform="translate(0.312500, 0.000000)">
            <mask id="mask-3" fill="white">
                <use xlink:href="#path-1"></use>
            </mask>
            <g id="Mask" stroke="#F5F5F5" mask="url(#mask-2)" fill="#FFFFFF">
                <use mask="url(#mask-4)" xlink:href="#path-1"></use>
            </g>
            <rect id="Rectangle-2" fill="#F14247" mask="url(#mask-3)" x="0" y="13.6662816" width="28" height="6.00038506"></rect>
            <polygon id="Fill-5" fill="#F14247" mask="url(#mask-3)" points="18.7000332 7.81491279 18.7000332 6.20978164 19.235137 6.20978164 19.235137 5.13975429 18.1651096 5.13975429 18.1651096 5.67485809 17.0951424 5.67485809 17.0951424 5.13975429 16.025115 5.13975429 16.025115 6.20978164 16.5599785 6.20978164 16.5599785 7.81491279 15.4900112 7.81491279 15.4900112 4.06996727 16.025115 4.06996727 16.025115 3 14.9550877 3 14.9550877 3.53486347 14.4199839 3.53486347 14.4199839 3 13.3500166 3 13.3500166 3.53486347 12.815093 3.53486347 12.815093 3 11.7451258 3 11.7451258 4.06996727 12.2799892 4.06996727 12.2799892 7.81491279 11.2099619 7.81491279 11.2099619 6.20978164 11.7451258 6.20978164 11.7451258 5.13975429 10.6750984 5.13975429 10.6750984 5.67485809 9.60507107 5.67485809 9.60507107 5.13975429 8.5351038 5.13975429 8.5351038 6.20978164 9.06996727 6.20978164 9.06996727 7.81491279 8 7.81491279 8 12.094902 19.7700005 12.094902 19.7700005 7.81491279"></polygon>
            <path d="M13.7143338,11 C13.0041875,11 12.4284752,11.5757124 12.4284752,12.2858587 C12.4284752,12.8455429 12.7864363,13.3216211 13.2856662,13.498171 L13.2856662,15.2860512 L12,15.2860512 L12,17.0003851 L14.142809,17.0003851 L14.142809,13.498171 C14.6421833,13.3216211 15,12.8455429 15,12.2858587 C15,11.5757124 14.4244802,11 13.7143338,11 L13.7143338,11 Z M13.7143338,12.7143338 C13.4776184,12.7143338 13.2856662,12.5225741 13.2856662,12.2858587 C13.2856662,12.0491432 13.4776184,11.8573354 13.7143338,11.8573354 C13.9510493,11.8573354 14.142809,12.0491432 14.142809,12.2858587 C14.142809,12.5225741 13.9510493,12.7143338 13.7143338,12.7143338 L13.7143338,12.7143338 Z" id="Fill-6" fill="#FFDA44" mask="url(#mask-3)"></path>
        </g>
    </g>
</svg>