<?xml version="1.0" encoding="UTF-8" standalone="no"?>
<svg width="36px" height="28px" viewBox="0 0 36 28" version="1.1" xmlns="http://www.w3.org/2000/svg" xmlns:xlink="http://www.w3.org/1999/xlink">
    <!-- Generator: Sketch 40.1 (33804) - http://www.bohemiancoding.com/sketch -->
    <title>KM Copy</title>
    <desc>Created with Sketch.</desc>
    <defs>
        <filter x="-50%" y="-50%" width="200%" height="200%" filterUnits="objectBoundingBox" id="filter-1">
            <feOffset dx="0" dy="2" in="SourceAlpha" result="shadowOffsetOuter1"></feOffset>
            <feGaussianBlur stdDeviation="2" in="shadowOffsetOuter1" result="shadowBlurOuter1"></feGaussianBlur>
            <feColorMatrix values="0 0 0 0 0   0 0 0 0 0   0 0 0 0 0  0 0 0 0.5 0" type="matrix" in="shadowBlurOuter1" result="shadowMatrixOuter1"></feColorMatrix>
            <feMerge>
                <feMergeNode in="shadowMatrixOuter1"></feMergeNode>
                <feMergeNode in="SourceGraphic"></feMergeNode>
            </feMerge>
        </filter>
        <rect id="path-2" x="0" y="0" width="28" height="20" rx="2"></rect>
        <mask id="mask-3" maskContentUnits="userSpaceOnUse" maskUnits="objectBoundingBox" x="0" y="0" width="28" height="20" fill="white">
            <use xlink:href="#path-2"></use>
        </mask>
        <mask id="mask-5" maskContentUnits="userSpaceOnUse" maskUnits="objectBoundingBox" x="0" y="0" width="28" height="20" fill="white">
            <use xlink:href="#path-2"></use>
        </mask>
    </defs>
    <g id="Page-1" stroke="none" stroke-width="1" fill="none" fill-rule="evenodd">
        <g id="KM-Copy" filter="url(#filter-1)" transform="translate(4.000000, 2.000000)">
            <mask id="mask-4" fill="white">
                <use xlink:href="#path-2"></use>
            </mask>
            <g id="Mask" stroke="#F5F5F5" mask="url(#mask-3)" fill="#FFFFFF">
                <use mask="url(#mask-5)" xlink:href="#path-2"></use>
            </g>
            <rect id="Rectangle-2" fill="#FFCB49" mask="url(#mask-4)" x="0" y="0" width="28" height="5.33333333"></rect>
            <rect id="Rectangle-2" fill="#DC1D34" mask="url(#mask-4)" x="0" y="9.33333333" width="28" height="5.33333333"></rect>
            <rect id="Rectangle-2" fill="#4985D4" mask="url(#mask-4)" x="0" y="14.6666667" width="28" height="5.33333333"></rect>
            <polygon id="Rectangle-2" fill="#4BA343" mask="url(#mask-4)" points="0 20 13.3333333 10 0 0"></polygon>
            <path d="M6.33333333,13.8739825 C6.01371341,13.956247 5.6786329,14 5.33333333,14 C3.12419433,14 1.33333333,12.209139 1.33333333,10 C1.33333333,7.790861 3.12419433,6 5.33333333,6 C5.6786329,6 6.01371341,6.043753 6.33333333,6.12601749 C4.60810612,6.57006028 3.33333333,8.13616057 3.33333333,10 C3.33333333,11.8638394 4.60810612,13.4299397 6.33333333,13.8739825 Z M7.33333333,8 C7.70152317,8 8,7.70152317 8,7.33333333 C8,6.9651435 7.70152317,6.66666667 7.33333333,6.66666667 C6.9651435,6.66666667 6.66666667,6.9651435 6.66666667,7.33333333 C6.66666667,7.70152317 6.9651435,8 7.33333333,8 Z M7.33333333,10.6666667 C7.70152317,10.6666667 8,10.3681898 8,10 C8,9.63181017 7.70152317,9.33333333 7.33333333,9.33333333 C6.9651435,9.33333333 6.66666667,9.63181017 6.66666667,10 C6.66666667,10.3681898 6.9651435,10.6666667 7.33333333,10.6666667 Z M7.33333333,13.3333333 C7.70152317,13.3333333 8,13.0348565 8,12.6666667 C8,12.2984768 7.70152317,12 7.33333333,12 C6.9651435,12 6.66666667,12.2984768 6.66666667,12.6666667 C6.66666667,13.0348565 6.9651435,13.3333333 7.33333333,13.3333333 Z" id="Oval-12" fill="#FFFFFF" mask="url(#mask-4)"></path>
        </g>
    </g>
</svg>