<?xml version="1.0" encoding="UTF-8" standalone="no"?>
<svg width="36px" height="28px" viewBox="0 0 36 28" version="1.1" xmlns="http://www.w3.org/2000/svg" xmlns:xlink="http://www.w3.org/1999/xlink">
    <!-- Generator: Sketch 40.1 (33804) - http://www.bohemiancoding.com/sketch -->
    <title>LR Copy@1x</title>
    <desc>Created with Sketch.</desc>
    <defs>
        <filter x="-50%" y="-50%" width="200%" height="200%" filterUnits="objectBoundingBox" id="filter-1">
            <feOffset dx="0" dy="2" in="SourceAlpha" result="shadowOffsetOuter1"></feOffset>
            <feGaussianBlur stdDeviation="2" in="shadowOffsetOuter1" result="shadowBlurOuter1"></feGaussianBlur>
            <feColorMatrix values="0 0 0 0 0   0 0 0 0 0   0 0 0 0 0  0 0 0 0.5 0" type="matrix" in="shadowBlurOuter1" result="shadowMatrixOuter1"></feColorMatrix>
            <feMerge>
                <feMergeNode in="shadowMatrixOuter1"></feMergeNode>
                <feMergeNode in="SourceGraphic"></feMergeNode>
            </feMerge>
        </filter>
        <rect id="path-2" x="0" y="0" width="28" height="20" rx="2"></rect>
        <mask id="mask-3" maskContentUnits="userSpaceOnUse" maskUnits="objectBoundingBox" x="0" y="0" width="28" height="20" fill="white">
            <use xlink:href="#path-2"></use>
        </mask>
        <mask id="mask-5" maskContentUnits="userSpaceOnUse" maskUnits="objectBoundingBox" x="0" y="0" width="28" height="20" fill="white">
            <use xlink:href="#path-2"></use>
        </mask>
    </defs>
    <g id="Page-1" stroke="none" stroke-width="1" fill="none" fill-rule="evenodd">
        <g id="LR-Copy" filter="url(#filter-1)" transform="translate(4.000000, 2.000000)">
            <mask id="mask-4" fill="white">
                <use xlink:href="#path-2"></use>
            </mask>
            <g id="Mask" stroke="#F5F5F5" mask="url(#mask-3)" fill="#FFFFFF">
                <use mask="url(#mask-5)" xlink:href="#path-2"></use>
            </g>
            <path d="M13.3333333,0 L28,0 L28,2.66666667 L13.3333333,2.66666667 L13.3333333,0 Z M13.3333333,5.33333333 L28,5.33333333 L28,8 L13.3333333,8 L13.3333333,5.33333333 Z M13.3333333,10.6666667 L28,10.6666667 L28,13.3333333 L13.3333333,13.3333333 L13.3333333,10.6666667 Z M0,16 L28,16 L28,18.6666667 L0,18.6666667 L0,16 Z" id="Rectangle-537" fill="#E1244A" mask="url(#mask-4)"></path>
            <rect id="Rectangle-1568" fill="#0C3F8E" mask="url(#mask-4)" x="0" y="0" width="13.3333333" height="13.3333333"></rect>
            <polygon id="Star-8" fill="#FFFFFF" mask="url(#mask-4)" points="6.66666667 8.22666673 4.31552566 9.90273464 5.18301844 7.1487332 2.8624406 5.43059869 5.74972164 5.40460011 6.66666667 2.66666667 7.5836117 5.40460011 10.4708927 5.43059869 8.15031489 7.1487332 9.01780768 9.90273464"></polygon>
        </g>
    </g>
</svg>