<?xml version="1.0" encoding="UTF-8" standalone="no"?>
<svg width="36px" height="28px" viewBox="0 0 36 28" version="1.1" xmlns="http://www.w3.org/2000/svg" xmlns:xlink="http://www.w3.org/1999/xlink">
    <!-- Generator: Sketch 40.1 (33804) - http://www.bohemiancoding.com/sketch -->
    <title>TG Copy@1x</title>
    <desc>Created with Sketch.</desc>
    <defs>
        <filter x="-50%" y="-50%" width="200%" height="200%" filterUnits="objectBoundingBox" id="filter-1">
            <feOffset dx="0" dy="2" in="SourceAlpha" result="shadowOffsetOuter1"></feOffset>
            <feGaussianBlur stdDeviation="2" in="shadowOffsetOuter1" result="shadowBlurOuter1"></feGaussianBlur>
            <feColorMatrix values="0 0 0 0 0   0 0 0 0 0   0 0 0 0 0  0 0 0 0.5 0" type="matrix" in="shadowBlurOuter1" result="shadowMatrixOuter1"></feColorMatrix>
            <feMerge>
                <feMergeNode in="shadowMatrixOuter1"></feMergeNode>
                <feMergeNode in="SourceGraphic"></feMergeNode>
            </feMerge>
        </filter>
        <rect id="path-2" x="0" y="0" width="28" height="20" rx="2"></rect>
    </defs>
    <g id="Page-1" stroke="none" stroke-width="1" fill="none" fill-rule="evenodd">
        <g id="TG-Copy" filter="url(#filter-1)" transform="translate(4.000000, 2.000000)">
            <mask id="mask-3" fill="white">
                <use xlink:href="#path-2"></use>
            </mask>
            <use id="Mask" fill="#FFFFFF" xlink:href="#path-2"></use>
            <rect id="Mask-Copy" fill="#FFD44D" mask="url(#mask-3)" x="0" y="0" width="28" height="20"></rect>
            <path d="M12,0 L28,0 L28,4 L12,4 L12,0 Z M12,8 L28,8 L28,12 L12,12 L12,8 Z M0,16 L28,16 L28,20 L0,20 L0,16 Z" id="Rectangle-537" fill="#159A74" mask="url(#mask-3)"></path>
            <rect id="Rectangle-1568" fill="#ED1F45" mask="url(#mask-3)" x="0" y="0" width="12" height="12"></rect>
            <polygon id="Star-8" fill="#FFFFFF" mask="url(#mask-3)" points="6 7.56000006 3.64885899 9.23606798 4.51635178 6.48206653 2.19577393 4.76393202 5.08305497 4.73793344 6 2 6.91694503 4.73793344 9.80422607 4.76393202 7.48364822 6.48206653 8.35114101 9.23606798"></polygon>
        </g>
    </g>
</svg>