<?xml version="1.0" encoding="UTF-8" standalone="no"?>
<svg width="36px" height="28px" viewBox="0 0 36 28" version="1.1" xmlns="http://www.w3.org/2000/svg" xmlns:xlink="http://www.w3.org/1999/xlink">
    <!-- Generator: Sketch 40.1 (33804) - http://www.bohemiancoding.com/sketch -->
    <title>TN Copy@1x</title>
    <desc>Created with Sketch.</desc>
    <defs>
        <filter x="-50%" y="-50%" width="200%" height="200%" filterUnits="objectBoundingBox" id="filter-1">
            <feOffset dx="0" dy="2" in="SourceAlpha" result="shadowOffsetOuter1"></feOffset>
            <feGaussianBlur stdDeviation="2" in="shadowOffsetOuter1" result="shadowBlurOuter1"></feGaussianBlur>
            <feColorMatrix values="0 0 0 0 0   0 0 0 0 0   0 0 0 0 0  0 0 0 0.5 0" type="matrix" in="shadowBlurOuter1" result="shadowMatrixOuter1"></feColorMatrix>
            <feMerge>
                <feMergeNode in="shadowMatrixOuter1"></feMergeNode>
                <feMergeNode in="SourceGraphic"></feMergeNode>
            </feMerge>
        </filter>
        <rect id="path-2" x="0" y="0" width="28" height="20" rx="2"></rect>
    </defs>
    <g id="Page-1" stroke="none" stroke-width="1" fill="none" fill-rule="evenodd">
        <g id="TN-Copy" filter="url(#filter-1)" transform="translate(4.000000, 2.000000)">
            <mask id="mask-3" fill="white">
                <use xlink:href="#path-2"></use>
            </mask>
            <use id="Mask" fill="#FFFFFF" xlink:href="#path-2"></use>
            <rect id="Mask-Copy" fill="#E92434" mask="url(#mask-3)" x="0" y="0" width="28" height="20"></rect>
            <path d="M15.8111387,14.302191 C15.2542529,14.5369139 14.6422791,14.6666667 14,14.6666667 C11.4226712,14.6666667 9.33333333,12.5773288 9.33333333,10 C9.33333333,7.42267117 11.4226712,5.33333333 14,5.33333333 C14.6422791,5.33333333 15.2542529,5.46308611 15.8111387,5.69780903 C13.6641346,5.95568302 12,7.78350178 12,10 C12,12.2164982 13.6641346,14.044317 15.8111387,14.302191 Z M14,16 C17.3137085,16 20,13.3137085 20,10 C20,6.6862915 17.3137085,4 14,4 C10.6862915,4 8,6.6862915 8,10 C8,13.3137085 10.6862915,16 14,16 Z M16.3541922,11.1701023 L15.1293725,12.6550872 L15.2128029,10.731964 L13.4220082,10.0259768 L15.2767885,9.51104615 L15.3948362,7.58973718 L16.457723,9.19461571 L18.3214752,8.71316863 L17.1235951,10.2199688 L18.1574096,11.8437271 L16.3541922,11.1701023 Z" id="Oval-41" fill="#FFFFFF" mask="url(#mask-3)"></path>
        </g>
    </g>
</svg>