<?xml version="1.0" encoding="UTF-8" standalone="no"?>
<svg width="36px" height="28px" viewBox="0 0 36 28" version="1.1" xmlns="http://www.w3.org/2000/svg" xmlns:xlink="http://www.w3.org/1999/xlink">
    <!-- Generator: Sketch 40.1 (33804) - http://www.bohemiancoding.com/sketch -->
    <title>AX Copy</title>
    <desc>Created with Sketch.</desc>
    <defs>
        <filter x="-50%" y="-50%" width="200%" height="200%" filterUnits="objectBoundingBox" id="filter-1">
            <feOffset dx="0" dy="2" in="SourceAlpha" result="shadowOffsetOuter1"></feOffset>
            <feGaussianBlur stdDeviation="2" in="shadowOffsetOuter1" result="shadowBlurOuter1"></feGaussianBlur>
            <feColorMatrix values="0 0 0 0 0   0 0 0 0 0   0 0 0 0 0  0 0 0 0.5 0" type="matrix" in="shadowBlurOuter1" result="shadowMatrixOuter1"></feColorMatrix>
            <feMerge>
                <feMergeNode in="shadowMatrixOuter1"></feMergeNode>
                <feMergeNode in="SourceGraphic"></feMergeNode>
            </feMerge>
        </filter>
        <rect id="path-2" x="0" y="0" width="28" height="20" rx="2"></rect>
    </defs>
    <g id="Page-1" stroke="none" stroke-width="1" fill="none" fill-rule="evenodd">
        <g id="AX-Copy" filter="url(#filter-1)" transform="translate(4.000000, 2.000000)">
            <mask id="mask-3" fill="white">
                <use xlink:href="#path-2"></use>
            </mask>
            <use id="Mask" fill="#FFFFFF" xlink:href="#path-2"></use>
            <rect id="Mask-Copy" fill="#157CBB" mask="url(#mask-3)" x="0" y="0" width="28" height="20"></rect>
            <polygon id="Rectangle-2" fill="#FFD34D" mask="url(#mask-3)" points="0 12 8 12 8 20 12 20 12 12 28 12 28 8 12 8 12 0 8 0 8 8 0 8"></polygon>
            <polygon id="Rectangle-2" fill="#EB363A" mask="url(#mask-3)" points="0 10.6666667 9.33333333 10.6666667 9.33333333 20 10.6666667 20 10.6666667 10.6666667 28 10.6666667 28 9.33333333 10.6666667 9.33333333 10.6666667 0 9.33333333 0 9.33333333 9.33333333 0 9.33333333"></polygon>
        </g>
    </g>
</svg>