<?xml version="1.0" encoding="UTF-8" standalone="no"?>
<svg width="37px" height="28px" viewBox="0 0 37 28" version="1.1" xmlns="http://www.w3.org/2000/svg" xmlns:xlink="http://www.w3.org/1999/xlink">
    <!-- Generator: Sketch 40.1 (33804) - http://www.bohemiancoding.com/sketch -->
    <title>BA Copy</title>
    <desc>Created with Sketch.</desc>
    <defs>
        <filter x="-50%" y="-50%" width="200%" height="200%" filterUnits="objectBoundingBox" id="filter-1">
            <feOffset dx="0" dy="2" in="SourceAlpha" result="shadowOffsetOuter1"></feOffset>
            <feGaussianBlur stdDeviation="2" in="shadowOffsetOuter1" result="shadowBlurOuter1"></feGaussianBlur>
            <feColorMatrix values="0 0 0 0 0   0 0 0 0 0   0 0 0 0 0  0 0 0 0.5 0" type="matrix" in="shadowBlurOuter1" result="shadowMatrixOuter1"></feColorMatrix>
            <feMerge>
                <feMergeNode in="shadowMatrixOuter1"></feMergeNode>
                <feMergeNode in="SourceGraphic"></feMergeNode>
            </feMerge>
        </filter>
        <rect id="path-2" x="0" y="0" width="28" height="20" rx="2"></rect>
        <polygon id="path-4" points="22.6666667 20 22.6666667 0 8.66666667 0"></polygon>
        <filter x="-50%" y="-50%" width="200%" height="200%" filterUnits="objectBoundingBox" id="filter-5">
            <feMorphology radius="0.5" operator="dilate" in="SourceAlpha" result="shadowSpreadOuter1"></feMorphology>
            <feOffset dx="0" dy="0" in="shadowSpreadOuter1" result="shadowOffsetOuter1"></feOffset>
            <feColorMatrix values="0 0 0 0 0   0 0 0 0 0   0 0 0 0 0  0 0 0 0.06 0" type="matrix" in="shadowOffsetOuter1"></feColorMatrix>
        </filter>
    </defs>
    <g id="Page-1" stroke="none" stroke-width="1" fill="none" fill-rule="evenodd">
        <g id="BA-Copy" filter="url(#filter-1)" transform="translate(4.352941, 2.000000)">
            <mask id="mask-3" fill="white">
                <use xlink:href="#path-2"></use>
            </mask>
            <use id="Mask" fill="#FFFFFF" xlink:href="#path-2"></use>
            <rect id="Mask-Copy" fill="#0B36B2" mask="url(#mask-3)" x="0" y="0" width="28" height="20"></rect>
            <g id="Rectangle-2" mask="url(#mask-3)">
                <use fill="black" fill-opacity="1" filter="url(#filter-5)" xlink:href="#path-4"></use>
                <use fill="#FFD045" fill-rule="evenodd" xlink:href="#path-4"></use>
            </g>
            <polygon id="Star-2" fill="#FFFFFF" mask="url(#mask-3)" points="17.3333333 18.6666667 16.3905243 18.942809 16.6666667 18 16.3905243 17.057191 17.3333333 17.3333333 18.2761424 17.057191 18 18 18.2761424 18.942809"></polygon>
            <polygon id="Star-2" fill="#FFFFFF" mask="url(#mask-3)" points="14.6666667 14.6666667 13.7238576 14.942809 14 14 13.7238576 13.057191 14.6666667 13.3333333 15.6094757 13.057191 15.3333333 14 15.6094757 14.942809"></polygon>
            <polygon id="Star-2" fill="#FFFFFF" mask="url(#mask-3)" points="12 10.6666667 11.057191 10.942809 11.3333333 10 11.057191 9.05719096 12 9.33333333 12.942809 9.05719096 12.6666667 10 12.942809 10.942809"></polygon>
            <polygon id="Star-2" fill="#FFFFFF" mask="url(#mask-3)" points="9.33333333 6.66666667 8.39052429 6.94280904 8.66666667 6 8.39052429 5.05719096 9.33333333 5.33333333 10.2761424 5.05719096 10 6 10.2761424 6.94280904"></polygon>
            <polygon id="Star-2" fill="#FFFFFF" mask="url(#mask-3)" points="6.66666667 2.66666667 5.72385763 2.94280904 6 2 5.72385763 1.05719096 6.66666667 1.33333333 7.60947571 1.05719096 7.33333333 2 7.60947571 2.94280904"></polygon>
        </g>
    </g>
</svg>