<?xml version="1.0" encoding="UTF-8" standalone="no"?>
<svg width="37px" height="28px" viewBox="0 0 37 28" version="1.1" xmlns="http://www.w3.org/2000/svg" xmlns:xlink="http://www.w3.org/1999/xlink">
    <!-- Generator: Sketch 40.1 (33804) - http://www.bohemiancoding.com/sketch -->
    <title>CH Copy</title>
    <desc>Created with Sketch.</desc>
    <defs>
        <filter x="-50%" y="-50%" width="200%" height="200%" filterUnits="objectBoundingBox" id="filter-1">
            <feOffset dx="0" dy="2" in="SourceAlpha" result="shadowOffsetOuter1"></feOffset>
            <feGaussianBlur stdDeviation="2" in="shadowOffsetOuter1" result="shadowBlurOuter1"></feGaussianBlur>
            <feColorMatrix values="0 0 0 0 0   0 0 0 0 0   0 0 0 0 0  0 0 0 0.5 0" type="matrix" in="shadowBlurOuter1" result="shadowMatrixOuter1"></feColorMatrix>
            <feMerge>
                <feMergeNode in="shadowMatrixOuter1"></feMergeNode>
                <feMergeNode in="SourceGraphic"></feMergeNode>
            </feMerge>
        </filter>
        <rect id="path-2" x="0" y="0" width="28" height="20" rx="2"></rect>
    </defs>
    <g id="Page-1" stroke="none" stroke-width="1" fill="none" fill-rule="evenodd">
        <g id="CH-Copy" filter="url(#filter-1)" transform="translate(4.500000, 2.000000)">
            <mask id="mask-3" fill="white">
                <use xlink:href="#path-2"></use>
            </mask>
            <use id="Mask" fill="#FFFFFF" xlink:href="#path-2"></use>
            <rect id="Mask-Copy" fill="#FF0000" mask="url(#mask-3)" x="0" y="0" width="28" height="20"></rect>
            <path d="M12,12 L8.34103775,12 C8.1526878,12 8,11.8480797 8,11.6589622 L8,8.34103775 C8,8.1526878 8.15192032,8 8.34103775,8 L12,8 L12,4.34103775 C12,4.1526878 12.1519203,4 12.3410378,4 L15.6589622,4 C15.8473122,4 16,4.15192032 16,4.34103775 L16,8 L19.6589622,8 C19.8473122,8 20,8.15192032 20,8.34103775 L20,11.6589622 C20,11.8473122 19.8480797,12 19.6589622,12 L16,12 L16,15.6589622 C16,15.8473122 15.8480797,16 15.6589622,16 L12.3410378,16 C12.1526878,16 12,15.8480797 12,15.6589622 L12,12 Z" id="Rectangle-78" fill="#FFFFFF" mask="url(#mask-3)"></path>
        </g>
    </g>
</svg>