<?xml version="1.0" encoding="UTF-8" standalone="no"?>
<svg width="37px" height="28px" viewBox="0 0 37 28" version="1.1" xmlns="http://www.w3.org/2000/svg" xmlns:xlink="http://www.w3.org/1999/xlink">
    <!-- Generator: Sketch 40.1 (33804) - http://www.bohemiancoding.com/sketch -->
    <title>JE Copy</title>
    <desc>Created with Sketch.</desc>
    <defs>
        <filter x="-50%" y="-50%" width="200%" height="200%" filterUnits="objectBoundingBox" id="filter-1">
            <feOffset dx="0" dy="2" in="SourceAlpha" result="shadowOffsetOuter1"></feOffset>
            <feGaussianBlur stdDeviation="2" in="shadowOffsetOuter1" result="shadowBlurOuter1"></feGaussianBlur>
            <feColorMatrix values="0 0 0 0 0   0 0 0 0 0   0 0 0 0 0  0 0 0 0.5 0" type="matrix" in="shadowBlurOuter1" result="shadowMatrixOuter1"></feColorMatrix>
            <feMerge>
                <feMergeNode in="shadowMatrixOuter1"></feMergeNode>
                <feMergeNode in="SourceGraphic"></feMergeNode>
            </feMerge>
        </filter>
        <rect id="path-2" x="0" y="0" width="28" height="20" rx="2"></rect>
        <mask id="mask-3" maskContentUnits="userSpaceOnUse" maskUnits="objectBoundingBox" x="0" y="0" width="28" height="20" fill="white">
            <use xlink:href="#path-2"></use>
        </mask>
        <mask id="mask-5" maskContentUnits="userSpaceOnUse" maskUnits="objectBoundingBox" x="0" y="0" width="28" height="20" fill="white">
            <use xlink:href="#path-2"></use>
        </mask>
        <path d="M0.666666667,3.83333333 L0.666666667,2.67435201 C0.666666667,1.93372785 1.25688044,1.33333333 1.99860875,1.33333333 L3.33472459,1.33333333 C4.07033588,1.33333333 4.66666667,1.9209166 4.66666667,2.67435201 L4.66666667,3.83333333 C4.66666667,5.61904762 2.66666667,6.33333333 2.66666667,6.33333333 C2.66666667,6.33333333 0.666666667,5.61904762 0.666666667,3.83333333 Z" id="path-6"></path>
    </defs>
    <g id="Page-1" stroke="none" stroke-width="1" fill="none" fill-rule="evenodd">
        <g id="JE-Copy" filter="url(#filter-1)" transform="translate(4.333333, 2.000000)">
            <mask id="mask-4" fill="white">
                <use xlink:href="#path-2"></use>
            </mask>
            <g id="Mask" stroke="#F5F5F5" mask="url(#mask-3)" fill="#FFFFFF">
                <use mask="url(#mask-5)" xlink:href="#path-2"></use>
            </g>
            <rect id="Rectangle-1278" fill="#E3243B" mask="url(#mask-4)" transform="translate(14.659027, 10.473202) rotate(-55.000000) translate(-14.659027, -10.473202) " x="13.3256942" y="-14.1934652" width="2.66666667" height="49.3333333"></rect>
            <rect id="Rectangle-1278" fill="#E3243B" mask="url(#mask-4)" transform="translate(14.659027, 10.473202) scale(-1, 1) rotate(-55.000000) translate(-14.659027, -10.473202) " x="13.3256942" y="-14.1934652" width="2.66666667" height="49.3333333"></rect>
            <g id="Group" mask="url(#mask-4)">
                <g transform="translate(12.000000, 1.333333)">
                    <path d="M1.59255439,1.33333333 L1.67985538,1.28213158 L0.693044087,0.712295303 L1.96888566,0.854754367 L1.78950107,0 L2.66666666,0.712295303 L3.54383226,0 L3.36444772,0.854754367 L4.64028925,0.712295322 L3.65347796,1.28213158 L3.74077894,1.33333333 L1.59255439,1.33333333 Z" id="Star-1" stroke="none" fill="#FBEF32" fill-rule="evenodd"></path>
                    <mask id="mask-7" fill="white">
                        <use xlink:href="#path-6"></use>
                    </mask>
                    <use id="Mask" stroke="none" fill="#E3243B" fill-rule="evenodd" xlink:href="#path-6"></use>
                    <rect id="Rectangle-1281" stroke="none" fill="#FBEF32" fill-rule="evenodd" mask="url(#mask-7)" x="2.33333333" y="5.33333333" width="0.666666667" height="0.666666667" rx="0.333333333"></rect>
                    <rect id="Rectangle-1281" stroke="none" fill="#FBEF32" fill-rule="evenodd" mask="url(#mask-7)" x="1.33333333" y="4" width="2.66666667" height="0.666666667" rx="0.333333333"></rect>
                    <rect id="Rectangle-1281" stroke="none" fill="#FBEF32" fill-rule="evenodd" mask="url(#mask-7)" x="1.33333333" y="2.66666667" width="2.66666667" height="0.666666667" rx="0.333333333"></rect>
                </g>
            </g>
        </g>
    </g>
</svg>