<?xml version="1.0" encoding="UTF-8" standalone="no"?>
<svg width="36px" height="28px" viewBox="0 0 36 28" version="1.1" xmlns="http://www.w3.org/2000/svg" xmlns:xlink="http://www.w3.org/1999/xlink">
    <!-- Generator: Sketch 40.1 (33804) - http://www.bohemiancoding.com/sketch -->
    <title>SU Copy</title>
    <desc>Created with Sketch.</desc>
    <defs>
        <filter x="-50%" y="-50%" width="200%" height="200%" filterUnits="objectBoundingBox" id="filter-1">
            <feOffset dx="0" dy="2" in="SourceAlpha" result="shadowOffsetOuter1"></feOffset>
            <feGaussianBlur stdDeviation="2" in="shadowOffsetOuter1" result="shadowBlurOuter1"></feGaussianBlur>
            <feColorMatrix values="0 0 0 0 0   0 0 0 0 0   0 0 0 0 0  0 0 0 0.5 0" type="matrix" in="shadowBlurOuter1" result="shadowMatrixOuter1"></feColorMatrix>
            <feMerge>
                <feMergeNode in="shadowMatrixOuter1"></feMergeNode>
                <feMergeNode in="SourceGraphic"></feMergeNode>
            </feMerge>
        </filter>
        <rect id="path-2" x="0" y="0" width="28" height="20" rx="2"></rect>
    </defs>
    <g id="Page-1" stroke="none" stroke-width="1" fill="none" fill-rule="evenodd">
        <g id="SU-Copy" filter="url(#filter-1)" transform="translate(4.000000, 2.000000)">
            <mask id="mask-3" fill="white">
                <use xlink:href="#path-2"></use>
            </mask>
            <use id="Mask" fill="#FFFFFF" xlink:href="#path-2"></use>
            <rect id="Mask-Copy" fill="#E6BE53" mask="url(#mask-3)" x="0" y="0" width="28" height="20"></rect>
            <rect id="Rectangle-2" fill="#E01826" mask="url(#mask-3)" x="-1.1025641" y="-0.333333333" width="30.2051282" height="20.6666667" rx="1"></rect>
            <g id="soviet" mask="url(#mask-3)">
                <g transform="translate(2.000000, 1.000000)">
                    <g id="Group-3" stroke-width="1" fill="none" transform="translate(0.000000, 3.080000)">
                        <path d="M3.91233103,4.37508 C3.54951724,4.03928 3.18314483,3.70696 2.82496552,3.3666 C2.53001379,3.08632 2.24131034,2.79972 1.9572,2.5092 C1.86873103,2.41872 1.81257931,2.41752 1.72671724,2.50908 C1.58793103,2.65704 1.43449655,2.79208 1.2924,2.9372 C1.22673103,3.00432 1.18187586,3.0348 1.09936552,2.94872 C0.921475862,2.76304 0.734110345,2.58552 0.544303448,2.41108 C0.466841379,2.33988 0.462041379,2.29492 0.543848276,2.22128 C0.952510345,1.85352 1.35902069,1.48336 1.75882759,1.10664 C1.85524138,1.0158 1.95765517,1.02976 2.06466207,1.04148 C2.39954483,1.07824 2.73388966,1.11992 3.11507586,1.16524 C2.89452414,1.37936 2.70372414,1.58336 2.49161379,1.76396 C2.3445931,1.88916 2.34078621,1.96104 2.48797241,2.09736 C3.13510345,2.69664 3.77251034,3.30588 4.40308966,3.9214 C4.5309931,4.04624 4.57651034,4.00212 4.65326897,3.88716 C4.95765517,3.43136 4.94950345,2.9432 4.81489655,2.44528 C4.60845517,1.68148 4.15953103,1.0446 3.66467586,0.43376 C3.55146207,0.29396 3.43266207,0.1584 3.32851034,0.00704 C3.65064828,0.15712 3.93691034,0.35844 4.20753103,0.57732 C4.82863448,1.07972 5.35862069,1.65112 5.59485517,2.42392 C5.82297931,3.17016 5.70488276,3.85928 5.19935172,4.47252 C5.11750345,4.57184 5.13467586,4.62352 5.22045517,4.70124 C5.42656552,4.88804 5.6270069,5.081 5.8245931,5.27632 C6.0084,5.45808 6.0177931,5.65 5.85984828,5.80392 C5.69809655,5.96156 5.47444138,5.96084 5.29150345,5.78832 C5.06958621,5.579 4.85350345,5.36356 4.64184828,5.14448 C4.56173793,5.06152 4.50306207,5.0408 4.38235862,5.09244 C3.48711724,5.4754 2.66424828,5.32996 1.91826207,4.73804 C1.81377931,4.65516 1.78725517,4.68956 1.67457931,4.74376 C1.3044,4.9218 1.18042759,5.28232 0.939186207,5.55304 C0.839834483,5.66456 0.732248276,5.76688 0.597806897,5.84 C0.414165517,5.93984 0.213848276,5.92048 0.0888827586,5.78852 C-0.0237103448,5.66968 -0.0309103448,5.46876 0.0763034483,5.30596 C0.219972414,5.0878 0.426910345,4.93376 0.641875862,4.78664 C0.833958621,4.6552 1.03026207,4.543 1.17653793,4.33936 C1.26931034,4.21008 1.47393103,4.07236 1.7006069,4.13744 C1.74628966,4.15056 1.78493793,4.15808 1.80914483,4.11916 C1.90456552,3.96556 1.98041379,4.04812 2.07769655,4.12428 C2.61376552,4.54384 3.21897931,4.60304 3.86213793,4.44528 C3.87889655,4.42188 3.89561379,4.39848 3.91233103,4.37508" id="Fill-1" fill="#FAD620"></path>
                    </g>
                    <path d="M3.36724138,1.88892 C3.2688,1.80924 3.1917931,1.81532 3.09649655,1.8922 C2.99242759,1.9762 2.87648276,2.04636 2.74274483,2.13832 C2.75408276,1.97388 2.81056552,1.85308 2.85674483,1.73104 C2.89936552,1.61844 2.89882759,1.5376 2.77150345,1.47036 C2.6529931,1.40776 2.55070345,1.31652 2.38617931,1.19828 C2.56485517,1.19828 2.68526897,1.1854 2.80150345,1.20124 C2.99077241,1.22696 3.07518621,1.14596 3.11135172,0.97708 C3.13303448,0.87592 3.1773931,0.77928 3.22096552,0.65344 C3.31994483,0.79324 3.34427586,0.93056 3.38358621,1.05792 C3.41788966,1.16912 3.47342069,1.20668 3.58849655,1.20016 C3.73017931,1.19216 3.87273103,1.19824 4.03212414,1.23672 C3.9134069,1.32024 3.79833103,1.40928 3.67477241,1.48544 C3.58427586,1.54124 3.5589931,1.59648 3.60173793,1.6974 C3.65561379,1.82452 3.68904828,1.95976 3.75008276,2.14992 C3.59085517,2.04272 3.47213793,1.9738 3.36724138,1.88892 L3.36724138,1.88892 Z M3.95664828,1.5232 C4.18518621,1.3728 4.40391724,1.20848 4.62674483,1.04996 C4.32906207,1.00804 4.04855172,0.99932 3.7689931,1.01148 C3.61584828,1.01812 3.55324138,0.96508 3.51314483,0.82504 C3.4392,0.5666 3.34117241,0.3146 3.23354483,0.003 C3.12893793,0.307 3.03074483,0.5518 2.96275862,0.80416 C2.91736552,0.97252 2.83055172,1.02016 2.65948966,1.0116 C2.39064828,0.99816 2.1206069,1.00804 1.85106207,1.00804 C2.07037241,1.215 2.29398621,1.38 2.52492414,1.53476 C2.63673103,1.60972 2.67467586,1.68008 2.62228966,1.81548 C2.52206897,2.07452 2.44671724,2.34256 2.34542069,2.65516 C2.63131034,2.45588 2.87793103,2.29016 3.11664828,2.11436 C3.20288276,2.05084 3.26122759,2.04796 3.34911724,2.113 C3.58804138,2.28988 3.83565517,2.45588 4.12336552,2.65664 C4.02318621,2.35072 3.94878621,2.08952 3.8505931,1.837 C3.79369655,1.69072 3.82878621,1.60732 3.95664828,1.5232 L3.95664828,1.5232 Z" id="Fill-4" fill="#FAD520"></path>
                </g>
            </g>
        </g>
    </g>
</svg>