<?xml version="1.0" encoding="UTF-8" standalone="no"?>
<svg width="36px" height="28px" viewBox="0 0 36 28" version="1.1" xmlns="http://www.w3.org/2000/svg" xmlns:xlink="http://www.w3.org/1999/xlink">
    <!-- Generator: Sketch 40.1 (33804) - http://www.bohemiancoding.com/sketch -->
    <title>TF Copy</title>
    <desc>Created with Sketch.</desc>
    <defs>
        <filter x="-50%" y="-50%" width="200%" height="200%" filterUnits="objectBoundingBox" id="filter-1">
            <feOffset dx="0" dy="2" in="SourceAlpha" result="shadowOffsetOuter1"></feOffset>
            <feGaussianBlur stdDeviation="2" in="shadowOffsetOuter1" result="shadowBlurOuter1"></feGaussianBlur>
            <feColorMatrix values="0 0 0 0 0   0 0 0 0 0   0 0 0 0 0  0 0 0 0.5 0" type="matrix" in="shadowBlurOuter1" result="shadowMatrixOuter1"></feColorMatrix>
            <feMerge>
                <feMergeNode in="shadowMatrixOuter1"></feMergeNode>
                <feMergeNode in="SourceGraphic"></feMergeNode>
            </feMerge>
        </filter>
        <rect id="path-2" x="0" y="0" width="28" height="20" rx="2"></rect>
        <polygon id="path-4" points="0.84375 -1.49329357e-13 15.1877441 -3.46790914e-07 15.1877441 10.6354977 0.84375 10.635498"></polygon>
    </defs>
    <g id="Page-1" stroke="none" stroke-width="1" fill="none" fill-rule="evenodd">
        <g id="TF-Copy" filter="url(#filter-1)" transform="translate(4.250000, 2.000000)">
            <mask id="mask-3" fill="white">
                <use xlink:href="#path-2"></use>
            </mask>
            <use id="Mask" fill="#FFFFFF" xlink:href="#path-2"></use>
            <rect id="Mask-Copy" fill="#07319C" mask="url(#mask-3)" x="0" y="0" width="28" height="20"></rect>
            <g id="Group-10" mask="url(#mask-3)" fill="#FFFFFF">
                <g transform="translate(18.000000, 7.000000)">
                    <path d="M1.68999389,2.2597935 C2.10836738,2.9171136 2.52406506,3.57017447 2.93976274,4.22334743 C2.94394369,4.22205846 2.94818038,4.22088157 2.95236133,4.2195926 L2.95236133,4.15340665 C2.95236133,3.10838595 2.95185962,2.06336526 2.95364349,1.01828852 C2.95375498,0.957706798 2.94204833,0.937923867 2.87671405,0.938316163 C2.36156556,0.941454532 1.84641708,0.939493051 1.33132433,0.941118278 C1.28444198,0.941286405 1.25863159,0.927275831 1.23343442,0.886364955 C1.05276173,0.592367069 0.868688549,0.300442749 0.680824637,1.77635684e-15 L6.27677212,1.77635684e-15 C6.27855599,0.0243223565 6.25932363,0.040126284 6.24772847,0.0588444109 C6.07614238,0.334516465 5.90327413,0.609347885 5.73291446,0.885748489 C5.70855347,0.925202266 5.68318905,0.941510574 5.63530327,0.941342447 C5.11786919,0.939324924 4.60032363,0.940950151 4.0829453,0.938764502 C4.0276453,0.93848429 4.00852444,0.948571903 4.01047554,1.00876133 C4.01543694,1.15889864 4.01415478,1.30931616 4.01097726,1.45956556 C4.00997383,1.50781798 4.0229069,1.52132417 4.07162887,1.52104396 C4.46263109,1.51902644 4.85357756,1.51986707 5.24452403,1.51986707 L5.31877766,1.51986707 C5.32686083,1.5483926 5.3071825,1.56229109 5.29703673,1.57854335 C5.13280911,1.84250257 4.96646315,2.10511677 4.80424238,2.37030891 C4.778432,2.4125648 4.7506705,2.42371722 4.70501456,2.42326888 C4.49345861,2.4213074 4.28184692,2.42332492 4.07034671,2.42164366 C4.02926194,2.4213074 4.01069853,2.42635121 4.01086577,2.47611677 C4.01281688,3.0494855 4.01220367,3.62291027 4.01220367,4.19622296 L4.01220367,4.22121782 C4.01632887,4.22278701 4.02050982,4.22430015 4.02463502,4.22581329 C4.44027696,3.57275242 4.85597464,2.91969154 5.27702393,2.25811224 C5.84485236,3.16812704 6.40922454,4.0726497 6.97905982,4.98591495 C6.95302645,4.9870358 6.94009339,4.98815665 6.92716032,4.98815665 C6.60974278,4.98826873 6.29238099,4.9874281 5.97501919,4.98922145 C5.93504933,4.98938958 5.90951768,4.97885363 5.89658462,4.94085695 C5.89585992,4.93872734 5.89429903,4.93687795 5.89318411,4.93486042 C5.84802988,4.85236616 5.82177353,4.7375355 5.7523698,4.69651254 C5.68218563,4.65492915 5.56918855,4.68575242 5.47492212,4.68569637 C5.2380575,4.68547221 5.00119288,4.68692931 4.76432827,4.68446344 C4.71973149,4.68395906 4.69525901,4.69735317 4.67156698,4.73574215 C4.29522595,5.34497795 3.9170453,5.95320498 3.53925488,6.56154411 C3.52236385,6.58872462 3.50441365,6.61517659 3.48345317,6.64728882 C3.46555871,6.62066873 3.45011708,6.59909245 3.43612484,6.57656344 C3.05582585,5.96430136 2.67530387,5.35215136 2.29651002,4.73893656 C2.27159157,4.69864215 2.24522373,4.68412719 2.19822988,4.68446344 C1.885495,4.68664909 1.57270438,4.68653701 1.25991375,4.68451949 C1.21754681,4.68423927 1.19463522,4.69572795 1.1762948,4.73512568 C1.142457,4.80809275 1.10059177,4.87724894 1.06508159,4.94959955 C1.05092212,4.97840529 1.0339196,4.98905332 1.00175417,4.98894124 C0.682051049,4.98776435 0.36240367,4.98720393 0.0427005446,4.98910937 C-0.0154982457,4.98944562 -0.00401457639,4.97044728 0.0176148591,4.93581314 C0.215624537,4.61973459 0.412742278,4.30298353 0.610305988,3.98651269 C0.957826351,3.42973248 1.30534671,2.87312039 1.65292282,2.31645227 C1.66368179,2.29930332 1.67510972,2.28254668 1.68999389,2.2597935" id="Fill-8"></path>
                    <path d="M2.45,8.01628686 C2.67543669,8.01628686 2.88381512,8.01443746 3.09202631,8.01757583 C3.14420454,8.01836042 3.16834254,8.00406964 3.18389567,7.95217447 C3.24365534,7.75176722 3.30843216,7.55287311 3.37242853,7.35 C3.400413,7.36546767 3.39935383,7.39320861 3.40637782,7.41495302 C3.46491109,7.59664215 3.52394607,7.7781071 3.5788001,7.96086103 C3.59195615,8.00463006 3.61135575,8.01774396 3.65550655,8.01729562 C3.86689526,8.01499789 4.07833972,8.01628686 4.29195827,8.01628686 C4.29836905,8.03758293 4.27411956,8.04100151 4.26157671,8.05019245 C4.10359264,8.16530332 3.9465005,8.28181526 3.7855619,8.39261088 C3.74001744,8.42399456 3.73561351,8.4513432 3.7523373,8.49965166 C3.81599919,8.68431103 3.87587036,8.87025937 3.9369122,9.05581541 C3.94114889,9.06848097 3.94410343,9.08159486 3.95246532,9.11196979 C3.89114476,9.06741616 3.84253427,9.03250181 3.79436976,8.99702704 C3.67200736,8.9071352 3.54825131,8.81920483 3.42862046,8.72578233 C3.38931956,8.69512719 3.36629647,8.69860181 3.32855645,8.72718338 C3.16048236,8.85467961 2.98950948,8.97830891 2.80320645,9.11538837 C2.84936411,8.97320906 2.88933397,8.84935559 2.92963831,8.7256142 C2.95600615,8.64485725 2.97953095,8.56292341 3.01046996,8.48395982 C3.02663629,8.4426006 3.01543135,8.42349018 2.98231825,8.39995242 C2.80816784,8.27649124 2.63574556,8.15050816 2.45,8.01628686" id="Fill-9"></path>
                    <path d="M0.35,6.26903293 C0.568802923,6.26903293 0.770268851,6.26466163 0.97128881,6.27133066 C1.04587692,6.27379653 1.07218901,6.24835332 1.09181159,6.18020589 C1.14789204,5.98596329 1.21227863,5.79413051 1.27387792,5.6 C1.30102621,5.61401057 1.2984619,5.6425361 1.30543014,5.66394426 C1.36362893,5.84316752 1.4214375,6.02261495 1.4752881,6.20323927 C1.48989355,6.2521642 1.50873569,6.271779 1.56347823,6.27065816 C1.77185665,6.26662311 1.98040232,6.26903293 2.20751139,6.26903293 C2.16475423,6.30058474 2.13504163,6.32300166 2.10493881,6.34474607 C1.96334405,6.44719139 1.82247399,6.55058943 1.67942984,6.65084909 C1.64364093,6.67601208 1.6343871,6.69646752 1.64960575,6.74057281 C1.71917671,6.94238112 1.78378629,7.14581465 1.85603306,7.36639713 C1.80519274,7.33013776 1.76756421,7.30413414 1.73082762,7.27700967 C1.59564365,7.17742251 1.45984647,7.07873202 1.32644637,6.97673505 C1.29132641,6.94989079 1.26852631,6.94916224 1.23251442,6.97656692 C1.07899002,7.09369532 0.922622581,7.20718097 0.766979839,7.32161934 C0.750925,7.33344426 0.737713206,7.35160196 0.708112097,7.35076133 C0.773279133,7.15209139 0.83471119,6.95443021 0.904003427,6.75968323 C0.925242641,6.70005423 0.913535988,6.6729858 0.863364617,6.6384077 C0.694956048,6.52228807 0.530839919,6.39994773 0.35,6.26903293" id="Fill-10"></path>
                    <path d="M6.04326724,7.38713278 C5.8605877,7.2524071 5.68972631,7.12967447 5.52315736,7.00128157 C5.47778014,6.96636722 5.45029738,6.96743202 5.40609083,7.00139366 C5.24030232,7.12844154 5.07094607,7.25095 4.88743034,7.38668444 C4.94133669,7.22163988 4.98950121,7.07413656 5.03777722,6.92663323 C5.05639637,6.86980634 5.0725627,6.81197069 5.09519556,6.75682508 C5.11281129,6.71412085 5.1002127,6.69220831 5.06442379,6.66698927 C4.89172278,6.54515332 4.72108437,6.42029109 4.55,6.29671782 C4.55947681,6.2725636 4.57804022,6.28203474 4.59197671,6.28209079 C4.78959617,6.28332372 4.98721562,6.28360393 5.18477933,6.28836752 C5.23244214,6.28954441 5.25262218,6.27480529 5.26639143,6.22946707 C5.32843669,6.0251929 5.39410544,5.82198353 5.46428962,5.6 C5.52103901,5.77686949 5.57193508,5.93630982 5.62344435,6.09558202 C5.64379163,6.15868565 5.64328992,6.24549517 5.69162167,6.27766344 C5.73672016,6.30759003 5.81599093,6.28584562 5.88021028,6.2859577 C6.04532984,6.28629396 6.21050514,6.28606979 6.39173528,6.28606979 C6.36436401,6.3067494 6.34624657,6.3209281 6.32762742,6.33437825 C6.1729881,6.44607054 6.01907349,6.55899577 5.86276179,6.66827825 C5.82580222,6.6940577 5.82022762,6.71742734 5.83399688,6.75800196 C5.90334486,6.96199592 5.97024002,7.16683051 6.04326724,7.38713278" id="Fill-11"></path>
                </g>
            </g>
            <g id="FR-Copy-2" mask="url(#mask-3)">
                <g transform="translate(-2.000000, -1.000000)">
                    <mask id="mask-5" fill="white">
                        <use xlink:href="#path-4"></use>
                    </mask>
                    <use id="Mask" stroke="none" fill="#FFFFFF" fill-rule="evenodd" xlink:href="#path-4"></use>
                    <rect id="Mask" stroke="none" fill="#F44653" fill-rule="evenodd" mask="url(#mask-5)" x="10.6666667" y="1" width="4.33333333" height="9.45454545"></rect>
                    <rect id="Rectangle-2" stroke="none" fill="#1035BB" fill-rule="evenodd" mask="url(#mask-5)" x="2" y="1" width="4.33333333" height="9.45454545"></rect>
                </g>
            </g>
        </g>
    </g>
</svg>