<?xml version="1.0" encoding="UTF-8" standalone="no"?>
<svg width="36px" height="28px" viewBox="0 0 36 28" version="1.1" xmlns="http://www.w3.org/2000/svg" xmlns:xlink="http://www.w3.org/1999/xlink">
    <!-- Generator: Sketch 40.1 (33804) - http://www.bohemiancoding.com/sketch -->
    <title>UK Copy</title>
    <desc>Created with Sketch.</desc>
    <defs>
        <filter x="-50%" y="-50%" width="200%" height="200%" filterUnits="objectBoundingBox" id="filter-1">
            <feOffset dx="0" dy="2" in="SourceAlpha" result="shadowOffsetOuter1"></feOffset>
            <feGaussianBlur stdDeviation="2" in="shadowOffsetOuter1" result="shadowBlurOuter1"></feGaussianBlur>
            <feColorMatrix values="0 0 0 0 0   0 0 0 0 0   0 0 0 0 0  0 0 0 0.5 0" type="matrix" in="shadowBlurOuter1" result="shadowMatrixOuter1"></feColorMatrix>
            <feMerge>
                <feMergeNode in="shadowMatrixOuter1"></feMergeNode>
                <feMergeNode in="SourceGraphic"></feMergeNode>
            </feMerge>
        </filter>
        <rect id="path-2" x="0" y="0" width="28" height="20" rx="2"></rect>
    </defs>
    <g id="Page-1" stroke="none" stroke-width="1" fill="none" fill-rule="evenodd">
        <g id="UK-Copy" filter="url(#filter-1)" transform="translate(3.812500, 2.000000)">
            <mask id="mask-3" fill="white">
                <use xlink:href="#path-2"></use>
            </mask>
            <use id="Mask" fill="#FFFFFF" xlink:href="#path-2"></use>
            <rect id="Mask-Copy" fill="#0A17A7" mask="url(#mask-3)" x="0" y="0" width="28" height="20"></rect>
            <path d="M10.6666667,13.8566523 L10.6666667,21.3333333 L17.3333333,21.3333333 L17.3333333,13.8566523 L29.2824692,21.9164462 L30.7736503,19.7056794 L21.3262588,13.3333333 L28,13.3333333 L28,6.66666667 L21.3262588,6.66666667 L30.7736503,0.29432063 L29.2824692,-1.91644623 L17.3333333,6.14334768 L17.3333333,-1.33333333 L10.6666667,-1.33333333 L10.6666667,6.14334768 L-1.2824692,-1.91644623 L-2.77365027,0.29432063 L6.67374124,6.66666667 L-1.33226763e-15,6.66666667 L-1.33226763e-15,13.3333333 L6.67374124,13.3333333 L-2.77365027,19.7056794 L-1.2824692,21.9164462 L10.6666667,13.8566523 Z" id="Rectangle-2" fill="#FFFFFF" mask="url(#mask-3)"></path>
            <path d="M18.6679687,6.33219401 L31.3333333,-2" id="Line" stroke="#DB1F35" stroke-width="0.666666667" stroke-linecap="round" mask="url(#mask-3)"></path>
            <path d="M20.0127767,21.3503418 L31.3666178,13.6975098" id="Line-Copy-2" stroke="#DB1F35" stroke-width="0.666666667" stroke-linecap="round" mask="url(#mask-3)" transform="translate(25.689697, 17.523926) scale(1, -1) translate(-25.689697, -17.523926) "></path>
            <path d="M8.00553385,6.31046549 L-3.83748372,-1.67097982" id="Line-Copy" stroke="#DB1F35" stroke-width="0.666666667" stroke-linecap="round" mask="url(#mask-3)"></path>
            <path d="M9.29003906,22.3104655 L-3.83748372,13.6048991" id="Line-Copy-3" stroke="#DB1F35" stroke-width="0.666666667" stroke-linecap="round" mask="url(#mask-3)" transform="translate(2.726278, 17.957682) scale(1, -1) translate(-2.726278, -17.957682) "></path>
            <polygon id="Rectangle-2-Copy-3" fill="#E6273E" mask="url(#mask-3)" points="0 12 12 12 12 20 16 20 16 12 28 12 28 8 16 8 16 0 12 0 12 8 0 8"></polygon>
        </g>
    </g>
</svg>