<?xml version="1.0" encoding="UTF-8" standalone="no"?>
<svg width="29px" height="20px" viewBox="0 0 29 20" version="1.1" xmlns="http://www.w3.org/2000/svg" xmlns:xlink="http://www.w3.org/1999/xlink">
    <!-- Generator: Sketch 40.1 (33804) - http://www.bohemiancoding.com/sketch -->
    <title>KI</title>
    <desc>Created with Sketch.</desc>
    <defs>
        <path d="M2.9274577,19.5205395 C1.82443723,19.5175553 0.930262466,18.626545 0.930262466,17.5198314 L0.930262466,2.00944131 C0.930262466,0.907464964 1.83464377,0.01413663 2.93142826,0.01413663 L27.0686082,0.01413663 C28.1738215,0.01413663 29.0697739,0.902727744 29.0697739,2.00944131 L29.0697736,17.5198314 C29.0697736,18.6218077 28.1648632,19.5329355 27.0789891,19.5403312 L2.9274577,19.5205395 Z" id="path-1"></path>
        <path d="M5.10416667,4 L0.4375,0 L1.10416667,0 L5.77083333,3.33333333 L7.10416667,3.33333333 L12.4375,0 L12.4375,0.333333333 C12.4375,0.51742825 12.3221436,0.749064128 12.1595542,0.865199407 L7.77083333,4 L7.77083333,5.33333333 L12.1865997,9.11827596 C12.3251681,9.23704887 12.2828776,9.33333333 12.1041667,9.33333333 L12.1041667,9.33333333 C11.9200718,9.33333333 11.6554769,9.25093587 11.4928875,9.13480059 L7.10416667,6 L5.77083333,6 L0.4375,9.33333333 L0.4375,8.66666667 L5.10416667,5.33333333 L5.10416667,4 Z" id="path-3"></path>
        <mask id="mask-4" maskContentUnits="userSpaceOnUse" maskUnits="objectBoundingBox" x="-0.666666667" y="-0.666666667" width="13.3333333" height="10.6666667">
            <rect x="-0.229166667" y="-0.666666667" width="13.3333333" height="10.6666667" fill="white"></rect>
            <use xlink:href="#path-3" fill="black"></use>
        </mask>
    </defs>
    <g id="Page-1" stroke="none" stroke-width="1" fill="none" fill-rule="evenodd">
        <g id="KI" transform="translate(-0.666667, 0.000000)">
            <mask id="mask-2" fill="white">
                <use xlink:href="#path-1"></use>
            </mask>
            <use id="Mask" fill="#FFFFFF" xlink:href="#path-1"></use>
            <path d="M7.98317475,7.63410911 C8.57897473,7.32267329 9.09347471,7.0537858 10.1929747,7.0537858 C11.2925121,7.0537858 11.8071246,7.32275495 12.4029246,7.63410911 C13.0164246,7.9548141 13.7118245,8.31827158 15.031637,8.31827158 C16.3514494,8.31827158 17.0468494,7.9548141 17.6604244,7.63410911 C18.2562244,7.32267329 18.7707619,7.0537858 19.8703743,7.0537858 C20.9700243,7.0537858 21.4845993,7.32275495 22.0805492,7.63410911 C22.6940492,7.9548141 23.3895242,8.31827158 24.7094491,8.31827158 C26.0292616,8.31827158 26.7247366,7.9548141 27.3383115,7.63414994 C27.8389365,7.37257162 28.283574,7.14157746 29.0645865,7.07412079 L29.0645865,6.01780333 C28.049649,6.09403916 27.453399,6.40514832 26.9195866,6.68412164 C26.3237491,6.99551663 25.8091366,7.26452662 24.7094491,7.26452662 C23.6097617,7.26452662 23.0951492,6.99551663 22.4993117,6.68412164 C21.8857742,6.36345749 21.1902993,6 19.8704493,6 C18.5506744,6 17.8552744,6.36345749 17.2416619,6.68412164 C16.6458619,6.99551663 16.1312495,7.26452662 15.031637,7.26452662 C13.932137,7.26452662 13.4175621,6.99551663 12.8217621,6.68416248 C12.2082246,6.36345749 11.5128246,6 10.1930497,6 C8.87334972,6 8.17798724,6.36345749 7.56444976,6.68416248 C6.96864978,6.9955983 6.4541498,7.26452662 5.35472484,7.26452662 C4.25518738,7.26452662 3.7406499,6.99551663 3.14484992,6.68416248 C2.61103744,6.40522999 2.01486246,6.09408 1,6.017885 L1,7.07420246 C1.78089997,7.14157746 2.22553746,7.37257162 2.72601244,7.63419077 C3.33947492,7.9548141 4.03479989,8.31827158 5.35457484,8.31827158 C6.67427479,8.31827158 7.36963727,7.9548141 7.98317475,7.63410911 Z" id="Shape" fill="#00207F" mask="url(#mask-2)"></path>
            <path d="M7.98317475,5.63410911 C8.57897473,5.32267329 9.09347471,5.0537858 10.1929747,5.0537858 C11.2925121,5.0537858 11.8071246,5.32275495 12.4029246,5.63410911 C13.0164246,5.9548141 13.7118245,6.31827158 15.031637,6.31827158 C16.3514494,6.31827158 17.0468494,5.9548141 17.6604244,5.63410911 C18.2562244,5.32267329 18.7707619,5.0537858 19.8703743,5.0537858 C20.9700243,5.0537858 21.4845993,5.32275495 22.0805492,5.63410911 C22.6940492,5.9548141 23.3895242,6.31827158 24.7094491,6.31827158 C26.0292616,6.31827158 26.7247366,5.9548141 27.3383115,5.63414994 C27.8389365,5.37257162 28.283574,5.14157746 29.0645865,5.07412079 L29.0645865,4.01780333 C28.049649,4.09403916 27.453399,4.40514832 26.9195866,4.68412164 C26.3237491,4.99551663 25.8091366,5.26452662 24.7094491,5.26452662 C23.6097617,5.26452662 23.0951492,4.99551663 22.4993117,4.68412164 C21.8857742,4.36345749 21.1902993,4 19.8704493,4 C18.5506744,4 17.8552744,4.36345749 17.2416619,4.68412164 C16.6458619,4.99551663 16.1312495,5.26452662 15.031637,5.26452662 C13.932137,5.26452662 13.4175621,4.99551663 12.8217621,4.68416248 C12.2082246,4.36345749 11.5128246,4 10.1930497,4 C8.87334972,4 8.17798724,4.36345749 7.56444976,4.68416248 C6.96864978,4.9955983 6.4541498,5.26452662 5.35472484,5.26452662 C4.25518738,5.26452662 3.7406499,4.99551663 3.14484992,4.68416248 C2.61103744,4.40522999 2.01486246,4.09408 1,4.017885 L1,5.07420246 C1.78089997,5.14157746 2.22553746,5.37257162 2.72601244,5.63419077 C3.33947492,5.9548141 4.03479989,6.31827158 5.35457484,6.31827158 C6.67427479,6.31827158 7.36963727,5.9548141 7.98317475,5.63410911 Z" id="Shape-Copy-6" fill="#00207F" mask="url(#mask-2)"></path>
            <path d="M7.98317475,3.63410911 C8.57897473,3.32267329 9.09347471,3.0537858 10.1929747,3.0537858 C11.2925121,3.0537858 11.8071246,3.32275495 12.4029246,3.63410911 C13.0164246,3.9548141 13.7118245,4.31827158 15.031637,4.31827158 C16.3514494,4.31827158 17.0468494,3.9548141 17.6604244,3.63410911 C18.2562244,3.32267329 18.7707619,3.0537858 19.8703743,3.0537858 C20.9700243,3.0537858 21.4845993,3.32275495 22.0805492,3.63410911 C22.6940492,3.9548141 23.3895242,4.31827158 24.7094491,4.31827158 C26.0292616,4.31827158 26.7247366,3.9548141 27.3383115,3.63414994 C27.8389365,3.37257162 28.283574,3.14157746 29.0645865,3.07412079 L29.0645865,2.01780333 C28.049649,2.09403916 27.453399,2.40514832 26.9195866,2.68412164 C26.3237491,2.99551663 25.8091366,3.26452662 24.7094491,3.26452662 C23.6097617,3.26452662 23.0951492,2.99551663 22.4993117,2.68412164 C21.8857742,2.36345749 21.1902993,2 19.8704493,2 C18.5506744,2 17.8552744,2.36345749 17.2416619,2.68412164 C16.6458619,2.99551663 16.1312495,3.26452662 15.031637,3.26452662 C13.932137,3.26452662 13.4175621,2.99551663 12.8217621,2.68416248 C12.2082246,2.36345749 11.5128246,2 10.1930497,2 C8.87334972,2 8.17798724,2.36345749 7.56444976,2.68416248 C6.96864978,2.9955983 6.4541498,3.26452662 5.35472484,3.26452662 C4.25518738,3.26452662 3.7406499,2.99551663 3.14484992,2.68416248 C2.61103744,2.40522999 2.01486246,2.09408 1,2.017885 L1,3.07420246 C1.78089997,3.14157746 2.22553746,3.37257162 2.72601244,3.63419077 C3.33947492,3.9548141 4.03479989,4.31827158 5.35457484,4.31827158 C6.67427479,4.31827158 7.36963727,3.9548141 7.98317475,3.63410911 Z" id="Shape-Copy-7" fill="#00207F" mask="url(#mask-2)"></path>
            <path d="M7.98317475,1.63410911 C8.57897473,1.32267329 9.09347471,1.0537858 10.1929747,1.0537858 C11.2925121,1.0537858 11.8071246,1.32275495 12.4029246,1.63410911 C13.0164246,1.9548141 13.7118245,2.31827158 15.031637,2.31827158 C16.3514494,2.31827158 17.0468494,1.9548141 17.6604244,1.63410911 C18.2562244,1.32267329 18.7707619,1.0537858 19.8703743,1.0537858 C20.9700243,1.0537858 21.4845993,1.32275495 22.0805492,1.63410911 C22.6940492,1.9548141 23.3895242,2.31827158 24.7094491,2.31827158 C26.0292616,2.31827158 26.7247366,1.9548141 27.3383115,1.63414994 C27.8389365,1.37257162 28.283574,1.14157746 29.0645865,1.07412079 L29.0645865,0.0178033327 C28.049649,0.0940391633 27.453399,0.405148319 26.9195866,0.684121642 C26.3237491,0.995516631 25.8091366,1.26452662 24.7094491,1.26452662 C23.6097617,1.26452662 23.0951492,0.995516631 22.4993117,0.684121642 C21.8857742,0.363457487 21.1902993,0 19.8704493,0 C18.5506744,0 17.8552744,0.363457487 17.2416619,0.684121642 C16.6458619,0.995516631 16.1312495,1.26452662 15.031637,1.26452662 C13.932137,1.26452662 13.4175621,0.995516631 12.8217621,0.684162475 C12.2082246,0.363457487 11.5128246,0 10.1930497,0 C8.87334972,0 8.17798724,0.363457487 7.56444976,0.684162475 C6.96864978,0.995598297 6.4541498,1.26452662 5.35472484,1.26452662 C4.25518738,1.26452662 3.7406499,0.995516631 3.14484992,0.684162475 C2.61103744,0.405229985 2.01486246,0.0940799966 1,0.0178849994 L1,1.07420246 C1.78089997,1.14157746 2.22553746,1.37257162 2.72601244,1.63419077 C3.33947492,1.9548141 4.03479989,2.31827158 5.35457484,2.31827158 C6.67427479,2.31827158 7.36963727,1.9548141 7.98317475,1.63410911 Z" id="Shape-Copy-8" fill="#00207F" mask="url(#mask-2)"></path>
            <path d="M7.98317475,9.63410911 C8.57897473,9.32267329 9.09347471,9.0537858 10.1929747,9.0537858 C11.2925121,9.0537858 11.8071246,9.32275495 12.4029246,9.63410911 C13.0164246,9.9548141 13.7118245,10.3182716 15.031637,10.3182716 C16.3514494,10.3182716 17.0468494,9.9548141 17.6604244,9.63410911 C18.2562244,9.32267329 18.7707619,9.0537858 19.8703743,9.0537858 C20.9700243,9.0537858 21.4845993,9.32275495 22.0805492,9.63410911 C22.6940492,9.9548141 23.3895242,10.3182716 24.7094491,10.3182716 C26.0292616,10.3182716 26.7247366,9.9548141 27.3383115,9.63414994 C27.8389365,9.37257162 28.283574,9.14157746 29.0645865,9.07412079 L29.0645865,8.01780333 C28.049649,8.09403916 27.453399,8.40514832 26.9195866,8.68412164 C26.3237491,8.99551663 25.8091366,9.26452662 24.7094491,9.26452662 C23.6097617,9.26452662 23.0951492,8.99551663 22.4993117,8.68412164 C21.8857742,8.36345749 21.1902993,8 19.8704493,8 C18.5506744,8 17.8552744,8.36345749 17.2416619,8.68412164 C16.6458619,8.99551663 16.1312495,9.26452662 15.031637,9.26452662 C13.932137,9.26452662 13.4175621,8.99551663 12.8217621,8.68416248 C12.2082246,8.36345749 11.5128246,8 10.1930497,8 C8.87334972,8 8.17798724,8.36345749 7.56444976,8.68416248 C6.96864978,8.9955983 6.4541498,9.26452662 5.35472484,9.26452662 C4.25518738,9.26452662 3.7406499,8.99551663 3.14484992,8.68416248 C2.61103744,8.40522999 2.01486246,8.09408 1,8.017885 L1,9.07420246 C1.78089997,9.14157746 2.22553746,9.37257162 2.72601244,9.63419077 C3.33947492,9.9548141 4.03479989,10.3182716 5.35457484,10.3182716 C6.67427479,10.3182716 7.36963727,9.9548141 7.98317475,9.63410911 Z" id="Shape-Copy" fill="#00207F" mask="url(#mask-2)"></path>
            <path d="M7.98317475,11.6341091 C8.57897473,11.3226733 9.09347471,11.0537858 10.1929747,11.0537858 C11.2925121,11.0537858 11.8071246,11.322755 12.4029246,11.6341091 C13.0164246,11.9548141 13.7118245,12.3182716 15.031637,12.3182716 C16.3514494,12.3182716 17.0468494,11.9548141 17.6604244,11.6341091 C18.2562244,11.3226733 18.7707619,11.0537858 19.8703743,11.0537858 C20.9700243,11.0537858 21.4845993,11.322755 22.0805492,11.6341091 C22.6940492,11.9548141 23.3895242,12.3182716 24.7094491,12.3182716 C26.0292616,12.3182716 26.7247366,11.9548141 27.3383115,11.6341499 C27.8389365,11.3725716 28.283574,11.1415775 29.0645865,11.0741208 L29.0645865,10.0178033 C28.049649,10.0940392 27.453399,10.4051483 26.9195866,10.6841216 C26.3237491,10.9955166 25.8091366,11.2645266 24.7094491,11.2645266 C23.6097617,11.2645266 23.0951492,10.9955166 22.4993117,10.6841216 C21.8857742,10.3634575 21.1902993,10 19.8704493,10 C18.5506744,10 17.8552744,10.3634575 17.2416619,10.6841216 C16.6458619,10.9955166 16.1312495,11.2645266 15.031637,11.2645266 C13.932137,11.2645266 13.4175621,10.9955166 12.8217621,10.6841625 C12.2082246,10.3634575 11.5128246,10 10.1930497,10 C8.87334972,10 8.17798724,10.3634575 7.56444976,10.6841625 C6.96864978,10.9955983 6.4541498,11.2645266 5.35472484,11.2645266 C4.25518738,11.2645266 3.7406499,10.9955166 3.14484992,10.6841625 C2.61103744,10.40523 2.01486246,10.09408 1,10.017885 L1,11.0742025 C1.78089997,11.1415775 2.22553746,11.3725716 2.72601244,11.6341908 C3.33947492,11.9548141 4.03479989,12.3182716 5.35457484,12.3182716 C6.67427479,12.3182716 7.36963727,11.9548141 7.98317475,11.6341091 Z" id="Shape-Copy-2" fill="#00207F" mask="url(#mask-2)"></path>
            <path d="M7.98317475,13.6341091 C8.57897473,13.3226733 9.09347471,13.0537858 10.1929747,13.0537858 C11.2925121,13.0537858 11.8071246,13.322755 12.4029246,13.6341091 C13.0164246,13.9548141 13.7118245,14.3182716 15.031637,14.3182716 C16.3514494,14.3182716 17.0468494,13.9548141 17.6604244,13.6341091 C18.2562244,13.3226733 18.7707619,13.0537858 19.8703743,13.0537858 C20.9700243,13.0537858 21.4845993,13.322755 22.0805492,13.6341091 C22.6940492,13.9548141 23.3895242,14.3182716 24.7094491,14.3182716 C26.0292616,14.3182716 26.7247366,13.9548141 27.3383115,13.6341499 C27.8389365,13.3725716 28.283574,13.1415775 29.0645865,13.0741208 L29.0645865,12.0178033 C28.049649,12.0940392 27.453399,12.4051483 26.9195866,12.6841216 C26.3237491,12.9955166 25.8091366,13.2645266 24.7094491,13.2645266 C23.6097617,13.2645266 23.0951492,12.9955166 22.4993117,12.6841216 C21.8857742,12.3634575 21.1902993,12 19.8704493,12 C18.5506744,12 17.8552744,12.3634575 17.2416619,12.6841216 C16.6458619,12.9955166 16.1312495,13.2645266 15.031637,13.2645266 C13.932137,13.2645266 13.4175621,12.9955166 12.8217621,12.6841625 C12.2082246,12.3634575 11.5128246,12 10.1930497,12 C8.87334972,12 8.17798724,12.3634575 7.56444976,12.6841625 C6.96864978,12.9955983 6.4541498,13.2645266 5.35472484,13.2645266 C4.25518738,13.2645266 3.7406499,12.9955166 3.14484992,12.6841625 C2.61103744,12.40523 2.01486246,12.09408 1,12.017885 L1,13.0742025 C1.78089997,13.1415775 2.22553746,13.3725716 2.72601244,13.6341908 C3.33947492,13.9548141 4.03479989,14.3182716 5.35457484,14.3182716 C6.67427479,14.3182716 7.36963727,13.9548141 7.98317475,13.6341091 Z" id="Shape-Copy-3" fill="#00207F" mask="url(#mask-2)"></path>
            <path d="M7.98317475,15.6341091 C8.57897473,15.3226733 9.09347471,15.0537858 10.1929747,15.0537858 C11.2925121,15.0537858 11.8071246,15.322755 12.4029246,15.6341091 C13.0164246,15.9548141 13.7118245,16.3182716 15.031637,16.3182716 C16.3514494,16.3182716 17.0468494,15.9548141 17.6604244,15.6341091 C18.2562244,15.3226733 18.7707619,15.0537858 19.8703743,15.0537858 C20.9700243,15.0537858 21.4845993,15.322755 22.0805492,15.6341091 C22.6940492,15.9548141 23.3895242,16.3182716 24.7094491,16.3182716 C26.0292616,16.3182716 26.7247366,15.9548141 27.3383115,15.6341499 C27.8389365,15.3725716 28.283574,15.1415775 29.0645865,15.0741208 L29.0645865,14.0178033 C28.049649,14.0940392 27.453399,14.4051483 26.9195866,14.6841216 C26.3237491,14.9955166 25.8091366,15.2645266 24.7094491,15.2645266 C23.6097617,15.2645266 23.0951492,14.9955166 22.4993117,14.6841216 C21.8857742,14.3634575 21.1902993,14 19.8704493,14 C18.5506744,14 17.8552744,14.3634575 17.2416619,14.6841216 C16.6458619,14.9955166 16.1312495,15.2645266 15.031637,15.2645266 C13.932137,15.2645266 13.4175621,14.9955166 12.8217621,14.6841625 C12.2082246,14.3634575 11.5128246,14 10.1930497,14 C8.87334972,14 8.17798724,14.3634575 7.56444976,14.6841625 C6.96864978,14.9955983 6.4541498,15.2645266 5.35472484,15.2645266 C4.25518738,15.2645266 3.7406499,14.9955166 3.14484992,14.6841625 C2.61103744,14.40523 2.01486246,14.09408 1,14.017885 L1,15.0742025 C1.78089997,15.1415775 2.22553746,15.3725716 2.72601244,15.6341908 C3.33947492,15.9548141 4.03479989,16.3182716 5.35457484,16.3182716 C6.67427479,16.3182716 7.36963727,15.9548141 7.98317475,15.6341091 Z" id="Shape-Copy-4" fill="#00207F" mask="url(#mask-2)"></path>
            <path d="M7.98317475,17.6341091 C8.57897473,17.3226733 9.09347471,17.0537858 10.1929747,17.0537858 C11.2925121,17.0537858 11.8071246,17.322755 12.4029246,17.6341091 C13.0164246,17.9548141 13.7118245,18.3182716 15.031637,18.3182716 C16.3514494,18.3182716 17.0468494,17.9548141 17.6604244,17.6341091 C18.2562244,17.3226733 18.7707619,17.0537858 19.8703743,17.0537858 C20.9700243,17.0537858 21.4845993,17.322755 22.0805492,17.6341091 C22.6940492,17.9548141 23.3895242,18.3182716 24.7094491,18.3182716 C26.0292616,18.3182716 26.7247366,17.9548141 27.3383115,17.6341499 C27.8389365,17.3725716 28.283574,17.1415775 29.0645865,17.0741208 L29.0645865,16.0178033 C28.049649,16.0940392 27.453399,16.4051483 26.9195866,16.6841216 C26.3237491,16.9955166 25.8091366,17.2645266 24.7094491,17.2645266 C23.6097617,17.2645266 23.0951492,16.9955166 22.4993117,16.6841216 C21.8857742,16.3634575 21.1902993,16 19.8704493,16 C18.5506744,16 17.8552744,16.3634575 17.2416619,16.6841216 C16.6458619,16.9955166 16.1312495,17.2645266 15.031637,17.2645266 C13.932137,17.2645266 13.4175621,16.9955166 12.8217621,16.6841625 C12.2082246,16.3634575 11.5128246,16 10.1930497,16 C8.87334972,16 8.17798724,16.3634575 7.56444976,16.6841625 C6.96864978,16.9955983 6.4541498,17.2645266 5.35472484,17.2645266 C4.25518738,17.2645266 3.7406499,16.9955166 3.14484992,16.6841625 C2.61103744,16.40523 2.01486246,16.09408 1,16.017885 L1,17.0742025 C1.78089997,17.1415775 2.22553746,17.3725716 2.72601244,17.6341908 C3.33947492,17.9548141 4.03479989,18.3182716 5.35457484,18.3182716 C6.67427479,18.3182716 7.36963727,17.9548141 7.98317475,17.6341091 Z" id="Shape-Copy-5" fill="#00207F" mask="url(#mask-2)"></path>
            <path d="M7.98317475,19.6341091 C8.57897473,19.3226733 9.09347471,19.0537858 10.1929747,19.0537858 C11.2925121,19.0537858 11.8071246,19.322755 12.4029246,19.6341091 C13.0164246,19.9548141 13.7118245,20.3182716 15.031637,20.3182716 C16.3514494,20.3182716 17.0468494,19.9548141 17.6604244,19.6341091 C18.2562244,19.3226733 18.7707619,19.0537858 19.8703743,19.0537858 C20.9700243,19.0537858 21.4845993,19.322755 22.0805492,19.6341091 C22.6940492,19.9548141 23.3895242,20.3182716 24.7094491,20.3182716 C26.0292616,20.3182716 26.7247366,19.9548141 27.3383115,19.6341499 C27.8389365,19.3725716 28.283574,19.1415775 29.0645865,19.0741208 L29.0645865,18.0178033 C28.049649,18.0940392 27.453399,18.4051483 26.9195866,18.6841216 C26.3237491,18.9955166 25.8091366,19.2645266 24.7094491,19.2645266 C23.6097617,19.2645266 23.0951492,18.9955166 22.4993117,18.6841216 C21.8857742,18.3634575 21.1902993,18 19.8704493,18 C18.5506744,18 17.8552744,18.3634575 17.2416619,18.6841216 C16.6458619,18.9955166 16.1312495,19.2645266 15.031637,19.2645266 C13.932137,19.2645266 13.4175621,18.9955166 12.8217621,18.6841625 C12.2082246,18.3634575 11.5128246,18 10.1930497,18 C8.87334972,18 8.17798724,18.3634575 7.56444976,18.6841625 C6.96864978,18.9955983 6.4541498,19.2645266 5.35472484,19.2645266 C4.25518738,19.2645266 3.7406499,18.9955166 3.14484992,18.6841625 C2.61103744,18.40523 2.01486246,18.09408 1,18.017885 L1,19.0742025 C1.78089997,19.1415775 2.22553746,19.3725716 2.72601244,19.6341908 C3.33947492,19.9548141 4.03479989,20.3182716 5.35457484,20.3182716 C6.67427479,20.3182716 7.36963727,19.9548141 7.98317475,19.6341091 Z" id="Shape-Copy-9" fill="#00207F" mask="url(#mask-2)"></path>
            <rect id="Rectangle-5" fill="#00207F" mask="url(#mask-2)" x="0" y="0" width="13" height="10.0092773"></rect>
            <g id="Rectangle-36" mask="url(#mask-2)">
                <use fill="#DB1E36" fill-rule="evenodd" xlink:href="#path-3"></use>
                <use stroke="#FFFFFF" mask="url(#mask-4)" stroke-width="1.33333333" xlink:href="#path-3"></use>
            </g>
            <path d="M0.4375,3.33333333 L0.4375,6 L5.10416667,6 L5.10416667,9.33948135 C5.10416667,9.70427573 5.41006724,10 5.77707926,10 L7.09792074,10 C7.4695601,10 7.77083333,9.69934988 7.77083333,9.33948135 L7.77083333,6 L12.4286963,6 C12.8017483,6 13.1041667,5.69409943 13.1041667,5.3270874 L13.1041667,4.00624593 C13.1041667,3.63460657 12.8021425,3.33333333 12.4286963,3.33333333 L7.77083333,3.33333333 L7.77083333,0 L5.10416667,0 L5.10416667,3.33333333 L0.4375,3.33333333 Z" id="Rectangle-2" fill="#FFFFFF" mask="url(#mask-2)"></path>
            <polygon id="Rectangle-36" fill="#DB1E36" mask="url(#mask-2)" points="0.4375 4 5.77083333 4 5.77083333 3.33333333 5.77083333 0 7.10416667 0 7.10416667 3.33333333 7.10416667 4 12.4375 4 12.4375 5.33333333 7.10416667 5.33333333 7.10416667 6 7.10416667 9.33333333 5.77083333 9.33333333 5.77083333 6 5.77083333 5.33333333 0.4375 5.33333333"></polygon>
            <rect id="Rectangle-7" fill="#A44300" mask="url(#mask-2)" x="21" y="11" width="1" height="7"></rect>
            <path d="M21.5,11 C23.9852814,11 26,10.5710678 26,8.5 C26,6.42893219 23.9852814,6 21.5,6 C19.0147186,6 17,6.42893219 17,8.5 C17,10.5710678 19.0147186,11 21.5,11 Z" id="Oval-7" fill="#006E00" mask="url(#mask-2)"></path>
            <rect id="Rectangle-6" fill="#CE0000" mask="url(#mask-2)" x="19" y="12" width="5" height="4" rx="0.996161228"></rect>
        </g>
    </g>
</svg>