<?xml version="1.0" encoding="UTF-8" standalone="no"?>
<svg width="36px" height="28px" viewBox="0 0 36 28" version="1.1" xmlns="http://www.w3.org/2000/svg" xmlns:xlink="http://www.w3.org/1999/xlink">
    <!-- Generator: Sketch 40.1 (33804) - http://www.bohemiancoding.com/sketch -->
    <title>KG Copy@1x</title>
    <desc>Created with Sketch.</desc>
    <defs>
        <filter x="-50%" y="-50%" width="200%" height="200%" filterUnits="objectBoundingBox" id="filter-1">
            <feOffset dx="0" dy="2" in="SourceAlpha" result="shadowOffsetOuter1"></feOffset>
            <feGaussianBlur stdDeviation="2" in="shadowOffsetOuter1" result="shadowBlurOuter1"></feGaussianBlur>
            <feColorMatrix values="0 0 0 0 0   0 0 0 0 0   0 0 0 0 0  0 0 0 0.5 0" type="matrix" in="shadowBlurOuter1" result="shadowMatrixOuter1"></feColorMatrix>
            <feMerge>
                <feMergeNode in="shadowMatrixOuter1"></feMergeNode>
                <feMergeNode in="SourceGraphic"></feMergeNode>
            </feMerge>
        </filter>
        <rect id="path-2" x="0" y="0" width="28" height="20" rx="2"></rect>
    </defs>
    <g id="Page-1" stroke="none" stroke-width="1" fill="none" fill-rule="evenodd">
        <g id="KG-Copy" filter="url(#filter-1)" transform="translate(4.111111, 2.000000)">
            <mask id="mask-3" fill="white">
                <use xlink:href="#path-2"></use>
            </mask>
            <use id="Mask" fill="#FFFFFF" xlink:href="#path-2"></use>
            <rect id="Mask-Copy" fill="#F22A46" mask="url(#mask-3)" x="0" y="0" width="28" height="20"></rect>
            <ellipse id="Oval-9" fill="#FFF04D" mask="url(#mask-3)" cx="14" cy="10" rx="3.33333333" ry="3.33333333"></ellipse>
            <path d="M14,14.713613 L12.3681798,17.1494714 L11.95484,14.2468186 L9.42774145,15.7334309 L10.3147489,12.9388896 L7.39289497,13.1818141 L9.40456711,11.0488776 L6.66666667,10 L9.40456711,8.95112243 L7.39289497,6.81818591 L10.3147489,7.06111036 L9.42774145,4.26656913 L11.95484,5.75318142 L12.3681798,2.85052864 L14,5.28638699 L15.6318202,2.85052864 L16.04516,5.75318142 L18.5722585,4.26656913 L17.6852511,7.06111036 L20.607105,6.81818591 L18.5954329,8.95112243 L21.3333333,10 L18.5954329,11.0488776 L20.607105,13.1818141 L17.6852511,12.9388896 L18.5722585,15.7334309 L16.04516,14.2468186 L15.6318202,17.1494714 L14,14.713613 Z M14,14.6666667 C16.5773288,14.6666667 18.6666667,12.5773288 18.6666667,10 C18.6666667,7.42267117 16.5773288,5.33333333 14,5.33333333 C11.4226712,5.33333333 9.33333333,7.42267117 9.33333333,10 C9.33333333,12.5773288 11.4226712,14.6666667 14,14.6666667 Z" id="Star-28" fill="#FFF04D" mask="url(#mask-3)"></path>
        </g>
    </g>
</svg>