<?xml version="1.0" encoding="UTF-8" standalone="no"?>
<svg width="37px" height="28px" viewBox="0 0 37 28" version="1.1" xmlns="http://www.w3.org/2000/svg" xmlns:xlink="http://www.w3.org/1999/xlink">
    <!-- Generator: Sketch 40.1 (33804) - http://www.bohemiancoding.com/sketch -->
    <title>KH Copy@1x</title>
    <desc>Created with Sketch.</desc>
    <defs>
        <filter x="-50%" y="-50%" width="200%" height="200%" filterUnits="objectBoundingBox" id="filter-1">
            <feOffset dx="0" dy="2" in="SourceAlpha" result="shadowOffsetOuter1"></feOffset>
            <feGaussianBlur stdDeviation="2" in="shadowOffsetOuter1" result="shadowBlurOuter1"></feGaussianBlur>
            <feColorMatrix values="0 0 0 0 0   0 0 0 0 0   0 0 0 0 0  0 0 0 0.5 0" type="matrix" in="shadowBlurOuter1" result="shadowMatrixOuter1"></feColorMatrix>
            <feMerge>
                <feMergeNode in="shadowMatrixOuter1"></feMergeNode>
                <feMergeNode in="SourceGraphic"></feMergeNode>
            </feMerge>
        </filter>
        <rect id="path-2" x="0" y="0" width="28" height="20" rx="2"></rect>
    </defs>
    <g id="Page-1" stroke="none" stroke-width="1" fill="none" fill-rule="evenodd">
        <g id="KH-Copy" filter="url(#filter-1)" transform="translate(4.444444, 2.000000)">
            <mask id="mask-3" fill="white">
                <use xlink:href="#path-2"></use>
            </mask>
            <use id="Mask" fill="#FFFFFF" xlink:href="#path-2"></use>
            <rect id="Rectangle-2" fill="#0F3EB6" mask="url(#mask-3)" x="0" y="0" width="28" height="5.33333333"></rect>
            <rect id="Rectangle-2" fill="#0F3EB6" mask="url(#mask-3)" x="0" y="14.6666667" width="28" height="5.33333333"></rect>
            <rect id="Rectangle-2" fill="#ED1A3C" mask="url(#mask-3)" x="0" y="5.33333333" width="28" height="9.33333333"></rect>
            <path d="M10,10.6666667 L11.3333333,10.6666667 L11.3333333,13.3333333 L8.66666667,13.3333333 L10,10.6666667 Z M12,10.6666667 L16,10.6666667 L16,13.3333333 L12,13.3333333 L12,10.6666667 Z M16.6666667,10.6666667 L18,10.6666667 L19.3333333,13.3333333 L16.6666667,13.3333333 L16.6666667,10.6666667 Z M16.6666667,8.66597104 C16.6666667,8.29816539 16.9625765,8 17.3333333,8 C17.7015232,8 18,8.29510689 18,8.66597104 L18,10 L16.6666667,10 L16.6666667,8.66597104 Z M12,8.72721354 L13.3333333,8.72721354 L13.3333333,7.997615 C13.3333333,7.63074237 13.6292432,7.33333333 14,7.33333333 C14.3681898,7.33333333 14.6666667,7.62893947 14.6666667,7.997615 L14.6666667,8.72721354 L16,8.72721354 L16,10 L12,10 L12,8.72721354 Z M10,8.66597104 C10,8.29816539 10.2959099,8 10.6666667,8 C11.0348565,8 11.3333333,8.29510689 11.3333333,8.66597104 L11.3333333,10 L10,10 L10,8.66597104 Z" id="Rectangle-621" fill="#FFFFFF" mask="url(#mask-3)"></path>
        </g>
    </g>
</svg>