<?xml version="1.0" encoding="UTF-8" standalone="no"?>
<svg width="36px" height="28px" viewBox="0 0 36 28" version="1.1" xmlns="http://www.w3.org/2000/svg" xmlns:xlink="http://www.w3.org/1999/xlink">
    <!-- Generator: Sketch 40.1 (33804) - http://www.bohemiancoding.com/sketch -->
    <title>KP Copy</title>
    <desc>Created with Sketch.</desc>
    <defs>
        <filter x="-50%" y="-50%" width="200%" height="200%" filterUnits="objectBoundingBox" id="filter-1">
            <feOffset dx="0" dy="2" in="SourceAlpha" result="shadowOffsetOuter1"></feOffset>
            <feGaussianBlur stdDeviation="2" in="shadowOffsetOuter1" result="shadowBlurOuter1"></feGaussianBlur>
            <feColorMatrix values="0 0 0 0 0   0 0 0 0 0   0 0 0 0 0  0 0 0 0.5 0" type="matrix" in="shadowBlurOuter1" result="shadowMatrixOuter1"></feColorMatrix>
            <feMerge>
                <feMergeNode in="shadowMatrixOuter1"></feMergeNode>
                <feMergeNode in="SourceGraphic"></feMergeNode>
            </feMerge>
        </filter>
        <rect id="path-2" x="0" y="0" width="28" height="20" rx="2"></rect>
    </defs>
    <g id="Page-1" stroke="none" stroke-width="1" fill="none" fill-rule="evenodd">
        <g id="KP-Copy" filter="url(#filter-1)" transform="translate(4.000000, 2.000000)">
            <mask id="mask-3" fill="white">
                <use xlink:href="#path-2"></use>
            </mask>
            <use id="Mask" fill="#FFFFFF" xlink:href="#path-2"></use>
            <rect id="Rectangle-2" fill="#1461B6" mask="url(#mask-3)" x="0" y="0" width="28" height="4"></rect>
            <rect id="Rectangle-2" fill="#1461B6" mask="url(#mask-3)" x="0" y="16" width="28" height="4"></rect>
            <rect id="Rectangle-2" fill="#FFFFFF" mask="url(#mask-3)" x="0" y="4" width="28" height="12"></rect>
            <rect id="Rectangle-2-Copy-4" fill="#F53846" mask="url(#mask-3)" x="0" y="5.33333333" width="28" height="9.33333333"></rect>
            <path d="M10,13.3333333 C11.8409492,13.3333333 13.3333333,11.8409492 13.3333333,10 C13.3333333,8.15905083 11.8409492,6.66666667 10,6.66666667 C8.15905083,6.66666667 6.66666667,8.15905083 6.66666667,10 C6.66666667,11.8409492 8.15905083,13.3333333 10,13.3333333 Z M10,11.3375785 L8.04071583,12.6967233 L8.72788727,10.4133345 L6.82981161,8.96994335 L9.21379109,8.91787628 L10,6.66666667 L10.7862089,8.91787628 L13.1701884,8.96994335 L11.2721127,10.4133345 L11.9592842,12.6967233 L10,11.3375785 Z" id="Oval-12" fill="#FFFFFF" mask="url(#mask-3)"></path>
        </g>
    </g>
</svg>