<?xml version="1.0" encoding="UTF-8" standalone="no"?>
<svg width="37px" height="28px" viewBox="0 0 37 28" version="1.1" xmlns="http://www.w3.org/2000/svg" xmlns:xlink="http://www.w3.org/1999/xlink">
    <!-- Generator: Sketch 40.1 (33804) - http://www.bohemiancoding.com/sketch -->
    <title>MN Copy@1x</title>
    <desc>Created with Sketch.</desc>
    <defs>
        <filter x="-50%" y="-50%" width="200%" height="200%" filterUnits="objectBoundingBox" id="filter-1">
            <feOffset dx="0" dy="2" in="SourceAlpha" result="shadowOffsetOuter1"></feOffset>
            <feGaussianBlur stdDeviation="2" in="shadowOffsetOuter1" result="shadowBlurOuter1"></feGaussianBlur>
            <feColorMatrix values="0 0 0 0 0   0 0 0 0 0   0 0 0 0 0  0 0 0 0.5 0" type="matrix" in="shadowBlurOuter1" result="shadowMatrixOuter1"></feColorMatrix>
            <feMerge>
                <feMergeNode in="shadowMatrixOuter1"></feMergeNode>
                <feMergeNode in="SourceGraphic"></feMergeNode>
            </feMerge>
        </filter>
        <rect id="path-2" x="0" y="0" width="28" height="20" rx="2"></rect>
        <linearGradient x1="50%" y1="0%" x2="50%" y2="100%" id="linearGradient-4">
            <stop stop-color="#F9D346" offset="0%"></stop>
            <stop stop-color="#F9CE2F" offset="100%"></stop>
        </linearGradient>
    </defs>
    <g id="Page-1" stroke="none" stroke-width="1" fill="none" fill-rule="evenodd">
        <g id="MN-Copy" filter="url(#filter-1)" transform="translate(4.333333, 2.000000)">
            <mask id="mask-3" fill="white">
                <use xlink:href="#path-2"></use>
            </mask>
            <use id="Mask" fill="#FFFFFF" xlink:href="#path-2"></use>
            <rect id="Rectangle-2-Copy" fill="#146BBC" mask="url(#mask-3)" x="9.33333333" y="0" width="9.33333333" height="20"></rect>
            <rect id="Rectangle-2" fill="#E43642" mask="url(#mask-3)" x="0" y="0" width="9.33333333" height="20"></rect>
            <rect id="Rectangle-2" fill="#E43642" mask="url(#mask-3)" x="18.6666667" y="0" width="9.33333333" height="20"></rect>
            <path d="M5.33333333,12 L6.66666667,12 L6.66666667,16 L5.33333333,16 L5.33333333,12 Z M2.66666667,12 L4,12 L4,16 L2.66666667,16 L2.66666667,12 Z M4,14.6666667 L5.33333333,14.6666667 L4.66666667,16 L4,14.6666667 Z M4,12 L5.33333333,12 L4.66666667,13.3333333 L4,12 Z M4,10.6666667 L5.33333333,10.6666667 L4.66666667,10 L4,10.6666667 Z M4.66666667,12 C5.0348565,12 5.33333333,11.7015232 5.33333333,11.3333333 C5.33333333,10.9651435 5.0348565,10.6666667 4.66666667,10.6666667 C4.29847683,10.6666667 4,10.9651435 4,11.3333333 C4,11.7015232 4.29847683,12 4.66666667,12 Z M4.66666667,14.6666667 C5.0348565,14.6666667 5.33333333,14.3681898 5.33333333,14 C5.33333333,13.6318102 5.0348565,13.3333333 4.66666667,13.3333333 C4.29847683,13.3333333 4,13.6318102 4,14 C4,14.3681898 4.29847683,14.6666667 4.66666667,14.6666667 Z" id="Rectangle-1611" fill="url(#linearGradient-4)" mask="url(#mask-3)"></path>
        </g>
    </g>
</svg>