<?xml version="1.0" encoding="UTF-8" standalone="no"?>
<svg width="37px" height="28px" viewBox="0 0 37 28" version="1.1" xmlns="http://www.w3.org/2000/svg" xmlns:xlink="http://www.w3.org/1999/xlink">
    <!-- Generator: Sketch 40.1 (33804) - http://www.bohemiancoding.com/sketch -->
    <title>MV Copy@1x</title>
    <desc>Created with Sketch.</desc>
    <defs>
        <filter x="-50%" y="-50%" width="200%" height="200%" filterUnits="objectBoundingBox" id="filter-1">
            <feOffset dx="0" dy="2" in="SourceAlpha" result="shadowOffsetOuter1"></feOffset>
            <feGaussianBlur stdDeviation="2" in="shadowOffsetOuter1" result="shadowBlurOuter1"></feGaussianBlur>
            <feColorMatrix values="0 0 0 0 0   0 0 0 0 0   0 0 0 0 0  0 0 0 0.5 0" type="matrix" in="shadowBlurOuter1" result="shadowMatrixOuter1"></feColorMatrix>
            <feMerge>
                <feMergeNode in="shadowMatrixOuter1"></feMergeNode>
                <feMergeNode in="SourceGraphic"></feMergeNode>
            </feMerge>
        </filter>
        <rect id="path-2" x="0" y="0" width="28" height="20" rx="2"></rect>
    </defs>
    <g id="Page-1" stroke="none" stroke-width="1" fill="none" fill-rule="evenodd">
        <g id="MV-Copy" filter="url(#filter-1)" transform="translate(4.142857, 2.000000)">
            <mask id="mask-3" fill="white">
                <use xlink:href="#path-2"></use>
            </mask>
            <use id="Mask" fill="#FFFFFF" xlink:href="#path-2"></use>
            <rect id="Mask-Copy" fill="#F32249" mask="url(#mask-3)" x="0" y="0" width="28" height="20"></rect>
            <rect id="Rectangle-1568" fill="#15A04F" mask="url(#mask-3)" x="4" y="4" width="20" height="12" rx="0.666666667"></rect>
            <path d="M16.3333333,14.5592735 C16.0111773,14.629608 15.6765831,14.6666667 15.3333333,14.6666667 C12.7560045,14.6666667 10.6666667,12.5773288 10.6666667,10 C10.6666667,7.42267117 12.7560045,5.33333333 15.3333333,5.33333333 C15.6765831,5.33333333 16.0111773,5.37039197 16.3333333,5.44072651 C14.2365453,5.89850666 12.6666667,7.76592092 12.6666667,10 C12.6666667,12.2340791 14.2365453,14.1014933 16.3333333,14.5592735 Z" id="Oval-12" fill="#FFFFFF" mask="url(#mask-3)"></path>
        </g>
    </g>
</svg>