<?xml version="1.0" encoding="UTF-8" standalone="no"?>
<svg width="37px" height="28px" viewBox="0 0 37 28" version="1.1" xmlns="http://www.w3.org/2000/svg" xmlns:xlink="http://www.w3.org/1999/xlink">
    <!-- Generator: Sketch 40.1 (33804) - http://www.bohemiancoding.com/sketch -->
    <title>NP Copy@1x</title>
    <desc>Created with Sketch.</desc>
    <defs>
        <filter x="-50%" y="-50%" width="200%" height="200%" filterUnits="objectBoundingBox" id="filter-1">
            <feOffset dx="0" dy="2" in="SourceAlpha" result="shadowOffsetOuter1"></feOffset>
            <feGaussianBlur stdDeviation="2" in="shadowOffsetOuter1" result="shadowBlurOuter1"></feGaussianBlur>
            <feColorMatrix values="0 0 0 0 0   0 0 0 0 0   0 0 0 0 0  0 0 0 0.5 0" type="matrix" in="shadowBlurOuter1" result="shadowMatrixOuter1"></feColorMatrix>
            <feMerge>
                <feMergeNode in="shadowMatrixOuter1"></feMergeNode>
                <feMergeNode in="SourceGraphic"></feMergeNode>
            </feMerge>
        </filter>
        <rect id="path-2" x="0" y="0" width="28" height="20" rx="2"></rect>
        <mask id="mask-3" maskContentUnits="userSpaceOnUse" maskUnits="objectBoundingBox" x="0" y="0" width="28" height="20" fill="white">
            <use xlink:href="#path-2"></use>
        </mask>
        <mask id="mask-5" maskContentUnits="userSpaceOnUse" maskUnits="objectBoundingBox" x="0" y="0" width="28" height="20" fill="white">
            <use xlink:href="#path-2"></use>
        </mask>
        <path d="M0,1.99079514 C0,0.891309342 0.902811686,8.75358855e-10 1.99375407,1.93298818e-09 L1.99375407,1.93298818e-09 C2.36539343,2.29327915e-09 2.91798846,0.167547864 3.21742288,0.367170813 L17.5542808,9.92507611 C18.1686346,10.3346453 18.0626183,10.6666667 17.3372931,10.6666667 L8,10.6666667 L17.6631726,19.1219427 C18.2173871,19.6068803 18.066735,20 17.324206,20 L1.99766032,20 C0.89438299,20 0,19.1017876 0,18.0092049 L0,1.99079514 Z" id="path-6"></path>
        <path d="M0,0 L1.99375407,0 C2.36539343,0 2.91798846,0.167547862 3.21742288,0.367170811 L17.5542808,9.92507611 C18.1686346,10.3346453 18.0626183,10.6666667 17.3372931,10.6666667 L8,10.6666667 L17.6631726,19.1219427 C18.2173871,19.6068803 18.066735,20 17.324206,20 L0,20 L0,0 Z" id="path-8"></path>
        <mask id="mask-9" maskContentUnits="userSpaceOnUse" maskUnits="objectBoundingBox" x="0" y="0" width="17.9972056" height="20" fill="white">
            <use xlink:href="#path-8"></use>
        </mask>
    </defs>
    <g id="Page-1" stroke="none" stroke-width="1" fill="none" fill-rule="evenodd">
        <g id="NP-Copy" filter="url(#filter-1)" transform="translate(4.357143, 2.000000)">
            <mask id="mask-4" fill="white">
                <use xlink:href="#path-2"></use>
            </mask>
            <g id="Mask" stroke="#F5F5F5" mask="url(#mask-3)" fill="#FFFFFF">
                <use mask="url(#mask-5)" xlink:href="#path-2"></use>
            </g>
            <mask id="mask-7" fill="white">
                <use xlink:href="#path-6"></use>
            </mask>
            <use id="Mask" fill="#FFFFFF" xlink:href="#path-6"></use>
            <g id="Mask-Copy" mask="url(#mask-7)" stroke="#0543A8" stroke-width="2.66666667" fill="#EE1B44" stroke-linejoin="round">
                <use mask="url(#mask-9)" xlink:href="#path-8"></use>
            </g>
            <path d="M3.8146123,7.80164079 C3.42927257,7.69629849 3.07406412,7.5520179 2.75999991,7.37614099 C3.07064974,8.50450951 4.10416087,9.33333333 5.33125417,9.33333333 C6.55834747,9.33333333 7.5918586,8.50450951 7.90250843,7.37614099 C7.5893113,7.55153233 7.23519681,7.69550157 6.85108695,7.80076739 L6.33333333,7.33333333 L7.1810924,6.56796647 L6.04044011,6.62622655 L6.0987002,5.48557427 L5.33333333,6.33333333 L4.56796647,5.48557427 L4.62622655,6.62622655 L3.48557427,6.56796647 L4.33333333,7.33333333 L3.8146123,7.80164079 Z M5.33333333,16 L4.31284418,17.1303454 L4.39052429,15.6094757 L2.86965458,15.6871558 L4,14.6666667 L2.86965458,13.6461775 L4.39052429,13.7238576 L4.31284418,12.2029879 L5.33333333,13.3333333 L6.35382249,12.2029879 L6.27614237,13.7238576 L7.79701209,13.6461775 L6.66666667,14.6666667 L7.79701209,15.6871558 L6.27614237,15.6094757 L6.35382249,17.1303454 L5.33333333,16 Z" id="Star-93" fill="#FFFFFF" mask="url(#mask-7)"></path>
        </g>
    </g>
</svg>