<?xml version="1.0" encoding="UTF-8" standalone="no"?>
<svg width="37px" height="28px" viewBox="0 0 37 28" version="1.1" xmlns="http://www.w3.org/2000/svg" xmlns:xlink="http://www.w3.org/1999/xlink">
    <!-- Generator: Sketch 40.1 (33804) - http://www.bohemiancoding.com/sketch -->
    <title>UZ Copy@1x</title>
    <desc>Created with Sketch.</desc>
    <defs>
        <filter x="-50%" y="-50%" width="200%" height="200%" filterUnits="objectBoundingBox" id="filter-1">
            <feOffset dx="0" dy="2" in="SourceAlpha" result="shadowOffsetOuter1"></feOffset>
            <feGaussianBlur stdDeviation="2" in="shadowOffsetOuter1" result="shadowBlurOuter1"></feGaussianBlur>
            <feColorMatrix values="0 0 0 0 0   0 0 0 0 0   0 0 0 0 0  0 0 0 0.5 0" type="matrix" in="shadowBlurOuter1" result="shadowMatrixOuter1"></feColorMatrix>
            <feMerge>
                <feMergeNode in="shadowMatrixOuter1"></feMergeNode>
                <feMergeNode in="SourceGraphic"></feMergeNode>
            </feMerge>
        </filter>
        <rect id="path-2" x="0" y="0" width="28" height="20" rx="2"></rect>
        <mask id="mask-3" maskContentUnits="userSpaceOnUse" maskUnits="objectBoundingBox" x="0" y="0" width="28" height="20" fill="white">
            <use xlink:href="#path-2"></use>
        </mask>
        <mask id="mask-5" maskContentUnits="userSpaceOnUse" maskUnits="objectBoundingBox" x="0" y="0" width="28" height="20" fill="white">
            <use xlink:href="#path-2"></use>
        </mask>
    </defs>
    <g id="Page-1" stroke="none" stroke-width="1" fill="none" fill-rule="evenodd">
        <g id="UZ-Copy" filter="url(#filter-1)" transform="translate(4.642857, 2.000000)">
            <mask id="mask-4" fill="white">
                <use xlink:href="#path-2"></use>
            </mask>
            <g id="Mask" stroke="#F5F5F5" mask="url(#mask-3)" fill="#FFFFFF">
                <use mask="url(#mask-5)" xlink:href="#path-2"></use>
            </g>
            <rect id="Rectangle-2" fill="#04AAC8" mask="url(#mask-4)" x="0" y="0" width="28" height="6.66666667"></rect>
            <rect id="Rectangle-2" fill="#23C840" mask="url(#mask-4)" x="0" y="13.3333333" width="28" height="6.66666667"></rect>
            <path d="M5.77809191,4.99633434 C5.46023006,5.20919119 5.07794584,5.33333333 4.66666667,5.33333333 C3.56209717,5.33333333 2.66666667,4.43790283 2.66666667,3.33333333 C2.66666667,2.22876383 3.56209717,1.33333333 4.66666667,1.33333333 C5.07794584,1.33333333 5.46023006,1.45747547 5.77809191,1.67033232 C5.74126421,1.66790138 5.70410963,1.66666667 5.66666667,1.66666667 C4.74619208,1.66666667 4,2.41285875 4,3.33333333 C4,4.25380792 4.74619208,5 5.66666667,5 C5.70410963,5 5.74126421,4.99876528 5.77809191,4.99633434 Z M7.33333333,5.33333333 C7.70152317,5.33333333 8,5.0348565 8,4.66666667 C8,4.29847683 7.70152317,4 7.33333333,4 C6.9651435,4 6.66666667,4.29847683 6.66666667,4.66666667 C6.66666667,5.0348565 6.9651435,5.33333333 7.33333333,5.33333333 Z M10,2.66666667 C10.3681898,2.66666667 10.6666667,2.36818983 10.6666667,2 C10.6666667,1.63181017 10.3681898,1.33333333 10,1.33333333 C9.63181017,1.33333333 9.33333333,1.63181017 9.33333333,2 C9.33333333,2.36818983 9.63181017,2.66666667 10,2.66666667 Z M12.6666667,2.66666667 C13.0348565,2.66666667 13.3333333,2.36818983 13.3333333,2 C13.3333333,1.63181017 13.0348565,1.33333333 12.6666667,1.33333333 C12.2984768,1.33333333 12,1.63181017 12,2 C12,2.36818983 12.2984768,2.66666667 12.6666667,2.66666667 Z M12.6666667,5.33333333 C13.0348565,5.33333333 13.3333333,5.0348565 13.3333333,4.66666667 C13.3333333,4.29847683 13.0348565,4 12.6666667,4 C12.2984768,4 12,4.29847683 12,4.66666667 C12,5.0348565 12.2984768,5.33333333 12.6666667,5.33333333 Z M10,5.33333333 C10.3681898,5.33333333 10.6666667,5.0348565 10.6666667,4.66666667 C10.6666667,4.29847683 10.3681898,4 10,4 C9.63181017,4 9.33333333,4.29847683 9.33333333,4.66666667 C9.33333333,5.0348565 9.63181017,5.33333333 10,5.33333333 Z" id="Oval-68" fill="#FFFFFF" mask="url(#mask-4)"></path>
        </g>
    </g>
</svg>