<?xml version="1.0" encoding="UTF-8" standalone="no"?>
<svg width="84px" height="82px" viewBox="0 0 84 82" version="1.1" xmlns="http://www.w3.org/2000/svg" xmlns:xlink="http://www.w3.org/1999/xlink">
    <!-- Generator: Sketch 41.2 (35397) - http://www.bohemiancoding.com/sketch -->
    <title>Africa Copy 3</title>
    <desc>Created with Sketch.</desc>
    <defs>
        <filter x="-50%" y="-50%" width="200%" height="200%" filterUnits="objectBoundingBox" id="filter-1">
            <feOffset dx="0" dy="1" in="SourceAlpha" result="shadowOffsetOuter1"></feOffset>
            <feGaussianBlur stdDeviation="1" in="shadowOffsetOuter1" result="shadowBlurOuter1"></feGaussianBlur>
            <feColorMatrix values="0 0 0 0 0   0 0 0 0 0   0 0 0 0 0  0 0 0 0.4 0" type="matrix" in="shadowBlurOuter1" result="shadowMatrixOuter1"></feColorMatrix>
            <feMerge>
                <feMergeNode in="shadowMatrixOuter1"></feMergeNode>
                <feMergeNode in="SourceGraphic"></feMergeNode>
            </feMerge>
        </filter>
    </defs>
    <g id="Page-1" stroke="none" stroke-width="1" fill="none" fill-rule="evenodd">
        <g id="Africa-Copy-3" filter="url(#filter-1)" transform="translate(1.000000, 1.000000)">
            <path d="M25.0583019,75.08016 C20.1256604,73.107855 15.7025943,70.22043 11.7903302,66.43695 C7.91669811,62.725425 4.96778302,58.5465 2.9270283,53.901405 C2.00599057,51.787035 1.2940566,49.62777 0.790613208,47.42361 L8.8665566,47.42361 C9.22834906,48.659145 9.67537736,49.88115 10.2107075,51.083475 C11.8798585,54.84789 14.2848585,58.213785 17.4091509,61.21191 C20.499717,64.194045 24.0471226,66.4923 28.0673113,68.10729 C32.0703302,69.724125 36.1953774,70.52424 40.4620755,70.52424 C44.9225472,70.52424 49.1702358,69.741345 53.1738679,68.17494 C57.1768868,66.62514 60.8291509,64.344105 64.1288208,61.36197 C67.2193868,58.4973 69.5900472,55.19844 71.2408019,51.483225 C71.8276415,50.156055 72.3102358,48.80244 72.6873585,47.42361 L80.7001415,47.42361 C80.1936321,49.76307 79.4620755,52.02996 78.5066981,54.22428 C76.4653302,58.869375 73.5170283,62.976345 69.642783,66.544575 C65.6176887,70.256715 61.1001887,73.107855 56.0921226,75.08016 C51.0834434,77.070915 45.9233019,78.05676 40.6129245,78.05676 C35.1694811,78.05676 29.9921698,77.070915 25.0583019,75.08016 Z" id="Fill-1" fill="#747470"></path>
            <path d="M40.6331604,0.57291 C46.2121226,0.57291 51.4881604,1.558755 56.4796698,3.513225 C61.4724057,5.48553 65.8973113,8.337285 69.7917925,12.085095 C73.593066,15.72528 76.5058019,19.90359 78.547783,24.60219 C79.4774057,26.76084 80.1954717,28.96131 80.6995283,31.206675 L72.6524057,31.206675 C72.3016509,29.913945 71.8662736,28.65012 71.3468868,27.41274 C69.7488679,23.6145 67.429717,20.26521 64.3728774,17.367945 C61.1940094,14.3526 57.6104245,12.05373 53.605566,10.471335 C49.5994811,8.888325 45.3309434,8.10543 40.7815566,8.10543 C36.3192453,8.10543 32.1034434,8.87172 28.1513208,10.4043 C24.1985849,11.920275 20.7376415,14.119515 17.7875,16.9848 C14.5540566,20.065335 12.0601415,23.547465 10.3210849,27.41274 C9.75816038,28.664265 9.28783019,29.92809 8.9070283,31.206675 L0.803490566,31.206675 C1.33330189,28.922565 2.09,26.672895 3.07910377,24.45828 C5.19589623,19.68834 8.25948113,15.38457 12.2496226,11.564805 C15.9748585,7.942455 20.2489151,5.21739 25.0711792,3.35271 C29.8928302,1.505865 35.0738208,0.57291 40.6331604,0.57291" id="Fill-2" fill="#747470"></path>
            <path d="M30.2498396,43.6435672 L27.8378412,43.6435672 L26.8790344,41.1491713 L22.4894969,41.1491713 L21.5831249,43.6435672 L19.2310519,43.6435672 L23.5082292,32.6622328 L25.8528115,32.6622328 L30.2498396,43.6435672 Z M26.16742,39.2989738 L24.654303,35.2240448 L23.1711487,39.2989738 L26.16742,39.2989738 Z M30.4896027,35.6884669 L31.6581485,35.6884669 L31.6581485,35.0892126 C31.6581485,34.420042 31.7293092,33.9206684 31.8716328,33.591077 C32.0139564,33.2614855 32.2761275,32.9930722 32.658154,32.785829 C33.0401805,32.5785859 33.5233245,32.4749659 34.1076003,32.4749659 C34.7068575,32.4749659 35.2936215,32.5648531 35.8679097,32.7446303 L35.5832639,34.2128032 C35.2486786,34.1329023 34.9265827,34.0929524 34.6169664,34.0929524 C34.312344,34.0929524 34.093868,34.1641131 33.9615321,34.3064367 C33.8291961,34.4487603 33.7630291,34.7221673 33.7630291,35.126666 L33.7630291,35.6884669 L35.3360715,35.6884669 L35.3360715,37.3439068 L33.7630291,37.3439068 L33.7630291,43.6435672 L31.6581485,43.6435672 L31.6581485,37.3439068 L30.4896027,37.3439068 L30.4896027,35.6884669 Z M38.5346525,43.6435672 L36.4297719,43.6435672 L36.4297719,35.6884669 L38.3848389,35.6884669 L38.3848389,36.8195593 C38.7194242,36.2852216 39.0202968,35.9331632 39.2874657,35.7633737 C39.5546345,35.5935841 39.858004,35.5086906 40.1975831,35.5086906 C40.6769889,35.5086906 41.1389094,35.6410246 41.5833586,35.9056965 L40.9316696,37.7409127 C40.577109,37.5111974 40.2475225,37.3963415 39.9429,37.3963415 C39.6482652,37.3963415 39.3985784,37.4774897 39.1938322,37.6397886 C38.989086,37.8020874 38.828038,38.0954694 38.7106834,38.5199433 C38.5933289,38.9444171 38.5346525,39.8333021 38.5346525,41.1866247 L38.5346525,43.6435672 Z M42.489792,34.6098092 L42.489792,32.6622328 L44.5946726,32.6622328 L44.5946726,34.6098092 L42.489792,34.6098092 Z M42.489792,43.6435672 L42.489792,35.6884669 L44.5946726,35.6884669 L44.5946726,43.6435672 L42.489792,43.6435672 Z M53.6884174,38.0405398 L51.6134995,38.4150738 C51.5435861,38.0005875 51.385035,37.688479 51.1378414,37.478739 C50.8906478,37.2689989 50.5698003,37.1641305 50.1752893,37.1641305 C49.6509392,37.1641305 49.2327138,37.3451534 48.9206007,37.7072047 C48.6084875,38.0692559 48.4524333,38.6747464 48.4524333,39.5236941 C48.4524333,40.4675243 48.6109844,41.134188 48.9280913,41.5237052 C49.2451983,41.9132225 49.6709143,42.1079781 50.205252,42.1079781 C50.6047568,42.1079781 50.9318465,41.9943707 51.1865308,41.7671523 C51.4412152,41.5399339 51.6209896,41.1491741 51.7258597,40.5948611 L53.7932869,40.946923 C53.578553,41.895747 53.1665698,42.6123481 52.557325,43.0967477 C51.9480801,43.5811473 51.1316043,43.8233435 50.1078732,43.8233435 C48.9443153,43.8233435 48.0167289,43.4563039 47.3250862,42.7222138 C46.6334434,41.9881236 46.2876272,40.9718984 46.2876272,39.6735077 C46.2876272,38.3601355 46.6346919,37.3376682 47.3288315,36.606075 C48.0229712,35.8744817 48.9617935,35.5086906 50.1453265,35.5086906 C51.1141258,35.5086906 51.8844095,35.717179 52.4562008,36.1341622 C53.0279921,36.5511454 53.4387268,37.1865983 53.6884174,38.0405398 L53.6884174,38.0405398 Z M56.8570356,38.1154466 L54.9469127,37.7708754 C55.1616465,37.0018286 55.531183,36.4325428 56.0555331,36.0630008 C56.5798832,35.6934588 57.3589059,35.5086906 58.3926247,35.5086906 C59.3314611,35.5086906 60.030584,35.6198012 60.4900146,35.8420258 C60.9494452,36.0642503 61.2727895,36.3463964 61.4600574,36.6884724 C61.6473253,37.0305484 61.7409579,37.6585107 61.7409579,38.572378 L61.7184858,41.0293205 C61.7184858,41.7284539 61.7521936,42.2440571 61.81961,42.5761455 C61.8870264,42.9082339 62.0131183,43.2640376 62.1978892,43.6435672 L60.1154807,43.6435672 C60.0605488,43.5037405 59.9931333,43.2965005 59.9132324,43.0218409 C59.8782757,42.8969956 59.853307,42.814599 59.8383256,42.7746485 C59.4787712,43.1242152 59.0942536,43.3863864 58.6847611,43.5611697 C58.2752687,43.7359531 57.8383168,43.8233435 57.3738924,43.8233435 C56.5549075,43.8233435 55.9094672,43.6011222 55.4375521,43.1566731 C54.965637,42.712224 54.729683,42.1504287 54.729683,41.4712705 C54.729683,41.0218275 54.8370483,40.6210803 55.0517822,40.2690166 C55.266516,39.916953 55.5673886,39.6472913 55.9544089,39.4600234 C56.3414292,39.2727555 56.8994792,39.1092106 57.6285755,38.9693839 C58.6123562,38.784613 59.2940011,38.6123291 59.6735307,38.4525271 L59.6735307,38.2427882 C59.6735307,37.8382895 59.573656,37.5499013 59.3739035,37.3776148 C59.1741511,37.2053284 58.7971241,37.1191864 58.2428111,37.1191864 C57.8682753,37.1191864 57.5761418,37.192844 57.3664018,37.3401614 C57.1566617,37.4874788 56.9868747,37.7459047 56.8570356,38.1154466 L56.8570356,38.1154466 Z M59.6735307,39.8233213 C59.4038649,39.9132099 58.9769005,40.0205752 58.3926247,40.1454204 C57.8083489,40.2702657 57.4263281,40.3926122 57.2465509,40.5124637 C56.9718913,40.7072223 56.8345636,40.9544122 56.8345636,41.2540408 C56.8345636,41.5486756 56.9444258,41.8033562 57.1641534,42.01809 C57.3838811,42.2328239 57.6635303,42.3401892 58.0031094,42.3401892 C58.382639,42.3401892 58.7446848,42.2153458 59.0892578,41.9656553 C59.3439421,41.7758905 59.5112322,41.5436818 59.5911332,41.2690222 C59.6460651,41.089245 59.6735307,40.7471741 59.6735307,40.2427993 L59.6735307,39.8233213 Z" id="Africa-" fill="#666666"></path>
        </g>
    </g>
</svg>