<?xml version="1.0" encoding="UTF-8" standalone="no"?>
<svg width="34px" height="34px" viewBox="0 0 34 34" version="1.1" xmlns="http://www.w3.org/2000/svg" xmlns:xlink="http://www.w3.org/1999/xlink">
    <!-- Generator: Sketch 41 (35326) - http://www.bohemiancoding.com/sketch -->
    <title>C-search</title>
    <desc>Created with Sketch.</desc>
    <defs></defs>
    <g id="Page-1" stroke="none" stroke-width="1" fill="none" fill-rule="evenodd">
        <g id="C-search" fill="#989898">
            <g id="Capa_1">
                <g id="Search">
                    <path d="M33.076988,29.0698645 L25.7109084,21.7039203 C25.671761,21.6647729 25.6258406,21.6374104 25.5849323,21.6009721 C27.0343347,19.4023506 27.8802709,16.7705339 27.8802709,13.9402709 C27.8802709,6.24123506 21.6390359,0 13.9401355,0 C6.24123506,0 0,6.24123506 0,13.9401355 C0,21.6389004 6.2410996,27.8802709 13.94,27.8802709 C16.7703984,27.8802709 19.4020797,27.0343347 21.6007012,25.5849323 C21.6371394,25.6257052 21.6643665,25.6716255 21.7035139,25.7107729 L29.0697291,33.076988 C30.1762869,34.1834104 31.9702948,34.1834104 33.076988,33.076988 C34.1834104,31.9704303 34.1834104,30.1764223 33.076988,29.0698645 L33.076988,29.0698645 Z M13.9401355,23.0476653 C8.91003187,23.0476653 4.83247012,18.9701036 4.83247012,13.9401355 C4.83247012,8.91003187 8.91016733,4.83247012 13.9401355,4.83247012 C18.9699681,4.83247012 23.0476653,8.91016733 23.0476653,13.9401355 C23.0476653,18.9701036 18.9699681,23.0476653 13.9401355,23.0476653 L13.9401355,23.0476653 Z" id="Shape"></path>
                    <path d="M17.3833857,17.1528229 C16.8830979,17.352938 16.0326087,17.5197006 15.2655007,17.5197006 C12.9975295,17.5197006 11.6634287,16.1022185 11.6634287,13.8509236 C11.6634287,11.3494847 13.2309971,10.1321178 15.2488245,10.1321178 C16.1493425,10.1321178 16.8664216,10.3322329 17.3833857,10.5490242 L17.9003497,8.53119687 C17.4500907,8.29772924 16.4495151,8.03090909 15.1320907,8.03090909 C11.7301338,8.03090909 8.99522727,10.1654703 8.99522727,14.0010099 C8.99522727,17.2028517 10.9963784,19.6209092 14.8819468,19.6209092 C16.2494,19.6209092 17.3000044,19.3707654 17.7669396,19.1372977 L17.3833857,17.1528229 Z" id="C"></path>
                </g>
            </g>
        </g>
    </g>
</svg>