<?xml version="1.0" encoding="UTF-8" standalone="no"?>
<svg width="408px" height="508px" viewBox="0 0 408 508" version="1.1" xmlns="http://www.w3.org/2000/svg" xmlns:xlink="http://www.w3.org/1999/xlink">
    <!-- Generator: Sketch 41.2 (35397) - http://www.bohemiancoding.com/sketch -->
    <title>Certifications</title>
    <desc>Created with Sketch.</desc>
    <defs></defs>
    <g id="Page-1" stroke="none" stroke-width="1" fill="none" fill-rule="evenodd">
        <g id="Certifications" transform="translate(0.000000, 9.000000)">
            <g id="Layer_1">
                <g id="Group">
                    <g id="XMLID_2160_" transform="translate(105.000000, 159.000000)" fill="#A6CE2F">
                        <path d="M218.7,321.2 L237.3,302.6 L255.9,321.2 L274.5,339.8 L293.1,321.2 L293.1,32.3 C293.1,14.5 278.7,0 260.8,0 L0.7,0 C18.5,0 33,14.4 33,32.3 L33,321.1 L51.6,339.7 L70.2,321.1 L88.8,302.5 L107.4,321.1 L126,339.7 L144.6,321.1 L163.2,302.5 L181.8,321.1 L200.4,339.7 L218.7,321.2 Z" id="XMLID_2161_"></path>
                    </g>
                    <path d="M184.2,220 L353.4,220 C358.4,220 362.5,215.9 362.5,210.9 C362.5,205.9 358.4,201.8 353.4,201.8 L184.2,201.8 C179.2,201.8 175.1,205.9 175.1,210.9 C175.1,215.9 179.2,220 184.2,220 Z" id="Shape" fill="#57555B"></path>
                    <path d="M184.2,268.3 L307.1,268.3 C312.1,268.3 316.2,264.2 316.2,259.2 C316.2,254.2 312.1,250.1 307.1,250.1 L184.2,250.1 C179.2,250.1 175.1,254.2 175.1,259.2 C175.1,264.3 179.2,268.3 184.2,268.3 Z" id="Shape" fill="#57555B"></path>
                    <path d="M184.2,312.6 L353.4,312.6 C358.4,312.6 362.5,308.5 362.5,303.5 C362.5,298.5 358.4,294.4 353.4,294.4 L184.2,294.4 C179.2,294.4 175.1,298.5 175.1,303.5 C175.1,308.6 179.2,312.6 184.2,312.6 Z" id="Shape" fill="#57555B"></path>
                    <path d="M200.3,344.9 L184.2,344.9 C179.2,344.9 175.1,349 175.1,354 C175.1,359 179.2,363.1 184.2,363.1 L200.3,363.1 C205.3,363.1 209.4,359 209.4,354 C209.4,349 205.3,344.9 200.3,344.9 Z" id="Shape" fill="#57555B"></path>
                    <path d="M200.3,389.2 L184.2,389.2 C179.2,389.2 175.1,393.3 175.1,398.3 C175.1,403.3 179.2,407.4 184.2,407.4 L200.3,407.4 C205.3,407.4 209.4,403.3 209.4,398.3 C209.3,393.2 205.3,389.2 200.3,389.2 Z" id="Shape" fill="#57555B"></path>
                    <path d="M353.4,344.9 L236.5,344.9 C231.5,344.9 227.4,349 227.4,354 C227.4,359 231.5,363.1 236.5,363.1 L353.4,363.1 C358.4,363.1 362.5,359 362.5,354 C362.5,349 358.4,344.9 353.4,344.9 Z" id="Shape" fill="#57555B"></path>
                    <path d="M316.1,398.2 C316.1,393.2 312,389.1 307,389.1 L236.5,389.1 C231.5,389.1 227.4,393.2 227.4,398.2 C227.4,403.2 231.5,407.3 236.5,407.3 L307,407.3 C312,407.3 316.1,403.2 316.1,398.2 Z" id="Shape" fill="#57555B"></path>
                    <path d="M299.366871,492.301201 C302.871166,495.799644 308.678282,495.799644 312.182577,492.301201 L343.020368,461.514901 L373.85816,492.301201 C375.660368,494.1004 377.96319,495 380.266012,495 C382.568834,495 384.871656,494.1004 386.673865,492.301201 L405.296687,473.709475 C406.998773,472.010231 408,469.711254 408,467.312322 L408,191.549726 C408,168.759868 389.477301,150.268097 366.649325,150.268097 L297.064049,150.268097 L297.064049,121.164062 C297.064049,108.738664 257.235632,115.552606 242.957031,97.8515625 C236.083653,89.3307014 231.547768,75.3241908 231.527344,62.7011719 C231.50739,50.3688995 235.97927,39.3174725 231.527344,39.3174725 L9.11116564,39.3174725 C4.10503067,39.3174725 0,43.4156487 0,48.4134246 L0,339.076064 C0,361.865922 18.5226994,380.357693 41.3506748,380.357693 L93.8149693,380.357693 C98.8211043,380.357693 102.926135,376.259517 102.926135,371.261741 C102.926135,366.263965 98.8211043,362.165789 93.8149693,362.165789 L75.592638,362.165789 C80.0981595,355.568725 82.8014724,347.572283 82.8014724,338.976109 L82.8014724,191.549726 C82.8014724,178.75542 93.2142331,168.360046 106.029939,168.360046 C118.845644,168.360046 129.258405,178.75542 129.258405,191.549726 L129.258405,467.212366 C129.258405,467.812099 129.358528,468.411832 129.45865,469.011565 C129.859141,470.310987 129.859141,470.510898 129.959264,470.710809 C130.660123,471.910275 130.660123,472.110186 130.760245,472.210142 C131.060613,472.709919 131.461104,473.209697 131.861595,473.609519 L150.484417,492.201245 C153.988712,495.699689 159.795828,495.699689 163.300123,492.201245 L194.137914,461.414946 L224.975706,492.201245 C228.48,495.699689 234.287117,495.699689 237.791411,492.201245 L268.629202,461.414946 L299.366871,492.301201 Z M64.6792638,191.549726 L64.6792638,339.076064 C64.6792638,351.870371 54.2665031,362.265744 41.4507975,362.265744 C28.635092,362.265744 18.2223313,351.870371 18.2223313,339.076064 L18.2223313,57.4094213 L226.300781,57.4094213 L237.791411,103.507812 L278.94184,121.164062 L278.94184,150.268097 L106.029939,150.268097 C83.2019632,150.268097 64.6792638,168.759868 64.6792638,191.549726 Z M231.383558,473.009786 L200.545767,442.223486 C198.743558,440.424287 196.440736,439.524688 194.137914,439.524688 C191.835092,439.524688 189.53227,440.424287 187.730061,442.223486 L156.89227,473.009786 L147.380613,463.514012 L147.380613,191.549726 C147.380613,190.250305 147.280491,188.950883 147.180368,187.751417 C147.180368,187.351595 147.080245,187.051728 147.080245,186.651906 C146.980123,185.752306 146.88,184.852707 146.679755,183.953107 C146.579632,183.553285 146.579632,183.253418 146.479509,182.853596 C146.279264,181.754086 145.978896,180.554619 145.578405,179.455109 C145.077791,178.055731 144.677301,176.956221 144.176687,175.85671 C144.076564,175.556844 143.876319,175.256977 143.776196,174.857155 C143.375706,174.057511 143.075337,173.257867 142.574724,172.458222 C142.374479,172.158356 142.274356,171.858489 142.07411,171.458667 C141.573497,170.559068 140.972761,169.559512 140.372025,168.659913 C140.171779,168.360046 366.348957,168.260091 366.348957,168.260091 C379.164663,168.260091 389.577423,178.655465 389.577423,191.449771 L389.577423,463.514012 L380.065767,473.009786 L349.227975,442.223486 C345.723681,438.725043 339.916564,438.725043 336.41227,442.223486 L305.574479,473.009786 L275.037055,442.323442 C271.532761,438.824999 265.725644,438.824999 262.22135,442.323442 L231.383558,473.009786 Z" id="Shape" fill="#57555B"></path>
                    <ellipse id="Oval" stroke="#57555B" stroke-width="17" cx="287.07362" cy="59.9733108" rx="60.0736196" ry="59.9733108"></ellipse>
                    <path d="M282.088696,66.1845375 L269.01822,53.1140619 C265.698764,49.7946054 260.316861,49.7946054 256.997405,53.1140619 C253.677948,56.4335183 253.677948,61.8154207 256.997405,65.1348771 L276.078288,84.2157604 C279.397745,87.5352169 284.779647,87.5352169 288.099103,84.2157604 L320.304456,52.0104076 C323.623913,48.6909512 323.623913,43.3090488 320.304456,39.9895924 C316.985,36.6701359 311.603097,36.6701359 308.283641,39.9895924 L282.088696,66.1845375 Z" id="Path-4" fill="#57555B"></path>
                </g>
            </g>
        </g>
    </g>
</svg>