<?xml version="1.0" encoding="UTF-8" standalone="no"?>
<svg width="490px" height="484px" viewBox="0 0 490 484" version="1.1" xmlns="http://www.w3.org/2000/svg" xmlns:xlink="http://www.w3.org/1999/xlink">
    <!-- Generator: Sketch 41.2 (35397) - http://www.bohemiancoding.com/sketch -->
    <title>Experience</title>
    <desc>Created with Sketch.</desc>
    <defs></defs>
    <g id="Page-1" stroke="none" stroke-width="1" fill="none" fill-rule="evenodd">
        <g id="Experience">
            <g id="Layer_1">
                <g id="Group">
                    <circle id="XMLID_4231_" fill="#A6CE2F" cx="72" cy="373.65" r="63"></circle>
                    <circle id="XMLID_4230_" fill="#A6CE2F" cx="418" cy="373.65" r="63"></circle>
                    <circle id="XMLID_4216_" fill="#A6CE2F" cx="241.8" cy="72.15" r="63"></circle>
                    <path d="M339.3,451.05 C337.1,446.55 331.7,444.65 327.2,446.85 C301.3,459.35 273.4,465.75 244.4,465.75 C200.5,465.75 158.2,450.65 124.3,423.15 C136.5,410.25 144,392.85 144,373.75 C144,334.05 111.7,301.75 72,301.75 C32.3,301.75 0,334.05 0,373.75 C0,413.45 32.3,445.75 72,445.75 C85.9,445.75 99,441.75 110,434.85 C147.6,466.55 195,483.85 244.4,483.85 C276.2,483.85 306.7,476.85 335.1,463.15 C339.6,460.95 341.5,455.55 339.3,451.05 Z M18.1,373.65 C18.1,343.95 42.3,319.75 72,319.75 C101.7,319.75 125.9,343.95 125.9,373.65 C125.9,403.35 101.7,427.55 72,427.55 C42.3,427.55 18.1,403.35 18.1,373.65 Z" id="Shape" fill="#57555B"></path>
                    <path d="M36.1,265.45 C35.9,270.45 39.8,274.65 44.9,274.85 L45.2,274.85 C50.1,274.85 54.1,270.95 54.3,266.05 C56.5,201.15 91,142.45 146.5,108.95 C155.2,103.75 164.3,99.15 173.6,95.35 C183.3,123.65 210.2,144.15 241.7,144.15 C281.4,144.15 313.7,111.85 313.7,72.15 C313.7,32.45 281.4,0.15 241.7,0.15 C202,0.15 169.7,32.45 169.7,72.15 C169.7,73.95 169.8,75.65 169.9,77.35 C158.6,81.75 147.5,87.15 137.1,93.45 C76.3,130.05 38.5,194.35 36.1,265.45 Z M241.8,18.25 C271.5,18.25 295.7,42.45 295.7,72.15 C295.7,101.85 271.5,125.95 241.8,125.95 C212.1,125.95 187.9,101.75 187.9,72.05 C187.9,42.35 212,18.25 241.8,18.25 Z" id="Shape" fill="#57555B"></path>
                    <path d="M418,301.65 C378.3,301.65 346,333.95 346,373.65 C346,413.35 378.3,445.65 418,445.65 C457.7,445.65 490,413.35 490,373.65 C490,345.75 474,321.45 450.7,309.55 C452.7,297.75 453.8,285.75 453.8,273.75 C453.8,202.75 418.2,137.25 358.6,98.45 C354.4,95.75 348.8,96.95 346.1,101.15 C343.4,105.35 344.6,110.95 348.8,113.65 C403.3,149.05 435.8,208.85 435.8,273.75 C435.8,283.65 435,293.55 433.5,303.35 C428.5,302.25 423.3,301.65 418,301.65 Z M471.9,373.65 C471.9,403.35 447.7,427.55 418,427.55 C388.3,427.55 364.1,403.35 364.1,373.65 C364.1,343.95 388.3,319.75 418,319.75 C447.7,319.75 471.9,343.95 471.9,373.65 Z" id="Shape" fill="#57555B"></path>
                </g>
            </g>
        </g>
    </g>
</svg>