<?xml version="1.0" encoding="UTF-8" standalone="no"?>
<svg width="121px" height="117px" viewBox="0 0 121 117" version="1.1" xmlns="http://www.w3.org/2000/svg" xmlns:xlink="http://www.w3.org/1999/xlink">
    <!-- Generator: Sketch 42 (36781) - http://www.bohemiancoding.com/sketch -->
    <title>Hosting Plans</title>
    <desc>Created with Sketch.</desc>
    <defs>
        <path d="M34.7414122,106.056268 C27.6798855,103.253299 21.3487405,99.1506693 15.7479771,93.7737244 C10.2007634,88.4981654 5.98087786,82.6833386 3.05935115,76.0836457 C1.74080153,73.0787795 0.720725191,69.6220472 0,67 L11.5614504,67 C12.0793893,68.7480315 12.7193511,70.3684567 13.4857252,72.0780315 C15.8752672,77.4287559 19.3182443,82.1484409 23.7918321,86.4092677 C28.2153817,90.6482441 33.2929389,93.8829764 39.0499618,96.1798898 C44.779771,98.4759291 50.6851527,99.5981654 56.7933206,99.5981654 C63.1780153,99.5981654 69.2607252,98.4768031 74.9905344,96.250685 C80.7220992,94.0499134 85.9506489,90.8020709 90.6753053,86.5648425 C95.098855,82.4936772 98.4926718,77.9269449 100.855,72.6487638 C101.695115,70.7617638 102.38687,68.7480315 102.926756,67 L114.398664,67 C113.672672,70.496063 112.62626,73.4240157 111.257672,76.5425039 C108.335267,83.1430709 104.114504,88.9168189 98.5681679,93.9887323 C92.805,99.2634173 86.339542,103.284764 79.1700382,106.087732 C71.9987786,108.916921 64.6124427,110.286504 57.0101527,110.286504 C49.2173664,110.286504 41.8038168,108.884583 34.7414122,106.056268 Z" id="path-1"></path>
        <filter x="-50%" y="-50%" width="200%" height="200%" filterUnits="objectBoundingBox" id="filter-2">
            <feOffset dx="3" dy="1" in="SourceAlpha" result="shadowOffsetOuter1"></feOffset>
            <feGaussianBlur stdDeviation="1.5" in="shadowOffsetOuter1" result="shadowBlurOuter1"></feGaussianBlur>
            <feColorMatrix values="0 0 0 0 0   0 0 0 0 0   0 0 0 0 0  0 0 0 0.4 0" type="matrix" in="shadowBlurOuter1"></feColorMatrix>
        </filter>
        <path d="M57.0198092,0 C65.0057252,0 72.558855,1.40279528 79.7055344,4.18041732 C86.8522137,6.98338583 93.1868702,11.0344488 98.7630534,16.3615748 C104.204924,21.534874 108.373893,27.3208583 111.297176,33.9983386 C112.628893,37.0670079 113.655992,40.6111417 114.378473,43.233189 L102.858282,43.233189 C102.355267,41.4851575 101.731985,39.7528583 100.989313,37.9934646 C98.7007252,32.5946693 95.3806489,27.9116929 91.0053817,23.7933307 C86.4536641,19.5080315 81.3234351,16.2785433 75.5901145,14.0297008 C69.8550382,11.7817323 63.7442366,10.6874646 57.231374,10.6874646 C50.8440458,10.6874646 44.8078626,11.7852283 39.1500382,13.9641496 C33.4913359,16.1185984 28.5375573,19.2493228 24.3132824,23.3204882 C19.6851908,27.6984331 16.1140458,32.4985276 13.6244275,37.9908425 C12.8185496,39.7677165 12.145229,41.4851575 11.6009542,43.233189 L0,43.233189 C0.75759542,40.6111417 1.84175573,36.9420236 3.25687023,33.7929449 C6.28812977,27.0158268 10.6730534,20.9746299 16.3853053,15.5461181 C21.7183206,10.3990394 27.8370229,6.56385827 34.7405344,3.9129685 C41.6431679,1.28829921 49.0611069,0 57.0198092,0" id="path-3"></path>
        <filter x="-50%" y="-50%" width="200%" height="200%" filterUnits="objectBoundingBox" id="filter-4">
            <feOffset dx="3" dy="1" in="SourceAlpha" result="shadowOffsetOuter1"></feOffset>
            <feGaussianBlur stdDeviation="1.5" in="shadowOffsetOuter1" result="shadowBlurOuter1"></feGaussianBlur>
            <feColorMatrix values="0 0 0 0 0   0 0 0 0 0   0 0 0 0 0  0 0 0 0.4 0" type="matrix" in="shadowBlurOuter1"></feColorMatrix>
        </filter>
        <filter x="-50%" y="-50%" width="200%" height="200%" filterUnits="objectBoundingBox" id="filter-5">
            <feOffset dx="0" dy="2" in="SourceAlpha" result="shadowOffsetOuter1"></feOffset>
            <feGaussianBlur stdDeviation="1" in="shadowOffsetOuter1" result="shadowBlurOuter1"></feGaussianBlur>
            <feColorMatrix values="0 0 0 0 0   0 0 0 0 0   0 0 0 0 0  0 0 0 0.4 0" type="matrix" in="shadowBlurOuter1" result="shadowMatrixOuter1"></feColorMatrix>
            <feMerge>
                <feMergeNode in="shadowMatrixOuter1"></feMergeNode>
                <feMergeNode in="SourceGraphic"></feMergeNode>
            </feMerge>
        </filter>
    </defs>
    <g id="Page-1" stroke="none" stroke-width="1" fill="none" fill-rule="evenodd">
        <g id="Hosting-Plans" transform="translate(0.000000, 2.000000)">
            <g id="Fill-1">
                <use fill="black" fill-opacity="1" filter="url(#filter-2)" xlink:href="#path-1"></use>
                <use fill="#C2DA3F" fill-rule="evenodd" xlink:href="#path-1"></use>
            </g>
            <g id="Fill-2">
                <use fill="black" fill-opacity="1" filter="url(#filter-4)" xlink:href="#path-3"></use>
                <use fill="#C2DA3F" fill-rule="evenodd" xlink:href="#path-3"></use>
            </g>
            <g id="server" filter="url(#filter-5)" transform="translate(37.000000, 35.000000)" fill-rule="nonzero" fill="#C2DA3F">
                <g id="Layer_1">
                    <g id="Group">
                        <path d="M40.7949062,0.0225917969 L2.20509375,0.0225917969 C0.987236328,0.0225917969 0,1.00982812 0,2.22776953 L0,13.8140859 C0,15.0319434 0.987236328,16.0191797 2.20509375,16.0191797 L40.7948223,16.0191797 C42.0126797,16.0191797 42.999916,15.0319434 42.999916,13.8140859 L42.999916,2.22776953 C43,1.00982812 42.0127637,0.0225917969 40.7949062,0.0225917969 Z M24.1645723,9.12347461 L7.88554492,9.12347461 C7.27657422,9.12347461 6.78299805,8.62981445 6.78299805,8.02092773 C6.78299805,7.41204102 7.2766582,6.91838086 7.88554492,6.91838086 L24.1645723,6.91838086 C24.773543,6.91838086 25.2671191,7.41195703 25.2671191,8.02092773 C25.2671191,8.62989844 24.773543,9.12347461 24.1645723,9.12347461 Z M32.6670664,11.2815371 C30.8691289,11.2815371 29.406457,9.81886523 29.406457,8.02092773 C29.406457,6.22307422 30.8691289,4.76031836 32.6670664,4.76031836 C34.4649199,4.76031836 35.9276758,6.22307422 35.9276758,8.02092773 C35.9276758,9.81878125 34.4649199,11.2815371 32.6670664,11.2815371 Z" id="Shape"></path>
                        <path d="M41.3461797,39.6696836 L23.1534844,39.6696836 L23.1534844,36.9773125 C23.1534844,36.6728691 22.9066543,36.4260391 22.6022109,36.4260391 L20.3971172,36.4260391 C20.0926738,36.4260391 19.8458437,36.6728691 19.8458437,36.9773125 L19.8458437,39.6696836 L1.65382031,39.6696836 C0.740490234,39.6696836 0,40.4101738 0,41.3235879 C0,42.236918 0.740490234,42.9774082 1.65382031,42.9774082 L41.3460957,42.9774082 C42.2594258,42.9774082 42.999916,42.236918 42.999916,41.3235879 C42.999916,40.4102578 42.2595098,39.6696836 41.3461797,39.6696836 Z" id="Shape"></path>
                        <path d="M40.7949062,18.2242734 L2.20509375,18.2242734 C0.987236328,18.2242734 0,19.2115098 0,20.4293672 L0,32.0156836 C0,33.233541 0.987236328,34.2207773 2.20509375,34.2207773 L40.7948223,34.2207773 C42.0126797,34.2207773 42.999916,33.233541 42.999916,32.0156836 L42.999916,20.4293672 C43,19.2115937 42.0127637,18.2242734 40.7949062,18.2242734 Z M24.1645723,27.3251562 L7.88554492,27.3251562 C7.27657422,27.3251562 6.78299805,26.8314961 6.78299805,26.2226094 C6.78299805,25.6136387 7.2766582,25.1200625 7.88554492,25.1200625 L24.1645723,25.1200625 C24.773543,25.1200625 25.2671191,25.6137227 25.2671191,26.2226094 C25.2671191,26.8314961 24.773543,27.3251562 24.1645723,27.3251562 Z M32.6670664,29.4832187 C30.8691289,29.4832187 29.406457,28.0205469 29.406457,26.2226094 C29.406457,24.4247559 30.8691289,22.962 32.6670664,22.962 C34.4649199,22.962 35.9276758,24.4246719 35.9276758,26.2226094 C35.9276758,28.0205469 34.4649199,29.4832187 32.6670664,29.4832187 Z" id="Shape"></path>
                    </g>
                </g>
            </g>
        </g>
    </g>
</svg>