<?xml version="1.0" encoding="UTF-8" standalone="no"?>
<svg width="417px" height="490px" viewBox="0 0 417 490" version="1.1" xmlns="http://www.w3.org/2000/svg" xmlns:xlink="http://www.w3.org/1999/xlink">
    <!-- Generator: Sketch 41.2 (35397) - http://www.bohemiancoding.com/sketch -->
    <title>Partners</title>
    <desc>Created with Sketch.</desc>
    <defs></defs>
    <g id="Page-1" stroke="none" stroke-width="1" fill="none" fill-rule="evenodd">
        <g id="Partners">
            <g id="Layer_1">
                <g id="Group">
                    <path d="M208.72,99.2 L208.92,99.2 L208.92,99.2 C249.32,98.8 243.42,44.8 243.42,44.8 C241.82,8.7 211.72,9 208.72,9.1 C205.72,9 175.62,8.7 173.92,44.7 C173.92,44.7 168.02,98.7 208.52,99.1 L208.52,99.1 C208.52,99.2 208.62,99.2 208.72,99.2 Z" id="XMLID_2038_" fill="#A6CE2F"></path>
                    <path d="M208.72,166.3 L234.82,130.3 C234.82,130.3 253.22,137.7 268.22,148.8 C272.12,151.7 273.92,153.4 277.42,156.9 C285.72,165.2 282.22,213.3 277.42,230.9 C272.62,248.5 258.52,273.8 258.52,273.8 C255.72,280.2 253.92,287.1 253.22,294 L235.22,470.5 C234.62,476.1 229.92,480.4 224.32,480.4 L208.72,480.4 L193.12,480.4 C187.52,480.4 182.72,476.1 182.22,470.5 L164.22,294 C163.52,287 161.72,280.2 158.92,273.8 C158.92,273.8 144.82,248.6 140.02,230.9 C135.22,213.3 131.72,165.2 140.02,156.9 C143.52,153.4 145.32,151.7 149.22,148.8 C164.22,137.8 182.62,130.3 182.62,130.3 L208.72,166.3 Z" id="XMLID_2039_" fill="#A6CE2F"></path>
                    <path d="M5.72,248.8 C10.22,265.2 22.22,287.3 24.02,290.7 C26.22,295.8 27.62,301.1 28.12,306.6 L45.02,472.2 C46.02,482.1 54.32,489.6 64.32,489.6 L93.52,489.6 C103.52,489.6 111.82,482.1 112.82,472.2 L129.72,306.6 C130.32,301 131.72,295.5 134.02,290.4 C136.02,285.8 133.92,280.5 129.42,278.5 C124.82,276.5 119.52,278.6 117.52,283.1 C114.52,290 112.52,297.3 111.82,304.8 L94.92,470.4 C94.82,471 94.32,471.5 93.72,471.5 L64.52,471.5 C63.92,471.5 63.32,471 63.32,470.4 L46.22,304.7 C45.42,297.2 43.52,289.9 40.52,283 C40.42,282.7 40.32,282.5 40.12,282.2 C40.02,282 27.42,259.3 23.22,244 C18.62,226.9 17.32,189.7 21.12,183.1 C24.12,180.1 25.42,178.9 28.52,176.6 C36.42,170.8 45.52,166.1 51.42,163.3 L71.62,191.1 C73.32,193.4 76.02,194.8 78.92,194.8 C81.82,194.8 84.52,193.4 86.22,191.1 L110.72,157.4 C113.62,153.4 112.72,147.7 108.72,144.7 C104.72,141.8 99.02,142.7 96.02,146.7 L78.82,170.3 L61.82,146.8 C59.42,143.4 54.92,142.2 51.12,143.7 C50.42,144 32.62,151.2 17.82,162.1 C13.62,165.2 11.62,167.1 8.12,170.6 C-4.68,183.4 2.42,236.6 5.72,248.8 Z" id="Shape" fill="#57555B"></path>
                    <path d="M78.12,131.9 L78.72,131.9 L79.12,131.9 L79.82,131.9 C91.42,131.6 101.22,127.4 108.22,119.5 C123.12,102.7 121.02,74.7 120.62,71.2 C119.12,40.3 97.62,29.4 79.72,29.4 L78.92,29.4 L78.12,29.4 C60.22,29.4 38.82,40.4 37.22,71.2 C36.92,74.7 34.72,102.7 49.62,119.5 C56.72,127.4 66.52,131.7 78.12,131.9 Z M55.32,72.8 L55.32,72.2 C56.32,50.6 70.02,47.4 78.12,47.4 L78.52,47.4 L79.22,47.4 L79.62,47.4 C87.72,47.4 101.42,50.6 102.42,72.2 L102.42,72.7 C103.12,79.1 102.92,97.8 94.42,107.4 C90.72,111.6 85.62,113.7 78.92,113.7 L78.72,113.7 L78.72,113.7 C72.02,113.6 66.92,111.6 63.22,107.4 C54.82,97.9 54.72,79.2 55.32,72.8 Z" id="Shape" fill="#57555B"></path>
                    <path d="M288.12,278.4 C283.52,280.4 281.42,285.8 283.52,290.3 C285.82,295.5 287.22,300.9 287.82,306.5 L304.72,472.1 C305.72,482 314.02,489.5 324.02,489.5 L353.22,489.5 C363.22,489.5 371.52,482 372.52,472.1 L389.42,306.5 C390.02,301 391.32,295.7 393.52,290.6 C395.32,287.3 407.42,265.2 411.82,248.7 C415.12,236.5 422.32,183.3 409.52,170.5 C406.02,167 404.02,165.1 399.82,162 C385.02,151.1 367.32,143.9 366.52,143.6 C362.62,142 358.22,143.3 355.82,146.7 L338.62,170.3 L321.32,146.8 C318.42,142.7 312.72,141.9 308.62,144.8 C304.62,147.7 303.72,153.4 306.62,157.5 L331.12,191.2 C332.82,193.5 335.52,194.9 338.42,194.9 C341.32,194.9 344.02,193.5 345.72,191.2 L365.92,163.4 C371.82,166.2 380.92,170.9 388.82,176.7 C391.82,178.9 393.12,180.2 396.22,183.2 C400.02,189.8 398.72,227 394.12,244.1 C389.92,259.4 377.32,282.1 377.22,282.3 C377.12,282.5 376.92,282.8 376.82,283.1 C373.82,290 371.82,297.3 371.12,304.8 L354.22,470.4 C354.12,471 353.62,471.5 353.02,471.5 L323.82,471.5 C323.22,471.5 322.62,471 322.62,470.4 L305.72,304.8 C304.92,297.3 303.02,290 300.02,283.1 C298.02,278.4 292.72,276.4 288.12,278.4 Z" id="Shape" fill="#57555B"></path>
                    <path d="M337.62,131.9 L338.32,131.9 L338.72,131.9 L339.32,131.9 C350.92,131.7 360.72,127.4 367.82,119.5 C382.72,102.7 380.62,74.7 380.22,71.2 C378.72,40.3 357.32,29.4 339.32,29.4 L338.52,29.4 L337.72,29.4 C319.82,29.4 298.42,40.4 296.82,71.2 C296.52,74.7 294.32,102.7 309.22,119.5 C316.22,127.4 326.02,131.6 337.62,131.9 Z M314.82,72.8 L314.82,72.2 C315.82,50.6 329.52,47.4 337.62,47.4 L338.02,47.4 L338.72,47.4 L339.12,47.4 C347.22,47.4 360.92,50.6 361.92,72.2 L361.92,72.7 C362.62,79.1 362.42,97.8 353.92,107.4 C350.22,111.6 345.12,113.6 338.42,113.7 L338.42,113.7 L338.22,113.7 C331.52,113.6 326.42,111.6 322.72,107.4 C314.32,97.9 314.22,79.2 314.82,72.8 Z" id="Shape" fill="#57555B"></path>
                    <path d="M133.62,150.5 C120.12,164 127.72,220.3 131.32,233.3 C136.12,250.8 148.92,274.4 150.82,277.8 C153.22,283.3 154.72,289 155.32,294.9 L173.32,471.4 C174.32,481.7 182.92,489.4 193.32,489.4 L224.42,489.4 C234.72,489.4 243.32,481.6 244.42,471.4 L262.42,294.9 C263.02,289 264.52,283.2 266.92,277.8 C268.82,274.3 281.62,250.8 286.42,233.3 C289.92,220.3 297.62,164 284.12,150.5 C280.42,146.8 278.32,144.8 273.92,141.5 C258.22,129.9 239.32,122.3 238.52,121.9 C234.62,120.3 230.22,121.6 227.82,125 L208.72,150.9 L189.92,125 C187.52,121.6 183.02,120.4 179.22,121.9 C178.42,122.2 159.62,129.9 143.82,141.5 C139.42,144.8 137.22,146.8 133.62,150.5 Z M146.62,163.1 C149.92,159.8 151.32,158.5 154.62,156.1 C163.22,149.7 173.22,144.6 179.62,141.6 L201.42,171.6 C203.12,173.9 205.82,175.3 208.72,175.3 C211.62,175.3 214.32,173.9 216.02,171.6 L237.82,141.6 C244.12,144.6 254.12,149.7 262.82,156.1 C266.12,158.5 267.52,159.8 270.82,163.1 C275.02,169.9 273.72,210 268.62,228.5 C264.12,244.9 250.72,269.1 250.52,269.3 C250.42,269.5 250.22,269.8 250.12,270.1 C246.92,277.4 244.82,285.1 244.02,293.1 L226.02,469.6 C225.92,470.6 225.12,471.3 224.12,471.3 L193.02,471.3 C192.02,471.3 191.22,470.6 191.12,469.6 L173.12,293.1 C172.32,285.2 170.32,277.4 167.02,270.1 C166.92,269.8 166.82,269.6 166.62,269.3 C166.52,269.1 153.02,244.8 148.52,228.4 C143.72,210 142.42,169.9 146.62,163.1 Z" id="Shape" fill="#57555B"></path>
                    <path d="M207.82,108.2 L208.52,108.2 L209.02,108.2 L209.62,108.2 C222.02,108 232.02,103.6 239.52,95.1 C255.32,77.4 252.92,47.6 252.62,44 C251.02,11.5 228.52,0 209.62,0 L208.72,0 L207.82,0 C189.02,0 166.42,11.5 164.82,44 C164.52,47.6 162.12,77.3 177.92,95 C185.42,103.5 195.52,107.9 207.82,108.2 Z M182.92,45.7 L182.92,45.1 C184.02,20.7 200.72,18.1 207.82,18.1 L208.32,18.1 L209.02,18.1 L209.52,18.1 C216.62,18.1 233.32,20.7 234.42,45.1 L234.42,45.6 C235.12,52.5 235.02,72.7 225.82,83 C221.72,87.6 216.12,89.9 208.82,89.9 L208.52,89.9 C201.22,89.8 195.62,87.6 191.52,83 C182.32,72.8 182.22,52.6 182.92,45.7 Z" id="Shape" fill="#57555B"></path>
                </g>
            </g>
        </g>
    </g>
</svg>