<?xml version="1.0" encoding="UTF-8" standalone="no"?>
<svg width="491px" height="487px" viewBox="0 0 491 487" version="1.1" xmlns="http://www.w3.org/2000/svg" xmlns:xlink="http://www.w3.org/1999/xlink">
    <!-- Generator: Sketch 41.2 (35397) - http://www.bohemiancoding.com/sketch -->
    <title>Process</title>
    <desc>Created with Sketch.</desc>
    <defs></defs>
    <g id="Page-1" stroke="none" stroke-width="1" fill="none" fill-rule="evenodd">
        <g id="Process">
            <g id="Layer_1">
                <g id="Group">
                    <path d="M221.675,165.838 L239.475,165.838 C242.275,180.038 247.875,193.138 255.575,204.738 L242.975,217.338 C238.475,221.838 238.475,229.138 242.975,233.638 L256.675,247.338 C261.175,251.838 268.475,251.838 272.975,247.338 L285.575,234.738 C297.175,242.538 310.375,248.038 324.475,250.838 L324.475,268.638 C324.475,275.038 329.675,280.138 335.975,280.138 L355.375,280.138 C361.775,280.138 366.875,274.938 366.875,268.638 L366.875,250.838 C381.075,248.038 394.175,242.438 405.775,234.738 L418.375,247.338 C422.875,251.838 430.175,251.838 434.675,247.338 L448.375,233.638 C452.875,229.138 452.875,221.838 448.375,217.338 L435.775,204.738 C443.575,193.138 449.075,179.938 451.875,165.838 L469.675,165.838 C476.075,165.838 481.175,160.638 481.175,154.338 L481.175,135.038 C481.175,128.638 475.975,123.538 469.675,123.538 L451.875,123.538 C449.075,109.338 443.475,96.238 435.775,84.638 L448.375,72.038 C452.875,67.538 452.875,60.238 448.375,55.738 L434.575,42.038 C430.075,37.538 422.775,37.538 418.275,42.038 L405.675,54.638 C394.075,46.838 380.875,41.338 366.775,38.538 L366.775,20.738 C366.775,14.338 361.575,9.238 355.275,9.238 L335.875,9.238 C329.475,9.238 324.375,14.438 324.375,20.738 L324.375,38.538 C310.175,41.338 297.075,46.938 285.475,54.638 L272.975,42.038 C268.475,37.538 261.175,37.538 256.675,42.038 L242.975,55.738 C238.475,60.238 238.475,67.538 242.975,72.038 L255.575,84.638 C247.775,96.238 242.275,109.438 239.475,123.538 L221.675,123.538 C215.275,123.538 210.175,128.738 210.175,135.038 L210.175,154.438 C210.175,160.738 215.275,165.838 221.675,165.838 Z M345.575,95.638 C372.675,95.638 394.675,117.638 394.675,144.738 C394.675,171.838 372.675,193.838 345.575,193.838 C318.475,193.838 296.475,171.838 296.475,144.738 C296.475,117.638 318.475,95.638 345.575,95.638 Z" id="XMLID_698_" fill="#A6CE2F"></path>
                    <path d="M346.275,378.538 C344.875,382.038 340.875,383.638 337.475,382.238 L314.875,372.838 C310.875,371.138 306.275,372.538 303.875,376.138 C293.675,391.438 280.675,404.438 265.375,414.638 C261.775,417.038 260.375,421.638 262.075,425.638 L271.375,448.238 C272.775,451.638 271.175,455.638 267.675,457.038 L243.075,467.338 C239.675,468.738 235.675,467.138 234.275,463.638 L224.875,441.038 C223.175,437.038 218.975,434.738 214.775,435.638 C196.775,439.238 178.475,439.238 160.375,435.638 C156.175,434.838 151.875,437.038 150.275,441.038 L140.875,463.638 C139.475,467.038 135.475,468.738 132.075,467.338 L107.475,457.138 C105.775,456.438 104.475,455.138 103.775,453.438 C103.075,451.738 103.075,449.938 103.775,448.238 L113.175,425.638 C114.875,421.638 113.475,417.038 109.875,414.638 C94.575,404.438 81.575,391.438 71.375,376.138 C68.975,372.538 64.375,371.138 60.375,372.838 L37.775,382.238 C34.275,383.638 30.375,382.038 28.975,378.538 L18.775,353.938 C17.375,350.538 18.975,346.538 22.475,345.138 L45.075,335.738 C49.075,334.038 51.375,329.838 50.475,325.638 C46.875,307.638 46.875,289.338 50.475,271.238 C51.275,267.038 49.075,262.738 45.075,261.138 L22.475,251.738 C20.775,251.038 19.475,249.738 18.775,248.038 C18.075,246.338 18.075,244.538 18.775,242.838 L28.975,218.238 C29.675,216.538 30.975,215.238 32.675,214.538 C34.375,213.838 36.175,213.838 37.875,214.538 L60.475,223.938 C64.475,225.638 69.075,224.238 71.475,220.638 C81.675,205.338 94.675,192.338 109.975,182.138 C113.575,179.738 114.975,175.138 113.275,171.138 L103.875,148.538 C103.175,146.838 103.175,145.038 103.875,143.338 C104.575,141.638 105.875,140.338 107.575,139.638 L132.175,129.438 C135.575,128.038 139.575,129.638 140.975,133.138 L150.375,155.738 C152.275,160.338 157.575,162.538 162.175,160.638 C166.775,158.738 168.975,153.438 167.075,148.838 L157.675,126.238 C152.375,113.538 137.875,107.538 125.175,112.738 L100.575,122.938 C94.475,125.438 89.675,130.238 87.075,136.438 C84.575,142.538 84.575,149.338 87.075,155.538 L93.675,171.438 C81.075,180.738 69.975,191.838 60.575,204.538 L44.675,197.938 C38.575,195.438 31.775,195.438 25.575,197.938 C19.475,200.438 14.675,205.238 12.075,211.438 L1.875,236.038 C-0.625,242.138 -0.625,248.938 1.875,255.138 C4.375,261.238 9.175,266.038 15.375,268.638 L31.275,275.238 C28.875,290.838 28.875,306.438 31.275,322.038 L15.375,328.638 C2.675,333.938 -3.325,348.438 1.875,361.138 L12.075,385.438 C17.275,398.138 31.875,404.138 44.575,398.938 L60.475,392.338 C69.775,404.938 80.875,416.038 93.575,425.438 L86.975,441.338 C84.475,447.438 84.475,454.238 86.975,460.438 C89.475,466.538 94.275,471.338 100.475,473.938 L125.075,484.138 C137.775,489.338 152.375,483.338 157.575,470.638 L164.175,454.738 C179.775,457.138 195.375,457.138 210.975,454.738 L217.575,470.638 C221.575,480.238 230.875,486.038 240.575,486.038 C243.775,486.038 246.975,485.438 250.075,484.138 L274.675,473.938 C287.375,468.638 293.375,454.138 288.175,441.438 L281.575,425.538 C294.175,416.238 305.275,405.138 314.675,392.438 L330.575,399.038 C343.275,404.338 357.875,398.238 363.075,385.538 L373.275,360.938 C375.775,354.838 375.775,348.038 373.275,341.838 C370.775,335.738 365.975,330.938 359.775,328.338 L337.175,318.938 C332.575,317.038 327.275,319.238 325.375,323.838 C323.475,328.438 325.675,333.738 330.275,335.638 L352.875,345.038 C354.575,345.738 355.875,347.038 356.575,348.738 C357.275,350.438 357.275,352.238 356.575,353.938 L346.275,378.538 Z" id="Shape" fill="#57555B"></path>
                    <path d="M187.075,236.538 C192.075,236.538 196.075,232.438 196.075,227.438 C196.075,222.438 191.975,218.438 186.975,218.438 C186.975,218.438 186.975,218.438 186.875,218.438 C165.475,218.638 145.475,227.038 130.475,242.238 C115.475,257.438 107.275,277.638 107.475,298.938 C107.675,320.338 116.075,340.338 131.275,355.338 C146.375,370.238 166.275,378.338 187.375,378.338 L187.975,378.338 C209.375,378.138 229.375,369.738 244.375,354.538 C259.375,339.338 267.575,319.138 267.375,297.838 C267.375,292.838 263.275,288.838 258.275,288.838 C258.275,288.838 258.275,288.838 258.175,288.838 C253.175,288.838 249.175,292.938 249.175,297.938 C249.275,314.438 242.975,330.038 231.375,341.838 C219.775,353.638 204.275,360.138 187.775,360.238 L187.275,360.238 C170.975,360.238 155.475,353.938 143.875,342.438 C132.075,330.838 125.575,315.338 125.475,298.838 C125.375,282.338 131.675,266.738 143.275,254.938 C155.075,243.238 170.575,236.638 187.075,236.538 Z" id="Shape" fill="#57555B"></path>
                    <path d="M469.575,174.938 C480.875,174.938 490.175,165.738 490.175,154.338 L490.175,135.038 C490.175,123.738 480.975,114.438 469.575,114.438 L459.075,114.438 C456.375,104.438 452.475,94.838 447.275,85.938 L454.775,78.438 C462.775,70.438 462.775,57.338 454.775,49.338 L441.075,35.638 C437.175,31.738 431.975,29.638 426.575,29.638 C421.075,29.638 415.875,31.738 412.075,35.638 L404.575,43.138 C395.575,37.938 386.075,33.938 376.075,31.338 L376.075,20.738 C376.075,9.438 366.875,0.138 355.475,0.138 L336.075,0.138 C324.775,0.138 315.475,9.338 315.475,20.738 L315.475,31.338 C305.475,34.038 295.875,37.938 286.975,43.138 L279.475,35.638 C275.575,31.738 270.375,29.638 264.975,29.638 C259.475,29.638 254.275,31.738 250.475,35.638 L236.775,49.338 C228.775,57.338 228.775,70.438 236.775,78.438 L244.275,85.938 C239.075,94.938 235.075,104.438 232.475,114.438 L221.875,114.438 C210.575,114.438 201.275,123.638 201.275,135.038 L201.275,154.438 C201.275,165.738 210.475,175.038 221.875,175.038 L232.475,175.038 C235.175,185.038 239.075,194.638 244.275,203.538 L236.775,211.038 C228.775,219.038 228.775,232.138 236.775,240.138 L250.475,253.838 C254.375,257.738 259.575,259.838 264.975,259.838 C270.475,259.838 275.675,257.738 279.475,253.838 L286.975,246.338 C295.975,251.538 305.475,255.538 315.475,258.138 L315.475,268.738 C315.475,280.038 324.675,289.338 336.075,289.338 L355.475,289.338 C366.775,289.338 376.075,280.138 376.075,268.738 L376.075,258.038 C386.075,255.338 395.675,251.438 404.575,246.238 L412.075,253.738 C415.975,257.638 421.175,259.738 426.575,259.738 C432.075,259.738 437.275,257.638 441.075,253.738 L454.775,240.038 C462.775,232.038 462.775,218.938 454.775,210.938 L447.275,203.438 C452.475,194.438 456.475,184.938 459.075,174.938 L469.575,174.938 L469.575,174.938 Z M442.975,164.138 C440.475,176.938 435.475,188.938 428.175,199.838 C425.775,203.438 426.275,208.238 429.275,211.238 L441.875,223.838 C442.875,224.838 442.875,226.338 441.875,227.338 L428.175,241.038 C427.575,241.638 426.875,241.738 426.475,241.738 C425.975,241.738 425.375,241.638 424.775,241.038 L412.175,228.438 C409.075,225.338 404.275,224.938 400.775,227.338 C389.875,234.638 377.875,239.538 365.075,242.138 C360.875,242.938 357.775,246.738 357.775,251.038 L357.775,268.838 C357.775,270.138 356.675,271.238 355.375,271.238 L335.975,271.238 C334.675,271.238 333.575,270.138 333.575,268.838 L333.575,251.038 C333.575,246.738 330.475,243.038 326.275,242.138 C313.475,239.638 301.475,234.638 290.575,227.338 C289.075,226.338 287.275,225.838 285.575,225.838 C283.275,225.838 280.875,226.738 279.175,228.538 L266.575,241.138 C265.975,241.738 265.275,241.838 264.875,241.838 C264.375,241.838 263.775,241.738 263.175,241.138 L249.475,227.438 C248.475,226.438 248.475,224.938 249.475,223.938 L262.075,211.338 C265.175,208.238 265.575,203.438 263.175,199.938 C255.875,189.038 250.975,177.038 248.375,164.238 C247.575,160.038 243.775,156.938 239.475,156.938 L221.675,156.938 C220.375,156.938 219.275,155.838 219.275,154.538 L219.275,135.038 C219.275,133.738 220.375,132.638 221.675,132.638 L239.475,132.638 C243.775,132.638 247.475,129.538 248.375,125.338 C250.875,112.538 255.875,100.538 263.175,89.638 C265.575,86.038 265.075,81.238 262.075,78.238 L249.475,65.638 C248.875,65.038 248.775,64.338 248.775,63.938 C248.775,63.438 248.875,62.838 249.475,62.238 L263.075,48.438 C263.675,47.838 264.375,47.738 264.775,47.738 C265.275,47.738 265.875,47.838 266.475,48.438 L279.075,61.038 C282.175,64.138 286.975,64.538 290.475,62.138 C301.375,54.838 313.375,49.938 326.175,47.338 C330.375,46.538 333.475,42.738 333.475,38.438 L333.475,20.738 C333.475,19.438 334.575,18.338 335.875,18.338 L355.275,18.338 C356.575,18.338 357.675,19.438 357.675,20.738 L357.675,38.538 C357.675,42.838 360.775,46.538 364.975,47.438 C377.775,49.938 389.775,54.938 400.675,62.238 C404.275,64.638 409.075,64.138 412.075,61.138 L424.675,48.538 C425.275,47.938 425.975,47.838 426.375,47.838 C426.875,47.838 427.475,47.938 428.075,48.538 L441.775,62.238 C442.775,63.238 442.775,64.738 441.775,65.738 L429.175,78.338 C426.075,81.438 425.675,86.238 428.075,89.738 C435.375,100.638 440.275,112.638 442.875,125.438 C443.675,129.638 447.475,132.738 451.775,132.738 L469.575,132.738 C470.875,132.738 471.975,133.838 471.975,135.138 L471.975,154.538 C471.975,155.838 470.875,156.938 469.575,156.938 L451.775,156.938 C447.475,156.838 443.775,159.838 442.975,164.138 Z" id="Shape" fill="#57555B"></path>
                    <path d="M345.675,86.538 C313.575,86.538 287.575,112.638 287.575,144.638 C287.575,176.738 313.675,202.738 345.675,202.738 C377.775,202.738 403.775,176.638 403.775,144.638 C403.775,112.638 377.675,86.538 345.675,86.538 Z M345.675,184.638 C323.575,184.638 305.675,166.738 305.675,144.638 C305.675,122.538 323.575,104.638 345.675,104.638 C367.775,104.638 385.675,122.538 385.675,144.638 C385.675,166.738 367.675,184.638 345.675,184.638 Z" id="Shape" fill="#57555B"></path>
                </g>
            </g>
        </g>
    </g>
</svg>