<?xml version="1.0" encoding="UTF-8" standalone="no"?>
<svg width="428px" height="490px" viewBox="0 0 428 490" version="1.1" xmlns="http://www.w3.org/2000/svg" xmlns:xlink="http://www.w3.org/1999/xlink">
    <!-- Generator: Sketch 41.2 (35397) - http://www.bohemiancoding.com/sketch -->
    <title>Technology</title>
    <desc>Created with Sketch.</desc>
    <defs></defs>
    <g id="Page-1" stroke="none" stroke-width="1" fill="none" fill-rule="evenodd">
        <g id="Technology">
            <g id="Layer_1">
                <g id="Group">
                    <rect id="Rectangle-path" fill="#A6CE2F" x="12.05" y="338.6" width="406.1" height="66.5"></rect>
                    <path d="M213.85,438.9 C208.85,438.9 204.75,443 204.75,448 L204.75,471.4 L126.45,471.4 C121.45,471.4 117.35,475.5 117.35,480.5 C117.35,485.5 121.45,489.6 126.45,489.6 L301.25,489.6 C306.25,489.6 310.35,485.5 310.35,480.5 C310.35,475.5 306.25,471.4 301.25,471.4 L222.95,471.4 L222.95,448 C222.95,442.9 218.85,438.9 213.85,438.9 Z" id="Shape" fill="#57555B"></path>
                    <path d="M22.25,414.1 L405.35,414.1 C417.45,414.1 427.25,404.3 427.25,392.2 L427.25,128.5 C427.25,116.4 417.45,106.6 405.35,106.6 L298.15,106.6 C293.15,106.6 289.05,110.7 289.05,115.7 C289.05,120.7 293.15,124.8 298.15,124.8 L405.35,124.8 C407.45,124.8 409.15,126.5 409.15,128.6 L409.15,392.4 C409.15,394.5 407.45,396.2 405.35,396.2 L22.25,396.2 C20.15,396.2 18.45,394.5 18.45,392.4 L18.45,348.5 L379.85,348.5 C384.85,348.5 388.95,344.4 388.95,339.4 C388.95,334.4 384.85,330.3 379.85,330.3 L334.15,330.3 C330.35,304 307.65,283.7 280.35,283.7 C275.35,283.7 271.25,287.8 271.25,292.8 C271.25,297.8 275.35,301.9 280.35,301.9 C297.65,301.9 312.15,314.1 315.75,330.3 L274.35,330.3 C270.85,302.4 248.65,280.2 220.75,276.6 L220.75,213.5 C220.75,208.5 216.65,204.4 211.65,204.4 C206.65,204.4 202.55,208.5 202.55,213.5 L202.55,277 C175.75,281.5 154.75,303.2 151.25,330.3 L109.65,330.3 C113.25,314.1 127.75,301.9 145.05,301.9 C150.05,301.9 154.15,297.8 154.15,292.8 C154.15,287.8 150.05,283.7 145.05,283.7 C117.75,283.7 95.05,304 91.25,330.3 L13.85,330.3 C12.55,329.6 11.05,329.1 9.45,329.1 C4.45,329.1 0.35,333.2 0.35,338.2 L0.35,392.3 C0.45,404.3 10.25,414.1 22.25,414.1 Z M212.95,294.1 C234.45,294.1 252.45,309.7 256.15,330.2 L169.85,330.2 C173.45,309.7 191.35,294.1 212.95,294.1 Z" id="Shape" fill="#57555B"></path>
                    <path d="M9.45,310.5 C14.45,310.5 18.55,306.4 18.55,301.4 L18.55,128.4 C18.55,126.3 20.25,124.6 22.35,124.6 L129.85,124.6 C134.85,124.6 138.95,120.5 138.95,115.5 C138.95,110.5 134.85,106.4 129.85,106.4 L22.25,106.4 C10.15,106.4 0.35,116.2 0.35,128.3 L0.35,301.3 C0.45,306.5 4.45,310.5 9.45,310.5 Z" id="Shape" fill="#57555B"></path>
                    <circle id="Oval" fill="#57555B" cx="213.05" cy="373.4" r="10.5"></circle>
                    <path d="M132.75,227.7 C132.75,232.7 136.85,236.8 141.85,236.8 L160.45,236.8 L160.45,257.8 C160.45,262.8 164.55,266.9 169.55,266.9 C174.55,266.9 178.65,262.8 178.65,257.8 L178.65,236.8 L179.85,236.8 C184.85,236.8 188.95,232.7 188.95,227.7 C188.95,222.7 184.85,218.6 179.85,218.6 L150.85,218.6 L150.85,208.5 C150.85,205.1 151.85,201.8 153.85,199 L170.25,175.5 C174.15,169.9 176.25,163.3 176.25,156.4 L176.25,77.7 C176.25,70.3 178.95,63.1 183.75,57.5 L213.25,23 L242.85,57.4 C247.75,63.1 250.45,70.3 250.45,77.7 L250.45,156.9 C250.45,163.2 252.25,169.4 255.65,174.8 L270.95,198.9 C272.65,201.6 273.55,204.6 273.55,207.8 L273.55,218.5 L246.05,218.5 C241.05,218.5 236.95,222.6 236.95,227.6 C236.95,232.3 240.45,236 244.95,236.6 L244.95,257.7 C244.95,262.7 249.05,266.8 254.05,266.8 C259.05,266.8 263.15,262.7 263.15,257.7 L263.15,236.7 L282.55,236.7 C287.55,236.7 291.65,232.6 291.65,227.6 L291.65,207.8 C291.65,201.2 289.75,194.8 286.25,189.2 L270.95,165.1 C269.35,162.6 268.55,159.8 268.55,156.9 L268.55,77.8 C268.55,66 264.25,54.6 256.55,45.6 L219.95,3.1 C218.25,1.1 215.75,0 213.05,0 C210.45,0 207.85,1.2 206.15,3.2 L169.85,45.7 C162.25,54.6 158.05,66 158.05,77.7 L158.05,156.5 C158.05,159.6 157.15,162.7 155.35,165.2 L138.95,188.7 C134.85,194.6 132.75,201.4 132.75,208.6 L132.75,227.7 L132.75,227.7 Z" id="Shape" fill="#57555B"></path>
                </g>
            </g>
        </g>
    </g>
</svg>