<?xml version="1.0" encoding="UTF-8" standalone="no"?>
<svg width="36px" height="28px" viewBox="0 0 36 28" version="1.1" xmlns="http://www.w3.org/2000/svg" xmlns:xlink="http://www.w3.org/1999/xlink">
    <!-- Generator: Sketch 40.1 (33804) - http://www.bohemiancoding.com/sketch -->
    <title>CC</title>
    <desc>Created with Sketch.</desc>
    <defs>
        <linearGradient x1="50%" y1="0%" x2="50%" y2="100%" id="linearGradient-1">
            <stop stop-color="#FFFFFF" offset="0%"></stop>
            <stop stop-color="#F0F0F0" offset="100%"></stop>
        </linearGradient>
        <filter x="-50%" y="-50%" width="200%" height="200%" filterUnits="objectBoundingBox" id="filter-2">
            <feOffset dx="0" dy="2" in="SourceAlpha" result="shadowOffsetOuter1"></feOffset>
            <feGaussianBlur stdDeviation="2" in="shadowOffsetOuter1" result="shadowBlurOuter1"></feGaussianBlur>
            <feColorMatrix values="0 0 0 0 0   0 0 0 0 0   0 0 0 0 0  0 0 0 0.5 0" type="matrix" in="shadowBlurOuter1" result="shadowMatrixOuter1"></feColorMatrix>
            <feMerge>
                <feMergeNode in="shadowMatrixOuter1"></feMergeNode>
                <feMergeNode in="SourceGraphic"></feMergeNode>
            </feMerge>
        </filter>
        <rect id="path-3" x="0" y="0" width="28" height="20" rx="2"></rect>
        <mask id="mask-4" maskContentUnits="userSpaceOnUse" maskUnits="objectBoundingBox" x="0" y="0" width="28" height="20" fill="white">
            <use xlink:href="#path-3"></use>
        </mask>
        <mask id="mask-6" maskContentUnits="userSpaceOnUse" maskUnits="objectBoundingBox" x="0" y="0" width="28" height="20" fill="white">
            <use xlink:href="#path-3"></use>
        </mask>
        <polygon id="path-7" points="0 23 33.9596173 23 33.9596173 0.0339292646 0 0.0339292646"></polygon>
    </defs>
    <g id="Page-1" stroke="none" stroke-width="1" fill="none" fill-rule="evenodd">
        <g id="CC" filter="url(#filter-2)" transform="translate(4.000000, 2.000000)">
            <mask id="mask-5" fill="white">
                <use xlink:href="#path-3"></use>
            </mask>
            <g id="Mask" stroke="#F5F5F5" mask="url(#mask-4)" fill="#FFFFFF">
                <use mask="url(#mask-6)" xlink:href="#path-3"></use>
            </g>
            <g id="3" mask="url(#mask-5)">
                <g transform="translate(-4.000000, 0.000000)">
                    <g id="Group-4" stroke-width="1" fill="none">
                        <mask id="mask-8" fill="white">
                            <use xlink:href="#path-7"></use>
                        </mask>
                        <g id="Clip-2"></g>
                        <rect id="Rectangle-8" fill="#1C8242" mask="url(#mask-8)" x="2" y="-4" width="36" height="27"></rect>
                    </g>
                    <path d="M5.88635607,5.0018155 C5.88795341,3.15175358 7.34262895,1.66783223 9.15251248,1.6700738 C10.9556073,1.67231537 12.4108319,3.17141828 12.4027953,5.01842352 C12.3948087,6.86349285 10.9315973,8.34563113 9.12400998,8.33967058 C7.33808652,8.33381193 5.88480865,6.83557508 5.88635607,5.0018155" id="Fill-5" fill="#FDE11B"></path>
                    <path d="M20.8108319,7.92482674 C19.8611148,7.67596118 18.9900166,7.80393463 18.2409651,8.47650843 C17.7180865,8.94596514 17.4410483,9.55093514 17.3884359,10.2579477 C17.3558403,10.6967356 17.4368552,11.1183551 17.6175541,11.5188834 C17.798203,11.9193608 18.0590682,12.2532024 18.4045923,12.5198477 C18.7499168,12.7862892 19.1369218,12.9526751 19.561614,13.0211959 C19.9802163,13.0886978 20.3953245,13.0305697 20.8566556,12.9046341 C20.0570882,13.7050794 18.178619,14.0053993 16.854975,12.7563846 C15.5828952,11.5560732 15.5334276,9.4638704 16.7618802,8.19519101 C18.0606656,6.85381333 19.9999834,7.12137564 20.8108319,7.92482674" id="Fill-6" fill="#FDE11B"></path>
                    <path d="M25.7185524,4.74072319 C25.8577205,4.70628447 25.9599501,4.77821859 26.0591847,4.82758414 C26.224609,4.90986006 26.2979867,4.86518144 26.3316805,4.68672165 C26.3532945,4.57235049 26.4029118,4.46358325 26.4476872,4.32903792 C26.5654409,4.44600728 26.5760233,4.59262653 26.6099667,4.7193773 C26.6532446,4.88097434 26.7217804,4.8995692 26.858203,4.83171067 C26.9756073,4.77327694 27.1027953,4.73532303 27.2876872,4.66456065 C27.1785691,4.83527681 27.1086855,4.96289364 27.0211814,5.0763478 C26.9285857,5.19652669 26.9591348,5.26204175 27.08203,5.32516241 C27.2040765,5.38787551 27.3186855,5.46587206 27.4338935,5.53551366 C27.4176705,5.56816931 27.4152745,5.57983567 27.4109318,5.58059985 C27.2260899,5.61498761 26.9682196,5.53887602 26.8742263,5.68732929 C26.7972546,5.80903652 26.8903993,6.04287334 26.9082696,6.22821067 C26.8890516,6.22581627 26.8700832,6.22897485 26.8581531,6.2210784 C26.702812,6.11832265 26.6272379,5.83761657 26.4412479,5.87918756 C26.2996339,5.91087526 26.1989517,6.13319854 26.0800499,6.27064773 C26.0614309,6.25592467 26.0428619,6.24120161 26.0242928,6.22647855 C26.0393178,6.09595787 26.0431614,5.96278805 26.072213,5.83562972 C26.108203,5.67805733 26.0550416,5.62227273 25.9033444,5.6190632 C25.7733111,5.61631218 25.6437271,5.59282661 25.446406,5.57107316 C25.6182196,5.46607584 25.7380699,5.38405465 25.8656572,5.31746974 C25.9826622,5.25643782 25.9994343,5.19632291 25.9190682,5.08465181 C25.8438935,4.98016394 25.7544426,4.8788856 25.7185524,4.74072319" id="Fill-7" fill="#FCE11B"></path>
                    <path d="M26.0161065,16.4612463 C26.036772,16.3005663 26.0398669,16.1828327 26.0687687,16.0721296 C26.1218303,15.8689616 26.0353245,15.8024276 25.8512313,15.7993709 C25.7383694,15.7975369 25.625807,15.7795534 25.4397671,15.7618755 C25.6121298,15.6572348 25.7245424,15.5767929 25.8468885,15.5179516 C25.9918469,15.4482591 25.9986855,15.3701606 25.9034942,15.2498799 C25.8316639,15.1591471 25.7750083,15.0558309 25.7000832,14.940339 C25.8546755,14.8855223 25.9591015,14.9713644 26.0622296,15.0177242 C26.2068885,15.0827298 26.2903993,15.0785523 26.3249418,14.8967302 C26.3482529,14.7742588 26.4012646,14.6576461 26.4479368,14.5177515 C26.5558569,14.6109806 26.5638935,14.7337577 26.587604,14.8391116 C26.6322795,15.0381531 26.7121464,15.1147232 26.9083195,15.0027974 C27.007005,14.9465033 27.1208652,14.9178214 27.2881364,14.8535799 C27.1962396,14.9969897 27.144975,15.0985737 27.0741431,15.1830402 C26.9370216,15.3465732 26.9222463,15.464918 27.1497671,15.5538677 C27.2522463,15.5939613 27.3404493,15.6721107 27.4574542,15.7473562 C27.2369218,15.7850045 26.9916805,15.7545395 26.8865058,15.8640709 C26.771797,15.9836894 26.9077704,16.2258811 26.9145092,16.4334304 C26.715391,16.3374503 26.6366223,16.0402891 26.4591681,16.0624501 C26.3097171,16.0810449 26.1842762,16.3001587 26.0161065,16.4612463" id="Fill-8" fill="#FCE11B"></path>
                    <path d="M28.8399002,8.69083338 C28.8540266,8.66281371 28.8576206,8.64493207 28.8683527,8.63601673 C29.0072712,8.52057572 29.2672879,8.4876144 29.2850083,8.31817186 C29.299584,8.17909244 29.123777,8.01922753 29.0206988,7.84953026 C29.1803328,7.83057878 29.2993844,7.9069451 29.4182363,7.9612523 C29.5540599,8.02330312 29.6147587,7.97908299 29.6508985,7.84535278 C29.6871381,7.71136785 29.7330116,7.58013394 29.7779867,7.43723366 C29.8803161,7.55348979 29.8925458,7.68446897 29.9257404,7.80439313 C29.9682196,7.95809372 30.0154908,8.0486227 30.1964892,7.95213317 C30.3005158,7.89665424 30.4121298,7.82517863 30.5452579,7.84540373 C30.5117138,8.04740003 30.2440599,8.18484921 30.3077038,8.34313483 C30.3662063,8.4886333 30.601614,8.56000702 30.7593012,8.66418922 C30.7470715,8.68196897 30.743827,8.69205605 30.7392346,8.69271834 C30.5591847,8.71864926 30.3342097,8.68589173 30.211614,8.78513228 C30.0892679,8.88411811 30.2647754,9.11352273 30.2024293,9.2885692 C30.1052912,9.32402681 30.0742429,9.23268271 30.0268719,9.18433606 C29.790416,8.94316318 29.7903661,8.94015743 29.5575042,9.19157022 C29.5073877,9.24567365 29.4727953,9.31465296 29.4397504,9.36381473 C29.3395674,9.31180005 29.3607321,9.26442135 29.3633777,9.22855618 C29.3972213,8.76796387 29.3978702,8.7681167 28.9318469,8.70657533 C28.9026456,8.70275447 28.8736938,8.69669203 28.8399002,8.69083338" id="Fill-9" fill="#FCE11B"></path>
                    <path d="M22.7137604,8.45185112 C22.8390017,8.66164198 22.8042097,8.93078358 22.9548087,8.99400613 C23.0762063,9.04505286 23.2733278,8.90841879 23.4606156,8.84728498 C23.4620133,9.01672753 23.3444093,9.11168871 23.2723794,9.22060878 C23.1956572,9.33661019 23.2142762,9.39499298 23.3294343,9.45612679 C23.45203,9.52118335 23.5667887,9.60157431 23.7271714,9.70157903 C23.5986855,9.72022485 23.5209651,9.73209499 23.4430449,9.74274247 C23.0811481,9.79215896 23.0815973,9.79195518 23.1415474,10.1648205 C23.1528785,10.2356338 23.1935108,10.3062434 23.1490349,10.3851569 C22.9747255,10.2802615 22.8899168,9.98834755 22.7143095,10.0096934 C22.57,10.0273204 22.451198,10.2630421 22.3142762,10.4092029 C22.2913644,10.3667658 22.2782363,10.3538768 22.2783361,10.3409877 C22.2790349,10.1526447 22.4293344,9.92084563 22.2880699,9.79236274 C22.1790516,9.69312219 21.9473378,9.73428562 21.7127787,9.70611313 C21.8799501,9.60182903 21.9947088,9.52133618 22.1172546,9.45638151 C22.2325125,9.3952477 22.2572213,9.33284027 22.1726622,9.22183146 C22.0881531,9.11097549 22.0185691,8.98830031 21.9327121,8.85579277 C22.1018303,8.84499247 22.2246256,8.92533248 22.3496672,8.98203409 C22.4837937,9.04276034 22.5430449,9.01148021 22.5763394,8.86842709 C22.6060399,8.74101404 22.6575541,8.61889926 22.7137604,8.45185112" id="Fill-10" fill="#FCE11B"></path>
                    <path d="M27.410183,10.9196702 C27.798386,10.7803361 27.798386,10.7803361 27.9970549,10.4662611 C28.021015,10.8050953 28.2296672,10.883805 28.5115474,10.8972035 C28.2115474,11.0511079 28.2084526,11.2774558 28.3117804,11.5538825 C28.0746755,11.3309989 27.8552413,11.3325272 27.617188,11.5530165 C27.7239601,11.2750614 27.715574,11.0503947 27.410183,10.9196702" id="Fill-11" fill="#F9DF1D"></path>
                    <path d="M9.54805324,5.74112704 C9.37224626,5.81790092 9.22394343,5.71320927 9.19239601,5.48701417 C9.17198003,5.34014019 9.20522463,5.19948149 9.25788686,5.06478332 C9.29198003,4.97766765 9.33855241,4.89590117 9.26597338,4.78112245 C9.0830782,4.9742034 9.09001664,5.21181014 9.08527454,5.44187704 C9.08272879,5.56694663 9.12845258,5.70291841 8.94460899,5.73776468 C8.89693844,5.74683287 8.89304493,5.80220991 8.89758735,5.84383184 C8.91640599,6.01719714 8.81816972,6.01475179 8.69642263,5.99274362 C8.55585691,5.96732214 8.54073211,5.8966107 8.6072213,5.78142441 C8.62304493,5.75396514 8.63312812,5.71269982 8.6256406,5.68315181 C8.52705491,5.29316905 8.83394343,5.01042518 8.86753744,4.65126404 C8.5472213,4.69696157 8.21292845,4.74235342 7.87978369,4.79482661 C7.83221298,4.8023155 7.78658902,4.83828256 7.73792013,4.81061951 C7.53371048,4.69461811 7.39509151,4.80323251 7.25677205,4.94363649 C7.19552413,5.00589109 7.12499168,5.16101813 7.04512479,4.92962666 C7.01352745,4.83797689 6.87151414,4.99447944 6.75311148,4.94964798 C6.98956739,4.70679392 7.26675541,4.52227171 7.4874376,4.27437411 C7.54883527,4.20539479 7.66239601,4.19377937 7.74775374,4.22750485 C7.98181364,4.31986785 8.18093178,4.24283925 8.39532446,4.11089211 C8.24592346,4.0028381 8.10181364,3.9677371 7.9350416,4.06325868 C7.90708819,3.97507316 8.07046589,3.89045378 7.96299501,3.84827145 C7.73991681,3.76059538 7.63459235,3.97588828 7.49642263,4.10503345 C7.42114809,3.81948761 7.57104825,3.60949298 7.87469218,3.55758018 C8.03382696,3.53042658 8.1884193,3.55752924 8.34006656,3.60791369 C8.36881864,3.62773123 8.40475874,3.61652337 8.43480865,3.63073698 C8.44209651,3.59461708 8.40106489,3.58483567 8.39547421,3.55569522 C8.29688852,3.49517275 8.19780366,3.43541445 8.09986689,3.37382214 C8.05174709,3.3435609 7.98785358,3.31839415 8.00242928,3.24467697 C8.01855241,3.16296144 8.08888519,3.15516688 8.15587354,3.14645531 C8.59853577,3.08904047 8.92544093,3.26994561 9.15610649,3.65040169 C9.22054908,3.69238023 9.25039933,3.76619931 9.28978369,3.80369471 C9.23921797,3.76069727 9.21930116,3.68035725 9.19733777,3.60103613 C9.18021631,3.51549974 9.03126456,3.3450383 9.29747088,3.4433109 C9.36700499,3.4689871 9.37928453,3.40561172 9.38697171,3.35634806 C9.42630616,3.10580133 9.55823627,2.87756844 9.54415973,2.61341943 C9.6821797,2.63547855 9.60341098,2.77715615 9.69500832,2.83941075 C9.7977371,2.6324728 9.97344426,2.56466522 10.1873378,2.58764134 C10.3007987,2.59986811 10.3924958,2.59492646 10.2541764,2.75260074 C10.2100998,2.8028833 10.0853577,2.89381984 10.1064226,3.01644408 C10.169218,3.06107176 10.2042097,3.00915896 10.2438935,2.98567339 C10.3261564,2.93691918 10.436772,2.88291765 10.4772546,2.98883197 C10.5025125,3.05480554 10.4872379,3.17172395 10.4058735,3.2656153 C10.3103328,3.37575804 10.1278869,3.29480669 10.0760732,3.46368884 C10.2581697,3.49512181 10.2969052,3.58651685 10.1730116,3.73344178 C10.1352745,3.77817135 10.087604,3.81408746 10.0490682,3.85815475 C10.0169717,3.89493693 9.97628952,3.9376287 10.0335441,3.98592441 C10.073228,4.01939517 10.1115641,3.997387 10.1455075,3.97150702 C10.1719634,3.95133287 10.2100998,3.93227949 10.2186855,3.90482022 C10.3277038,3.55533861 10.5889185,3.61249872 10.8464393,3.65391688 C10.8864226,3.66038687 10.928203,3.65483389 11.003178,3.65483389 C10.9259068,3.76222561 10.6857571,3.82290092 10.9256572,3.97181269 C10.972629,4.00095314 10.912629,4.05526034 10.854426,4.05897932 C10.8055075,4.06208695 10.7442097,4.05770569 10.7536439,4.13330784 C10.7630283,4.20896093 10.8247255,4.225518 10.8853744,4.21339313 C11.0928785,4.17192403 11.2811647,4.11802439 11.4000666,4.39837385 C11.4807321,4.58865283 11.5242596,4.76125396 11.4671547,4.97950166 C11.2152745,4.68667071 10.8864226,4.98240552 10.5926123,4.79192275 C10.6388852,4.98755094 10.7558902,5.05383018 10.8610649,5.10339951 C11.0534443,5.19408133 11.0001331,5.31543195 10.9281531,5.44360917 C10.8821797,5.52552847 10.8264725,5.59741164 10.8702496,5.70088062 C10.8905657,5.74881971 10.9397338,5.81683108 10.8464393,5.84357712 C10.7800998,5.86263049 10.7112646,5.85223774 10.6679368,5.78774157 C10.4383694,5.44636019 10.0645424,5.24212232 9.84865225,4.88805567 C9.73294509,4.89870314 9.73813644,4.99218693 9.73374376,5.07201749 C9.72645591,5.20396463 9.71876872,5.33504571 9.67194676,5.46026813 C9.64279534,5.53622689 9.62193012,5.61483478 9.5990183,5.69298417 C9.58603993,5.71346399 9.56916805,5.72966445 9.54805324,5.74112704" id="Fill-12" fill="#107A3F"></path>
                    <path d="M9.5972213,5.40988368 C9.65602329,5.28583299 9.65148087,5.15857278 9.63735441,5.02387462 C9.62951747,4.94918948 9.65452579,4.85213956 9.73993344,4.81510266 C9.79404326,4.79156614 9.82768719,4.83925051 9.84865225,4.88805567 C9.81041597,5.53108146 9.80043261,6.17645072 9.70404326,6.81478958 C9.68896839,6.91448864 9.66745424,7.01535942 9.63231281,7.10919982 C9.59332779,7.21333108 9.56073211,7.30065054 9.69575707,7.3562823 C9.75201331,7.37951315 9.79753744,7.42765603 9.77058236,7.49622778 C9.74991681,7.54895569 9.6943594,7.55389734 9.64264559,7.55379545 C9.43479201,7.55348979 9.22693844,7.55542569 9.01908486,7.55323506 C8.84317804,7.55145199 8.86968386,7.44309231 8.94126456,7.35587474 C9.32572379,6.88738598 9.44342762,6.31746604 9.54805324,5.74112704 L9.54610649,5.72115666 C9.59582363,5.62298596 9.5440599,5.50744305 9.5972213,5.40988368" id="Fill-13" fill="#6B281F"></path>
                    <path d="M9.19733777,5.84281295 C9.3156406,5.98092441 9.42770383,6.12321336 9.48051581,6.30819408 C9.29582363,6.234375 9.23677205,6.05403026 9.15610649,5.8921785 C9.16983361,5.87572331 9.18361065,5.85926813 9.19733777,5.84281295" id="Fill-14" fill="#E0D52B"></path>
                    <path d="M8.39547421,5.79747204 C8.50009983,5.85756803 8.60891847,5.90846646 8.6912812,6.12133567 C8.53009983,6.10379793 8.43800333,5.9799425 8.34006656,5.8773662 C8.35853577,5.85070883 8.37700499,5.82412941 8.39547421,5.79747204" id="Fill-15" fill="#DBD32C"></path>
                    <path d="M10.4537013,7.02323 C10.4058423,7.10554485 10.3699777,7.22540194 10.2470642,7.17033998 C10.1721286,7.13669101 10.106931,7.06536074 10.1583527,6.97442508 C10.1917235,6.91519176 10.2741408,6.87709334 10.3396947,6.86360594 C10.4266248,6.84580813 10.4762652,6.90392909 10.4537013,7.02323" id="Fill-16" fill="#DFD42B"></path>
                    <path d="M9.72717817,7.6516605 C9.75229801,7.76392616 9.79255857,7.8769869 9.55099522,7.97552413 C9.53826324,7.86389454 9.52071377,7.75194691 9.72717817,7.6516605" id="Fill-17" fill="#A4A63A"></path>
                </g>
            </g>
        </g>
    </g>
</svg>