<?xml version="1.0" encoding="UTF-8" standalone="no"?>
<svg width="36px" height="28px" viewBox="0 0 36 28" version="1.1" xmlns="http://www.w3.org/2000/svg" xmlns:xlink="http://www.w3.org/1999/xlink">
    <!-- Generator: Sketch 40.1 (33804) - http://www.bohemiancoding.com/sketch -->
    <title>CK</title>
    <desc>Created with Sketch.</desc>
    <defs>
        <filter x="-50%" y="-50%" width="200%" height="200%" filterUnits="objectBoundingBox" id="filter-1">
            <feOffset dx="0" dy="2" in="SourceAlpha" result="shadowOffsetOuter1"></feOffset>
            <feGaussianBlur stdDeviation="2" in="shadowOffsetOuter1" result="shadowBlurOuter1"></feGaussianBlur>
            <feColorMatrix values="0 0 0 0 0   0 0 0 0 0   0 0 0 0 0  0 0 0 0.5 0" type="matrix" in="shadowBlurOuter1" result="shadowMatrixOuter1"></feColorMatrix>
            <feMerge>
                <feMergeNode in="shadowMatrixOuter1"></feMergeNode>
                <feMergeNode in="SourceGraphic"></feMergeNode>
            </feMerge>
        </filter>
        <rect id="path-2" x="0" y="0" width="28" height="20" rx="2"></rect>
        <path d="M4.66666667,4 L0,0 L0.666666667,0 L5.33333333,3.33333333 L6.66666667,3.33333333 L12,0 L12,0.333333333 C12,0.51742825 11.8846436,0.749064128 11.7220542,0.865199407 L7.33333333,4 L7.33333333,5.33333333 L11.7490997,9.11827596 C11.8876681,9.23704887 11.8453776,9.33333333 11.6666667,9.33333333 L11.6666667,9.33333333 C11.4825718,9.33333333 11.2179769,9.25093587 11.0553875,9.13480059 L6.66666667,6 L5.33333333,6 L0,9.33333333 L0,8.66666667 L4.66666667,5.33333333 L4.66666667,4 Z" id="path-4"></path>
        <mask id="mask-5" maskContentUnits="userSpaceOnUse" maskUnits="objectBoundingBox" x="-0.666666667" y="-0.666666667" width="13.3333333" height="10.6666667">
            <rect x="-0.666666667" y="-0.666666667" width="13.3333333" height="10.6666667" fill="white"></rect>
            <use xlink:href="#path-4" fill="black"></use>
        </mask>
    </defs>
    <g id="Page-1" stroke="none" stroke-width="1" fill="none" fill-rule="evenodd">
        <g id="CK" filter="url(#filter-1)" transform="translate(4.000000, 2.000000)">
            <mask id="mask-3" fill="white">
                <use xlink:href="#path-2"></use>
            </mask>
            <use id="Mask" fill="#FFFFFF" xlink:href="#path-2"></use>
            <rect id="Mask-Copy" fill="#0A17A7" mask="url(#mask-3)" x="0" y="0" width="28" height="20"></rect>
            <path d="M21,8.05754704 L20.3805033,8.23899343 L20.5619497,7.61949672 L20.3805033,7 L21,7.18144639 L21.6194967,7 L21.4380503,7.61949672 L21.6194967,8.23899343 L21,8.05754704 Z M21,16.8185536 L20.3805033,17 L20.5619497,16.3805033 L20.3805033,15.7610066 L21,15.942453 L21.6194967,15.7610066 L21.4380503,16.3805033 L21.6194967,17 L21,16.8185536 Z M25.3805033,12.4380503 L24.7610066,12.6194967 L24.942453,12 L24.7610066,11.3805033 L25.3805033,11.5619497 L26,11.3805033 L25.8185536,12 L26,12.6194967 L25.3805033,12.4380503 Z M16.6194967,12.4380503 L16,12.6194967 L16.1814464,12 L16,11.3805033 L16.6194967,11.5619497 L17.2389934,11.3805033 L17.057547,12 L17.2389934,12.6194967 L16.6194967,12.4380503 Z M24.7936271,10.2477987 L24.1741304,10.4292451 L24.3555768,9.80974836 L24.1741304,9.19025164 L24.7936271,9.37169803 L25.4131238,9.19025164 L25.2316775,9.80974836 L25.4131238,10.4292451 L24.7936271,10.2477987 Z M17.2063729,14.628302 L16.5868762,14.8097484 L16.7683225,14.1902516 L16.5868762,13.5707549 L17.2063729,13.7522013 L17.8258696,13.5707549 L17.6444232,14.1902516 L17.8258696,14.8097484 L17.2063729,14.628302 Z M23.1902516,8.6444232 L22.5707549,8.82586959 L22.7522013,8.20637287 L22.5707549,7.58687616 L23.1902516,7.76832255 L23.8097484,7.58687616 L23.628302,8.20637287 L23.8097484,8.82586959 L23.1902516,8.6444232 Z M18.8097484,16.2316775 L18.1902516,16.4131238 L18.371698,15.7936271 L18.1902516,15.1741304 L18.8097484,15.3555768 L19.4292451,15.1741304 L19.2477987,15.7936271 L19.4292451,16.4131238 L18.8097484,16.2316775 Z M24.7936271,14.628302 L24.1741304,14.8097484 L24.3555768,14.1902516 L24.1741304,13.5707549 L24.7936271,13.7522013 L25.4131238,13.5707549 L25.2316775,14.1902516 L25.4131238,14.8097484 L24.7936271,14.628302 Z M17.2063729,10.2477987 L16.5868762,10.4292451 L16.7683225,9.80974836 L16.5868762,9.19025164 L17.2063729,9.37169803 L17.8258696,9.19025164 L17.6444232,9.80974836 L17.8258696,10.4292451 L17.2063729,10.2477987 Z M23.1902516,16.2316775 L22.5707549,16.4131238 L22.7522013,15.7936271 L22.5707549,15.1741304 L23.1902516,15.3555768 L23.8097484,15.1741304 L23.628302,15.7936271 L23.8097484,16.4131238 L23.1902516,16.2316775 Z M18.8097484,8.6444232 L18.1902516,8.82586959 L18.371698,8.20637287 L18.1902516,7.58687616 L18.8097484,7.76832255 L19.4292451,7.58687616 L19.2477987,8.20637287 L19.4292451,8.82586959 L18.8097484,8.6444232 Z" id="Star-2" fill="#FFFFFF" mask="url(#mask-3)"></path>
            <g id="Rectangle-36" mask="url(#mask-3)">
                <use fill="#FF2E3B" fill-rule="evenodd" xlink:href="#path-4"></use>
                <use stroke="#FFFFFF" mask="url(#mask-5)" stroke-width="1.33333333" xlink:href="#path-4"></use>
            </g>
            <path d="M0,3.33333333 L0,6 L4.66666667,6 L4.66666667,9.33948135 C4.66666667,9.70427573 4.97256724,10 5.33957926,10 L6.66042074,10 C7.0320601,10 7.33333333,9.69934988 7.33333333,9.33948135 L7.33333333,6 L11.9911963,6 C12.3642483,6 12.6666667,5.69409943 12.6666667,5.3270874 L12.6666667,4.00624593 C12.6666667,3.63460657 12.3646425,3.33333333 11.9911963,3.33333333 L7.33333333,3.33333333 L7.33333333,0 L4.66666667,0 L4.66666667,3.33333333 L0,3.33333333 Z" id="Rectangle-2" fill="#FFFFFF" mask="url(#mask-3)"></path>
            <polygon id="Rectangle-36" fill="#FF2E3B" mask="url(#mask-3)" points="0 4 5.33333333 4 5.33333333 3.33333333 5.33333333 0 6.66666667 0 6.66666667 3.33333333 6.66666667 4 12 4 12 5.33333333 6.66666667 5.33333333 6.66666667 6 6.66666667 9.33333333 5.33333333 9.33333333 5.33333333 6 5.33333333 5.33333333 0 5.33333333"></polygon>
        </g>
    </g>
</svg>