<?xml version="1.0" encoding="UTF-8" standalone="no"?>
<svg width="36px" height="28px" viewBox="0 0 36 28" version="1.1" xmlns="http://www.w3.org/2000/svg" xmlns:xlink="http://www.w3.org/1999/xlink">
    <!-- Generator: Sketch 40.1 (33804) - http://www.bohemiancoding.com/sketch -->
    <title>FR Copy 3</title>
    <desc>Created with Sketch.</desc>
    <defs>
        <filter x="-50%" y="-50%" width="200%" height="200%" filterUnits="objectBoundingBox" id="filter-1">
            <feOffset dx="0" dy="2" in="SourceAlpha" result="shadowOffsetOuter1"></feOffset>
            <feGaussianBlur stdDeviation="2" in="shadowOffsetOuter1" result="shadowBlurOuter1"></feGaussianBlur>
            <feColorMatrix values="0 0 0 0 0   0 0 0 0 0   0 0 0 0 0  0 0 0 0.5 0" type="matrix" in="shadowBlurOuter1" result="shadowMatrixOuter1"></feColorMatrix>
            <feMerge>
                <feMergeNode in="shadowMatrixOuter1"></feMergeNode>
                <feMergeNode in="SourceGraphic"></feMergeNode>
            </feMerge>
        </filter>
        <rect id="path-2" x="0" y="0" width="28" height="20" rx="2"></rect>
        <mask id="mask-3" maskContentUnits="userSpaceOnUse" maskUnits="objectBoundingBox" x="0" y="0" width="28" height="20" fill="white">
            <use xlink:href="#path-2"></use>
        </mask>
        <mask id="mask-5" maskContentUnits="userSpaceOnUse" maskUnits="objectBoundingBox" x="0" y="0" width="28" height="20" fill="white">
            <use xlink:href="#path-2"></use>
        </mask>
        <polygon id="path-6" points="0 20.8576195 36.96638 20.8576195 36.96638 0.0293756433 0 0.0293756433"></polygon>
    </defs>
    <g id="Page-1" stroke="none" stroke-width="1" fill="none" fill-rule="evenodd">
        <g id="FR-Copy-3" filter="url(#filter-1)" transform="translate(4.000000, 2.000000)">
            <mask id="mask-4" fill="white">
                <use xlink:href="#path-2"></use>
            </mask>
            <g id="Mask" stroke="#F5F5F5" mask="url(#mask-3)" fill="#FFFFFF">
                <use mask="url(#mask-5)" xlink:href="#path-2"></use>
            </g>
            <g id="GU" mask="url(#mask-4)">
                <g transform="translate(-4.000000, -1.000000)">
                    <g id="Group-4" stroke-width="1" fill="none" transform="translate(0.000000, 1.000000)">
                        <mask id="mask-7" fill="white">
                            <use xlink:href="#path-6"></use>
                        </mask>
                        <g id="Clip-2"></g>
                        <path d="M0.00572465922,20.8302468 C0.00572465922,13.971002 0.00689640096,7.1117572 1.15147907e-06,0.252512377 C-0.000179116481,0.0487541814 0.0538111376,0.0293283826 0.225155834,0.0293756473 C12.397164,0.0342439132 24.5692172,0.0342439132 36.7412253,0.0293756473 C36.9126151,0.0293283826 36.9666054,0.0487541814 36.96638,0.252559642 C36.9594848,7.1117572 36.9606565,13.971002 36.9606565,20.8302468 C36.8826456,20.8738722 36.7983703,20.8522722 36.7173849,20.8522722 C24.5612403,20.8534065 12.4050958,20.8534065 0.248996272,20.8522722 C0.167965823,20.8522722 0.083690552,20.8738722 0.00572465922,20.8302468" id="Fill-1" fill="#B62637" mask="url(#mask-7)"></path>
                    </g>
                    <path d="M17.9948862,19.9565261 C13.4019223,19.9565261 8.80895843,19.9552646 4.21599453,19.9615723 C4.04675929,19.9617975 3.99985716,19.9183198 4.00007247,19.6962453 C4.00567058,13.8621615 4.00570647,8.02798749 4.0000007,2.19390364 C3.99978539,1.97007205 4.04909184,1.92970307 4.21685578,1.92979318 C13.4027477,1.93528985 22.5887114,1.9353349 31.7746033,1.92961296 C31.9504415,1.92947779 32.0001068,1.97345115 31.9998556,2.20620356 C31.9937909,8.03280834 31.9937192,13.8594582 31.9999991,19.6860179 C32.0002503,19.9212483 31.9477501,19.9617074 31.773778,19.9614821 C27.1808499,19.9552646 22.5878501,19.9565261 17.9948862,19.9565261" id="Fill-5" fill="#282F60"></path>
                    <rect id="Rectangle-10" fill="#B62637" x="3" y="0" width="2" height="23"></rect>
                    <rect id="Rectangle-10-Copy" fill="#B62637" x="31" y="0" width="2" height="23"></rect>
                    <path d="M22.0891803,10.8801732 C22.0617795,12.0790779 21.6144896,13.0848333 20.9403776,14.003498 C20.3000207,14.8762519 19.5167113,15.6048309 18.6450706,16.2414083 C18.5729635,16.2940773 18.5102302,16.3667054 18.3961657,16.2769114 C17.2255505,15.3553633 16.1762558,14.3264498 15.4591498,12.9996349 C15.1051486,12.3446752 14.8774702,11.6493916 14.8824726,10.9001775 C14.888827,9.95641738 15.2371048,9.11709397 15.7470828,8.340757 C16.4474239,7.27471851 17.3481328,6.39975686 18.3641681,5.63756705 C18.4397454,5.58093333 18.5008112,5.54119511 18.5995079,5.61166061 C19.9255591,6.55825918 21.0612923,7.6703886 21.7235518,9.19382207 C21.9620463,9.74249782 22.0726407,10.3209547 22.0891803,10.8801732" id="Fill-6" fill="#B62637"></path>
                    <path d="M15.387989,11.8089301 C15.1411571,10.831379 15.3053362,9.90793855 15.7640731,9.02707475 C16.3841949,7.83641505 17.3150536,6.92338221 18.3748039,6.12717612 C18.4444775,6.0748226 18.5048222,6.04499641 18.5929281,6.11127182 C19.9021693,7.09657235 21.0276273,8.22708407 21.515162,9.85040374 C21.6532022,10.3100064 21.734503,10.783531 21.6360317,11.2676884 C21.4009172,11.4797607 21.0986979,11.4734981 20.8140999,11.5075595 C20.1975384,11.5814041 19.5769208,11.5626613 18.957475,11.5586965 C18.8251133,11.5578855 18.6837832,11.5723931 18.5892777,11.4438522 C18.4839111,11.0626897 18.5009915,10.6705339 18.5018027,10.282478 C18.502659,9.85522459 18.4916175,9.42743052 18.5167199,9.00089799 C18.6172192,8.88925252 18.7020804,8.89817334 18.7784239,9.06757889 C18.8732899,9.27838968 18.9851912,9.48275766 19.0545493,9.70496728 C19.0809135,9.78939972 19.1034921,9.87680578 19.1783934,9.93916144 C19.1933106,9.64662148 19.1459001,9.37377042 18.9796931,9.12871808 C18.9335895,9.06077564 18.8853678,8.98206514 18.9469744,8.90182277 C19.0110146,8.81838153 19.1034921,8.83068145 19.1947527,8.85181209 C19.585754,8.94232692 19.8937868,9.16904201 20.169056,9.42679976 C20.1001937,9.08474472 19.8805822,8.85212747 19.504408,8.72858758 C19.4025116,8.69515701 19.2354032,8.69632843 19.2434251,8.5637776 C19.2524385,8.41442138 19.4237832,8.40910493 19.5445627,8.38828967 C19.7325822,8.35580526 19.9258745,8.4035632 20.1533276,8.37080846 C19.8310085,8.17446022 19.5024702,8.30831764 19.2030451,8.23424776 C19.1728051,8.21974016 19.1510378,8.19838425 19.146486,8.16342182 C19.1957442,7.96423514 19.363799,7.8702511 19.5074726,7.75391995 C19.5713776,7.70219719 19.6433045,7.66047657 19.699458,7.59924728 C19.7281206,7.57919795 19.7450207,7.54554211 19.7762071,7.52382576 C19.7342948,7.53071913 19.6955822,7.55045307 19.6549318,7.56248267 C19.3661425,7.64182394 19.1090353,7.77090556 18.9241705,8.01785019 C18.8884324,8.06556309 18.8441315,8.1221968 18.7790097,8.10904084 C18.6939233,8.09187501 18.7041985,8.00735246 18.695771,7.94369021 C18.6530024,7.62236032 18.4797199,7.35667295 18.3290158,7.08179442 C18.3000828,7.02908046 18.2439744,6.99997514 18.176419,6.97591595 C18.2456419,7.3080139 18.374173,7.613034 18.4898149,7.92224419 C18.5164945,7.99347562 18.545067,8.08317946 18.4836857,8.13404618 C18.4079281,8.19680733 18.3462765,8.11269027 18.2955311,8.06488727 C18.1216626,7.90120366 17.9597369,7.72251685 17.6762655,7.63646243 C17.827916,7.81686132 17.9311194,7.98288777 18.0643374,8.12751325 C18.1255384,8.19401394 18.1957077,8.27056182 18.1330646,8.36522168 C18.076866,8.45014973 17.9819099,8.41518731 17.9044397,8.39599402 C17.589827,8.31791428 17.2787296,8.33129552 16.9716431,8.42744218 C16.7835786,8.48632863 16.6104312,8.57436545 16.4639635,8.75332259 C16.7347259,8.76746975 16.9545627,8.64262327 17.1871985,8.58616977 C17.3747674,8.54066456 17.5525116,8.5116043 17.7291291,8.6120762 C17.7570256,8.6313596 17.7759537,8.65568912 17.7733849,8.69177791 C17.6572923,8.84329676 17.4615664,8.89285689 17.3371364,9.03779776 C17.2397467,9.15120036 17.130324,9.25387994 17.0342862,9.4372975 C17.2392058,9.21013186 17.4738246,9.11646321 17.6845579,8.98593984 C17.7473362,8.94705766 17.8137199,8.90362496 17.8915505,8.90700406 C17.9558161,8.90975239 18.0362156,8.87483503 18.0809671,8.93845222 C18.1280621,9.00544851 18.0685286,9.06586682 18.0345481,9.12092362 C17.9015104,9.33673548 17.8867734,9.58881634 17.81381,9.8229204 C17.7846516,9.91645389 17.8547759,9.98736993 17.8618514,10.0687387 C17.9198526,9.75218457 18.1132351,9.48374886 18.2031888,9.17539471 C18.2258124,9.09781058 18.2964324,9.04167246 18.3599318,8.98805741 C18.4312278,8.92786437 18.4646224,8.96737731 18.4898149,9.03482415 C18.5203252,9.19080341 18.5126188,9.34876507 18.5030646,9.50402346 C18.4669659,10.0926627 18.5142412,10.6806261 18.5079318,11.2686346 C18.4957637,11.3591945 18.4799903,11.4784542 18.3768319,11.4775531 C18.1031851,11.4751652 18.0192253,11.676965 17.912056,11.8617342 C17.7988477,11.9314338 17.6710378,11.9075098 17.5485907,11.918458 C17.4823423,11.9116998 17.4403849,11.8761067 17.4230341,11.8119488 C17.4255128,11.6792178 17.4333995,11.5462614 17.4279464,11.4088447 C17.4038356,11.4945387 17.4315968,11.5886579 17.3718831,11.6623223 C17.2329415,11.7096747 17.1829172,11.5752766 17.0920171,11.5245451 C17.0352777,11.4929167 16.9866504,11.4147469 16.9201766,11.4414192 C16.8450049,11.4715608 16.8888551,11.5600482 16.8768222,11.6223137 C16.8546943,11.7364822 16.9306772,11.8832253 16.76776,11.9514831 C16.7431535,11.9486897 16.7197186,11.9429227 16.6963289,11.9352184 C16.3536845,11.8809275 16.0091474,11.9252613 15.6661425,11.9105735 C15.5624434,11.9062032 15.4523447,11.9204404 15.387989,11.8089301" id="Fill-7" fill="#68A2CC"></path>
                    <path d="M17.5325469,11.8942637 C17.6400317,11.7969907 17.7708611,11.8688529 17.8885311,11.8451992 C18.0961096,11.8110477 18.3032375,11.7996939 18.5087881,11.8586254 C18.5789123,11.902734 18.595497,11.9778851 18.6094227,12.0497924 C18.6733276,12.3795926 18.7641376,12.6998411 18.9233143,12.9981481 C18.9478307,13.0441039 18.9605396,13.095331 18.9490024,13.1489461 C18.8903703,13.2418037 18.7863557,13.2455883 18.696447,13.2784332 C18.615056,13.3081693 18.5186577,13.313711 18.4652533,13.414228 C18.5546663,13.480999 18.6644945,13.4774397 18.7613435,13.5084823 C18.9577454,13.5715138 19.1071876,13.6819428 19.1806918,13.8818053 C19.2877259,14.1726782 19.1639269,14.4251195 18.8671157,14.5170311 C18.7591352,14.5504616 18.6479549,14.5640681 18.5354677,14.5710967 C18.2108952,14.5914163 17.9191315,14.6864366 17.6941571,14.9375713 C17.6501267,14.986771 17.6029866,15.0393949 17.5262826,15.037818 C17.2804421,14.8253852 17.0437954,14.6038063 16.8457259,14.3444717 C16.8948039,14.1729486 17.0470853,14.1348774 17.1874689,14.0902732 C17.4382667,14.0105715 17.6974921,13.9831783 17.9606833,13.9825926 C18.0210731,13.9825025 18.1146772,13.9993529 18.1275213,13.9140644 C18.1372107,13.8498615 18.0555493,13.8267485 18.0046236,13.8000761 C17.6011389,13.5886346 17.1602034,13.5134383 16.7169695,13.4416662 C16.504704,13.4073346 16.283335,13.4328806 16.0793167,13.3457449 C15.7720499,12.9010102 15.5311218,12.426089 15.4181839,11.8930022 C15.86624,11.8535793 16.3143861,11.8567331 16.7625323,11.8910648 C16.7675798,11.908546 16.7725822,11.9260723 16.7775847,11.9436436 C16.8621303,12.1860828 16.7005201,12.3649498 16.6175518,12.5639563 C16.5831206,12.6042351 16.5320597,12.6139669 16.487849,12.6341064 C16.481179,12.7237652 16.5613532,12.7045268 16.6052935,12.7238553 C16.6714068,12.7529606 16.7572144,12.7603045 16.7732132,12.8455479 C16.8010195,12.9940932 16.9342826,12.9384056 17.015989,12.9809372 C17.1407795,13.0118898 17.2652546,13.0111689 17.3894141,12.9785043 C17.5008197,12.945344 17.6340378,12.9835053 17.6722095,12.7897703 C17.6902814,12.6979038 17.8991218,12.7060587 17.9953398,12.6139669 C17.9493264,12.5958099 17.893849,12.6215361 17.8510353,12.5862133 C17.807095,12.5511157 17.7910512,12.497771 17.7625688,12.452491 C17.7111474,12.2560977 17.5331328,12.1115623 17.5325469,11.8942637" id="Fill-8" fill="#396BA6"></path>
                    <path d="M17.5262826,15.037818 C17.7712667,14.6905366 18.1065201,14.5159497 18.5312765,14.5058124 C18.6196979,14.5036949 18.7078039,14.4826543 18.7958197,14.4684621 C18.9889769,14.4372843 19.1411681,14.3523562 19.1564007,14.1366345 C19.1723544,13.9121721 19.0932619,13.728304 18.8840158,13.6158025 C18.70519,13.5197009 18.4930146,13.5386239 18.2944495,13.4468475 C18.466335,13.2371631 18.7055505,13.2094094 18.9324629,13.1556592 C19.0915043,13.1756184 19.1500914,13.3165945 19.2349976,13.4187334 C19.3515859,13.5589435 19.4905274,13.666489 19.6456931,13.7556072 C19.7097333,13.7924168 19.7958563,13.8341825 19.8475932,13.7581302 C19.9094251,13.6673901 19.8076638,13.6318871 19.753313,13.5909324 C19.6467296,13.5106449 19.5234263,13.4508123 19.4375737,13.345835 C19.3944896,13.2931661 19.3205798,13.2327027 19.4197722,13.1611108 C19.8229866,13.0844728 20.2105177,12.9613384 20.5907028,12.8055394 C20.7792631,12.7282706 20.9866163,12.666726 21.1900487,12.7864362 C20.914419,13.4152642 20.4852911,13.9399709 20.0367844,14.4466106 C19.6189683,14.9185583 19.1366163,15.32387 18.6363276,15.7076908 C18.5164495,15.7996473 18.4298307,15.8087033 18.3092765,15.7089523 C18.0442826,15.4897613 17.7724385,15.2789055 17.5262826,15.037818" id="Fill-9" fill="#FAEC17"></path>
                    <path d="M21.1900487,12.7864362 C20.907704,12.7690451 20.645324,12.839826 20.389704,12.955211 C20.0677454,13.1005574 19.7287966,13.1845843 19.3753812,13.2068864 C19.2538356,13.2100853 19.1900207,13.118354 19.1234117,13.0424368 C18.8718027,12.7556188 18.7239829,12.4174385 18.6525518,12.0448814 C18.6371389,11.9645039 18.6196078,11.8778187 18.7290755,11.8410091 C18.8837905,11.799784 19.041525,11.8159587 19.1978624,11.8155532 C19.8704872,11.8138862 20.5431121,11.8137059 21.2156918,11.8158235 C21.3264214,11.8161839 21.4417479,11.8014511 21.5397686,11.8753858 C21.4622083,12.1940574 21.3600865,12.5032676 21.1900487,12.7864362" id="Fill-10" fill="#396BA6"></path>
                    <path d="M21.5397686,11.8753858 C20.6610073,11.8753858 19.782201,11.8749803 18.9034397,11.8762418 C18.828944,11.8762869 18.7544482,11.8874154 18.6799976,11.8934076 C18.5637698,11.7571173 18.5425883,11.6090226 18.6246553,11.4480873 C19.2156188,11.5156693 19.8078892,11.4885464 20.3994385,11.4646224 C20.8184263,11.4477269 21.2358368,11.4082139 21.6360317,11.2676884 C21.6568526,11.4785893 21.5565786,11.6704321 21.5397686,11.8753858" id="Fill-11" fill="#917E35"></path>
                    <path d="M16.0793167,13.3457449 C16.8862862,13.2772618 18.1065201,13.6290036 18.3001279,13.9976859 C17.8094836,14.1001402 17.2693557,13.9886299 16.845771,14.3444266 C16.551799,14.0410285 16.29681,13.7077591 16.0793167,13.3457449" id="Fill-12" fill="#F9EC18"></path>
                    <path d="M16.7625323,12.2079728 C16.3144312,12.2108159 15.8663301,12.2138777 15.4181839,12.217377 C15.3903776,12.1117435 15.3810938,11.9741794 15.387944,11.80884 C15.7607832,12.207098 16.138715,11.8814494 16.5133118,12.0006424 C16.5967759,12.0273242 16.6917771,11.8005293 16.7625323,12.2079728" id="Fill-13" fill="#3F649F"></path>
                    <path d="M19.2080926,8.20334026 C19.4618648,8.19775348 19.716989,8.1554922 19.9681023,8.22618298 C20.0760378,8.25654982 20.1847393,8.28822325 20.2628855,8.38982153 C20.1557613,8.47357816 20.0367844,8.41739499 19.9270463,8.43208281 C19.8115396,8.44758161 19.6994129,8.41667411 19.5899001,8.43415532 C19.4765566,8.45222224 19.3680353,8.50002525 19.244011,8.55994795 C19.7210451,8.72840736 20.1910487,8.89596567 20.2474726,9.51244868 C20.1849196,9.4903719 20.1295773,9.48253238 20.0897381,9.45351718 C20.0504397,9.42481735 20.0120426,9.38602528 19.9809464,9.35169363 C19.7515554,9.0984864 19.4472631,8.99224749 19.1383289,8.88555804 C19.0624361,8.85933622 19.0136736,8.89240635 18.979648,8.92696328 C18.9373752,8.96985532 18.966173,9.04297905 19.0010548,9.08177111 C19.2537905,9.36250675 19.2341864,9.70523761 19.2455432,10.067387 C18.98438,9.87941895 18.9664434,9.58530208 18.8409318,9.35164857 C18.763011,9.20652749 18.7540877,9.01914513 18.5819318,8.93218962 C18.4972058,8.83410561 18.6009951,8.79193444 18.6426821,8.73286777 C18.672877,8.69006583 18.7183946,8.64257821 18.6788709,8.59572136 C18.6225371,8.52908551 18.5312314,8.52588663 18.4534007,8.53638436 C18.3807077,8.54616123 18.4119391,8.61725749 18.4126602,8.66537588 C18.4138319,8.74030179 18.4313179,8.81018158 18.4699854,8.87623172 C18.4910317,8.91214029 18.5154129,8.96057406 18.4399708,8.97125201 C18.1280621,9.31492902 18.0567211,9.77137786 17.864285,10.1781765 C17.6022205,9.71740237 17.9034482,9.34624201 18.0549184,8.94106539 C17.6147491,8.98499369 17.3210024,9.30551259 16.9319391,9.55880994 C17.0843106,9.10956984 17.3815274,8.86384169 17.753961,8.68754277 C17.7634251,8.67105276 17.7951523,8.65798691 17.7752326,8.63744198 C17.7638307,8.62563766 17.7343569,8.62865632 17.7148429,8.64217272 C17.3345225,8.52863496 17.0008015,8.73183151 16.6505408,8.80932554 C16.5401717,8.83374517 16.4435481,8.78301361 16.3404348,8.81730022 C16.7237296,8.33255705 17.2315895,8.23294118 17.8060134,8.31642748 C17.9056565,8.33089002 18.0455895,8.42798283 18.0962899,8.3485064 C18.1669099,8.23771697 18.0009732,8.17689317 17.9448648,8.08921679 C17.8596431,7.95594508 17.7765847,7.82069097 17.6538222,7.71859709 C17.6048343,7.67786767 17.5929817,7.61938671 17.6172278,7.58564077 C17.6482789,7.5424784 17.7134909,7.56081564 17.7618477,7.58194628 C17.9723557,7.67385781 18.1382923,7.82501622 18.292782,7.98987124 C18.3435274,8.0439819 18.3882339,8.1038145 18.4356894,8.16103393 C18.4518685,8.15121201 18.4680024,8.14143515 18.4841364,8.13165828 C18.4062156,7.90052784 18.3442485,7.66218865 18.2446955,7.44074496 C18.177771,7.29174917 18.1689829,7.12644359 18.0827698,6.98294448 C18.0496005,6.92770746 18.0794348,6.88850989 18.1857479,6.91590313 C18.3811583,6.9662292 18.4416382,7.13608529 18.5037856,7.26295924 C18.627179,7.51467967 18.7922144,7.76239023 18.7621998,8.11962869 C19.0162424,7.79090983 19.2838502,7.57568369 19.651011,7.51868953 C19.7938283,7.4846282 19.7750353,7.56221234 19.7416857,7.64984367 C19.55281,7.8229437 19.3251315,7.95170994 19.1639269,8.15634824 C19.1376529,8.19230187 19.1061961,8.21983027 19.0702326,8.2187039 C19.1075932,8.20843144 19.1596456,8.22118191 19.2080926,8.20334026" id="Fill-14" fill="#008A67"></path>
                    <path d="M18.4399708,8.97125201 C18.3803021,8.85848018 18.3379842,8.74273474 18.3328465,8.61131028 C18.3310438,8.56512924 18.3180646,8.51601965 18.3539379,8.49069893 C18.4842266,8.39860719 18.6196529,8.47993086 18.7303374,8.52439982 C18.8400755,8.56850834 18.7499415,8.67204397 18.7174933,8.75188084 C18.6873435,8.82631115 18.5535396,8.81820131 18.5819769,8.93214456 C18.5580012,9.77137786 18.5556127,10.6102057 18.6245652,11.4479972 C18.6430426,11.5965875 18.66143,11.7450877 18.6799074,11.8934978 C18.7761255,12.403021 18.9622972,12.8650116 19.3754263,13.2068864 C19.4868319,13.3626404 19.6526334,13.4505871 19.8071681,13.5525908 C19.8907674,13.6077828 20.0178112,13.6458089 19.9340767,13.7846224 C19.8580037,13.9107754 19.7473191,13.8798679 19.6413216,13.8234144 C19.392732,13.6910889 19.207732,13.488478 19.0352156,13.2721255 C19.0029927,13.2316664 18.9668039,13.1943612 18.9324629,13.1556592 C18.722676,12.7551232 18.563229,12.3382324 18.518838,11.8839462 C18.4023849,11.7809512 18.4112631,11.6458322 18.4301462,11.5122902 C18.4393398,11.4472763 18.4750329,11.3859569 18.4526797,11.3171584 C18.3899915,10.535505 18.4275773,9.75331094 18.4399708,8.97125201" id="Fill-15" fill="#6B4524"></path>
                    <path d="M17.5325469,11.8942637 C17.6482339,12.062633 17.7319683,12.2477176 17.8139001,12.4337483 C17.8486017,12.5587299 17.7589184,12.5649475 17.6768514,12.5742738 C17.6022655,12.582699 17.5334933,12.5420597 17.459268,12.5433663 C17.4219074,12.5428256 17.3845018,12.5419696 17.3470962,12.5417894 C17.1221669,12.5152071 16.9105773,12.604145 16.6902448,12.6187878 C16.6512619,12.612345 16.6167856,12.5979275 16.5938916,12.5635958 C16.6146675,12.3449455 16.7710499,12.166484 16.7775847,11.9435985 C16.8646541,11.7452228 16.7822716,11.5307626 16.8336931,11.3145903 C17.0525834,11.3717647 17.1887759,11.5352681 17.345609,11.6678189 C17.4217722,11.6742167 17.4534543,11.7186856 17.4517418,11.7918094 C17.4637296,11.837675 17.4919415,11.8708353 17.5325469,11.8942637" id="Fill-16" fill="#FFFFFE"></path>
                    <path d="M20.5547844,10.6857173 C20.4198538,10.7822244 20.4938088,10.9223444 20.444821,11.0263756 C20.4238197,11.0709797 20.4308051,11.1340563 20.3550024,11.1340112 C20.2746029,11.1339662 20.2903313,11.0701237 20.2752789,11.0236723 C20.2297613,10.8831468 20.2479233,10.7268972 20.156933,10.5665927 C20.156933,10.73325 20.1587357,10.8717931 20.1558965,11.010201 C20.1549501,11.0572831 20.1763569,11.1290552 20.0949659,11.128019 C20.0366041,11.1272981 20.0354775,11.070394 20.0353423,11.0253394 C20.0348465,10.8076352 20.0353423,10.5899761 20.0355676,10.372272 C20.0356577,10.3131602 20.0519269,10.2716649 20.1237637,10.2708088 C20.189201,10.270088 20.2360706,10.2740077 20.2487795,10.3580797 C20.2744677,10.5280259 20.3119635,10.696215 20.347972,10.8823359 C20.4352667,10.7241039 20.4251717,10.5578071 20.4591973,10.4034047 C20.4779001,10.3183866 20.4930426,10.265988 20.5949391,10.2696825 C20.7043618,10.2736473 20.6856139,10.3477622 20.6861096,10.4119201 C20.6875968,10.6070969 20.6880475,10.8022737 20.6857491,10.9974055 C20.6850731,11.0521469 20.706525,11.1352277 20.61238,11.1281541 C20.5190012,11.1211706 20.5601924,11.0366931 20.5566322,10.985511 C20.5500974,10.8908061 20.5547844,10.7953803 20.5547844,10.6857173" id="Fill-17" fill="#B42A3C"></path>
                    <path d="M16.9040877,10.9363564 C16.8860609,10.9878088 16.9341474,11.1290102 16.8697917,11.1143674 C16.7063337,11.0771522 16.5208831,11.2733653 16.3763532,11.0552106 C16.2597199,10.8792271 16.2494896,10.5423984 16.3811754,10.3742994 C16.5170524,10.200884 16.7729428,10.2243124 16.8621303,10.4207508 C16.8774531,10.4544517 16.9272071,10.4999569 16.8665018,10.5339732 C16.8353155,10.5514544 16.7906541,10.5493368 16.7653715,10.5126172 C16.6692436,10.3730829 16.5650037,10.3547457 16.4672984,10.5036514 C16.3697284,10.6522867 16.4168685,10.9316257 16.5398112,10.9935308 C16.6188587,11.0333591 16.6867747,11.0157427 16.7359878,10.9452772 C16.7815055,10.8800381 16.7976845,10.8199802 16.6833946,10.8119605 C16.6323337,10.8083561 16.6294044,10.7668157 16.636525,10.7291049 C16.6515773,10.650034 16.7180061,10.678058 16.7632984,10.6790942 C16.8151255,10.6803107 16.894173,10.6444022 16.9030512,10.7411345 C16.9085493,10.8006067 16.9040877,10.8609349 16.9040877,10.9363564" id="Fill-18" fill="#B5293A"></path>
                    <path d="M17.5701328,10.6204331 C17.5701328,10.5455522 17.5675189,10.4705362 17.5710792,10.3957905 C17.5733325,10.3482578 17.5530073,10.2789637 17.6320999,10.2757198 C17.72638,10.2718902 17.7078575,10.349249 17.7089842,10.4050267 C17.7120037,10.5547434 17.7118685,10.7045952 17.7123642,10.8543569 C17.7126797,10.9382487 17.7378721,11.0079032 17.8340901,11.0090296 C17.9335981,11.0102461 17.9532022,10.9333377 17.9553654,10.8539965 C17.9593764,10.7043249 17.9573484,10.554473 17.9623959,10.4048014 C17.9641985,10.3510062 17.9419354,10.2716649 18.0386041,10.2751792 C18.1170207,10.2780176 18.104447,10.3453293 18.1036358,10.3935828 C18.1006163,10.5730806 18.0971912,10.7527586 18.0860146,10.9318509 C18.0765505,11.0841808 17.9792058,11.1645583 17.8348112,11.1640176 C17.6787442,11.1633869 17.5847345,11.0741786 17.5774787,10.9123423 C17.5731072,10.8152495 17.5766675,10.7177512 17.5766675,10.6204331 L17.5701328,10.6204331" id="Fill-19" fill="#B22E3F"></path>
                    <path d="M18.4526797,11.3171584 C18.4747625,11.5061628 18.4968904,11.6951671 18.5189281,11.8840363 C18.3099976,11.8503804 18.0949379,11.917602 17.8885311,11.8451992 C17.9171486,11.7696875 17.9554555,11.6962935 17.9724458,11.6182588 C18.00557,11.4661993 18.0920536,11.4200183 18.2413605,11.4401577 C18.3327564,11.4525027 18.4621437,11.4936376 18.4526797,11.3171584" id="Fill-20" fill="#907E38"></path>
                    <path d="M19.4472631,11.0656182 C19.4538429,11.1009862 19.4435225,11.1226124 19.4066127,11.129731 C19.366458,11.1375255 19.3284665,11.1299563 19.3112058,11.0920203 C19.2129598,10.8760282 19.1041681,10.8877424 18.9929428,11.0784588 C18.9647759,11.1268025 18.9311108,11.1449145 18.8859086,11.1281091 C18.8174068,11.1026982 18.8651328,11.0546249 18.8750024,11.0177702 C18.9328234,10.8027693 18.9922217,10.588264 19.0525664,10.373984 C19.0659963,10.3263162 19.0687004,10.2663935 19.144503,10.2718001 C19.1822241,10.2745033 19.2266151,10.2731967 19.2385579,10.314647 C19.3102594,10.5643851 19.3780853,10.8152044 19.4472631,11.0656182" id="Fill-21" fill="#B5283A"></path>
                    <path d="M17.6695489,11.7918094 C17.5617668,11.7504492 17.4539847,11.7091791 17.3462026,11.6678189 C17.345928,11.5403593 17.3442804,11.4129447 17.3463399,11.2855301 C17.3468891,11.2446204 17.3931599,11.2110998 17.5371897,11.2119107 C17.6696862,11.2126767 17.7522047,11.2392589 17.7449277,11.2829169 C17.7166435,11.4524576 17.8492772,11.6247016 17.6695489,11.7918094" id="Fill-22" fill="#0B0C0A"></path>
                    <path d="M19.8352281,7.89441729 C19.8544604,7.722172 19.8185601,7.59541517 19.651056,7.57687071 C19.7615043,7.46440403 19.8887122,7.45960429 20.0715106,7.50345648 C19.9422879,7.61679584 19.9955888,7.82667547 19.8352281,7.89441729" id="Fill-23" fill="#1C9185"></path>
                    <path d="M19.4402572,8.37947575 C19.3165764,8.59853861 19.1788066,8.61565289 19.0198027,8.51040003 C19.1006129,8.25304396 19.2304325,8.24149181 19.3416346,8.15634824 C19.3745423,8.23058146 19.4073495,8.3050286 19.4402572,8.37947575" id="Fill-24" fill="#3998A1"></path>
                    <path d="M17.7148429,8.79976371 C17.8440124,8.61483555 17.9782807,8.50163186 18.1352974,8.72112603 C18.03306,8.8198552 17.9306919,8.91858437 17.8283238,9.01731354 C17.7904096,8.94472492 17.7526263,8.8721363 17.7148429,8.79976371" id="Fill-25" fill="#2A9493"></path>
                    <path d="M16.9976468,13.0256765 C16.9254945,13.009592 16.85181,12.9983283 16.7817308,12.975801 C16.7325627,12.9599868 16.6295847,12.9597165 16.74757,12.8678049 C16.7948453,12.8310403 16.7077759,12.8052691 16.6746967,12.8022053 C16.5754592,12.7930142 16.4860012,12.7613408 16.4045652,12.7071851 C16.3475554,12.6692941 16.3137552,12.6236988 16.3948758,12.5729221 C16.4953301,12.6077945 16.5992095,12.5831496 16.7013313,12.5906286 C16.9111181,12.5774276 17.1183812,12.5276873 17.3302862,12.5473311 C17.3816626,12.548052 17.4331291,12.5476014 17.4845055,12.5492234 C17.6061864,12.5894122 17.7315627,12.5273719 17.853514,12.5618387 L18.0881328,12.5618387 C18.0077783,12.7380475 17.8626626,12.7638188 17.7198904,12.7990966 C17.661754,12.813469 17.555486,12.8374381 17.7079026,12.8946575 C17.7502205,12.9106069 17.7424239,12.950255 17.683296,12.967601 C17.5912241,12.9946789 17.4948258,13.0070239 17.4002753,13.0255864 C17.2660658,13.0486544 17.1318563,13.0484291 16.9976468,13.0256765" id="Fill-26" fill="#6A4525"></path>
                    <path d="M17.8622577,12.7353992 C17.7400637,12.7738085 17.6178697,12.8121117 17.4956297,12.8504149 C17.4581201,12.7698827 17.4175728,12.6910482 17.4597309,12.5582072 C17.5492018,12.583778 17.6387647,12.6069084 17.7280054,12.6355563 C17.7969956,12.6575196 17.8248401,12.5856878 17.8218026,12.4337483 C17.8679187,12.5109913 17.860877,12.6262192 17.8622577,12.7353992" id="Fill-27" fill="#3E70A5"></path>
                    <path d="M16.9976468,13.0260238 C17.137814,13.0260238 17.2779812,13.0255864 17.4181013,13.0255864 C17.2779812,13.3118684 17.137814,13.3103375 16.9976468,13.0260238" id="Fill-28" fill="#2667A2"></path>
                    <path d="M16.7950273,12.7696139 C16.658744,12.8067934 16.5225863,12.8369744 16.3949659,12.6088673 C16.4872443,12.5939955 16.5796483,12.578905 16.672115,12.5635958 C16.7114118,12.5705943 16.7507713,12.5771554 16.7901309,12.5839352 C16.8114742,12.618709 16.8192582,12.6576381 16.8136713,12.7011599 C16.8077705,12.7468688 16.8016186,12.7696139 16.7950273,12.7696139" id="Fill-29" fill="#266391"></path>
                    <path d="M16.6821778,12.87703 C16.6806005,12.8377534 16.6794287,12.7980574 16.6786626,12.7583615 C16.9003922,12.6069856 17.1204093,12.4115808 17.3516931,12.4986604 C17.3868904,12.6461225 17.4098295,12.7888323 17.3357393,12.893803 C17.1178855,12.888212 16.9000317,12.8827608 16.6821778,12.87703" id="Fill-30" fill="#376BA5"></path>
                    <path d="M17.3357393,12.900741 C17.3499415,12.7619012 17.3640242,12.6230615 17.378107,12.4840743 C17.4728674,12.4868747 17.5678665,12.4895277 17.662985,12.4923281 C17.6941342,12.6276305 17.725164,12.762933 17.7561939,12.8982354 C17.6160822,12.8991197 17.4758511,12.9000041 17.3357393,12.900741" id="Fill-31" fill="#1B252E"></path>
                    <path d="M19.2437293,10.5373523 C19.4951347,10.6497374 19.4926886,10.791136 19.4981244,10.9283899 C19.4983962,10.934709 19.2541932,10.9692942 19.1996994,10.9461241 C18.8780364,10.809278 19.3005334,10.678615 19.2437293,10.5373523" id="Fill-32" fill="#768DB4"></path>
                    <path d="M17.5269586,13.0827166 L16.909676,13.0827166 C16.9094056,13.0096699 16.9090901,12.9366231 16.9087747,12.8637951 L17.5264178,12.8637951 C17.5265981,12.9366231 17.5267783,13.0096699 17.5269586,13.0827166" id="Fill-33" fill="#3169A4"></path>
                </g>
            </g>
        </g>
    </g>
</svg>