<?xml version="1.0" encoding="UTF-8" standalone="no"?>
<svg width="36px" height="28px" viewBox="0 0 36 28" version="1.1" xmlns="http://www.w3.org/2000/svg" xmlns:xlink="http://www.w3.org/1999/xlink">
    <!-- Generator: Sketch 40.1 (33804) - http://www.bohemiancoding.com/sketch -->
    <title>KI</title>
    <desc>Created with Sketch.</desc>
    <defs>
        <filter x="-50%" y="-50%" width="200%" height="200%" filterUnits="objectBoundingBox" id="filter-1">
            <feOffset dx="0" dy="2" in="SourceAlpha" result="shadowOffsetOuter1"></feOffset>
            <feGaussianBlur stdDeviation="2" in="shadowOffsetOuter1" result="shadowBlurOuter1"></feGaussianBlur>
            <feColorMatrix values="0 0 0 0 0   0 0 0 0 0   0 0 0 0 0  0 0 0 0.5 0" type="matrix" in="shadowBlurOuter1" result="shadowMatrixOuter1"></feColorMatrix>
            <feMerge>
                <feMergeNode in="shadowMatrixOuter1"></feMergeNode>
                <feMergeNode in="SourceGraphic"></feMergeNode>
            </feMerge>
        </filter>
        <rect id="path-2" x="0" y="0" width="28" height="20" rx="2"></rect>
        <mask id="mask-3" maskContentUnits="userSpaceOnUse" maskUnits="objectBoundingBox" x="0" y="0" width="28" height="20" fill="white">
            <use xlink:href="#path-2"></use>
        </mask>
        <mask id="mask-5" maskContentUnits="userSpaceOnUse" maskUnits="objectBoundingBox" x="0" y="0" width="28" height="20" fill="white">
            <use xlink:href="#path-2"></use>
        </mask>
        <polygon id="path-6" points="0.00408818636 8.50165563 38.9424895 8.50165563 38.9424895 0.0162677193 0.00408818636 0.0162677193"></polygon>
    </defs>
    <g id="Page-1" stroke="none" stroke-width="1" fill="none" fill-rule="evenodd">
        <g id="KI" filter="url(#filter-1)" transform="translate(4.000000, 2.000000)">
            <mask id="mask-4" fill="white">
                <use xlink:href="#path-2"></use>
            </mask>
            <g id="Mask" stroke="#F5F5F5" mask="url(#mask-3)" fill="#FFFFFF">
                <use mask="url(#mask-5)" xlink:href="#path-2"></use>
            </g>
            <g id="4" mask="url(#mask-4)">
                <g transform="translate(-5.000000, 0.000000)">
                    <g id="Group-3" stroke-width="1" fill="none">
                        <path d="M0.00408818636,9.85832368 C0.00408818636,6.66654056 0.00564559068,3.47475745 -2.60781886e-14,0.282974338 C-0.000324459235,0.10319702 0.0170016639,0.0421812914 0.225693844,0.0423120861 C13.0563045,0.0494403974 25.8869151,0.0494403974 38.7175907,0.0423120861 C38.9263478,0.0421812914 38.943609,0.10319702 38.9432196,0.282974338 C38.9377038,3.47475745 38.9391963,6.66654056 38.9391963,9.85832368 C38.8886456,9.90135513 38.8318652,9.93294205 38.7654809,9.93993957 C37.8867804,10.0329346 37.0660932,10.3563245 36.2265874,10.6005836 C35.4338686,10.8312401 34.6553611,10.8428808 33.8664709,10.5984255 C33.3913977,10.4512161 32.9112629,10.3199636 32.4387205,10.1643833 C31.5080416,9.8578005 30.5860582,9.90678311 29.66998,10.2246796 C29.2096373,10.38438 28.7408586,10.5159594 28.2709118,10.6407376 C27.7671564,10.7744752 27.2573012,10.8486358 26.7327804,10.7411879 C25.8741314,10.5653344 25.0402712,10.3079305 24.2193894,10.0048791 C24.123025,9.83223013 24.4007621,9.9169851 24.3652662,9.78684437 C24.153005,9.62393957 23.8958386,9.58136589 23.6537271,9.49903063 C23.4746256,9.4380803 23.4192729,9.34482368 23.6121963,9.22056871 C23.7337388,9.14869702 23.8724775,9.11743709 24.0495674,9.03052401 C23.8609917,9.02104139 23.7196572,9.03300911 23.580594,9.01947185 C23.4641131,9.00822351 23.331604,9.00868129 23.329787,8.83465894 C23.5054493,8.53343874 23.7679368,8.3197202 24.0436622,8.11188742 C23.8317255,8.02020033 23.6101198,8.03720364 23.388579,8.05407616 C23.3055175,8.0604197 23.207401,8.09920033 23.1574992,8.00175828 C23.1032496,7.89594536 23.184624,7.82021523 23.2454925,7.74638162 C23.2864393,7.69667964 23.3328369,7.65162086 23.380208,7.60806623 C23.4463977,7.54724669 23.5211531,7.48322268 23.3525641,7.56287666 C23.3106439,7.57713328 23.3635308,7.56778146 23.3212862,7.57379801 C23.1397837,7.59969536 22.9356339,7.80190397 22.7851498,7.61467136 C22.6597138,7.45863328 22.8375824,7.27087748 22.8965042,7.10319868 C22.9501048,6.95101904 23.0288835,6.80760265 23.1484143,6.67700414 C22.8484193,6.63946606 22.6207787,6.8359851 22.3562795,6.88862997 C22.1906106,6.85861258 22.2188386,6.75397682 22.2691298,6.64724834 C22.3185774,6.54235099 22.3859351,6.44575911 22.4332413,6.31653394 C22.282173,6.38611672 22.1879501,6.49153725 22.0756872,6.57151821 C21.7848419,6.70787169 21.7485025,6.68759851 21.7300732,6.38278146 C21.7134609,6.10955132 21.7618702,5.84711175 21.8666705,5.57263907 C21.6850383,5.59827483 21.5859484,5.72305298 21.4747887,5.82762334 C21.3978918,5.9004106 21.3241747,5.97659851 21.2479917,6.05023593 C21.0838153,6.17841474 20.968827,6.20267715 21.0013378,5.92820447 C21.0153544,5.80996606 21.016782,5.6904851 21.0389101,5.57290066 C21.0468918,5.53039238 21.0636988,5.56858444 21.0419601,5.5449106 C21.0072429,5.50711093 21.0099684,5.57610513 20.9868669,5.58872682 C20.8634426,5.73305877 20.8138003,6.01322103 20.6086123,5.99105132 C20.3953128,5.96809685 20.4178303,5.68440315 20.3419717,5.5127351 C20.3028419,5.42412169 20.2765607,5.32949172 20.2561847,5.23414238 C20.239183,5.14755629 20.2612463,5.06371689 20.2805191,4.9571846 C20.0623527,5.14860265 19.9753328,5.39730877 19.8615774,5.63195447 C19.8082363,5.74175662 19.7361414,5.94102235 19.5922113,5.68767301 C19.5473062,5.53974421 19.5134326,5.38861093 19.4742379,5.21027235 C19.4277105,5.3893303 19.3911115,5.54013659 19.3607421,5.6928394 C19.318173,5.91211672 19.2100632,5.92585017 19.0587354,5.78805795 C18.925188,5.66641887 18.8348586,5.50854967 18.7205191,5.37082285 C18.6496572,5.27920116 18.6333045,5.15658113 18.5452463,5.05292632 C18.4309717,5.26540232 18.396579,5.48441805 18.379188,5.70931954 C18.3726988,5.79283195 18.3795125,5.90263411 18.2813311,5.92820447 C18.1831498,5.95377483 18.1426572,5.84802732 18.0912629,5.7841995 C18.0375324,5.71742881 17.9934709,5.64300662 17.9463594,5.57303146 C17.9401298,5.56623013 17.9331215,5.55799007 17.9278003,5.54876904 C17.9083977,5.51495861 17.8954193,5.51718212 17.9024925,5.55295447 C17.9317587,5.70062169 17.9339002,5.85129719 17.9556389,6.00007616 C17.9864626,6.21026325 17.8778985,6.25185596 17.7094393,6.17122103 C17.4876389,6.06514652 17.2865391,5.92414983 17.0954326,5.76876573 C17.0569517,5.73070447 17.0329418,5.68146026 16.9876473,5.62822682 C16.9131514,5.85626738 17.0006256,6.05965315 17.0377438,6.26630877 C17.0550699,6.36270447 17.0883594,6.47015232 16.9864143,6.53332616 C16.8827171,6.59754636 16.8053661,6.51357616 16.7282745,6.45543791 C16.6576722,6.39082533 16.5847987,6.32889404 16.4733794,6.25264073 C16.5417754,6.41194868 16.6112097,6.53515728 16.6742845,6.66124338 C16.7263927,6.93551987 16.67701,7.00824172 16.4240616,6.98260596 C16.1695557,6.9568394 15.9241348,6.88555629 15.6770915,6.73272268 C15.7282912,6.95716639 15.8343894,7.11627815 15.9389301,7.27604387 C15.9748802,7.37708278 16.1169285,7.47714073 16.0005125,7.58347682 C15.8841614,7.68981291 15.7404908,7.59956457 15.6108369,7.56425 C15.5804027,7.55594454 15.527386,7.53024338 15.5252446,7.53403642 C15.493188,7.59014735 15.5696955,7.58118791 15.5794293,7.61663328 C15.6926656,7.76436589 15.9586572,7.87514901 15.8870815,8.06074669 C15.8062263,8.27014901 15.5293328,8.22724834 15.3225874,8.2430745 C15.2271314,8.2432053 15.1315458,8.24248593 15.0362196,8.23967384 C14.9626972,8.23745033 14.8899534,8.22561341 14.7981963,8.19154139 C15.0087055,8.44593709 15.2246007,8.64945364 15.4842978,8.80274503 C15.5797537,8.95610182 15.4724226,8.99187417 15.3582779,9.01182036 C15.2212263,9.03582119 15.0813195,9.02012583 14.9182463,9.02660017 C15.0150649,9.10475 15.1190865,9.11724089 15.2096106,9.15785265 C15.3239501,9.2280894 15.5156406,9.2282856 15.5304359,9.38922848 C15.5473727,9.57417219 15.3485441,9.60765563 15.2280399,9.68116225 C15.0919617,9.76408609 14.9413478,9.82549421 14.7834659,9.86035099 C14.7125391,9.87238411 14.6397953,9.87656954 14.5688686,9.86728311 C14.4436273,9.85080298 14.512218,9.93137252 14.510401,9.97852401 C14.5058586,10.0121382 14.4941131,10.0415017 14.4738669,10.06838 C13.5967887,10.4166209 12.7043311,10.7129363 11.7600899,10.7908899 C11.3718419,10.823 10.9854759,10.7322939 10.6099468,10.6244536 C10.1423361,10.4901929 9.67141597,10.3667227 9.21185191,10.204668 C8.2226406,9.85583858 7.24173544,9.90266308 6.25524958,10.2363204 C5.64176206,10.4438916 5.0238619,10.6396912 4.38084859,10.7506705 C3.91985691,10.8301937 3.47307654,10.7837616 3.0316822,10.6786026 C2.05493012,10.4459189 1.1206173,10.0456217 0.115053245,9.92326325 C0.0722895175,9.91809685 0.0382861897,9.88500579 0.00408818636,9.85832368" id="Fill-1" fill="#BE252B"></path>
                    </g>
                    <path d="M38.9391963,16.8558402 L38.9391963,19.6679263 C38.8268686,19.7278957 38.7054559,19.6981399 38.5888453,19.6981399 C25.8440865,19.699644 13.0992629,19.699644 0.35450416,19.6981399 C0.237828619,19.6981399 0.116480865,19.7278957 0.00408818636,19.6679263 L0.00408818636,16.8558402 C0.115896839,16.7565017 0.244707155,16.7872384 0.374296173,16.8016258 C0.958777038,16.8663692 1.52619135,17.0186796 2.06901165,17.2301747 C3.29903661,17.7094719 4.50972379,17.7032591 5.73767221,17.2258584 C6.23020133,17.0345058 6.7477787,16.9126051 7.27165058,16.8179098 C7.7649584,16.7287732 8.24081032,16.7927318 8.71711647,16.8972368 C9.08680532,16.9781987 9.45733777,17.0701474 9.80768885,17.211471 C11.0642546,17.7183659 12.3088802,17.7065944 13.5684309,17.2121904 C14.0498636,17.0231921 14.5579667,16.9064578 15.0717804,16.8159478 C15.5656722,16.7289694 16.0413943,16.7933204 16.5170516,16.9000488 C17.1296955,17.0374487 17.7217038,17.2499901 18.3221481,17.4312061 C19.0909867,17.6633013 19.851,17.6585273 20.6214609,17.4323179 C21.3572047,17.2163104 22.0775691,16.9470695 22.8395291,16.8184329 C23.3445175,16.7332856 23.8300383,16.7929934 24.3167271,16.9031879 C24.9291764,17.0418303 25.5207953,17.2550257 26.1217587,17.4345414 C26.891376,17.6643477 27.6511298,17.656173 28.4212013,17.4285902 C29.1564908,17.2112094 29.8772446,16.9435381 30.6397887,16.8170596 C31.1341348,16.7351167 31.6088835,16.7927972 32.0848652,16.8997219 C32.4647421,16.9851308 32.845203,17.0792376 33.2066506,17.2230464 C34.4308353,17.7105182 35.6443128,17.7094065 36.8742729,17.2301747 C37.4170932,17.0186796 37.9845075,16.8664346 38.5690532,16.8016258 C38.6986423,16.7872384 38.8273877,16.7565017 38.9391963,16.8558402" id="Fill-4" fill="#263A6F"></path>
                    <path d="M38.9391963,16.8558402 C38.0875557,16.8952094 37.2871797,17.1655621 36.4973161,17.4491904 C35.3168037,17.873096 34.1867121,17.6823974 33.0539601,17.2745141 C32.6188602,17.117822 32.1709118,16.9991912 31.7135541,16.9152864 C30.7902729,16.7459727 29.926173,17.0125323 29.0932213,17.329971 C27.7890899,17.8271217 26.5263594,17.7673485 25.2477953,17.2691515 C24.8277504,17.1055927 24.3855774,16.999649 23.9391864,16.9166598 C23.0164892,16.7449917 22.1521947,17.0087392 21.3185291,17.3266358 C20.0044692,17.8278411 18.7308369,17.7714685 17.4417604,17.2636581 C17.0227537,17.0985952 16.5796073,16.9957252 16.1326323,16.9144363 C15.2088968,16.7463651 14.3453161,17.0153444 13.5124942,17.3317368 C12.2192646,17.8230017 10.9664626,17.7704222 9.6975025,17.2781763 C9.26681531,17.1110207 8.81536273,17.0004992 8.35819967,16.9160712 C7.43537271,16.7456457 6.57114309,17.0108974 5.7377371,17.3284669 C4.43451414,17.825029 3.17308153,17.7661714 1.8919218,17.2717674 C1.2886223,17.0390182 0.656900166,16.8857268 0.00408818636,16.8558402 L0.00408818636,15.4824959 C0.201424293,15.3346978 0.41809817,15.394144 0.62893178,15.4297856 C1.35669384,15.5528634 2.04422296,15.825178 2.75251747,16.021043 C3.5115574,16.2307724 4.2637188,16.2367235 5.02288852,16.0247053 C5.53332779,15.8821391 6.037797,15.7204114 6.54531614,15.5684934 C7.48034276,15.2883965 8.40291015,15.3428071 9.31885857,15.6490629 C9.71917637,15.7828659 10.1257238,15.8947608 10.5298702,16.0150265 C11.2968918,16.2432632 12.061188,16.2363311 12.8303511,16.0183618 C13.319376,15.879654 13.8043777,15.7282591 14.2900932,15.5788262 C15.233426,15.2885927 16.1678686,15.3353518 17.0950433,15.6457276 C17.5158669,15.7866589 17.9424659,15.9065977 18.3686106,16.0285637 C19.1038353,16.2391432 19.8394493,16.2391432 20.5746739,16.0285637 C21.0007537,15.9065977 21.428391,15.7895364 21.8480466,15.6450737 C22.8662646,15.2945439 23.8853261,15.3033725 24.9022463,15.6516134 C25.3220965,15.7953568 25.74902,15.91438 26.1758785,16.0340571 C26.9008502,16.2373775 27.6264709,16.2396664 28.3509235,16.0324222 C28.7771331,15.9105215 29.2048353,15.7936565 29.6241664,15.6482781 C30.6537404,15.2915356 31.6824709,15.306904 32.7097088,15.6580224 C33.1090532,15.794572 33.5157304,15.9062053 33.9208502,16.0230704 C34.678203,16.2416937 35.4317271,16.2307724 36.1907022,16.021043 C36.8990616,15.825178 37.5865907,15.5528634 38.3143527,15.4297856 C38.5251864,15.394144 38.7418602,15.3347632 38.9391963,15.4824959 L38.9391963,16.8558402" id="Fill-5" fill="#FFFFFF"></path>
                    <path d="M24.1759767,9.92424421 C24.9794027,10.1628137 25.7693311,10.4499735 26.5888502,10.6303394 C27.353406,10.7985414 28.0879817,10.6280505 28.8139268,10.3947127 C29.1623311,10.2827525 29.5141747,10.1816482 29.8612812,10.0657641 C30.9175907,9.71320695 31.942817,9.8699644 32.9642795,10.2284727 C33.4616106,10.4030836 33.9680266,10.5520588 34.4890433,10.6483237 C35.4128436,10.8189454 36.257411,10.4986945 37.1112579,10.2366474 C37.7095607,10.0531424 38.3040998,9.85819288 38.9391963,9.85832368 L38.9391963,11.2970654 C38.880015,11.3487947 38.8108403,11.3789429 38.7330349,11.3822127 C38.0756805,11.4096796 37.4548602,11.6067219 36.8467587,11.8311656 C35.6372396,12.2775679 34.443619,12.2751482 33.2329318,11.8290728 C32.5543577,11.5790588 31.8626106,11.3748228 31.1192097,11.3821474 C30.4332379,11.3887525 29.7995691,11.592269 29.1607737,11.7932351 C28.5411864,11.98825 27.9253627,12.1786871 27.2634659,12.1801912 C26.6571165,12.1816954 26.0881448,12.0265075 25.5201464,11.8464685 C24.7785624,11.6112997 24.0465175,11.3563154 23.2458819,11.3826705 C22.5839201,11.4043825 21.9712762,11.6054793 21.3535058,11.7997094 C20.7334642,11.9945935 20.1177704,12.1832649 19.4554193,12.180322 C18.8493943,12.1775099 18.2810067,12.0200331 17.7132679,11.8394056 C16.9819368,11.6068526 16.2583927,11.3633783 15.4699567,11.3822127 C14.8177288,11.3977773 14.2161165,11.5969776 13.6084043,11.7868262 C12.9781098,11.9837376 12.3535907,12.1827417 11.6798186,12.180322 C11.0626972,12.1780985 10.4841215,12.0158477 9.90593511,11.8332583 C9.19485025,11.6087492 8.49226622,11.3707028 7.72660732,11.3822781 C7.06308819,11.3923493 6.44960067,11.588149 5.83183028,11.7836217 C5.18128952,11.9892964 4.53522629,12.1915704 3.83861231,12.1807144 C3.32168386,12.1726705 2.83142596,12.0527318 2.34571048,11.904803 C1.63254908,11.6876838 0.934442596,11.4132765 0.178193012,11.3771118 C0.111484193,11.3739073 0.0548985025,11.3397045 0.00408818636,11.2970654 L0.00408818636,9.85832368 C0.739053245,9.85695033 1.43443428,10.0709305 2.10457238,10.3297732 C3.38300666,10.8234578 4.62847587,10.7526325 5.88290017,10.2640488 C6.28321797,10.1081416 6.70397671,10.0099801 7.12590349,9.92156291 C7.98559068,9.7415894 8.79109318,9.97276904 9.59633611,10.2290613 C10.098599,10.3888924 10.6000183,10.5504892 11.1203211,10.6473427 C11.9961015,10.8103129 12.804005,10.5314586 13.6167105,10.2773899 C13.9125524,10.184918 14.2060582,10.0847947 14.5006672,9.98813742 C14.5930083,9.8872947 14.7205208,9.87931623 14.8425175,9.85681954 C15.3842995,9.73236838 15.9232263,9.74034685 16.4590383,9.89115315 C16.5642928,9.90410182 16.6667571,9.92973758 16.7675341,9.96269785 C16.8188636,9.97316142 16.8692845,9.98709106 16.9195108,10.0020671 C17.4789434,10.1592169 18.0295507,10.3448146 18.5906057,10.4986291 C19.4686572,10.7394222 20.2963527,10.5351863 21.1254759,10.2852376 C21.4346206,10.1921118 21.7364975,10.0753775 22.049406,9.99363079 C22.1860682,9.95602732 22.321173,9.91103394 22.4628968,9.89461921 C23.0015641,9.75911589 23.542178,9.71189901 24.0870749,9.85904305 C24.1227654,9.87238411 24.1522912,9.89435762 24.1759767,9.92424421" id="Fill-6" fill="#FFFFFF"></path>
                    <path d="M38.9391963,12.6704098 L38.9391963,14.0437541 C38.8484126,14.1303402 38.7345923,14.1681399 38.6154509,14.179519 C37.9196805,14.2464205 37.2639484,14.4796929 36.6104875,14.7009321 C35.5544376,15.0585902 34.5166223,15.0708849 33.4660882,14.6935422 C33.0494176,14.5438477 32.6176273,14.4368576 32.1934942,14.3078286 C31.3158968,14.0409421 30.4620499,14.1736333 29.6163145,14.4522914 C29.3080133,14.5538535 28.9928336,14.6318071 28.6860899,14.7381432 C27.6971381,15.0810215 26.7138319,15.053947 25.7296173,14.7091722 C25.3113245,14.5626167 24.8821298,14.4488907 24.4566988,14.3241126 C23.7329601,14.1118328 23.0096755,14.1102632 22.2848336,14.3199272 C21.8485657,14.4460786 21.4098319,14.5658212 20.9812862,14.7155157 C19.972802,15.0678767 18.9704825,15.0678767 17.9619983,14.7155157 C17.5334526,14.5658212 17.0947188,14.4460786 16.6584509,14.3199272 C15.9335441,14.1101978 15.2103245,14.1118328 14.4865208,14.3241126 C14.0611547,14.4488907 13.6315707,14.5617012 13.2136672,14.7093684 C12.2065458,15.06513 11.2059135,15.0661109 10.1939251,14.7227748 C9.66213644,14.5422781 9.12333943,14.3804197 8.57578203,14.2491672 C7.93666223,14.0960066 7.31045591,14.1528369 6.6880782,14.3281018 C6.25103161,14.451245 5.81411481,14.5764156 5.38388186,14.7217285 C4.4539817,15.0357666 3.52745591,15.0718659 2.58178702,14.7746349 C1.82002163,14.5351498 1.06682196,14.2532219 0.264239601,14.1668974 C0.166382696,14.1564338 0.0776106489,14.1130753 0.00408818636,14.0437541 L0.00408818636,12.6704098 C0.189873544,12.5284321 0.397138103,12.5780033 0.597199667,12.6127293 C1.16370549,12.7111523 1.71295008,12.8800083 2.2500599,13.079928 C3.35146922,13.489904 4.44567554,13.4937624 5.54364559,13.0779007 C5.69529784,13.0205472 5.85324459,12.9799354 6.00483195,12.922255 C7.21032779,12.4636233 8.41231947,12.4700977 9.61580366,12.9338957 C9.96907488,13.070053 10.3368819,13.1637674 10.6998869,13.2714114 C11.5696323,13.5292732 12.41102,13.3736929 13.2460483,13.1058253 C13.4211913,13.0497144 13.5970483,12.9947152 13.7686223,12.9289255 C14.9840466,12.4631002 16.195772,12.4695745 17.4109368,12.9354652 C17.8250116,13.09425 18.2536872,13.2090224 18.6850882,13.3145083 C19.3239484,13.4706772 19.9497005,13.4080919 20.5731814,13.2371432 C20.8965374,13.1484644 21.2197637,13.0574313 21.5327371,12.9365116 C22.7466689,12.4672202 23.9581348,12.4661738 25.1751165,12.9278791 C25.5998336,13.0890182 26.0375291,13.2105919 26.4801564,13.316601 C27.1194709,13.4696308 27.7449634,13.4063262 28.3680549,13.2350505 C28.6809634,13.149053 28.9945857,13.0625323 29.2967221,12.9441631 C30.5321331,12.4602881 31.7635208,12.4687243 33.0008136,12.940697 C33.4148885,13.098697 33.842396,13.217851 34.2752246,13.3185629 C34.914604,13.4674073 35.5402263,13.4069801 36.1634476,13.2340695 C36.8820599,13.034673 37.5764027,12.748625 38.3141581,12.6185497 C38.5246023,12.5815348 38.7416656,12.5230041 38.9391963,12.6704098" id="Fill-7" fill="#FFFFFF"></path>
                    <path d="M0.00408818636,14.0437541 C0.941710483,14.1004536 1.81314309,14.4380348 2.69651581,14.7111995 C3.62751913,14.9992094 4.52750416,14.9134735 5.43034443,14.6169619 C6.02423461,14.4218162 6.61578869,14.2163377 7.2340782,14.1105902 C8.026797,13.9748907 8.77389684,14.1809578 9.52106156,14.4141647 C10.2399983,14.6387392 10.949396,14.9101382 11.7225175,14.9000671 C12.4152379,14.8910422 13.0671414,14.6912533 13.701005,14.4517028 C14.9497837,13.9799917 16.1872712,13.9506283 17.4263161,14.451245 C18.7347304,14.9798518 20.0433394,15.0461647 21.3627854,14.5007508 C22.6954692,13.9498435 24.0267255,13.9515439 25.362589,14.4982657 C26.6203877,15.0130083 27.8837022,15.0160166 29.1442263,14.5011432 C30.4774942,13.9565141 31.8086206,13.9458543 33.1440948,14.4978733 C34.4253195,15.0273957 35.7064143,14.9924081 36.9904942,14.491726 C37.616376,14.2475977 38.269188,14.1027425 38.9391963,14.0437541 L38.9391963,15.4824959 C38.2981947,15.4409031 37.6909368,15.6200919 37.1127504,15.8496366 C35.7291913,16.3991051 34.3702263,16.401394 32.9863428,15.8520563 C32.3030965,15.5807227 31.5858469,15.4093816 30.8349834,15.4804031 C30.3047521,15.5305629 29.7905491,15.6610306 29.3006805,15.8575497 C27.9421048,16.4024404 26.5974809,16.4016556 25.2350765,15.8662475 C24.5395008,15.592952 23.8159567,15.4116705 23.0541265,15.480207 C22.5234409,15.5278816 22.0087837,15.6584147 21.5193045,15.85513 C20.1494376,16.4057103 18.7963128,16.3996283 17.4235258,15.8566995 C16.7396306,15.5861507 16.0240682,15.4123899 15.2731398,15.479553 C14.7422596,15.5269661 14.2269534,15.6559296 13.7379285,15.8529065 C12.3683211,16.4044023 11.0151963,16.4011325 9.64214975,15.8590538 C8.95786522,15.5888974 8.24321131,15.413894 7.49228286,15.4790298 C6.96101331,15.5251349 6.44518802,15.6533791 5.95655241,15.8506175 C4.58720466,16.403029 3.23420965,16.4017864 1.86044925,15.8622583 C1.27006323,15.6304247 0.655991681,15.4433882 0.00408818636,15.4824959 L0.00408818636,14.0437541" id="Fill-8" fill="#263A6F"></path>
                    <g id="Group-12" stroke-width="1" fill="none" transform="translate(0.000000, 11.248344)">
                        <mask id="mask-7" fill="white">
                            <use xlink:href="#path-6"></use>
                        </mask>
                        <g id="Clip-10"></g>
                        <path d="M38.9391963,1.4220654 C38.3108486,1.39642964 37.7111181,1.5603154 37.1427304,1.78829056 C35.7390549,2.35129636 34.3593245,2.35463162 32.9548053,1.79031788 C32.2720133,1.51597599 31.5509351,1.34999752 30.8020832,1.42768957 C30.186584,1.49164818 29.5929534,1.66874421 29.0220349,1.89174917 C27.7649501,2.38275248 26.5368719,2.29982864 25.2982163,1.82975248 C24.7546173,1.62335844 24.1925241,1.46267715 23.6052529,1.42108444 C22.8883278,1.3702053 22.2175408,1.57293709 21.5471431,1.78672103 C21.0237255,1.95381126 20.5023844,2.12691805 19.9563195,2.21324255 C19.0660033,2.35404305 18.2497937,2.05432699 17.4261864,1.79849255 C16.8903095,1.63199089 16.3581314,1.45672599 15.7922745,1.42003808 C15.0862512,1.37419454 14.4261714,1.57489901 13.7662213,1.78469371 C13.2425441,1.95119536 12.7213977,2.12508692 12.1757221,2.21258858 C11.2856656,2.3552856 10.468807,2.05687748 9.64526456,1.80065066 C9.1093228,1.63395281 8.57727454,1.45849172 8.0116772,1.42029967 C7.3057188,1.37249421 6.64505491,1.5725447 5.98516972,1.7824048 C5.46142762,1.94897185 4.94054077,2.12384437 4.3950599,2.21167301 C3.49390682,2.35692053 2.66815807,2.05073013 1.83364892,1.7923452 C1.23599501,1.60740149 0.64333777,1.39793377 0.00408818636,1.4220654 L0.00408818636,0.0487210265 C0.601612313,-0.0185728477 1.15066223,0.190764073 1.70594176,0.357069536 C2.53162562,0.604336921 3.34199501,0.927203642 4.23088353,0.833750828 C4.90193012,0.763252483 5.53676705,0.547899007 6.16427121,0.319139073 C7.37404992,-0.121769868 8.56027288,-0.0317177152 9.73468552,0.435219371 C11.0284343,0.949700331 12.3173161,0.967096026 13.6114542,0.439012417 C14.9228536,-0.0961995033 16.2397687,-0.0977690397 17.5487022,0.440974338 C18.9038386,0.998748344 20.2354193,0.910265728 21.580822,0.386171358 C22.2865857,0.111306291 23.0276506,-0.0534950331 23.7998636,0.0449933775 C24.337817,0.113529801 24.8629867,0.251845199 25.3609667,0.451634106 C26.6992313,0.988938742 28.0068669,0.909219371 29.3322829,0.396896523 C30.0483644,0.120134934 30.7981897,-0.0551299669 31.5822779,0.044535596 C32.1203611,0.113006623 32.645401,0.250798841 33.1434459,0.450653146 C34.4813211,0.987434603 35.788827,0.910004139 37.1154759,0.399904801 C37.6932729,0.17775 38.2963777,-0.0206001656 38.9391963,0.0487210265 L38.9391963,1.4220654" id="Fill-9" fill="#263A6F" mask="url(#mask-7)"></path>
                        <path d="M0.00408818636,8.41958195 L38.9391963,8.41958195 C38.9250499,8.46046454 38.9720316,8.55802527 38.9067504,8.55377773 C38.8203145,8.54807009 38.7336839,8.55231763 38.647183,8.55231763 C25.8634892,8.55231763 13.0797953,8.55271584 0.296101498,8.54422076 C0.201164725,8.54408802 0.0760532446,8.697265 0.00408818636,8.41958195" id="Fill-11" fill="#FFFFFF" mask="url(#mask-7)"></path>
                    </g>
                    <path d="M17.5743993,3.06223096 C17.3920532,2.92071109 17.1799218,3.00383113 16.9816123,2.98375414 C16.8659101,2.97198262 16.7450166,3.00422351 16.6376206,2.93058609 C16.5650067,2.88081871 16.4827887,2.83275166 16.5095241,2.72975083 C16.5356106,2.62884272 16.6362579,2.6538899 16.7001115,2.66160679 C17.1168469,2.71170116 17.4795275,2.41617053 17.8961331,2.47797103 C18.0713411,2.48065232 18.2156606,2.56167964 18.3530366,2.65997185 C18.5147471,2.76029139 18.6840499,2.70162997 18.8515358,2.6835149 C18.8808669,2.68286093 18.9095491,2.68698096 18.9376473,2.69450166 C19.1660666,2.73099338 19.2545141,2.50419536 19.4238819,2.43088493 C19.5154443,2.36300248 19.5900699,2.2760894 19.6746889,2.20016308 C19.6960383,2.18087086 19.7192696,2.16412914 19.7431498,2.14823758 C19.8999933,2.0440596 20.0460649,1.92484023 20.2004426,1.81686921 C20.3201681,1.73270281 20.448589,1.67175248 20.5967371,1.6615505 C20.7633794,1.63859603 20.9261281,1.58562417 21.0971181,1.59628394 C21.2355324,1.59693791 21.3740765,1.59994619 21.5074942,1.55194454 C21.6685557,1.52061921 21.8314343,1.53252152 21.9936639,1.5282053 C22.3199401,1.53382947 22.6303178,1.42383113 22.9517271,1.39433692 C23.1101281,1.37576407 23.2698918,1.29506374 23.4259567,1.40290397 C23.467812,1.54102318 23.3449717,1.52872848 23.2796256,1.55456043 C22.4697105,1.87441887 21.6279983,2.06701407 20.7660399,2.16844536 C20.6221098,2.18544868 20.4934942,2.21075745 20.3821398,2.30368709 C20.3199085,2.45331623 20.1873344,2.54689983 20.0925275,2.67069702 C20.0813661,2.73491722 20.0326323,2.77454801 19.9953195,2.8218303 C19.8206306,3.00867053 19.6404908,3.18838245 19.3948752,3.2810505 C19.288777,3.33369536 19.178396,3.36554387 19.0612013,3.3500447 C19.0439401,3.35181043 19.0274576,3.3452707 19.0145441,3.33081788 C19.0148037,3.37738079 19.0525058,3.33578808 19.0673661,3.35272599 C19.2042879,3.37273758 19.3222612,3.31695364 19.4418569,3.26751325 C19.7260183,3.17530298 19.8623561,2.88219205 20.1238702,2.75911424 C20.3162745,2.77297848 20.5091331,2.7527053 20.701213,2.77121275 C20.9601963,2.84275745 21.2433844,2.72778891 21.4923095,2.87584851 C21.1634376,3.16627815 20.7491032,3.2463899 20.3445025,3.3499793 C20.2907072,3.35436093 20.2530699,3.3327798 20.23503,3.28026573 C20.2435308,3.23481457 20.2833744,3.21552235 20.3125757,3.1872053 C20.2865541,3.18073096 20.2683195,3.20172351 20.2543028,3.21382202 C20.1045973,3.34298179 19.9101165,3.3722144 19.7391913,3.45402649 C19.6105757,3.51772351 19.4824792,3.58540977 19.3317354,3.5351846 C19.1780067,3.49575 19.0208386,3.52472103 18.8659418,3.5081755 C19.0086389,3.52347848 19.1529584,3.50150497 19.2953311,3.53106457 C19.3310216,3.55146854 19.3922146,3.54486341 19.3988985,3.59338825 C19.4135641,3.69985513 19.3252463,3.67219205 19.2712562,3.6759197 C18.7524459,3.71156126 18.2791248,3.57115315 17.8527205,3.2785 C17.7571997,3.21290646 17.6607704,3.1426697 17.5743993,3.06223096" id="Fill-13" fill="#F6CE23"></path>
                    <path d="M22.4613394,9.97460017 C22.3323344,10.0012169 22.2034592,10.0278336 22.0743894,10.0543849 C21.9670582,9.96492136 21.9843195,9.83824669 21.9839301,9.72138162 C21.9793877,8.44103228 20.8041314,7.32103725 19.5196622,7.31371275 C18.4727621,7.30776159 17.366421,7.96847103 17.0300216,9.17335182 C16.9825208,9.34345033 16.9629235,9.51354884 16.9592895,9.68874834 C16.956629,9.81575 16.9844027,9.95426159 16.8686356,10.0542541 C16.8281431,10.0484992 16.7875857,10.0427442 16.7470932,10.0370546 C16.6735707,9.9516457 16.5118602,9.90534437 16.6171148,9.74028146 C16.6869384,9.50557036 16.6985541,9.25862997 16.7630566,9.02287252 C16.7650033,8.93053146 16.7576057,8.8355745 16.8282729,8.76069454 C16.8853128,8.69712831 16.936772,8.62983444 16.9801198,8.55515066 C17.1751847,8.21868129 17.1757687,8.21966225 16.8304792,8.05891556 C16.7361265,8.01490315 16.6180233,7.98671689 16.6615657,7.8357144 C16.8524775,7.68935513 17.0338502,7.95715728 17.2237238,7.84800911 C17.2595441,7.82191556 17.2978303,7.80530464 17.3430599,7.81576821 C17.615411,7.91392964 17.697629,7.65646026 17.8058037,7.52115315 C17.8941864,7.41050083 17.7037937,7.34091805 17.6229384,7.2654495 C17.5521414,7.19933278 17.4709617,7.14394123 17.4405275,7.04453725 C17.4422795,6.99136921 17.471416,6.96154801 17.5207987,6.94886093 C17.6633661,6.95271937 17.752787,7.05781291 17.8519418,7.13622434 C18.0429834,7.28748841 17.9503827,7.05905546 18.0028802,7.02753394 C18.0279933,6.98541805 18.0610882,6.95880132 18.1135208,6.97070364 C18.120594,6.97842053 18.1263045,6.98855712 18.1349351,6.99372351 C18.2406439,7.05742053 18.0999584,7.34000248 18.334802,7.2605447 C18.5147471,7.19952897 18.8138336,7.19298924 18.7228552,6.84886838 C18.7353145,6.80112831 18.7633478,6.77045695 18.8136389,6.7644404 C18.854975,6.76986838 18.9067587,6.78987997 18.9350516,6.75397682 C19.1191498,6.52109685 19.0985141,6.01210927 18.9172712,5.76575745 C18.8212962,5.63528974 18.6541348,5.53268129 18.6974176,5.32811838 C18.7268136,5.31261921 18.7541331,5.31484272 18.7791814,5.3374048 C18.8972196,5.47657036 19.0126622,5.61815563 19.1340749,5.75431291 C19.279173,5.91715232 19.2637288,5.75378974 19.2881281,5.67393957 C19.3216772,5.65562831 19.3497105,5.66203725 19.3721631,5.6929048 C19.4752762,6.05036672 19.2772263,6.36911341 19.2399784,6.70898344 C19.2090899,6.99064983 19.2454293,7.03727815 19.5175208,7.02720695 C19.6925341,7.02073262 19.7369201,6.94585265 19.7151814,6.77941639 C19.6761814,6.48074669 19.5393894,6.19731457 19.5780649,5.88680795 C19.6402962,5.82212997 19.6916905,5.86614238 19.7438636,5.90322268 C19.8728686,6.10785099 19.8874692,6.34759768 19.9452879,6.5742649 C19.9702712,6.67196854 19.9590449,6.80740646 20.1290616,6.76404801 C20.1796772,6.77006457 20.2075807,6.80067053 20.2201697,6.8482144 C20.2168602,7.06284851 20.452223,7.29468212 20.6471581,7.27015811 C20.7531913,7.25681705 20.7387854,7.17055795 20.7524775,7.10045199 C20.7757088,6.981625 20.7245092,6.83408858 20.8796007,6.76600993 C20.9285291,6.77241887 20.9637654,6.79982036 20.9912795,6.83925497 C21.0456589,6.94382533 21.0011431,7.05048841 20.9868669,7.19468957 C21.2476023,7.03865149 21.4275474,6.83330381 21.6210549,6.64567881 C21.6923062,6.48885596 21.6464276,6.3225505 21.6598602,6.16141142 C21.6334493,6.03382119 21.7644659,5.81330132 21.4729068,5.84384189 C21.4425374,5.83834851 21.4174892,5.82350331 21.3968536,5.80081043 C21.5474027,5.58467219 21.7623894,5.48239073 22.0524559,5.42229056 C21.7845175,5.79963328 21.8074892,6.19463328 21.8171581,6.58871772 C21.9301997,6.6211548 21.975624,6.50939073 22.0602429,6.50187003 C22.0826306,6.52475911 22.0936622,6.5519644 22.0918453,6.5842053 C21.9077471,6.87607368 21.603599,7.03165397 21.3484443,7.24184106 C21.0572745,7.48184934 21.0518885,7.47459023 21.3355957,7.73997268 C21.4062629,7.8060894 21.4701165,7.88083858 21.565183,7.91386424 C21.6351364,7.9370149 21.7058686,7.9591846 21.7574576,8.01719205 C21.7704359,8.04446275 21.7776389,8.07323758 21.7792612,8.10345116 C21.8126805,8.36530215 21.9560915,8.57019205 22.1173478,8.76579553 C22.1880799,8.84041391 22.1756855,8.93484768 22.1791897,9.02555381 C22.2292862,9.22109189 22.1907404,9.50387003 22.3279867,9.59470695 C22.482624,9.69685762 22.6833993,9.46973262 22.8760632,9.41846109 C23.1289468,9.35110182 23.344777,9.1566755 23.6290033,9.19454056 C23.649574,9.22266142 23.6491847,9.2505207 23.6279002,9.27805298 C23.5870832,9.33017467 23.4571697,9.37242136 23.6467837,9.4183957 C23.9413927,9.48967881 24.2541714,9.53813825 24.4724027,9.78926407 C24.4297687,9.97198427 24.2834376,9.85695033 24.1889551,9.8897144 C24.2113428,9.73661921 24.0939534,9.72739818 23.9945391,9.68678642 C23.421025,9.45266391 22.9124676,9.55461838 22.4613394,9.97460017" id="Fill-14" fill="#B79B35"></path>
                    <path d="M17.9764692,2.40315646 C17.3748569,2.11056871 16.7033561,2.10880298 16.0729318,1.93674255 C15.8164792,1.86676738 15.544193,1.84590563 15.3104526,1.70065811 C15.4036373,1.53448344 15.4036373,1.53448344 15.7500948,1.57058278 C15.7820865,1.56999421 15.8138186,1.57359106 15.8449667,1.58065397 C15.9869501,1.64395861 16.1385374,1.67162169 16.2906439,1.69686507 C16.3655291,1.71942715 16.4421015,1.72936755 16.5202962,1.72845199 C16.6993328,1.71766142 16.871426,1.76415894 17.0457903,1.79038328 C17.1999734,1.78809437 17.3467587,1.85460348 17.5022396,1.8392351 C17.5320899,1.83779636 17.5616805,1.84080464 17.590817,1.84767136 C17.7285824,1.92647517 17.8891897,1.94740232 18.0300699,2.01914321 C18.1164409,2.06806043 18.2059917,2.11102649 18.2945042,2.15660844 C18.3205258,2.17125745 18.3441464,2.18891474 18.3666639,2.20859934 C18.4623145,2.3254644 18.5876206,2.43199669 18.5077388,2.61131623 C18.4812629,2.62851573 18.4522562,2.63825993 18.4207837,2.64100662 C18.2520649,2.60098344 18.100218,2.52865397 17.9764692,2.40315646" id="Fill-15" fill="#EFC827"></path>
                    <path d="M20.5842779,1.74375497 C20.427629,1.71000993 20.3370399,1.86846772 20.1957055,1.87945447 C20.0196539,1.95858526 19.878579,2.08774503 19.7312745,2.20814156 L19.7324426,2.20729139 C19.6033078,2.28060182 19.5152496,2.40250248 19.3999368,2.49216225 C19.2337488,2.54212583 19.1593178,2.76912003 18.9471215,2.73014321 C18.9284326,2.73066639 18.9096789,2.73105877 18.8909251,2.73112417 C18.8536123,2.70836589 18.8100699,2.69188576 18.8018286,2.64028725 C18.9519884,2.4785596 18.7340166,2.29727815 18.8280449,2.13241142 C18.8544559,2.15000331 18.891574,2.16151325 18.9055258,2.18629884 C19.0556855,2.45253146 19.1843012,2.37150414 19.3496456,2.18656043 C19.6238785,1.87984685 19.9448985,1.63238328 20.3616988,1.54736672 C20.8853111,1.45855712 21.4101564,1.38138825 21.9433727,1.39126325 C22.0190366,1.40381954 22.0925591,1.42134603 22.1435641,1.48648179 C22.1420715,1.60628974 22.0509634,1.57640315 21.9826323,1.58444702 C21.7658286,1.58653974 21.5480516,1.57104056 21.3334542,1.61655712 C21.0797271,1.6342798 20.8191864,1.61178311 20.5842779,1.74375497" id="Fill-16" fill="#E9C329"></path>
                    <path d="M22.0707554,9.01371689 C22.0810083,8.94688079 22.1707537,8.87971772 22.0701065,8.81320861 C22.1896373,8.51068046 22.4626373,8.34306705 22.6828802,8.13608444 C22.8873544,7.94407781 23.0990965,7.75841474 23.3018835,7.56359603 C23.3238819,7.54358444 23.3445824,7.5221995 23.3637903,7.49944123 C23.4477604,7.42514983 23.5471747,7.40781954 23.6935058,7.40278394 C23.5234243,7.63115149 23.2870233,7.75592964 23.1284276,8.02543212 C23.5421131,7.94368543 23.8910366,7.91425662 24.2562479,8.12352815 C23.8515824,8.24000083 23.6558686,8.57248096 23.3889684,8.82112169 C23.3623627,8.84237583 23.3341997,8.84597268 23.3042845,8.82923096 C23.3474376,8.58941887 23.4213494,8.49557368 23.8201747,8.17479967 C22.9364126,8.186375 22.8777504,8.21148758 22.4001464,8.78253725 C22.5344077,8.85238162 22.7723661,8.70876904 22.807213,8.98422268 C22.7932612,9.01927566 22.7697055,9.04379967 22.7358968,9.05942964 C22.5085807,9.12155712 22.2850283,9.13470199 22.0707554,9.01371689" id="Fill-17" fill="#BD9D34"></path>
                    <path d="M16.8740865,8.81294702 C16.7722712,8.87899834 16.8626656,8.94714238 16.8718802,9.01430546 C16.6620849,9.13718709 16.4386622,9.10788907 16.2148502,9.07499421 C16.1465191,9.05674834 16.0852612,9.02529222 16.0369168,8.97218957 C15.9883128,8.83962914 16.0940216,8.83165066 16.1722163,8.81183526 C16.2868802,8.78273344 16.4066057,8.80719205 16.5237354,8.79169288 C16.203624,8.14968709 15.669629,8.26740232 15.1385541,8.39355381 C15.2005907,8.58909189 15.5061015,8.57535844 15.5133045,8.82602649 C15.4831947,8.83838659 15.4537338,8.83760182 15.4251165,8.82164487 C15.0939734,8.68901904 14.8707454,8.44096689 14.6666606,8.10547848 C14.8002729,8.13150662 14.8956639,8.15007947 14.9910549,8.16858692 C15.1012413,8.20507864 15.2115574,8.20468626 15.3218087,8.16884851 C15.5005857,8.14301656 15.6793627,8.11711921 15.8796839,8.08814818 C15.8007754,7.88410844 15.6030499,7.80759354 15.5061664,7.64776242 C15.5825441,7.48629636 15.6646323,7.58504636 15.7462013,7.64181126 C16.0386689,7.99306043 16.4316539,8.23843129 16.7284692,8.58503725 C16.7869368,8.65337748 16.9062729,8.6849644 16.8740865,8.81294702" id="Fill-18" fill="#BEA034"></path>
                    <path d="M18.8280449,2.13241142 C18.8358319,2.1725 18.8294725,2.23122682 18.8536772,2.24986507 C19.0558802,2.40642632 18.9711963,2.53414735 18.82201,2.65938328 C18.7500449,2.73485182 18.6778203,2.71830629 18.6053361,2.66049503 C18.5114376,2.50471854 18.490218,2.29956705 18.3031997,2.20637583 L18.3044326,2.20735679 C18.2116373,2.1379048 18.1105358,2.08310182 18.004827,2.03634272 C17.8811431,1.95263411 17.7089201,2.00004719 17.5976306,1.88305132 C17.5712196,1.88272434 17.5448735,1.88233195 17.5184626,1.88193957 C17.3755707,1.91287252 17.2503943,1.8465596 17.1201564,1.80797517 C17.1140566,1.76723262 17.1289168,1.73721523 17.1647371,1.71746523 C17.6482463,1.70026573 18.1199451,1.75696523 18.5710732,1.94360927 C18.6871647,1.96447103 18.7647105,2.03856623 18.8280449,2.13241142" id="Fill-19" fill="#F0C926"></path>
                    <path d="M22.0081997,1.42906291 C21.4544126,1.3973452 20.9126306,1.53585679 20.3618286,1.54730132 C20.6441082,1.37792219 20.9686972,1.40107285 21.2710932,1.39054387 C22.0131963,1.36477732 22.7497188,1.28460017 23.488188,1.22338825 C23.6386722,1.18879305 23.7898053,1.15230132 23.829,1.37360596 C23.7300399,1.44757036 23.6188153,1.49034023 23.4969484,1.5060356 C23.4628802,1.48674338 23.4719002,1.43364073 23.4304343,1.42016887 C23.2721631,1.39943791 23.1239501,1.4516904 22.9730765,1.48419288 C22.8869651,1.42428891 22.7917687,1.43913411 22.6968968,1.45070944 C22.5927454,1.44129222 22.4948885,1.48589321 22.3916456,1.48635099 C22.2566705,1.51407947 22.1331165,1.46718957 22.0081997,1.42906291" id="Fill-20" fill="#CEAD31"></path>
                    <path d="M17.320802,7.83205215 C17.3018536,7.85441805 17.2829052,7.87671854 17.2639567,7.89908444 C17.0799235,7.89234851 17.0534476,7.72604305 17.0089967,7.60898179 C16.8745408,7.25472434 16.6345707,7.06964983 16.2593012,7.04728394 C16.13101,7.03969785 16.0074559,6.99130381 15.8748819,6.94938411 C15.8590483,7.08835348 16.0441198,7.18030215 15.9600849,7.32803477 C15.9300399,7.34359934 15.9024609,7.34006788 15.877218,7.31763659 C15.6976622,7.10712252 15.586178,6.86953394 15.5784559,6.51874255 C15.8198536,6.78687169 16.1042745,6.84998013 16.3898636,6.90720281 C16.595376,6.94840315 16.7408636,6.92538328 16.613416,6.65836589 C16.5857072,6.62919868 16.5870699,6.6014702 16.6171797,6.57504967 C16.6611764,6.56988328 16.7110782,6.57341474 16.7342446,6.60984106 C16.9774592,6.99378891 17.2219717,7.37767136 17.320802,7.83205215" id="Fill-21" fill="#BC9F35"></path>
                    <path d="M19.3429617,3.51451904 C19.4724859,3.4710952 19.6019451,3.42767136 19.7314692,3.38424752 C19.9191364,3.39856954 20.067609,3.24926738 20.2537837,3.25711507 C20.2756522,3.27889238 20.2975208,3.3007351 20.3193894,3.32257781 C20.3500832,3.34873675 20.3503428,3.37522268 20.3201681,3.4020356 C19.395005,3.85059603 18.5041697,3.86014404 17.668817,3.18785927 C17.6293627,3.15614156 17.6056123,3.10454305 17.5744642,3.06223096 C17.9543411,3.28399338 18.3135824,3.54577897 18.7652296,3.61850083 C18.9494576,3.64819123 19.1309601,3.6340654 19.3135008,3.64171689 C19.3207687,3.64204387 19.3342013,3.63210348 19.3350449,3.62556374 C19.3415341,3.57873924 19.3018203,3.58665232 19.2763178,3.57775828 C19.2648968,3.52073179 19.2741764,3.48567881 19.3429617,3.51451904" id="Fill-22" fill="#DDB92D"></path>
                    <path d="M23.3637903,7.49944123 C23.3638552,7.52357285 23.3640499,7.54770447 23.3642446,7.5717707 C23.0324526,7.77319454 22.6894992,7.94067715 22.2884027,7.93086755 C22.2596556,7.91353725 22.243173,7.8876399 22.23902,7.85415646 C22.6131215,7.62676987 22.7274609,7.23131209 22.8802163,6.83807781 C22.6802196,6.77778146 22.5346672,7.0138005 22.3418735,6.93761258 C22.3234443,6.92289818 22.3149434,6.90622185 22.3165008,6.88751821 C22.3180582,6.86789901 22.3213028,6.85802401 22.3261697,6.85802401 C22.625386,6.67595778 22.9334925,6.52665563 23.336406,6.59264156 C23.0258985,6.87208444 22.9216173,7.23745944 22.7869667,7.6110745 C23.0077288,7.64292301 23.171386,7.48969702 23.3637903,7.49944123" id="Fill-23" fill="#B59A36"></path>
                    <path d="M16.6862895,9.78874089 C16.5422945,9.91234189 16.7841464,9.93993957 16.7470932,10.0370546 C16.6586456,10.0162583 16.570198,9.99552732 16.4817504,9.97479636 C16.1416522,9.60935596 15.6929251,9.52394702 15.2835225,9.75806954 C15.1303777,9.84570199 14.9648386,9.87826987 14.7984559,9.91600414 C14.7097488,9.98454056 14.6111131,10.0112881 14.5006023,9.98813742 C14.4898952,9.96864901 14.4791231,9.94922599 14.468416,9.92973758 C14.4915824,9.74211258 14.6589384,9.87454222 14.7362895,9.80724834 C14.9972845,9.707125 15.2536722,9.59771523 15.492604,9.42179636 C15.4269983,9.2900207 15.2654825,9.31611424 15.1796955,9.22730464 C15.1566589,9.19676407 15.1560749,9.16583113 15.1778136,9.1344404 C15.6116156,9.14202649 15.9596306,9.40682036 16.352421,9.53787666 C16.481426,9.58090811 16.6629285,9.58816722 16.6862895,9.78874089" id="Fill-24" fill="#BC9F35"></path>
                    <path d="M23.4304343,1.42016887 C23.5360782,1.38289238 23.4757937,1.47660679 23.4969484,1.5059702 C22.6408303,1.87997765 21.7443494,2.09932036 20.818797,2.19499669 C20.6604609,2.21134603 20.5256156,2.25215397 20.3997903,2.34155215 C20.3696805,2.3774553 20.3414526,2.37608195 20.3151065,2.33723593 C20.5128319,2.04929139 20.8365125,2.13195364 21.1058785,2.08231705 C21.9028153,1.9355654 22.6983894,1.79424172 23.4304343,1.42016887" id="Fill-25" fill="#EDC728"></path>
                    <path d="M22.3261697,6.85802401 C22.3270133,6.8804553 22.3279218,6.90282119 22.3287654,6.92525248 C22.1669251,7.27826738 21.8930815,7.57065894 21.7831547,7.95140232 C21.7766656,7.98050414 21.7629734,8.00581291 21.7425973,8.02745944 C21.6800416,8.00594371 21.6174859,7.98442798 21.5549301,7.96291225 C21.4970466,7.87214073 21.55201,7.79660679 21.5947088,7.72623924 C21.8008053,7.38689238 21.9528469,7.01962086 22.1360366,6.66850248 C22.1468087,6.64783692 22.2167621,6.6237053 22.1544659,6.59198758 C22.1356473,6.58237417 22.0956739,6.60127401 22.0665374,6.58387831 C22.0644609,6.55660762 22.0623844,6.52933692 22.0603078,6.50200083 C22.1998253,6.35119454 22.3656889,6.23701076 22.5859318,6.09993791 C22.5410266,6.3324255 22.4263627,6.47662666 22.3564093,6.63913907 C22.3276622,6.70584437 22.2105324,6.76856043 22.3261697,6.85802401" id="Fill-26" fill="#BEA034"></path>
                    <path d="M18.1024243,6.9816904 C18.0819834,7.00484106 18.0616073,7.02799172 18.0412313,7.05114238 C17.8616106,7.01223096 17.9055424,6.85495033 17.891396,6.74050497 C17.8583661,6.4729644 17.7429884,6.28612417 17.4925058,6.16160762 C17.3122363,6.07201325 17.0797937,6.00504636 17.060391,5.73613245 C17.0880998,5.70559189 17.1164576,5.70500331 17.1454642,5.73417053 C17.3822546,5.87745613 17.5977604,6.05788742 17.8976256,6.17900331 C17.8590799,5.87215894 17.8242329,5.59461258 17.7882829,5.30843377 C17.9431797,5.31621606 17.9536922,5.43523924 17.9934709,5.52738411 C17.991589,5.54262169 17.9896423,5.55792467 17.9878253,5.57322765 C17.9897072,5.69957533 18.0143661,5.82219536 18.0490832,5.94357285 C18.0711464,6.17946109 18.1092379,6.41273344 18.1428519,6.64672517 C18.1590749,6.76005877 18.2043694,6.88110927 18.1024243,6.9816904" id="Fill-27" fill="#BDA034"></path>
                    <path d="M18.5710732,1.94360927 C18.0969085,1.84642881 17.6265724,1.7206043 17.1356656,1.74852897 C17.0811564,1.75644205 17.0266473,1.76370116 16.9713594,1.75990811 C16.8624709,1.7552649 16.7535175,1.73479553 16.6447587,1.76226242 C16.596609,1.78652483 16.5352862,1.76736341 16.4925225,1.80934851 C16.4186106,1.81248758 16.3421681,1.82465149 16.2896057,1.75160265 C16.2250383,1.64572434 16.0513877,1.79764238 16.0119334,1.63238328 C16.024198,1.58398924 16.0544376,1.55299089 16.1017438,1.53873427 C16.7592928,1.60929801 17.4172313,1.6761995 18.0740666,1.75297599 C18.2520649,1.77377235 18.431426,1.81157202 18.5710732,1.94360927" id="Fill-28" fill="#D3B030"></path>
                    <path d="M17.1454642,5.73417053 C17.1199617,5.73574007 17.0944592,5.73724421 17.0690216,5.73881374 C17.067594,6.13329056 17.1402729,6.50173924 17.4283927,6.79707368 C17.4773211,6.84723344 17.5575275,6.88581788 17.5231348,6.98136341 C17.5023045,7.0014404 17.4814742,7.02151738 17.460579,7.04159437 C17.1067238,6.93532368 16.8260017,6.73919702 16.6712346,6.38840563 C16.6982296,6.36329305 16.7252246,6.36329305 16.7522845,6.38820944 C16.8307388,6.41534934 16.8718153,6.51593046 16.9955641,6.50088907 C16.9775241,6.15153642 16.7553993,5.80584603 16.960198,5.42915728 C17.0270366,5.53922103 17.0862829,5.63666308 17.1454642,5.73417053" id="Fill-29" fill="#BD9F35"></path>
                    <path d="M15.877218,7.31763659 C15.9049268,7.31475911 15.9326356,7.31181623 15.9604093,7.30893874 C16.200574,7.47910265 16.4911597,7.58812003 16.6354143,7.87475662 C16.2878536,8.02216225 16.0100516,7.79484106 15.7077205,7.69949172 C15.6505507,7.64266142 15.5998053,7.56039156 15.5061664,7.64776242 C15.4251165,7.58439238 15.325183,7.54070695 15.2598369,7.38617301 C15.5170682,7.45909106 15.7398419,7.5221995 15.9753344,7.5889702 C16.0040166,7.45405546 15.8827338,7.40788493 15.877218,7.31763659" id="Fill-30" fill="#B59A36"></path>
                    <path d="M18.7791814,5.3374048 C18.7529002,5.34021689 18.726619,5.34296358 18.7003378,5.34577566 C18.6039085,5.32824917 18.5643894,5.25081871 18.5362263,5.17319205 C18.5200682,5.5101846 18.4480383,5.84318791 18.4893095,6.18031126 C18.4725674,6.22805132 18.4448586,6.26506623 18.3940483,6.27932285 C18.1804892,6.17664901 18.0960649,5.96862003 17.9909401,5.77733278 C17.9807521,5.70323758 17.9238419,5.63326242 17.970629,5.55380464 C17.9777671,5.54458361 17.9853594,5.53582036 17.9934709,5.5274495 C18.0817238,5.64496854 18.1699767,5.76261838 18.2913894,5.92441142 C18.3111814,5.52051738 18.3267554,5.15788907 18.5811314,4.83940397 C18.6523827,5.01852732 18.715782,5.17796606 18.7791814,5.3374048" id="Fill-31" fill="#B79A35"></path>
                    <path d="M20.1851281,6.84893377 C20.1658552,6.82781043 20.1465824,6.80668709 20.1273095,6.78549834 C20.0745524,6.63580381 20.1862313,6.54169702 20.2543677,6.44163907 C20.3993361,6.22909768 20.4369085,6.02289983 20.3277604,5.77622103 C20.2519018,5.60501076 20.1679967,5.42019785 20.233797,5.21792384 C20.2614409,5.19111093 20.2898636,5.19032616 20.3190649,5.21530795 C20.4068636,5.46676076 20.4946622,5.71821358 20.5867438,5.9816995 C20.7709068,5.86248013 20.8020549,5.64621109 20.9503977,5.52542219 C20.9772629,5.54065977 20.9941997,5.56341805 21.0015324,5.59369702 C21.0081514,5.6732856 20.9733045,5.74038328 20.9393012,5.80800414 C20.770777,6.10909354 20.5816822,6.39716887 20.3882396,6.68217053 C20.338792,6.75495778 20.3178319,6.87463493 20.1851281,6.84893377" id="Fill-32" fill="#BD9F34"></path>
                    <path d="M20.9565624,6.84958775 C20.93703,6.82696026 20.9174326,6.80426738 20.8979002,6.7815745 C20.7247687,6.5174346 20.8378752,6.250875 20.8900483,5.98477318 C20.9264526,5.84338411 21.0247637,5.71363576 20.9702546,5.5545894 C20.9641547,5.54451821 20.9575358,5.5348394 20.9504626,5.52542219 C20.9792097,5.43465066 21.0075674,5.34355215 21.1546772,5.28332119 C21.1214526,5.56394123 21.0914725,5.81781374 21.0597404,6.08640066 C21.1191165,6.04918957 21.1712246,6.0164255 21.2234626,5.98372682 C21.2470832,6.00942798 21.2595424,6.03977235 21.26097,6.07482533 C21.1185324,6.31659934 21.1036073,6.60951407 20.9565624,6.84958775" id="Fill-33" fill="#B49936"></path>
                    <path d="M23.3067504,8.81314321 C23.334005,8.81575911 23.3613894,8.8184404 23.3888386,8.82112169 C23.3671647,9.00384189 23.5072662,8.93262417 23.5846822,8.94001407 C23.7951265,8.96002566 24.0111514,8.92497268 24.2732496,9.00246854 C24.0406772,9.14575414 23.8387987,9.22181126 23.6279002,9.27798758 C23.6269917,9.2552947 23.6260832,9.23260182 23.6252396,9.20990894 C23.641203,9.154125 23.6775424,9.11828725 23.7315324,9.0997798 C23.4164825,9.05249752 23.082614,9.19303642 22.7820349,9.00253394 C22.7817105,8.98114901 22.7815158,8.95976407 22.7815158,8.93844454 C22.939787,8.82550331 23.1297903,8.84714983 23.3067504,8.81314321" id="Fill-34" fill="#B49736"></path>
                    <path d="M15.1874176,9.14621192 C15.1848869,9.17322103 15.1822912,9.20016474 15.1796955,9.22723924 C15.0228519,9.16818543 14.8659434,9.10913162 14.6698403,9.03523262 C14.9185058,8.89763659 15.1446539,8.96198758 15.3594459,8.94472268 C15.4624942,8.93648262 15.5037654,8.91764818 15.4252463,8.82164487 C15.4543178,8.81850579 15.4835191,8.81536672 15.5127205,8.81222765 C15.7031131,8.78096772 15.8705341,8.8431606 16.0293245,8.94086424 C16.0729318,8.96022185 16.116604,8.97951407 16.1602762,8.99887169 C16.0096622,9.15065894 15.8164792,9.06786589 15.6431531,9.09572517 C15.4918253,9.12005298 15.3284925,9.03228974 15.1874176,9.14621192" id="Fill-35" fill="#B49735"></path>
                    <path d="M20.3201681,3.4020356 C20.3199085,3.37554967 20.319584,3.34899834 20.3193245,3.32251242 C20.7173062,3.22585513 21.0656456,2.98336175 21.475827,2.92267301 C21.5062612,2.90455795 21.5344892,2.90658526 21.5602512,2.93195944 C21.4018502,2.98584685 21.4121681,3.0539255 21.5436389,3.13220613 C21.337802,3.29615728 21.0627903,3.18740149 20.8468303,3.31152566 C20.6712329,3.34167384 20.4957005,3.37188742 20.3201681,3.4020356" id="Fill-36" fill="#BA9C35"></path>
                    <path d="M20.3190649,5.21530795 C20.2978453,5.21517715 20.2766905,5.21471937 20.2556656,5.2140654 C20.0548902,5.24172848 20.0696206,5.43772434 19.989609,5.55975579 C19.9067421,5.68616887 19.9302329,5.8855 19.7361414,5.93579056 C19.6939617,5.91342467 19.651782,5.89105877 19.6096672,5.86862748 C19.5473062,5.82042964 19.5471764,5.75941391 19.5738469,5.6928394 C19.5952612,5.66105629 19.6227105,5.65458195 19.6559351,5.67348179 C19.7759201,5.84776573 19.7701448,5.64012914 19.779619,5.61861341 C19.9108952,5.32321358 20.0245208,5.01774255 20.3459301,4.83292964 C20.4049168,4.9795505 20.2938869,5.09419205 20.3190649,5.21530795" id="Fill-37" fill="#B79735"></path>
                    <path d="M20.8468303,3.37134244 C21.0394942,3.0835069 21.3015275,3.16023979 21.5436389,3.13207533 C21.5950333,3.24455877 21.7411048,3.15282809 21.7737454,3.35564708 C21.4632379,3.42819454 21.1544176,3.37674862 20.8468303,3.37134244" id="Fill-38" fill="#F6CE23"></path>
                    <path d="M15.7767654,1.63222378 C15.6375724,1.76090889 15.4354992,1.50416134 15.3104526,1.71884408 C15.1984493,1.6823833 15.0843694,1.65069632 14.9940399,1.56393765 C15.0298602,1.31611504 15.1878719,1.38931334 15.3293361,1.41878638 C15.457822,1.43871182 15.5983128,1.38820637 15.7123927,1.49274573 C15.6256323,1.54525755 15.5386123,1.53667855 15.4628835,1.5091427 C15.5472429,1.5742463 15.7124576,1.46763137 15.7767654,1.63222378" id="Fill-39" fill="#C7A533"></path>
                    <path d="M19.6559351,5.67348179 C19.636208,5.67341639 19.6164809,5.67361258 19.5967537,5.67407036 C19.5345225,5.69028891 19.5103178,5.64778063 19.4886439,5.60546854 C19.4714476,5.56387583 19.4618436,5.59075414 19.4512662,5.61488576 C19.4260233,5.65824421 19.4003261,5.69767881 19.3420532,5.67295861 C19.3240782,5.6730894 19.3061032,5.67341639 19.2881281,5.67393957 C19.3363428,5.44531043 19.3844925,5.21661589 19.4487354,4.91166805 C19.5857221,5.20092053 19.6035674,5.44236755 19.6559351,5.67348179" id="Fill-40" fill="#B79435"></path>
                    <path d="M23.829,1.40519592 C23.7490532,1.26453705 23.6206972,1.24669281 23.4882529,1.23925169 C23.7469118,1.1314638 24.0208203,1.14193916 24.3513794,1.07186258 C24.1756522,1.28613798 24.0072579,1.3551309 23.829,1.40519592" id="Fill-41" fill="#B79535"></path>
                    <path d="M19.9855857,2.84393626 C20.0104393,2.78682258 20.0353577,2.7295345 20.0602113,2.67242081 C20.0847404,2.63797821 20.1084908,2.63728063 20.1314626,2.67538549 C20.3560532,2.85971882 20.6035507,2.72029167 20.8383295,2.76511066 C21.0144459,2.79876849 21.1987388,2.72377953 21.3698586,2.83390867 C21.1476689,2.93470779 20.9235324,2.89468461 20.699396,2.85108637 C20.4864859,2.8505632 20.2735108,2.84995282 20.0606007,2.84934244 C20.0341897,2.88352346 20.0091414,2.88169233 19.9855857,2.84393626" id="Fill-42" fill="#BA9C35"></path>
                    <path d="M15.3293361,1.4169644 C15.2034459,1.42762417 15.0597754,1.39414073 14.9940399,1.55416805 C14.8498502,1.48916308 14.703584,1.4268394 14.5847022,1.21992219 C14.8686689,1.29506374 15.09897,1.35601407 15.3293361,1.4169644" id="Fill-43" fill="#B79535"></path>
                    <path d="M17.9764692,2.40315646 C18.1445391,2.42872682 18.2801631,2.52786921 18.425975,2.60399172 C18.4784077,2.62661921 18.530386,2.67174338 18.4919052,2.7205952 C18.4419384,2.78403063 18.3653012,2.78448841 18.3046922,2.71470944 C18.1685491,2.63577483 18.032406,2.55684023 17.896198,2.47797103 C17.9229334,2.45298924 17.9497338,2.42807285 17.9764692,2.40315646" id="Fill-44" fill="#BA3E2B"></path>
                    <path d="M16.7522845,6.38820944 C16.7267171,6.39062914 16.7010849,6.39298344 16.6755175,6.39533775 C16.6217221,6.44674007 16.6847321,6.53110265 16.6239933,6.58054305 C16.6204243,6.6064404 16.6169201,6.63240315 16.613416,6.65836589 C16.4929767,6.49853477 16.3953145,6.32850166 16.3432063,6.08025331 C16.5215291,6.18279636 16.6513777,6.26467384 16.7522845,6.38820944" id="Fill-45" fill="#B58032"></path>
                    <path d="M20.699396,2.80448602 C20.9227537,2.79881824 21.1462413,2.79315047 21.3697288,2.78730831 C21.4446789,2.7876571 21.5197587,2.78399485 21.5944493,2.78983701 C21.6422745,2.79358646 21.673812,2.83177851 21.6625208,2.90258204 C21.6508403,2.97635025 21.60003,2.9678922 21.5601864,2.98044849 C21.5320882,2.97635025 21.5040549,2.97225202 21.4759567,2.96815379 C21.2367654,2.74423326 20.9398203,3.01672222 20.699396,2.80448602" id="Fill-46" fill="#C3A634"></path>
                    <path d="M15.7767654,1.66266225 C15.6681364,1.61967439 15.5595724,1.57677373 15.444584,1.53125717 C15.5310849,1.44815894 15.6261514,1.51242274 15.7123278,1.48687417 C15.8424359,1.50701656 15.979812,1.45312914 16.1017438,1.55610817 C16.0782529,1.59203311 16.0547621,1.62813245 16.0312063,1.66414459 C15.9624859,1.72744923 15.8940899,1.71663687 15.8258885,1.66248786 L15.8012945,1.66327263 L15.7767654,1.66266225" id="Fill-47" fill="#DEBB2D"></path>
                    <path d="M20.1314626,2.67056926 C20.1076473,2.66984477 20.0838968,2.66905441 20.0601464,2.66832991 C20.1451547,2.5579433 20.2300982,2.44762254 20.3151065,2.33723593 C20.3432696,2.33868492 20.3713677,2.34019977 20.3996606,2.34158289 C20.3465141,2.48167379 20.2426223,2.57921709 20.1314626,2.67056926" id="Fill-48" fill="#C3A634"></path>
                    <path d="M24.1466456,9.88151794 C24.2558586,9.85466142 24.3816839,9.93409741 24.4723378,9.78926407 C24.5236023,9.84184354 24.6309334,9.90549696 24.4843428,9.95955877 C24.3882379,9.99496054 24.2794143,9.96819123 24.1761714,9.96941198 C24.1759767,9.96923758 24.1485275,9.9785676 24.1485275,9.9785676 L24.1233494,9.9613899 C24.1167953,9.92729608 24.1245824,9.90061396 24.1466456,9.88151794" id="Fill-49" fill="#B57B31"></path>
                    <path d="M14.7362895,9.81271977 C14.6712679,9.93906745 14.5273378,9.8316414 14.468416,9.97603875 C14.4243544,9.92084339 14.3072895,9.85701557 14.4583577,9.80330255 C14.5443394,9.77269659 14.6432346,9.80740078 14.7362895,9.81271977" id="Fill-50" fill="#B57B31"></path>
                    <path d="M21.2315668,6.13406621 C21.2288496,6.09974648 21.22605,6.06559134 21.2233328,6.031107 C21.2969449,5.95423738 21.3703923,5.87745006 21.443675,5.80074503 C21.4801517,5.80387249 21.5169578,5.80699995 21.5536815,5.81004511 C21.5586219,6.02970788 21.4489448,6.13538304 21.2315668,6.13406621" id="Fill-51" fill="#E3BF2B"></path>
                    <path d="M15.3218087,8.16925359 C15.2114925,8.37625359 15.1012413,8.38442025 14.9910549,8.16858692 C15.1013062,8.16892025 15.2115574,8.16908692 15.3218087,8.16925359" id="Fill-52" fill="#B57330"></path>
                    <path d="M16.8686356,10.0542541 C16.811401,9.33697599 17.0135391,8.69634354 17.4699235,8.15040646 C17.9258536,7.60505795 18.5163045,7.30050248 19.2286223,7.23915977 C19.8776057,7.18324503 20.4793478,7.32136424 20.9996506,7.71368295 C21.7036622,8.24451325 22.0956739,8.95001987 22.0715341,9.85871606 C22.0698469,9.92385182 22.0732862,9.98918377 22.0743894,10.0543849 C21.3352712,10.3209445 20.5919351,10.5744901 19.8109617,10.6871043 C19.3429617,10.7545944 18.8820998,10.6757906 18.4346057,10.5511432 C17.9074243,10.4042608 17.3901714,10.2214752 16.8686356,10.0542541" id="Fill-53" fill="#F7CF23"></path>
                    <path d="M24.1466456,9.85845447 C24.1406755,9.87918543 24.1330183,9.89919702 24.1234143,9.91842384 C23.5664476,9.85217632 23.0110383,9.83164156 22.4612097,9.97460017 C22.4015092,9.89357285 22.385416,9.83288411 22.4985874,9.77173758 C23.0905308,9.45174834 23.68202,9.33756457 24.2799983,9.75244536 C24.2395058,9.78462086 24.1930433,9.82157036 24.1466456,9.85845447" id="Fill-54" fill="#F3CC27"></path>
                    <path d="M14.7984559,9.91600414 C14.9042945,9.86479801 15.0314825,9.83608858 15.1124676,9.75859272 C15.5503577,9.33887252 15.9781897,9.56070033 16.4119917,9.75689238 C16.5230865,9.80711755 16.5705874,9.86551738 16.4818153,9.97479636 C15.9250433,9.82686755 15.3623012,9.85570778 14.7984559,9.91600414" id="Fill-55" fill="#F3CB28"></path>
                    <path d="M22.7116922,1.42888321 C22.8171414,1.35738211 22.9035125,1.39042957 22.9731414,1.51503333 C22.6455025,1.53360617 22.3337621,1.71541081 22.0015158,1.68576401 C21.9809451,1.66832472 21.9741314,1.65105982 21.9812047,1.63396931 C21.9881481,1.616966 21.9950915,1.60850794 22.0020998,1.60850794 C22.0550516,1.60336335 22.105213,1.59028388 22.1360366,1.52279381 C22.2255874,1.43507416 22.3282463,1.49515253 22.4239617,1.47701567 C22.5220782,1.48495054 22.6111747,1.39531257 22.7116922,1.42888321" id="Fill-56" fill="#BFA134"></path>
                    <path d="M20.2537837,3.25711507 C20.0816905,3.3081904 19.936787,3.47220695 19.7314692,3.38424752 C19.9766306,3.28294702 20.2219218,3.18164652 20.5117937,3.06183858 C20.4398935,3.2217351 20.3439834,3.23468377 20.2537837,3.25711507" id="Fill-57" fill="#C3A534"></path>
                    <path d="M18.3046922,2.76284781 C18.371401,2.75264582 18.5074143,2.84516127 18.425975,2.61513699 C18.4481681,2.61156194 18.4702962,2.60798688 18.4924243,2.60432463 C18.5373295,2.5557562 18.5807421,2.56037761 18.6229867,2.61051558 C18.6724992,2.7135818 18.7484226,2.69605531 18.82201,2.68916679 C18.8449168,2.7209935 18.8678885,2.75290741 18.8908602,2.78473412 C18.6932646,2.88439968 18.496188,2.95720874 18.3046922,2.76284781" id="Fill-58" fill="#BE9E34"></path>
                    <path d="M19.9855857,2.794625 C20.0105691,2.79599834 20.0355524,2.79730629 20.0606007,2.79867964 C19.9024592,3.01553725 19.7063561,3.18792467 19.468203,3.31074089 C19.4408835,3.29838079 19.4203128,3.2785654 19.4055824,3.25247185 C19.5989601,3.09983444 19.7922729,2.94726242 19.9855857,2.794625" id="Fill-59" fill="#C3A634"></path>
                    <path d="M19.3429617,3.53889977 C19.3207687,3.56706423 19.2985757,3.59514149 19.2763178,3.62321875 C19.1199285,3.59810617 18.9455641,3.70195716 18.7572479,3.48300683 C18.9913777,3.46478277 19.1715175,3.37322648 19.3429617,3.53889977" id="Fill-60" fill="#CDAE32"></path>
                    <path d="M20.5842779,1.80505408 C20.7825225,1.53256512 21.050396,1.62133113 21.2892629,1.55985762 C21.3034093,1.58156954 21.3082113,1.60345585 21.3036689,1.62542936 C21.2992562,1.64757726 21.2947138,1.65856402 21.2901065,1.65865121 C21.2277454,1.70268543 21.148188,1.6490596 21.0908885,1.72204305 C20.9220399,1.74968433 20.7531265,1.77732561 20.5842779,1.80505408" id="Fill-61" fill="#BC9F35"></path>
                    <path d="M18.9471215,2.73014321 C19.127391,2.69195116 19.2177854,2.49543212 19.4037005,2.46724586 C19.4268669,2.44075993 19.4495141,2.44115232 19.4717072,2.46848841 C19.3376406,2.57279719 19.2027953,2.67632119 19.0696373,2.78187252 C18.9950765,2.84099172 18.9587371,2.81757947 18.9471215,2.73014321" id="Fill-62" fill="#C5A633"></path>
                    <path d="M21.2889384,1.65914522 C21.2888087,1.62727897 21.2889384,1.59541272 21.2892629,1.56377088 C21.5268968,1.56062913 21.7645308,1.55737519 22.0020998,1.55423344 C22.0021647,1.58755836 22.0020349,1.62077107 22.0015158,1.65387158 C21.8285141,1.66026727 21.6554476,1.66666296 21.482381,1.67317086 C21.416386,1.73207854 21.3514293,1.74621638 21.2889384,1.65914522" id="Fill-63" fill="#B89C35"></path>
                    <path d="M19.7312745,2.2127878 C19.837827,2.03159666 19.9830549,1.90658008 20.1955757,1.87945447 C20.0580699,2.01561311 19.9229651,2.15541945 19.7312745,2.2127878" id="Fill-64" fill="#C3A534"></path>
                    <path d="M17.7640657,2.73218705 C17.7579356,2.80377535 17.709413,2.84344974 17.6511341,2.8198195 C17.6080509,2.80238021 17.5616867,2.74413297 17.5541752,2.69791884 C17.5421741,2.62388904 17.609864,2.60688572 17.6697834,2.61107116 C17.7405815,2.61595416 17.7595761,2.67036475 17.7640657,2.73218705" id="Fill-65" fill="#BB9F35"></path>
                    <path d="M19.4720726,2.54062472 C19.4493036,2.54004051 19.4265347,2.53953976 19.4037005,2.53903901 C19.4891656,2.38814601 19.5679109,2.22648685 19.734209,2.20729139 C19.6743182,2.35367764 19.5817419,2.45816771 19.4720726,2.54062472" id="Fill-66" fill="#C3A534"></path>
                    <path d="M19.4055824,3.25247185 C19.4265424,3.2784564 19.4473727,3.30435375 19.4682679,3.3302511 C19.3226506,3.40009547 19.1754759,3.45642439 19.0181131,3.42285375 C19.0022146,3.40332174 18.9968935,3.38378974 19.0021498,3.36425773 C19.007406,3.34481291 19.0126622,3.33495971 19.0179834,3.33495971 C19.1541913,3.36669923 19.2765125,3.28054912 19.4055824,3.25247185" id="Fill-67" fill="#BDA035"></path>
                    <path d="M19.0753461,3.34110733 C19.0754324,3.37040534 19.0754324,3.39979055 19.0755187,3.42900137 C18.975279,3.42786781 18.886954,3.40197046 18.8456839,3.29890424 C18.8389495,3.28207532 18.8610523,3.23376848 18.8687365,3.23403007 C18.9528308,3.23690755 19.0261327,3.26690313 19.0753461,3.34110733" id="Fill-68" fill="#C4A634"></path>
                    <path d="M21.2889384,1.61537997 C21.3534409,1.62156554 21.4179434,1.62775111 21.482381,1.63408755 C21.3649268,1.88513126 21.2220349,1.7326041 21.0908885,1.76790713 C21.1401414,1.599388 21.2178819,1.63076846 21.2889384,1.61537997" id="Fill-69" fill="#E9C329"></path>
                    <path d="M18.4335674,6.19581043 C18.3709468,5.83259354 18.3849634,5.47624338 18.5067654,5.12139735 C18.6428436,5.15546937 18.6370682,5.27880877 18.7002729,5.34577566 C18.7687987,5.44289073 18.8187654,5.5646606 18.9087055,5.63300083 C19.4081131,6.01250166 19.0702213,6.45596109 19.0088336,6.87437334 C18.9931947,6.98097103 18.9644476,6.9766548 18.8179867,6.78759106 C18.5889185,6.65699255 18.490802,6.43987334 18.4335674,6.19581043" id="Fill-70" fill="#F3CB25"></path>
                    <path d="M19.7361414,5.93579056 C19.89,5.68335679 19.9321148,5.37507368 20.1257521,5.14284768 C20.1532662,5.10982202 20.1715657,5.02696358 20.2354193,5.09164156 C20.258975,5.11557699 20.2497604,5.17234189 20.2555358,5.21413079 C20.2779884,5.31922434 20.2742895,5.44047103 20.3270466,5.52666474 C20.6228885,6.00942798 20.4271098,6.4038394 20.1273095,6.78549834 C20.0824692,6.84147848 20.0717621,6.94729139 19.987208,6.94297517 C19.9056389,6.93872434 19.9282862,6.84206705 19.9155025,6.7841904 C19.853401,6.50193543 19.7955175,6.2186995 19.7361414,5.93579056" id="Fill-71" fill="#F4CC25"></path>
                    <path d="M16.6258103,7.83139818 C16.3564443,7.71878394 16.1223145,7.56065315 15.9604742,7.30893874 C15.8780616,7.15989818 15.7638519,7.02727235 15.7252413,6.84527152 C16.0469101,6.91367715 16.361376,6.98535265 16.6780483,7.04597599 C16.8309334,7.07520861 16.8699334,7.20606871 16.9363178,7.31011589 C17.0570166,7.49944123 17.1131481,7.72604305 17.2639567,7.89908444 C17.2253461,8.08206623 17.1136672,7.95048675 17.0455957,7.93969619 C16.9226905,7.92020778 16.8045874,7.86972103 16.6844725,7.83211755 C16.6645507,7.86357368 16.6449534,7.86481623 16.6258103,7.83139818" id="Fill-72" fill="#F2CB25"></path>
                    <path d="M17.5231348,6.98136341 C17.0745374,6.70283609 17.0432596,6.22144619 16.954228,5.77236258 C16.9376156,5.68852318 17.0230782,5.72900414 17.0690216,5.73881374 C17.1530566,5.90263411 17.3108087,5.99961838 17.4614226,6.05448675 C17.8574576,6.19881871 17.9860732,6.48689404 17.9800383,6.87528891 C17.979,6.94088245 17.9869168,7.00451407 18.0412313,7.05114238 C18.025787,7.14027897 18.0745857,7.23739404 18.0021664,7.33496689 C17.8405857,7.21568212 17.6818602,7.09855546 17.5231348,6.98136341" id="Fill-73" fill="#F3CC25"></path>
                    <path d="M21.229822,6.0656043 C21.3351414,6.00046854 21.4204093,5.91532119 21.4836789,5.80813493 C21.5591481,5.7817798 21.6029501,5.658375 21.6966539,5.70905795 C21.7855557,5.757125 21.7367571,5.86234934 21.7423378,5.94265728 C21.7468153,6.00583113 21.739223,6.06985513 21.7370166,6.13348675 C21.6607038,6.32510099 21.7589501,6.53358775 21.6804958,6.72507119 C21.4219667,6.91236921 21.2314443,7.18723427 20.9283993,7.32371854 C20.840406,7.15662831 20.9890083,7.00843791 20.9566273,6.84958775 C20.9648037,6.55896192 21.0069834,6.28030381 21.229822,6.0656043" id="Fill-74" fill="#F4CC25"></path>
                    <path d="M22.2619917,7.89463742 C22.6466057,7.84657036 22.9888453,7.65168626 23.3642446,7.5717707 C22.9831348,8.03883858 22.4844409,8.3813899 22.0701065,8.81320861 C21.9056057,8.59739735 21.6880882,8.4059793 21.7420782,8.08965232 C21.8875008,7.94911341 22.0619301,7.88724752 22.2619917,7.89463742" id="Fill-75" fill="#F2CA25"></path>
                    <path d="M16.6239933,6.58054305 C16.5578037,6.37218709 16.5578037,6.37218709 16.6755824,6.39533775 C16.9043261,6.65130298 17.1912779,6.83565811 17.460579,7.04159437 C17.4867304,7.060625 17.5140499,7.07828228 17.5387737,7.09901325 C18.0100183,7.4950596 18.0019068,7.48642715 17.5643411,7.89522599 C17.4108719,8.03864238 17.3785557,7.94329305 17.3208669,7.83205215 C17.056822,7.43280132 16.9287255,6.95670861 16.6239933,6.58054305" id="Fill-76" fill="#F4CC24"></path>
                    <path d="M22.0665374,6.58387831 C22.1509617,6.52358195 22.235386,6.4632856 22.3968369,6.34799007 C22.0875624,6.94101325 21.8211814,7.45196275 21.5548652,7.96291225 C21.3000349,7.91667632 21.1794659,7.68294619 21.0029601,7.5346904 C20.9100349,7.45673675 21.0771963,7.35628642 21.1523411,7.29546689 C21.4524659,7.05251573 21.7610915,6.82015894 22.0665374,6.58387831" id="Fill-77" fill="#F1CA26"></path>
                    <path d="M22.7820349,9.00253394 C23.1284276,9.03856788 23.4836456,8.95564404 23.8342562,9.06976242 C23.7881181,9.17250166 23.6824093,9.15307864 23.6252396,9.20984354 C23.2292696,9.37327152 22.8325208,9.53454139 22.4379135,9.70097765 C22.2747105,9.76984106 22.1824343,9.76859851 22.1919734,9.54461258 C22.1996955,9.36189238 22.1377238,9.18466556 22.0707554,9.01365149 C22.3078702,9.00998924 22.5449201,9.00626159 22.7820349,9.00253394" id="Fill-78" fill="#F4CD24"></path>
                    <path d="M15.1874176,9.14621192 C15.0841098,8.97088162 15.2654825,9.02287252 15.3068186,9.02051821 C15.5907854,9.00416887 15.8757255,9.00423427 16.1602762,8.99893709 C16.3975208,9.00397268 16.6347654,9.00907368 16.8719451,9.01424007 C16.7407987,9.25562169 16.7951131,9.54206209 16.6862246,9.78874089 C16.2098536,9.5195654 15.6805308,9.37582202 15.1874176,9.14621192" id="Fill-79" fill="#F4CD24"></path>
                    <path d="M18.0427887,5.73946772 C18.1527804,5.9126399 18.262772,6.08574669 18.3726988,6.25885348 C18.566985,6.41240646 18.6549784,6.63626159 18.7575724,6.85043791 C18.8954676,7.05035762 18.8991015,7.19867881 18.612604,7.23824421 C18.5810666,7.24256043 18.5501131,7.25478974 18.520198,7.26662666 C18.1290948,7.42142219 18.1291597,7.42161838 18.1024892,6.9816904 C18.0689401,6.61082202 17.9501231,6.24982864 17.9764043,5.87215894 C17.9416223,5.7989793 17.9228037,5.73390894 18.0427887,5.73946772" id="Fill-80" fill="#F5CD24"></path>
                    <path d="M19.5327055,5.5422947 C19.5540549,5.58617632 19.5754692,5.63012334 19.5967537,5.67407036 C19.6009717,5.73894454 19.6052546,5.80381871 19.6095374,5.86862748 C19.6827354,6.21660679 19.7490549,6.56622103 19.8320516,6.91178063 C19.8679368,7.06147517 19.8229018,7.09927483 19.681178,7.11320447 C19.0887804,7.17147351 19.0707404,7.14420281 19.1833278,6.56242798 C19.2404326,6.26728974 19.3569784,5.98137252 19.3420532,5.67295861 C19.3648952,5.62940397 19.3877371,5.58584934 19.410579,5.5422947 C19.4512662,5.50357947 19.4920183,5.50357947 19.5327055,5.5422947" id="Fill-81" fill="#F5CD24"></path>
                    <path d="M16.6258103,7.83139818 C16.6453428,7.83120199 16.6648752,7.83146358 16.6844725,7.83211755 C16.7199035,8.01817301 16.8910882,7.99338742 17.0107488,8.03144868 C17.2204792,8.09808858 17.3488353,8.16760596 17.1522779,8.39394619 C17.0428053,8.51996689 17.0400799,8.72191391 16.8740865,8.81294702 C16.4986872,8.42756043 16.0594343,8.11012169 15.7077205,7.69949172 C15.9631348,7.66005712 16.1818852,7.80994785 16.4238669,7.84160017 C16.4934958,7.85075579 16.5620216,7.91661093 16.6258103,7.83139818" id="Fill-82" fill="#F3CB25"></path>
                    <path d="M20.9662962,5.93749089 C20.9352779,6.21817632 20.8730466,6.49631126 20.8979002,6.7815745 C20.8788869,6.81885099 20.8478037,6.85449255 20.8424825,6.89366556 C20.7745408,7.3938245 20.7813544,7.37289735 20.3243211,7.24406457 C20.0422363,7.16447599 20.0572912,7.04290232 20.1851281,6.84899917 C20.4238003,6.47943874 20.6624725,6.10994371 20.9010799,5.74044868 C21.0598702,5.76000248 20.9854393,5.85803311 20.9662962,5.93749089" id="Fill-83" fill="#F6CE24"></path>
                    <path d="M18.7575724,6.85043791 C18.5900865,6.67909685 18.504624,6.45367219 18.3726339,6.25885348 C18.3929451,6.23786093 18.4132562,6.21686838 18.4335674,6.19581043 C18.5617288,6.39304884 18.6898902,6.59028725 18.8180516,6.78759106 C18.7978702,6.80851821 18.7776889,6.82944536 18.7575724,6.85043791" id="Fill-84" fill="#C2A434"></path>
                    <path d="M22.2619917,7.90756514 C22.1068353,8.03640108 21.9219584,8.07442429 21.7420782,8.12773062 C21.7427271,8.10432604 21.7428569,8.08092146 21.7425973,8.05751688 C21.7425973,8.03573659 21.7424027,8.01388247 21.7421431,7.99202835 C21.8870466,7.81298701 22.0551814,7.73819571 22.2632895,7.84096914 C22.26303,7.86319241 22.2626406,7.88534186 22.2619917,7.90756514" id="Fill-85" fill="#C0A334"></path>
                    <path d="M21.6906869,6.72507119 C21.7387688,6.52815977 21.5552728,6.32085017 21.812784,6.13342136 C21.7778791,6.33092136 21.9503008,6.53764238 21.6906869,6.72507119" id="Fill-86" fill="#F1CA26"></path>
                    <path d="M15.8258885,1.61858444 C15.8943494,1.61910762 15.9628103,1.61971799 16.0312063,1.62024117 C16.107584,1.75208223 16.2242596,1.66732726 16.311604,1.71406457 C16.423802,1.77423013 16.3135507,1.77440453 16.2896705,1.79585486 C16.1229634,1.79376214 15.9535308,1.80492329 15.8258885,1.61858444" id="Fill-87" fill="#BDA035"></path>
                    <path d="M16.4925225,1.84079474 C16.5196473,1.77086317 16.5693544,1.76336427 16.6197105,1.75752211 C16.7071198,1.68279474 16.8039384,1.73197354 16.8961498,1.71967884 C16.9580566,1.73816449 17.0196389,1.75760931 17.070579,1.81324065 C17.0914742,1.85064794 17.0915391,1.88822962 17.0707737,1.92581129 C16.8780449,1.89747244 16.6853161,1.86913359 16.4925225,1.84079474" id="Fill-88" fill="#B99D35"></path>
                    <path d="M18.6337081,2.60046026 C18.5887729,2.59895613 18.5439048,2.59738659 18.4988355,2.59588245 C18.5039326,2.43238907 18.3685234,2.33612417 18.3031997,2.20637583 C18.5413562,2.23567384 18.5404844,2.45560513 18.6337081,2.60046026" id="Fill-89" fill="#C4A633"></path>
                    <path d="M17.5976306,1.88305132 C17.7462978,1.94112417 17.89503,1.99910982 18.0436972,2.05718267 C18.0625807,2.07531954 18.0689401,2.09363079 18.0627754,2.11202925 C18.0566106,2.1304277 18.050381,2.13967053 18.0440865,2.13967053 C17.8995075,2.04087693 17.694579,2.13147406 17.5976306,1.88305132" id="Fill-90" fill="#BC9F35"></path>
                    <path d="M17.0707737,1.89881244 C17.0707088,1.87335107 17.0706439,1.8478897 17.0706439,1.82242833 C17.089787,1.79225835 17.1113311,1.78720096 17.1357304,1.81100559 C17.2633727,1.84422745 17.391015,1.87736211 17.5185275,1.91058396 C17.3666156,2.08846476 17.2209983,1.83350228 17.0707737,1.89881244" id="Fill-91" fill="#B89C35"></path>
                    <path d="M18.0441907,2.09615949 C18.0441085,2.06860541 18.0440262,2.04105132 18.0436972,2.01358444 C18.1677407,2.07976656 18.3152274,2.11220364 18.3742056,2.27194757 C18.2420187,2.26035044 18.1299847,2.20585265 18.0441907,2.09615949" id="Fill-92" fill="#C0A334"></path>
                    <path d="M22.4547854,1.56811013 C22.3484925,1.57527858 22.2421997,1.58244704 22.1360366,1.58977842 C22.0859401,1.57804822 22.0360383,1.56615509 22.0081348,1.43777451 C22.1575807,1.43288693 22.3068319,1.42799934 22.4562779,1.42311175 C22.4786007,1.4568361 22.4858037,1.48942 22.4779517,1.5211893 C22.4702296,1.55246985 22.4625724,1.56811013 22.4547854,1.56811013" id="Fill-93" fill="#F6CE23"></path>
                    <path d="M23.3067504,8.81314321 C23.1712562,9.02346109 22.9598386,8.91058526 22.7815158,8.93850993 C22.6204542,8.81163907 22.4228586,8.92889652 22.2403178,8.8529048 C22.6428419,8.21410348 23.2053894,7.96186589 23.950218,8.11796937 C23.7473012,8.35451159 23.4812446,8.54246358 23.3067504,8.81314321" id="Fill-94" fill="#F3CC25"></path>
                    <path d="M16.0293245,8.94086424 C15.8409434,8.96381871 15.6727438,8.9046995 15.5127205,8.81222765 C15.3271947,8.6580207 15.0859268,8.56489487 14.9586739,8.29977401 C15.2890383,8.29166474 15.5935757,8.25033361 15.8923378,8.17336093 C16.0205641,8.14040066 16.0988236,8.23777732 16.1752662,8.30193212 C16.3640366,8.4604553 16.5367787,8.6382707 16.7361913,8.82753063 C16.4888885,8.95028146 16.2338636,8.79470116 16.0293245,8.94086424" id="Fill-95" fill="#F3CC25"></path>
                    <path d="M17.2013807,1.84629718 C17.172457,1.85013382 17.1436198,1.85388327 17.1147825,1.85771992 C17.0555538,1.82903228 16.9963252,1.80034464 16.9370965,1.771657 C16.9579042,1.73494729 16.9877776,1.70835237 17.0255078,1.69047709 C17.0963059,1.68794839 17.1618373,1.69788879 17.2012943,1.76799475 C17.201208,1.79415369 17.201208,1.82022543 17.2013807,1.84629718" id="Fill-96" fill="#EFC827"></path>
                    <path d="M22.4547854,1.52236631 C22.4562877,1.49625192 22.4569554,1.47022547 22.456705,1.44411109 C22.5657895,1.40384043 22.673789,1.28443528 22.7852938,1.43936302 C22.6839713,1.50609977 22.5763891,1.5449636 22.4547854,1.52236631" id="Fill-97" fill="#E9C329"></path>
                    <path d="M22.2632895,7.83564901 C22.0895092,7.8801846 21.9158586,7.9247856 21.7421431,7.96938659 C21.8131348,7.55032036 22.0292895,7.21391639 22.3287654,6.92512169 C22.5529018,6.88379056 22.7247354,6.65241474 23.0325824,6.75168791 C22.7410882,7.10391805 22.8615923,7.71054387 22.2632895,7.83564901" id="Fill-98" fill="#F4CC25"></path>
                    <path d="M18.0873166,5.74816963 C18.0160868,5.77767603 18.0050354,5.83134893 17.9989916,5.88700717 C17.8874414,5.77740219 17.8712097,5.666428 17.9913938,5.55367384 C18.0233393,5.61864269 18.0553711,5.68340616 18.0873166,5.74816963" id="Fill-99" fill="#E3BF2B"></path>
                    <path d="M17.0035458,1.70421032 C16.9814176,1.75167364 16.9592895,1.79913697 16.9370965,1.84675341 C16.8312579,1.84338504 16.7254193,1.84001668 16.6196456,1.8364952 C16.7335957,1.56564802 16.8748003,1.73575046 17.0035458,1.70421032" id="Fill-100" fill="#F0C926"></path>
                    <path d="M20.9878722,5.93749089 C20.9783749,5.86686175 21.0038449,5.78740397 20.901015,5.74038328 C20.9317517,5.67838659 20.9623158,5.6163245 20.9930525,5.55445861 C21.1261875,5.68322599 21.1047754,5.81075083 20.9878722,5.93749089" id="Fill-101" fill="#E3BF2B"></path>
                    <path d="M19.5736992,5.5949606 L19.4105584,5.5949606 C19.4259801,5.5134319 19.3643799,5.37191204 19.5115792,5.3851659 C19.5966584,5.39283919 19.5717065,5.51683256 19.5736992,5.5949606" id="Fill-102" fill="#F3CB25"></path>
                </g>
            </g>
        </g>
    </g>
</svg>