<?xml version="1.0" encoding="UTF-8" standalone="no"?>
<svg width="36px" height="28px" viewBox="0 0 36 28" version="1.1" xmlns="http://www.w3.org/2000/svg" xmlns:xlink="http://www.w3.org/1999/xlink">
    <!-- Generator: Sketch 40.1 (33804) - http://www.bohemiancoding.com/sketch -->
    <title>NC</title>
    <desc>Created with Sketch.</desc>
    <defs>
        <filter x="-50%" y="-50%" width="200%" height="200%" filterUnits="objectBoundingBox" id="filter-1">
            <feOffset dx="0" dy="2" in="SourceAlpha" result="shadowOffsetOuter1"></feOffset>
            <feGaussianBlur stdDeviation="2" in="shadowOffsetOuter1" result="shadowBlurOuter1"></feGaussianBlur>
            <feColorMatrix values="0 0 0 0 0   0 0 0 0 0   0 0 0 0 0  0 0 0 0.5 0" type="matrix" in="shadowBlurOuter1" result="shadowMatrixOuter1"></feColorMatrix>
            <feMerge>
                <feMergeNode in="shadowMatrixOuter1"></feMergeNode>
                <feMergeNode in="SourceGraphic"></feMergeNode>
            </feMerge>
        </filter>
        <rect id="path-2" x="0" y="0" width="28" height="20" rx="2"></rect>
        <polygon id="path-4" points="0.0032712766 21 40.9530027 21 40.9530027 0.0204414894 0.0032712766 0.0204414894"></polygon>
    </defs>
    <g id="Page-1" stroke="none" stroke-width="1" fill="none" fill-rule="evenodd">
        <g id="NC" filter="url(#filter-1)" transform="translate(4.000000, 2.000000)">
            <mask id="mask-3" fill="white">
                <use xlink:href="#path-2"></use>
            </mask>
            <use id="Mask" fill="#FFFFFF" xlink:href="#path-2"></use>
            <rect id="Mask-Copy" fill="#95CEF5" mask="url(#mask-3)" x="0" y="0" width="28" height="20"></rect>
            <g id="6" mask="url(#mask-3)">
                <g transform="translate(-5.000000, 0.000000)">
                    <g id="Group-4" stroke-width="1" fill="none">
                        <mask id="mask-5" fill="white">
                            <use xlink:href="#path-4"></use>
                        </mask>
                        <g id="Clip-2"></g>
                        <path d="M0.00376196808,7.01489362 C0.00376196808,4.73901862 0.00534308511,2.46314362 -1.69829099e-13,0.187324468 C-0.00032712766,0.0483111702 0.0273696809,0.0204414894 0.163018617,0.0204414894 C13.7053404,0.024462766 27.2476622,0.024462766 40.7900386,0.0204414894 C40.925633,0.0204414894 40.9533843,0.0483111702 40.9530027,0.187324468 C40.9477141,2.46314362 40.9492407,4.73901862 40.9492407,7.01489362 C40.8912846,7.0849867 40.8160997,7.111125 40.7280479,7.11369415 C40.6144255,7.11704521 40.5008577,7.11810638 40.3872899,7.11810638 C33.6307407,7.11821809 26.874246,7.11832979 20.1176968,7.11771543 C19.9590944,7.11771543 19.7991835,7.13033777 19.6436343,7.08716489 C19.5062952,7.07660904 19.4310559,6.97831117 19.3662301,6.87135638 C18.6987261,5.76980585 17.7942726,4.93192819 16.667863,4.34873138 C15.9178138,3.96034309 15.1210399,3.73827926 14.2814122,3.65221277 C13.1069694,3.53179787 11.9892287,3.73146543 10.9173404,4.21703457 C9.71678191,4.76091223 8.75846144,5.60269947 8.02945745,6.72128457 C7.93562633,6.86526862 7.86905585,7.04656117 7.66923537,7.08521011 C7.55801197,7.11732447 7.44444415,7.11782713 7.33082181,7.11782713 C5.02266356,7.11821809 2.7144508,7.1191117 0.406292553,7.1162633 C0.266554521,7.11609574 0.113676862,7.14882447 0.00376196808,7.01489362" id="Fill-1" fill="#223B83" mask="url(#mask-5)"></path>
                        <path d="M40.9492407,14.0056037 C40.9492407,16.2814229 40.9477141,18.5572979 40.9530027,20.8331729 C40.9533843,20.9721303 40.925633,21.0000559 40.7900386,21 C27.2476622,20.9959787 13.7053404,20.9959787 0.163018617,21 C0.0273696809,21.0000559 -0.00032712766,20.9721303 -1.69855855e-13,20.8331729 C0.00534308511,18.5572979 0.00376196808,16.2814229 0.00376196808,14.0056037 C0.0920864362,13.8922819 0.218139628,13.9049043 0.337922872,13.9040665 C0.958156915,13.9002128 1.57833644,13.9025585 2.19851596,13.9024468 C3.87749867,13.9021676 5.5565359,13.9020559 7.23551862,13.9027819 C7.37890957,13.9028378 7.52333644,13.8935665 7.66334707,13.9343378 C7.82009574,13.9522101 7.88792021,14.0805 7.96206915,14.1958883 C8.23729255,14.6244894 8.53476064,15.037117 8.89438298,15.3939495 C9.97613963,16.4673511 11.2575532,17.1529787 12.7562886,17.3444362 C14.762617,17.6008484 16.5425186,17.0436223 18.0868338,15.694484 C18.576871,15.2663856 18.9655532,14.7575266 19.3270293,14.2202952 C19.4077753,14.1002713 19.472492,13.9605319 19.6373644,13.9349521 C19.7562207,13.9002128 19.8777487,13.9025585 19.9989495,13.9025585 C26.8404428,13.9021117 33.6819907,13.9017766 40.523484,13.9041782 C40.6702008,13.904234 40.8316928,13.8656968 40.9492407,14.0056037" id="Fill-3" fill="#018D45" mask="url(#mask-5)"></path>
                    </g>
                    <path d="M40.9492407,14.0056037 C33.9234109,14.0056037 26.8975266,14.0056037 19.8716968,14.0054362 C19.7731769,14.0054362 19.6746024,14.0034255 19.576137,14.0023085 C19.5016609,13.8913883 19.5611981,13.7923644 19.6095585,13.698758 C20.1855213,12.5839149 20.4395904,11.3921649 20.3738378,10.1380851 C20.3227513,9.16259043 20.0801316,8.23105053 19.6301676,7.36217553 C19.5755918,7.25672872 19.4940279,7.14865691 19.5777181,7.01802128 C20.3431423,7.01696011 21.1085665,7.01506117 21.8739907,7.01500532 C28.2324255,7.01478191 34.5908604,7.01489362 40.9492407,7.01489362 L40.9492407,14.0056037" id="Fill-5" fill="#DC3E31"></path>
                    <path d="M7.72800931,14.0023085 C5.15324202,14.0034255 2.57852926,14.0044867 0.00376196809,14.0056037 L0.00376196809,7.01489362 C2.57820213,7.01584309 5.15258777,7.0168484 7.7269734,7.01779787 C7.79850532,7.11933511 7.74551064,7.21020479 7.7003125,7.29856117 C7.3323484,8.01825798 7.0845492,8.77939628 6.98134043,9.58443351 C6.81837633,10.855492 6.98139495,12.0834335 7.48691622,13.2597128 C7.55686702,13.4224069 7.61765824,13.5892899 7.70958112,13.7423218 C7.75636037,13.820234 7.79398005,13.9105452 7.72800931,14.0023085" id="Fill-6" fill="#DC3E31"></path>
                    <path d="M7.72800931,14.0023085 C7.26539628,13.1308085 6.95784176,12.2109415 6.8631383,11.2173511 C6.72776197,9.79772872 6.98755585,8.46232979 7.63657713,7.20339096 C7.66809043,7.14228989 7.69687766,7.0797367 7.7269734,7.01779787 C8.31651197,6.03057447 9.0704867,5.21129521 10.0283165,4.58498138 C12.7814229,2.78473404 16.5469894,3.31844681 18.7162819,5.82252926 C19.039266,6.19533511 19.3138896,6.60193085 19.5777181,7.01802128 C19.9724521,7.77206649 20.2650133,8.56096277 20.3919388,9.41218883 C20.6270891,10.9891436 20.3728019,12.4757872 19.6345293,13.877984 C19.6132114,13.9183644 19.595492,13.9608112 19.576137,14.0023085 C18.8486596,15.2452739 17.8659681,16.2093191 16.5812832,16.827367 C13.4191037,18.34875 9.73728191,17.242117 7.86360372,14.2168324 C7.81905984,14.1448963 7.77320745,14.0738537 7.72800931,14.0023085" id="Fill-7" fill="#0A0B09"></path>
                    <path d="M13.8010798,12.4895266 C14.1870904,12.5626356 14.4481383,12.7877154 14.60625,13.1424814 C14.777883,13.5274069 14.9351223,13.9193138 15.1811223,14.2846356 C15.2342806,14.1450638 15.1682553,14.0329707 15.1528803,13.918141 C15.0994495,13.5190293 15.0403484,13.1206995 14.9846277,12.721867 C14.912387,12.2044069 14.6867234,11.9621809 14.1803843,11.8640505 C14.0837726,11.8453404 13.986234,11.8299814 13.8885319,11.8197048 C13.8307939,11.8137287 13.7806888,11.8108245 13.7907753,11.7309016 C13.7994987,11.6614229 13.8529295,11.6766144 13.8938205,11.6762793 C14.1136503,11.6746037 14.3339707,11.6836516 14.5532008,11.6713085 C14.6413617,11.6663936 14.7897141,11.7605027 14.7936941,11.5419016 C14.7980013,11.3071037 14.6380904,11.4048431 14.5426782,11.3994814 C14.3310266,11.3874734 14.1182846,11.3971915 13.9060332,11.3945106 C13.8600173,11.3938963 13.793992,11.4203138 13.7894668,11.3296117 C13.7851596,11.2443271 13.8485133,11.2568936 13.8961649,11.2450532 C14.0658896,11.2028856 14.2307074,11.1509441 14.3699548,11.0347181 C14.6281676,10.819133 14.6258231,10.5207207 14.3642301,10.3073697 C14.2303258,10.198125 14.0741223,10.1455691 13.9116489,10.1043511 C13.8597992,10.0912261 13.7763816,10.1096011 13.7908843,10.0100186 C13.8052234,9.91088298 13.8855878,9.9542234 13.9359109,9.95316223 C14.1708431,9.94824734 14.4059934,9.94824734 14.6409255,9.95232447 C14.7348657,9.9538883 14.7938577,9.94880585 14.7942939,9.82096277 C14.7946755,9.69351064 14.7506769,9.6653617 14.6372181,9.66910372 C14.4100279,9.67669947 14.1822926,9.67513564 13.9550479,9.66865691 C13.899109,9.66703723 13.8014069,9.71987234 13.7931197,9.6076117 C13.7841782,9.4865266 13.8870053,9.54003191 13.9431622,9.53059309 C14.0699242,9.50931383 14.1997394,9.50473404 14.3253564,9.47826064 C14.7579282,9.38705585 14.9928059,9.1063484 15.0170678,8.65468085 C15.032879,8.36045745 15.1115532,8.07684574 15.1724535,7.71638298 C14.9320146,7.96525532 14.792113,8.20396277 14.6650239,8.45004255 C14.5090386,8.75202926 14.3023484,8.98481649 13.9540665,9.03742819 C13.899109,9.04569415 13.8180904,9.1191383 13.7907207,8.99799734 C13.7685306,8.89969947 13.8256689,8.86741755 13.9066875,8.83647606 C14.3393684,8.67115691 14.5645412,8.35766489 14.5617061,7.93738564 C14.5589801,7.52967287 14.3340253,7.21858245 13.9109402,7.0588484 C13.8155824,7.02282447 13.7730559,6.97708245 13.7884309,6.87599202 C13.7907753,6.86080053 13.7900665,6.84482713 13.7885944,6.82946809 C13.7436689,6.36227394 13.784996,5.9402633 14.1903617,5.6121383 C14.3999415,5.44257447 14.5186888,5.17024468 14.6513936,4.92617553 C14.7172553,4.80503457 14.7797912,4.67953723 14.7398271,4.50662234 C14.4521729,4.75789628 14.1564495,4.9741516 13.7888125,5.10914362 C13.7888125,4.68646277 13.7937194,4.2842234 13.7866316,3.88220745 C13.7834149,3.70018883 13.9050519,3.75598404 13.9882513,3.76128989 C15.109754,3.83283511 16.1646862,4.139625 17.1129747,4.76376064 C18.9455439,5.96980851 19.9975864,7.68108511 20.2125638,9.91144149 C20.4878963,12.7674973 18.884371,15.5451383 16.3068777,16.701758 C16.1803338,16.7586144 16.1090199,16.734766 16.0175878,16.6370266 C15.697766,16.2951064 15.3613697,15.9693271 15.0434561,15.6256755 C14.7456064,15.3035266 14.3831489,15.1469202 13.9579375,15.1175984 C13.891367,15.1129628 13.7845598,15.1407766 13.7922473,15.0172899 C13.7982992,14.9213378 13.7379441,14.8123723 13.8824255,14.7405479 C14.6059229,14.3809229 14.552492,12.881992 13.8538019,12.6034628 C13.8146011,12.5878803 13.7892487,12.5654282 13.8010798,12.4895266" id="Fill-8" fill="#F8E71B"></path>
                    <path d="M12.1209521,14.2272766 C12.3649894,13.9244521 12.5123604,13.5790133 12.6550426,13.2312846 C12.7832766,12.9186862 12.9789535,12.6727739 13.2963763,12.5480027 C13.3625652,12.5219761 13.4334428,12.5083484 13.5183324,12.4845 C13.5054654,12.5349335 13.506883,12.5672154 13.4937434,12.5756489 C12.8697473,12.9768271 12.7041662,13.8883165 13.1432806,14.4996622 C13.2171024,14.6024282 13.3024827,14.6960346 13.4159415,14.7380346 C13.5688191,14.7945559 13.5081915,14.9141888 13.5126622,15.0109787 C13.5185505,15.1374814 13.407109,15.1060931 13.3451184,15.1076569 C12.8068298,15.1214521 12.3722407,15.3474255 12.0052035,15.7453644 C11.740012,16.0330532 11.446742,16.2934309 11.177734,16.5776569 C11.0788324,16.6821543 11.0058285,16.7063378 10.8725785,16.6384229 C8.79989761,15.5803245 7.50643484,13.9030053 7.15139229,11.5521223 C6.78184707,9.10539894 7.55583112,7.03745745 9.35574202,5.39487766 C10.4783896,4.37034574 11.8242473,3.86103989 13.3208019,3.75576064 C13.4850199,3.74419947 13.524875,3.79502394 13.5195319,3.95727128 C13.5075372,4.32192287 13.5091729,4.68741223 13.5190957,5.05217553 C13.5229668,5.1946516 13.4912354,5.2839016 13.3525332,5.33539628 C13.2471436,5.37449202 13.1482965,5.43603989 13.0522846,5.49725266 C12.8154441,5.64810638 12.6926077,5.86564628 12.6983324,6.15607181 C12.7005678,6.27240957 12.6991503,6.38941755 12.6902088,6.50530851 C12.67925,6.64666755 12.7236848,6.68101596 12.8371436,6.59506117 C13.0340199,6.44605053 13.2784388,6.4024867 13.5156609,6.24733245 C13.5156609,6.49408245 13.5114082,6.70670745 13.5176237,6.91905319 C13.5204043,7.01483777 13.4612487,7.03002926 13.3961503,7.05583245 C12.9622154,7.22729521 12.7399322,7.53548138 12.7427673,7.95698936 C12.7454934,8.36475798 12.9740465,8.67735638 13.3938604,8.8359734 C13.4728072,8.86579787 13.5390505,8.89417021 13.5135891,8.99386436 C13.4809854,9.12170745 13.3948418,9.04211968 13.3322513,9.0327367 C13.0099215,8.98436968 12.8082473,8.77129787 12.6633298,8.4942766 C12.5557048,8.28868883 12.4376662,8.09086436 12.3001636,7.90555053 C12.2567646,7.84707447 12.2292314,7.76385638 12.123133,7.76380053 C12.2131476,8.092875 12.2665785,8.42295479 12.2952566,8.7595133 C12.3278059,9.14125532 12.5897806,9.40079521 12.990621,9.48021543 C13.1165106,9.505125 13.2458896,9.51126862 13.3730878,9.53042553 C13.4246104,9.53824468 13.510754,9.49563032 13.5119535,9.59649734 C13.5134255,9.715125 13.4157234,9.66770745 13.3606569,9.66899202 C13.1257247,9.67452128 12.8904654,9.6759734 12.6556423,9.66927128 C12.5507979,9.66631117 12.5100705,9.69323138 12.5109428,9.80968085 C12.5117606,9.92171809 12.5435465,9.956625 12.6526436,9.95327394 C12.8950997,9.94578989 13.137883,9.94891755 13.3804481,9.95271543 C13.4307713,9.95349734 13.5103723,9.91535106 13.514516,10.0219707 C13.5179508,10.1097686 13.4488178,10.0896622 13.4034561,10.1016144 C13.2344402,10.1464628 13.0701676,10.1996888 12.9311383,10.3156356 C12.6810492,10.5240718 12.6789774,10.817234 12.9263404,11.0266197 C13.0644973,11.1436277 13.2287154,11.1973005 13.3975133,11.2425399 C13.4507806,11.2568378 13.5300545,11.2418697 13.5134255,11.3413404 C13.4994136,11.4255638 13.4319162,11.3933936 13.3868816,11.3941197 C13.1594189,11.3975824 12.9319016,11.3942314 12.7044934,11.3964654 C12.6145332,11.397359 12.5101795,11.3562527 12.5092527,11.5304521 C12.5083258,11.6930904 12.5935971,11.6770053 12.694625,11.6760559 C12.9296662,11.6738218 13.164762,11.6740452 13.3997487,11.6766702 C13.4457101,11.6771729 13.5140798,11.6509787 13.5147886,11.7429096 C13.5154428,11.8278032 13.4541064,11.8122766 13.4040559,11.8195372 C13.3291981,11.830484 13.254613,11.8440559 13.1800824,11.8572367 C12.6148059,11.9573777 12.3928497,12.1781569 12.3161383,12.7570532 C12.2513125,13.2465878 12.1855598,13.7358989 12.1209521,14.2272766" id="Fill-9" fill="#F8E71B"></path>
                </g>
            </g>
        </g>
    </g>
</svg>