<?xml version="1.0" encoding="UTF-8" standalone="no"?>
<svg width="36px" height="28px" viewBox="0 0 36 28" version="1.1" xmlns="http://www.w3.org/2000/svg" xmlns:xlink="http://www.w3.org/1999/xlink">
    <!-- Generator: Sketch 40.1 (33804) - http://www.bohemiancoding.com/sketch -->
    <title>NR</title>
    <desc>Created with Sketch.</desc>
    <defs>
        <filter x="-50%" y="-50%" width="200%" height="200%" filterUnits="objectBoundingBox" id="filter-1">
            <feOffset dx="0" dy="2" in="SourceAlpha" result="shadowOffsetOuter1"></feOffset>
            <feGaussianBlur stdDeviation="2" in="shadowOffsetOuter1" result="shadowBlurOuter1"></feGaussianBlur>
            <feColorMatrix values="0 0 0 0 0   0 0 0 0 0   0 0 0 0 0  0 0 0 0.5 0" type="matrix" in="shadowBlurOuter1" result="shadowMatrixOuter1"></feColorMatrix>
            <feMerge>
                <feMergeNode in="shadowMatrixOuter1"></feMergeNode>
                <feMergeNode in="SourceGraphic"></feMergeNode>
            </feMerge>
        </filter>
        <rect id="path-2" x="0" y="0" width="28" height="20" rx="2"></rect>
        <polygon id="path-4" points="0.00443427621 11.4695604 40.9396307 11.4695604 40.9396307 0.0517868028 0.00443427621 0.0517868028"></polygon>
    </defs>
    <g id="Page-1" stroke="none" stroke-width="1" fill="none" fill-rule="evenodd">
        <g id="NR" filter="url(#filter-1)" transform="translate(4.000000, 2.000000)">
            <mask id="mask-3" fill="white">
                <use xlink:href="#path-2"></use>
            </mask>
            <use id="Mask" fill="#FFFFFF" xlink:href="#path-2"></use>
            <rect id="Mask-Copy" fill="#95CEF5" mask="url(#mask-3)" x="0" y="0" width="28" height="20"></rect>
            <g id="5" mask="url(#mask-3)">
                <g transform="translate(-4.000000, 0.000000)">
                    <g id="Group-3" stroke-width="1" fill="none">
                        <path d="M0.00443427621,9.57499753 C0.00443427621,6.48349918 0.00620798669,3.39193132 3.84804866e-15,0.300432969 C-0.000409317804,0.108369967 0.0192379368,0.0449050666 0.237677205,0.0450440916 C13.7261314,0.0525514402 27.2145175,0.0525514402 40.7029035,0.0450440916 C40.9213428,0.0449050666 40.94099,0.108369967 40.9405807,0.300432969 C40.9343727,3.39193132 40.9361464,6.48349918 40.9361464,9.57499753 C40.8454143,9.67398331 40.7332612,9.71603836 40.6008469,9.71756764 C40.4645441,9.7190274 40.328173,9.72194692 40.191802,9.72194692 C27.044173,9.72215546 13.8965441,9.72257254 0.748915141,9.71867984 C0.496570715,9.71861032 0.219257903,9.79903627 0.00443427621,9.57499753" id="Fill-1" fill="#283064"></path>
                    </g>
                    <path d="M0.00443427621,20.9055329 L0.00443427621,11.3823222 C0.0950981697,11.2833364 0.207387687,11.2412814 0.339665557,11.2397521 C0.476036606,11.2382923 0.612407654,11.2353728 0.748710483,11.2353728 C13.8964077,11.2351643 27.044173,11.2347472 40.191802,11.2387094 C40.4441464,11.2387789 40.721391,11.158353 40.9361464,11.3823222 L40.9361464,20.9055329 C40.8183311,20.9705966 40.6906922,20.9386209 40.5681015,20.9386209 C27.1696972,20.9402892 13.7711564,20.9402892 0.37268386,20.9386209 C0.250024958,20.9386209 0.122317804,20.9705966 0.00443427621,20.9055329" id="Fill-4" fill="#283064"></path>
                    <g id="Group-8" stroke-width="1" fill="none" transform="translate(0.000000, 9.523211)">
                        <mask id="mask-5" fill="white">
                            <use xlink:href="#path-4"></use>
                        </mask>
                        <g id="Clip-6"></g>
                        <path d="M40.9361464,1.85911147 C40.8122596,1.85125655 40.6883045,1.83658942 40.5643494,1.83658942 C27.1683328,1.83547722 13.7722479,1.83547722 0.376231281,1.83658942 C0.252276206,1.83658942 0.128321131,1.85125655 0.00443427621,1.85911147 L0.00443427621,0.0517868028 C0.123341098,0.111150467 0.250502496,0.0828588845 0.373570715,0.0828588845 C13.7713611,0.0843186468 27.1692196,0.0843186468 40.56701,0.0828588845 C40.6900782,0.0828588845 40.8172396,0.111150467 40.9361464,0.0517868028 L40.9361464,1.85911147" id="Fill-5" fill="#F8C325" mask="url(#mask-5)"></path>
                        <path d="M0.00443427621,11.3823222 L40.9361464,11.3823222 C40.9213428,11.4563646 40.9706656,11.6330566 40.9020366,11.6253639 C40.8111681,11.6150268 40.7200948,11.6227195 40.6291581,11.6227195 C27.1898902,11.6227195 13.7506223,11.6234407 0.311354409,11.6080553 C0.211549085,11.6078149 0.0800898502,11.8852334 0.00443427621,11.3823222" id="Fill-7" fill="#FFFFFF" mask="url(#mask-5)"></path>
                    </g>
                    <path d="M6.84597671,14.8227732 C7.46534276,14.6603921 7.99888852,14.5205329 8.48549917,14.392908 C8.10701664,13.9681172 7.72887521,13.5436739 7.33893178,13.1059538 C7.88223295,13.2608276 8.42335108,13.4150758 9.02422962,13.5863546 C8.86439101,13.0150315 8.71608153,12.4847902 8.59369551,12.0474872 C8.9300183,12.3686349 9.33224126,12.7527609 9.78242263,13.1827651 C9.93850915,12.5543722 10.070173,12.0242005 10.2019052,11.4940983 C10.2229168,11.489997 10.2439285,11.4860348 10.2649401,11.4820726 C10.399401,12.0148163 10.5339301,12.5476295 10.669005,13.0826671 C11.0586755,12.7007655 11.4461631,12.3210188 11.8336506,11.9412721 C11.8533661,11.9513514 11.8730815,11.9613612 11.892797,11.9714405 C11.7522646,12.4856939 11.6116639,13.0000168 11.452985,13.580307 C12.0184576,13.4215405 12.5483195,13.2727143 13.1150882,13.1134612 C12.7026323,13.5392251 12.3218985,13.9321792 11.8994825,14.368092 C12.4718453,14.5187256 13.0007521,14.6579591 13.6233927,14.8218 C13.005391,14.9854324 12.4738236,15.1262647 11.9150366,15.2741873 C12.3240815,15.6960586 12.7050882,16.0888041 13.1453095,16.5426512 C12.550025,16.3733188 12.0281448,16.2248401 11.4547587,16.0617638 C11.6082529,16.6273869 11.7504908,17.1517891 11.892797,17.6761913 C11.8757421,17.6859926 11.8587554,17.6957243 11.8417687,17.7055951 C11.4665607,17.3147959 11.0912845,16.9239272 10.6834676,16.4992059 C10.5359767,17.0927035 10.4043128,17.6228057 10.2725807,18.1529775 C10.2516373,18.1565226 10.2307621,18.1600677 10.2098186,18.1636824 C10.0752213,17.6309387 9.94055574,17.0982645 9.77560067,16.4453337 C9.3525025,16.9084259 8.97422463,17.3225118 8.53373045,17.8047199 C8.71157903,17.178899 8.86057072,16.6547053 9.02873211,16.063015 C8.44224792,16.2285242 7.89826456,16.3820078 7.30543594,16.5493244 C7.71734609,16.0907505 8.0919401,15.6736756 8.47130948,15.2512482 C8.00318636,15.1278635 7.47502995,14.98863 6.84597671,14.8227732" id="Fill-9" fill="#FFFFFF"></path>
                </g>
            </g>
        </g>
    </g>
</svg>