<?xml version="1.0" encoding="UTF-8" standalone="no"?>
<svg width="36px" height="28px" viewBox="0 0 36 28" version="1.1" xmlns="http://www.w3.org/2000/svg" xmlns:xlink="http://www.w3.org/1999/xlink">
    <!-- Generator: Sketch 40.1 (33804) - http://www.bohemiancoding.com/sketch -->
    <title>NU</title>
    <desc>Created with Sketch.</desc>
    <defs>
        <filter x="-50%" y="-50%" width="200%" height="200%" filterUnits="objectBoundingBox" id="filter-1">
            <feOffset dx="0" dy="2" in="SourceAlpha" result="shadowOffsetOuter1"></feOffset>
            <feGaussianBlur stdDeviation="2" in="shadowOffsetOuter1" result="shadowBlurOuter1"></feGaussianBlur>
            <feColorMatrix values="0 0 0 0 0   0 0 0 0 0   0 0 0 0 0  0 0 0 0.5 0" type="matrix" in="shadowBlurOuter1" result="shadowMatrixOuter1"></feColorMatrix>
            <feMerge>
                <feMergeNode in="shadowMatrixOuter1"></feMergeNode>
                <feMergeNode in="SourceGraphic"></feMergeNode>
            </feMerge>
        </filter>
        <rect id="path-2" x="0" y="0" width="28" height="20" rx="2"></rect>
    </defs>
    <g id="Page-1" stroke="none" stroke-width="1" fill="none" fill-rule="evenodd">
        <g id="NU" filter="url(#filter-1)" transform="translate(4.000000, 2.000000)">
            <mask id="mask-3" fill="white">
                <use xlink:href="#path-2"></use>
            </mask>
            <use id="Mask" fill="#FFFFFF" xlink:href="#path-2"></use>
            <rect id="Mask-Copy" fill="#F7CF23" mask="url(#mask-3)" x="0" y="0" width="28" height="20"></rect>
            <g id="11-01" mask="url(#mask-3)">
                <path d="M6.27906977,0.0366149445 L6.77740864,0.0366149445 C6.83700997,0.103589781 6.85360465,0.186431093 6.85295681,0.272018525 C6.84672757,1.0911762 6.87672757,1.91053729 6.84054817,2.72954241 C6.77566445,2.94501118 6.62790698,3.07596047 6.42553156,3.15142793 C6.32710963,3.17192213 6.22739203,3.16953199 6.12792359,3.16953199 C4.23692691,3.17019309 2.3458804,3.17019309 0.454833887,3.16882003 C0.315996678,3.16871832 0.169983389,3.19180608 0.049833887,3.08786032 L0.049833887,2.57931943 C0.131710963,2.50324171 0.233770764,2.51010701 0.332890365,2.50995445 C1.18813953,2.50858139 2.04333887,2.50858139 2.89858804,2.51046299 C2.97931894,2.51061555 3.06662791,2.4913927 3.11436877,2.53843274 C2.20420266,2.08145789 1.27365449,1.60287005 0.341860465,1.12677406 C0.23127907,1.07027517 0.111378738,1.02455734 0.049833887,0.901134468 L0.049833887,0.59600993 C0.178554817,0.551766872 0.272740864,0.640202134 0.372508306,0.691157932 C1.41887043,1.22527844 2.47106312,1.7477025 3.5101495,2.29641813 C3.80740864,2.4534047 4.10302326,2.54601 4.43715947,2.51707402 C4.560299,2.50639466 4.68593023,2.50695406 4.80966777,2.52729569 C4.84096346,2.53873786 4.81953488,2.47883174 4.81983389,2.51275142 C4.81988372,2.52124406 4.8123588,2.52083722 4.79601329,2.51681975 C4.73063123,2.50054644 4.67317276,2.46591481 4.61392027,2.43575833 C3.18802326,1.71057901 1.76352159,0.98260272 0.339966777,0.252643117 C0.246578073,0.204789419 0.103355482,0.195889953 0.0996677741,0.0366149445 L1.79401993,0.0366149445 C2.0104485,0.0966227703 2.20933555,0.198534366 2.40877076,0.300445962 C3.55769103,0.887403864 4.70646179,1.47456518 5.8560299,2.06020088 C6.21313953,2.24215681 6.21299003,2.24271621 6.21318937,1.84788505 C6.2133887,1.34880302 6.21214286,0.849720984 6.21403654,0.350638948 C6.21448505,0.242370591 6.19724252,0.12820316 6.27906977,0.0366149445" id="Fill-2" fill="#FFFFFF"></path>
                <path d="M6.7773588,7.65664259 C6.61126246,7.65649003 6.44516611,7.65638832 6.27906977,7.65628661 C6.1954485,7.56500352 6.21453488,7.45027669 6.21408638,7.34221175 C6.21194352,6.80849808 6.21478405,6.27478441 6.21244186,5.74107074 C6.21124585,5.48298624 6.19181063,5.47134065 5.95863787,5.58967812 C4.73217608,6.21218303 3.50830565,6.83977335 2.2832392,7.46507523 C2.11888704,7.54903533 1.95284053,7.62211266 1.77244186,7.65923615 C1.5838206,7.6605075 1.39519934,7.66182971 1.20652824,7.66315191 C1.1966113,7.52589672 1.31576412,7.5100811 1.39475083,7.4696521 C2.8894186,6.70358609 4.38508306,5.93960511 5.83813953,5.20039006 C5.21730897,5.03933516 4.67651163,5.36515731 4.12071429,5.65512733 C2.97553156,6.25266288 1.81988372,6.82899228 0.671262458,7.41971338 C0.486627907,7.51465797 0.303039867,7.61097562 0.101162791,7.66335533 C0.0840697674,7.66376216 0.0669269103,7.66421985 0.049833887,7.66472839 L0.049833887,6.80020887 C0.111378738,6.67678599 0.23127907,6.63106816 0.341860465,6.57456927 C1.27365449,6.09847328 2.20420266,5.61988544 3.11501661,5.16260547 C3.0663289,5.20847586 2.97946844,5.19088034 2.89858804,5.19098205 C2.04333887,5.19271109 1.18813953,5.19276195 0.332890365,5.19138889 C0.233770764,5.19118547 0.131710963,5.19810163 0.049833887,5.12202391 L0.049833887,4.61348301 C0.130315615,4.53908348 0.230581395,4.53343867 0.330548173,4.53338782 C2.32121262,4.53298099 4.31187708,4.52865839 6.30254153,4.535066 C6.33578073,4.53516771 6.36872093,4.53999885 6.40126246,4.54579622 C6.60139535,4.58190262 6.72104651,4.72042916 6.81807309,4.88824766 C6.82983389,4.91840413 6.8373588,4.94952684 6.84189369,4.98161577 C6.87079734,5.79558632 6.85051495,6.60981115 6.85240864,7.42398513 C6.85260797,7.50809779 6.84239203,7.59256644 6.7773588,7.65664259" id="Fill-3" fill="#FFFFFF"></path>
                <path d="M14.9916777,2.57931943 C14.9918272,2.74881611 14.9919269,2.91831279 14.9920764,3.08780947 C14.9139867,3.16815893 14.8119767,3.16759953 14.7132558,3.16770124 C12.7265282,3.16937943 10.7397508,3.17227811 8.75302326,3.16673502 C8.71156146,3.16658245 8.67049834,3.16053082 8.62983389,3.15310612 C8.42506645,3.08216466 8.28009967,2.94836755 8.21098007,2.73513636 C8.17200997,1.91450391 8.20345515,1.09341378 8.19672757,0.27257792 C8.1960299,0.186736217 8.21267442,0.103691489 8.27242525,0.0366149445 L8.77076412,0.0366149445 C8.85259136,0.12820316 8.83534884,0.242370591 8.83579734,0.350638948 C8.83769103,0.849720984 8.83644518,1.34880302 8.83664452,1.84788505 C8.83684385,2.24271621 8.83669435,2.24215681 9.19380399,2.06020088 C10.3433721,1.47456518 11.4921429,0.887403864 12.6410631,0.300445962 C12.8404983,0.198534366 13.0393854,0.0966227703 13.255814,0.0366149445 L13.8538206,0.0366149445 C13.8656811,0.151290917 13.769103,0.173361592 13.7012791,0.208094935 C12.2044684,0.974008379 10.7088538,1.74241367 9.20790698,2.49988534 C9.18598007,2.51092068 9.16250831,2.5186505 9.13081395,2.52017612 C9.17476744,2.53690712 9.2104485,2.51097153 9.24742525,2.51610779 C9.80995017,2.59432138 10.293588,2.38531107 10.7813123,2.12585351 C11.9646678,1.49638159 13.1668605,0.904185714 14.3587874,0.291495642 C14.5504983,0.19299127 14.741113,0.0927578595 14.9501661,0.0366149445 L15,0.0366149445 C14.997608,0.324906779 14.9951661,0.613198613 14.9927741,0.901490447 C14.9555482,0.995214534 14.8756645,1.04032211 14.7936379,1.08248015 C13.8333887,1.57586653 12.8707475,2.06432006 11.9075581,2.5516548 C11.8750166,2.56070683 11.925598,2.60220377 11.9079568,2.57342035 C11.9020764,2.56380893 11.906113,2.55943548 11.9144352,2.5528753 C11.986196,2.49622384 12.0710133,2.51041213 12.1514452,2.51031043 C13.0043023,2.50883566 13.8571595,2.50853053 14.7100664,2.51025957 C14.8083389,2.51046299 14.9109967,2.5005973 14.9916777,2.57931943" id="Fill-4" fill="#FFFFFF"></path>
                <path d="M6.47416944,4.60646515 C4.33270764,4.60880443 2.19129568,4.61114372 0.049833887,4.61348301 L0.049833887,3.08786032 C2.19064784,3.09004705 4.33146179,3.09228463 6.47227575,3.09447135 C6.51548173,3.23630341 6.39433555,3.33536718 6.38107973,3.46270582 C6.37579734,3.48655638 6.3689701,3.50974585 6.36209302,3.53303702 C6.25799003,3.82148142 6.30752492,4.09711058 6.42553156,4.36806117 C6.45832226,4.44327437 6.51194352,4.51563974 6.47416944,4.60646515" id="Fill-5" fill="#BF252B"></path>
                <path d="M6.27906977,0.0366149445 L6.27906977,2.30282574 C6.20401993,2.34676367 6.16594684,2.29779119 6.12528239,2.27709357 C4.70910299,1.55623685 3.29372093,0.833803654 1.87898671,0.110099104 C1.84689369,0.0937240872 1.79327243,0.0954531262 1.79401993,0.0366149445 L6.27906977,0.0366149445" id="Fill-6" fill="#202950"></path>
                <path d="M13.255814,0.0366149445 C12.8921262,0.295462261 12.4788538,0.458398764 12.0866113,0.661459144 C11.0501661,1.1980715 10.0097342,1.72659805 8.97039867,2.25741304 C8.91408638,2.2861456 8.85348837,2.3060804 8.77076412,2.33994923 L8.77076412,0.0366149445 L13.255814,0.0366149445" id="Fill-7" fill="#202950"></path>
                <path d="M8.27242525,0.0366149445 C8.27028239,0.950208665 8.2680897,1.86385324 8.26594684,2.77744696 C8.04652824,2.8034334 7.87973422,2.61710401 7.6619103,2.62346078 C7.58317276,2.62574921 7.50299003,2.59284661 7.42265781,2.62356248 C7.19352159,2.60454305 7.01312292,2.79717835 6.78383721,2.77719269 C6.78169435,1.86364982 6.7795515,0.950106957 6.77740864,0.0366149445 L8.27242525,0.0366149445" id="Fill-8" fill="#BF252B"></path>
                <path d="M14.9501661,0.0366149445 C14.232309,0.452143711 13.480515,0.799731413 12.7457641,1.1813405 C11.9719934,1.58324037 11.188505,1.96576483 10.4197674,2.37712357 C10.1382558,2.52780423 9.85913621,2.60647551 9.54403654,2.58186213 C9.36388704,2.5678264 9.18189369,2.57931943 8.92644518,2.57931943 C9.05905316,2.50507246 9.13136213,2.46133794 9.20636213,2.42309566 C10.7366113,1.6426888 12.2672093,0.862993901 13.7974086,0.0824853334 C13.8184884,0.0717551205 13.8351329,0.0521254419 13.8538206,0.0366149445 L14.9501661,0.0366149445" id="Fill-9" fill="#BF252B"></path>
                <path d="M0.049833887,0.901134468 C1.12534884,1.44379846 2.20086379,1.9865133 3.27637874,2.52922815 C3.27214286,2.54590829 3.26790698,2.56258843 3.26372093,2.57931943 L0.049833887,2.57931943 L0.049833887,0.901134468" id="Fill-10" fill="#202950"></path>
                <path d="M0.049833887,5.12202391 L3.25445183,5.12202391 C3.26083056,5.13631391 3.2672093,5.15065476 3.27358804,5.16494476 C2.1989701,5.71004975 1.12440199,6.25510388 0.049833887,6.80020887 L0.049833887,5.12202391" id="Fill-11" fill="#212950"></path>
                <path d="M0.0996677741,0.0366149445 C0.190315615,0.138984227 0.319584718,0.175446609 0.434202658,0.234132229 C1.86827243,0.968109304 3.30408638,1.69857745 4.73920266,2.43041865 C4.80906977,2.46601651 4.87669435,2.5062421 4.99903654,2.5740306 C4.38782392,2.57921772 3.86740864,2.59686409 3.34156146,2.29728264 C2.26848837,1.68596563 1.14976744,1.15820189 0.049833887,0.59600993 C0.0797840532,0.410748482 -0.0125083056,0.214197426 0.0996677741,0.0366149445" id="Fill-12" fill="#BF252B"></path>
                <path d="M14.9553488,7.66345704 C14.3960631,7.66198227 13.8367276,7.66060921 13.277392,7.65923615 C13.0969934,7.62211266 12.9309468,7.54903533 12.7665947,7.46507523 C11.5489535,6.84363826 10.3323588,6.2199637 9.11357143,5.60086602 C8.85159468,5.46773001 8.8379402,5.47586666 8.83709302,5.76649779 C8.83564784,6.29171882 8.83789037,6.81699071 8.83574751,7.34221175 C8.835299,7.45027669 8.85438538,7.56500352 8.77076412,7.65628661 C8.60466777,7.65638832 8.43857143,7.65649003 8.27247508,7.65664259 C8.19468439,7.57664911 8.19612957,7.47295762 8.19637874,7.3726225 C8.19852159,6.58987635 8.18636213,5.8071302 8.20141196,5.02458747 C8.20410299,4.9938716 8.20908638,4.96325744 8.21516611,4.93310096 C8.22189369,4.90345303 8.23315615,4.87538157 8.24775748,4.84878488 C8.35799003,4.70802076 8.47011628,4.56929081 8.66307309,4.5449317 C9.36024917,4.51599572 10.0573754,4.53354038 10.754402,4.53298099 C12.0322425,4.53201476 13.3100831,4.52926864 14.5879236,4.5331844 C14.7259635,4.53359124 14.8732226,4.50465526 14.9920764,4.61353387 C14.9919269,4.78303055 14.9918272,4.95252723 14.9916777,5.12202391 C14.9109967,5.20069518 14.8083887,5.19088034 14.7101163,5.19108376 C13.8574585,5.1928128 13.0048505,5.19291451 12.1521927,5.19047351 C12.0682724,5.19021924 11.9731894,5.2151886 11.9269934,5.158588 C12.4669934,5.42735186 13.0297176,5.71838982 13.5942857,6.00561371 C13.9795017,6.20160538 14.3649169,6.39729191 14.7490864,6.59552115 C14.8447176,6.64484962 14.9464784,6.68792304 14.9938704,6.79853068 C14.9953654,6.89525516 14.9968605,6.99208135 14.9983056,7.08890753 C14.8701827,7.15756055 14.7762957,7.06012412 14.6791694,7.01079565 C13.6241362,6.47443757 12.5662126,5.9439277 11.517608,5.3948561 C11.2354485,5.24712497 10.9548339,5.15716408 10.6374419,5.18462529 C10.4912791,5.19723711 10.3434718,5.1878291 10.2379734,5.17745486 C10.2873588,5.17247116 10.3579236,5.22617308 10.4326744,5.26421194 C11.8591694,5.98939126 13.2841196,6.71767268 14.7083721,7.4472763 C14.804103,7.49629964 14.9419934,7.51028452 14.9553488,7.66345704" id="Fill-14" fill="#FFFFFF"></path>
                <path d="M14.9920764,4.61353387 C12.853206,4.61124543 10.7143355,4.60890614 8.57546512,4.60656685 C8.53450166,4.4965186 8.60770764,4.41225338 8.64064784,4.32030918 C8.73333887,4.06161443 8.7933887,3.80230943 8.68769103,3.53212165 C8.67996678,3.50933902 8.67383721,3.48599699 8.66790698,3.46270582 C8.6576412,3.33490949 8.5320598,3.23640512 8.57686047,3.09447135 C10.7152824,3.09223377 12.8537043,3.09004705 14.9920764,3.08780947 L14.9920764,4.61353387" id="Fill-15" fill="#BF252B"></path>
                <path d="M1.77244186,7.65923615 C2.29714286,7.3416015 2.8558804,7.09170451 3.3986711,6.81022712 C4.28890365,6.34852284 5.18332226,5.89510778 6.07749169,5.44138759 C6.13245847,5.41346869 6.18383721,5.3550882 6.27906977,5.38946556 L6.27906977,7.65628661 C4.77682724,7.65725284 3.27463455,7.65821907 1.77244186,7.65923615" id="Fill-16" fill="#202950"></path>
                <path d="M8.77076412,7.65628661 L8.77076412,5.39444927 C8.83614618,5.35961421 8.86968439,5.38971984 8.90556478,5.40802731 C10.337392,6.13885143 11.7692691,6.86952299 13.2006977,7.60116078 C13.2287542,7.61545078 13.2518771,7.63965732 13.2773422,7.65923615 C11.7751993,7.65821907 10.2730066,7.65725284 8.77076412,7.65628661" id="Fill-17" fill="#202950"></path>
                <path d="M8.26430233,4.9148952 C8.26704319,5.82879404 8.26973422,6.74274374 8.27247508,7.65669344 L6.7773588,7.65669344 C6.78004983,6.7427946 6.78274086,5.82899746 6.78548173,4.91520032 C6.92177741,4.88209431 7.01760797,4.98598922 7.13322259,5.02296014 C7.42998339,5.11795558 7.71956811,5.09598661 8.00611296,4.9789205 C8.08848837,4.94525509 8.1658804,4.88367079 8.26430233,4.9148952" id="Fill-18" fill="#BF252B"></path>
                <path d="M0.101162791,7.66335533 C0.150797342,7.58834555 0.236960133,7.57227565 0.308421927,7.53566071 C1.7429402,6.80081911 3.18129568,6.07370734 4.61192691,5.33108507 C4.90121262,5.1809638 5.18656146,5.09064693 5.51142857,5.11922693 C5.6880897,5.13478828 5.86714286,5.12202391 6.05347176,5.16245291 C5.82174419,5.28257027 5.59066445,5.40390813 5.3582392,5.52260157 C4.03564784,6.19784217 2.71260797,6.87211655 1.39041528,7.54817082 C1.32652824,7.58092085 1.2480897,7.5921596 1.20652824,7.66315191 C0.838106312,7.66320277 0.469634551,7.66325362 0.101162791,7.66335533" id="Fill-19" fill="#BF252B"></path>
                <path d="M14.9916777,2.57931943 L11.7883555,2.57931943 C11.7825748,2.56370722 11.776794,2.54814587 11.7710133,2.53258452 C12.8449336,1.98890345 13.9188538,1.44517152 14.9927741,0.901490447 C14.9924252,1.46073287 14.9920764,2.02002615 14.9916777,2.57931943" id="Fill-20" fill="#202950"></path>
                <path d="M14.9938704,6.79853068 C13.924186,6.25561242 12.8545017,5.71274501 11.7848173,5.16982675 C11.7857143,5.15390942 11.7865615,5.13794124 11.7874585,5.12202391 L14.9916777,5.12202391 C14.9924252,5.6808595 14.9931229,6.23969509 14.9938704,6.79853068" id="Fill-21" fill="#212950"></path>
                <path d="M14.9553488,7.66345704 C14.8925581,7.57771704 14.791196,7.55625662 14.7049834,7.51216612 C13.1745847,6.72891143 11.6430399,5.94789432 10.1150332,5.144298 C10.5699668,5.16255462 11.0199668,5.04070822 11.472907,5.28282454 C12.6375249,5.90532945 13.8218771,6.48943952 14.9983056,7.08890753 C14.9808638,7.28016976 15.0465449,7.47789046 14.9553488,7.66345704" id="Fill-22" fill="#BF252B"></path>
                <path d="M6.78383721,2.77719269 C6.98222591,2.67599305 7.17328904,2.55170566 7.40990033,2.57209815 C7.46855482,2.54717964 7.49207641,2.58654071 7.51335548,2.63052949 C7.53872093,2.90376852 7.40820598,3.13454438 7.3138206,3.37411799 C7.28511628,3.4469919 7.21534884,3.49398108 7.13815615,3.49926991 C6.86825581,3.51767909 6.5967608,3.5569893 6.33039867,3.46926599 C6.31769103,3.3207212 6.42533223,3.21952156 6.47227575,3.09447135 C6.57612957,2.98869485 6.67998339,2.8829692 6.78383721,2.77719269" id="Fill-23" fill="#212950"></path>
                <path d="M8.26430233,4.9148952 C7.77139535,5.23268241 7.27848837,5.23471657 6.78548173,4.91520032 C6.77770764,4.90075776 6.77456811,4.88545068 6.77596346,4.86907567 C6.78134551,4.85819289 6.78677741,4.84731012 6.79196013,4.83627478 C6.95920266,4.67415194 7.15240864,4.54706757 7.33908638,4.4106769 C7.46083056,4.32168224 7.57225914,4.30800249 7.69789037,4.40294708 C7.89488372,4.551797 8.11121262,4.67501646 8.27531561,4.86648211 C8.27591362,4.88361994 8.27227575,4.89974068 8.26430233,4.9148952" id="Fill-24" fill="#212950"></path>
                <path d="M6.47416944,4.60646515 C6.28171096,4.2452994 6.14451827,3.87691238 6.33149502,3.4662656 C6.62571429,3.5321725 6.825299,3.75028569 7.0467608,3.93229248 C7.0855814,3.96417799 7.1072093,4.01884614 7.09290698,4.06908998 C7.01392027,4.34654989 6.98725914,4.6462839 6.77576412,4.86907567 L6.77596346,4.86907567 C6.63358804,4.83154535 6.58714286,4.67918649 6.47416944,4.60646515" id="Fill-25" fill="#222950"></path>
                <path d="M7.4792691,2.63454697 C7.45619601,2.61374764 7.43312292,2.59294832 7.40995017,2.572149 C7.72784053,2.49907167 7.99813953,2.63286878 8.26594684,2.77744696 C8.36960133,2.88317261 8.47320598,2.98879656 8.57686047,3.09447135 C8.62435216,3.21947071 8.72965116,3.32133145 8.7208804,3.46885916 C8.46209302,3.55795553 8.19697674,3.51335649 7.93450166,3.50211774 C7.78983389,3.49591354 7.72858804,3.38103415 7.68089701,3.25689932 C7.60260797,3.05302527 7.56039867,2.83730222 7.4792691,2.63454697" id="Fill-26" fill="#212950"></path>
                <path d="M7.4792691,2.63454697 C7.64267442,2.66719529 7.60619601,2.82352076 7.64112957,2.92629688 C7.81714286,3.4437881 7.81290698,3.44383895 8.35345515,3.44643251 C8.47589701,3.44704276 8.6005814,3.42487037 8.7208804,3.46880831 C8.7208804,3.46885916 8.72043189,3.46733354 8.72043189,3.46733354 C8.62689369,3.68432794 8.40787375,3.75542196 8.24063123,3.88250633 C8.09581395,3.99260543 8.06372093,4.0911098 8.12526578,4.26614958 C8.19358804,4.4604122 8.31124585,4.64826721 8.27217608,4.87161837 L8.27531561,4.86648211 C8.03456811,4.76589272 7.85317276,4.57493561 7.64292359,4.42817071 C7.55267442,4.36516249 7.49780731,4.3640437 7.4073588,4.42786558 C7.19755814,4.57585098 7.01342193,4.76289233 6.77576412,4.86907567 C7.11543189,3.99672461 7.11543189,3.99672461 6.33154485,3.4662656 C6.33149502,3.4662656 6.3304485,3.46926599 6.33039867,3.46926599 C6.58310631,3.4183102 6.83845515,3.45512856 7.09245847,3.44678849 C7.18036545,3.4438898 7.24923588,3.44058429 7.2777907,3.33053604 C7.33843854,3.09675979 7.41139535,2.86633991 7.4792691,2.63454697" id="Fill-27" fill="#F7CF23"></path>
                <path d="M3.16599668,3.19714576 C3.22106312,3.58994275 3.38352159,3.80693715 3.82420266,3.69831281 C3.43953488,3.88337085 3.3866113,4.14796467 3.58325581,4.5039433 C3.29960133,4.22078773 3.03657807,4.14201475 2.75451827,4.51986063 C2.91553156,4.16001709 2.91084718,3.8822012 2.50465116,3.70726313 C2.93461794,3.79859708 3.10858804,3.58887481 3.16599668,3.19714576" id="Fill-28" fill="#F7CE23"></path>
                <path d="M7.92184385,1.92482729 C7.64596346,1.64965581 7.40048173,1.65291048 7.12689369,1.93398103 C7.3170598,1.57123881 7.22750831,1.33725914 6.86910299,1.17279701 C7.26149502,1.23356765 7.47343854,1.09707528 7.51569767,0.680224303 C7.59189369,1.0550698 7.76337209,1.26107971 8.1717608,1.16303303 C7.86682724,1.34503982 7.69719269,1.54871045 7.92184385,1.92482729" id="Fill-29" fill="#F7CE23"></path>
                <path d="M8.27217608,4.87161837 C8.1927907,4.63336696 8.11564784,4.39425103 8.03302326,4.15716926 C7.99465116,4.04722272 8.01079734,3.97226379 8.11405316,3.90340736 C8.32091362,3.76538936 8.51880399,3.61348819 8.72043189,3.46733354 C8.90277409,3.87762433 8.76578073,4.24565538 8.57546512,4.60656685 C8.46199336,4.68020358 8.41350498,4.83118937 8.27217608,4.87161837" id="Fill-30" fill="#212950"></path>
                <path d="M11.2503488,3.6956684 C11.6655648,3.80642861 11.8291694,3.59090898 11.8833887,3.19734918 C11.9419934,3.58760346 12.1147674,3.79885135 12.5537542,3.67568274 C12.1787542,4.03389895 12.1787542,4.03389895 12.3039369,4.53704931 C12.0176412,4.20095464 11.7502326,4.17746005 11.4712126,4.54976284 C11.5872757,4.0121334 11.5872757,4.0121334 11.2503488,3.6956684" id="Fill-31" fill="#F7CE23"></path>
                <path d="M7.1610299,7.01369433 C7.22601329,6.54258205 7.22601329,6.54258205 6.8398505,6.22855804 C7.24873754,6.3075853 7.48066445,6.18721367 7.51843854,5.7635991 C7.59513289,6.13890228 7.7517608,6.35533729 8.17614618,6.20719933 C8.06950166,6.38935867 7.88950166,6.42063394 7.83039867,6.54481963 C7.76715947,6.67780307 7.89817276,6.81190531 7.9173588,7.01786437 C7.65548173,6.79700506 7.40242525,6.69956862 7.1610299,7.01369433" id="Fill-32" fill="#F7CE23"></path>
            </g>
        </g>
    </g>
</svg>