<?xml version="1.0" encoding="UTF-8" standalone="no"?>
<svg width="36px" height="28px" viewBox="0 0 36 28" version="1.1" xmlns="http://www.w3.org/2000/svg" xmlns:xlink="http://www.w3.org/1999/xlink">
    <!-- Generator: Sketch 40.1 (33804) - http://www.bohemiancoding.com/sketch -->
    <title>PN</title>
    <desc>Created with Sketch.</desc>
    <defs>
        <filter x="-50%" y="-50%" width="200%" height="200%" filterUnits="objectBoundingBox" id="filter-1">
            <feOffset dx="0" dy="2" in="SourceAlpha" result="shadowOffsetOuter1"></feOffset>
            <feGaussianBlur stdDeviation="2" in="shadowOffsetOuter1" result="shadowBlurOuter1"></feGaussianBlur>
            <feColorMatrix values="0 0 0 0 0   0 0 0 0 0   0 0 0 0 0  0 0 0 0.5 0" type="matrix" in="shadowBlurOuter1" result="shadowMatrixOuter1"></feColorMatrix>
            <feMerge>
                <feMergeNode in="shadowMatrixOuter1"></feMergeNode>
                <feMergeNode in="SourceGraphic"></feMergeNode>
            </feMerge>
        </filter>
        <rect id="path-2" x="0" y="0" width="28" height="20" rx="2"></rect>
        <path d="M4.66666667,4 L0,0 L0.666666667,0 L5.33333333,3.33333333 L6.66666667,3.33333333 L12,0 L12,0.333333333 C12,0.51742825 11.8846436,0.749064128 11.7220542,0.865199407 L7.33333333,4 L7.33333333,5.33333333 L11.7490997,9.11827596 C11.8876681,9.23704887 11.8453776,9.33333333 11.6666667,9.33333333 L11.6666667,9.33333333 C11.4825718,9.33333333 11.2179769,9.25093587 11.0553875,9.13480059 L6.66666667,6 L5.33333333,6 L0,9.33333333 L0,8.66666667 L4.66666667,5.33333333 L4.66666667,4 Z" id="path-4"></path>
        <mask id="mask-5" maskContentUnits="userSpaceOnUse" maskUnits="objectBoundingBox" x="-0.666666667" y="-0.666666667" width="13.3333333" height="10.6666667">
            <rect x="-0.666666667" y="-0.666666667" width="13.3333333" height="10.6666667" fill="white"></rect>
            <use xlink:href="#path-4" fill="black"></use>
        </mask>
    </defs>
    <g id="Page-1" stroke="none" stroke-width="1" fill="none" fill-rule="evenodd">
        <g id="PN" filter="url(#filter-1)" transform="translate(4.000000, 2.000000)">
            <mask id="mask-3" fill="white">
                <use xlink:href="#path-2"></use>
            </mask>
            <use id="Mask" fill="#FFFFFF" xlink:href="#path-2"></use>
            <rect id="Mask-Copy" fill="#0A17A7" mask="url(#mask-3)" x="0" y="0" width="28" height="20"></rect>
            <g id="Rectangle-36" mask="url(#mask-3)">
                <use fill="#FF2E3B" fill-rule="evenodd" xlink:href="#path-4"></use>
                <use stroke="#FFFFFF" mask="url(#mask-5)" stroke-width="1.33333333" xlink:href="#path-4"></use>
            </g>
            <path d="M0,3.33333333 L0,6 L4.66666667,6 L4.66666667,9.33948135 C4.66666667,9.70427573 4.97256724,10 5.33957926,10 L6.66042074,10 C7.0320601,10 7.33333333,9.69934988 7.33333333,9.33948135 L7.33333333,6 L11.9911963,6 C12.3642483,6 12.6666667,5.69409943 12.6666667,5.3270874 L12.6666667,4.00624593 C12.6666667,3.63460657 12.3646425,3.33333333 11.9911963,3.33333333 L7.33333333,3.33333333 L7.33333333,0 L4.66666667,0 L4.66666667,3.33333333 L0,3.33333333 Z" id="Rectangle-2" fill="#FFFFFF" mask="url(#mask-3)"></path>
            <polygon id="Rectangle-36" fill="#FF2E3B" mask="url(#mask-3)" points="0 4 5.33333333 4 5.33333333 3.33333333 5.33333333 0 6.66666667 0 6.66666667 3.33333333 6.66666667 4 12 4 12 5.33333333 6.66666667 5.33333333 6.66666667 6 6.66666667 9.33333333 5.33333333 9.33333333 5.33333333 6 5.33333333 5.33333333 0 5.33333333"></polygon>
            <g id="9-01" mask="url(#mask-3)">
                <g transform="translate(16.000000, 6.000000)">
                    <path d="M5.99010811,9.1070198 C5.65467568,9.91009241 5.1029305,10.5063432 4.38362548,10.9428944 C4.34321236,10.9674356 4.31190347,10.9909604 4.25936293,10.9590132 C3.53456757,10.5178152 2.96774131,9.92613861 2.63432432,9.110033 C2.75983784,8.79774917 2.93007336,8.50957096 3.08244788,8.2119901 C3.38928185,7.61268977 3.69618533,7.01335314 4.00545174,6.41535974 C4.07310811,6.28444884 4.14253668,6.15448185 4.2082471,6.02237294 C4.27989961,5.87828383 4.33244015,5.87850165 4.41010425,6.02371617 C4.61098842,6.39942244 4.80193436,6.78079208 4.99791892,7.15925743 C5.30746332,7.75706931 5.61057915,8.35854785 5.92398069,8.95418152 C5.95004247,9.00380858 5.96463707,9.05771947 5.99010811,9.1070198" id="Fill-1" fill="#326C37"></path>
                    <path d="M2.72255212,2.80728713 L2.72814672,2.80608911 C2.86266023,2.83582178 2.9988417,2.81193399 3.13401544,2.81973927 C3.17463707,2.82209901 3.22700386,2.81327723 3.19555598,2.88737294 C3.05697683,3.16672937 2.84646718,3.33964356 2.53852124,3.36360396 C2.60287645,3.64953135 2.55151737,3.79322112 2.35768726,3.87940594 C2.35351737,3.87366997 2.3455251,3.86778878 2.34559459,3.8619802 C2.34816602,3.56777558 2.20350579,3.4740033 1.95588417,3.61133993 C1.8055251,3.69472937 1.66520849,3.79242244 1.56363707,3.93952475 C1.48062162,4.05968977 1.43603861,4.19227063 1.4326332,4.34274917 C1.43075676,4.4230165 1.45282239,4.4640033 1.53142471,4.46389439 C1.53917375,4.47017492 1.54320463,4.47845215 1.54369112,4.48861716 C1.53444788,4.51214191 1.50821236,4.51515512 1.49497297,4.53352475 C1.48666795,4.55247525 1.49455598,4.56870297 1.50216602,4.5850033 C1.50692664,4.59371617 1.51047104,4.60290099 1.5137027,4.61223102 C1.51974903,4.6470462 1.53257143,4.67808581 1.55960618,4.70117492 C1.60262548,4.75352475 1.65853668,4.7899736 1.7082973,4.83390099 C1.73164865,4.8619637 1.76247104,4.87626733 1.79621236,4.8849802 C1.83978764,4.90305941 1.88718533,4.90719802 1.93076062,4.92531353 C1.9945251,4.94978218 2.05901931,4.96815182 2.12771815,4.97134653 C2.160139,4.97283498 2.20611197,4.96811551 2.19756371,5.0289967 C1.8071583,5.0879901 1.44806178,5.02710891 1.14918533,4.73217822 C1.08924324,4.6730033 1.05032432,4.59908911 1.01130116,4.52557426 C0.922795367,4.35875908 0.792416988,4.26255446 0.607830116,4.24541914 C0.392281853,4.22537954 0.207694981,4.13832343 0.0633822394,3.9499802 C0.143617761,3.90514521 0.211517375,3.84622442 0.279069498,3.78069637 C0.20734749,3.72032343 0.136702703,3.66358086 0.0868030888,3.58679868 C0.0409343629,3.51615182 0.0105984556,3.43875248 0.0143513514,3.3499538 C0.018,3.26456766 0.0156718147,3.20677228 0.137015444,3.25262376 C0.244911197,3.29346535 0.371258687,3.28184818 0.4896139,3.29110561 C0.527594595,3.29408251 0.526795367,3.25647195 0.533675676,3.23160396 C0.550667954,3.17010561 0.566687259,3.10875248 0.621521236,3.06322772 C0.718644788,3.24706931 0.926826255,3.34850165 0.944930502,3.58719802 C1.08455212,3.20190759 1.12284556,2.79810231 1.20818919,2.40584158 C1.23779537,2.31947525 1.215,2.2300231 1.22247104,2.14238614 C1.23487645,2.02625083 1.22035135,1.91283828 1.19039768,1.80087789 C1.19585328,1.73618482 1.23925483,1.70115182 1.28533205,1.66811551 C1.31803089,1.6509802 1.34885328,1.62959736 1.38471429,1.61932343 C1.44542085,1.60970297 1.50650965,1.6139868 1.56752896,1.6140231 C1.66228958,1.61961386 1.71562934,1.68753795 1.76695367,1.75858416 L1.76622394,1.76682508 C1.84107336,1.87842244 1.82540154,2.00316172 1.81421236,2.12728383 C1.75030888,2.48629043 1.64595753,2.83455116 1.55759073,3.18705941 C1.54122394,3.21054785 1.54570656,3.23741254 1.5462973,3.26355116 C1.54654054,3.27153795 1.54598456,3.27963366 1.54292664,3.28693069 C1.53774903,3.29952805 1.53875676,3.30181518 1.54758301,3.29350165 C1.55859846,3.28119472 1.57103861,3.27226403 1.58219305,3.26177228 C1.83481853,2.86116172 2.23735135,2.67437954 2.63668726,2.47329373 C2.66132432,2.56561386 2.65294981,2.66334323 2.60423166,2.75816832 C2.54150965,2.83019472 2.46759846,2.7790429 2.41905405,2.7929835 C2.50446718,2.81157096 2.61635907,2.77465017 2.72255212,2.80728713" id="Fill-2" fill="#326C37"></path>
                    <path d="M6.111,8.74735974 C6.10728185,8.75483828 6.10352896,8.76224422 6.09984556,8.76968647 C6.04383012,8.76246205 6.03048649,8.71109241 6.00918533,8.67050495 C5.63257529,7.95318152 5.26607722,7.23012211 4.89374131,6.51029373 C4.73128958,6.19630363 4.56821236,5.88260396 4.40794981,5.56737954 C4.38664865,5.52544884 4.35818919,5.4850429 4.36625097,5.43258416 C4.40325869,5.35358746 4.45774517,5.29767987 4.54472201,5.28428383 C4.89978764,5.28018152 5.25471429,5.28355776 5.60957143,5.28235974 C5.69067568,5.28359406 5.77191892,5.27992739 5.85298842,5.28559076 C5.90365251,5.29321452 5.94604633,5.31753795 5.9813166,5.35583828 C6.00911583,5.38564356 6.04494208,5.40168977 6.08083784,5.41773597 C6.15374131,5.46467657 6.24558301,5.48239274 6.29381467,5.56781518 C6.31706178,5.65116832 6.29617761,5.73630033 6.30333591,5.82059736 C6.30427413,5.83508251 6.30469112,5.84927723 6.30486486,5.86376238 C6.30597683,6.46716502 6.30507336,7.07034983 6.3054556,7.67346205 C6.29968726,7.76356766 6.31848649,7.85519802 6.29044402,7.9439604 C6.22386486,7.99533003 6.29444015,8.08863036 6.23505405,8.14228713 C6.26466023,8.26361386 6.2082973,8.37441254 6.18272201,8.48557426 C6.17316602,8.527033 6.18039382,8.56384488 6.17309653,8.60163696 C6.13157143,8.64051815 6.13515058,8.70041914 6.111,8.74735974" id="Fill-3" fill="#2C619F"></path>
                    <path d="M2.52976448,8.73810231 C2.51878378,8.71486799 2.50780309,8.69163366 2.49685714,8.66847195 C2.46148263,8.64175248 2.46575676,8.59807921 2.45463707,8.5610132 C2.47010039,8.50590429 2.43152896,8.45954455 2.43187645,8.40690429 C2.39389575,8.36613531 2.40984556,8.30808581 2.38916988,8.26176238 L2.3902471,8.26477558 C2.36484556,8.22705611 2.3833668,8.184 2.37669498,8.14392079 C2.37450579,8.11240924 2.34295367,8.09719802 2.33794981,8.06717492 C2.286139,7.69524422 2.31223552,7.3210264 2.30928185,6.94789769 C2.30538996,6.45743564 2.30789189,5.9670099 2.30886486,5.47651155 C2.30896911,5.42122112 2.29857915,5.36309901 2.33329344,5.31292739 C2.3506332,5.29546535 2.37228185,5.2859901 2.39552896,5.28591749 C2.77026255,5.28464686 3.14503089,5.27143234 3.51955598,5.29256106 C3.57067181,5.31354455 3.57327799,5.36614851 3.58967954,5.40967657 C3.6180695,5.50784158 3.61925097,5.61773267 3.7009112,5.69309901 C3.73659846,5.72657096 3.77211197,5.70976238 3.80762548,5.69230033 C3.88073745,5.66129703 3.95593436,5.63650165 4.02814286,5.60342904 C4.0661583,5.585967 4.10587645,5.57184488 4.14611583,5.59921782 C4.18051737,5.64946205 4.1489305,5.69142904 4.12811583,5.73248845 C3.82263707,6.33472937 3.51156371,6.93381188 3.20059459,7.5330396 C3.01228958,7.8960396 2.82638224,8.26045545 2.63738224,8.62312871 C2.61295367,8.6699604 2.60746332,8.74293069 2.52976448,8.73810231" id="Fill-4" fill="#2C619F"></path>
                    <path d="M7.4753166,4.24828713 C7.43552896,3.9449703 7.20434363,3.70042904 6.93489961,3.6429967 C6.7698417,3.60785479 6.66312741,3.65846205 6.59126641,3.81718152 C6.56923552,3.86582838 6.54988031,3.85976568 6.51426255,3.84023432 C6.35184556,3.75118152 6.27706564,3.57710561 6.3378417,3.39511551 C6.36626641,3.3099835 6.31768726,3.32682838 6.27428571,3.31916832 C6.06019691,3.28119472 5.87077992,3.20553795 5.79575676,2.96313861 C5.77824324,2.90661386 5.77855598,2.90650495 5.79016216,2.79922772 C5.93117375,2.92988449 6.09022008,2.90283828 6.25016988,2.87038284 C6.28759459,2.86279538 6.33172587,2.84340924 6.36254826,2.85626073 C6.49376062,2.91093399 6.45532819,2.83335314 6.44073359,2.76009241 C6.41727799,2.64246865 6.47301544,2.54394059 6.59043243,2.49340594 C6.61809266,2.75667987 6.81932432,2.87277888 6.99386873,3.01073267 C7.10708108,3.10025743 7.22060618,3.18822112 7.29966023,3.31470297 C7.31470656,3.32174587 7.32905792,3.3300231 7.34163707,3.33960726 C7.36078378,3.31866007 7.3457722,3.29618812 7.34598069,3.27491419 C7.34191506,3.23723102 7.35508494,3.19736964 7.33277606,3.1619736 C7.30045946,2.98713531 7.20410039,2.84239274 7.13091892,2.68632343 C7.01989575,2.44947855 6.94671429,2.20628053 7.07879537,1.94910561 C7.12059846,1.86248515 7.18516216,1.80639604 7.27735135,1.78686469 C7.34841313,1.77938614 7.4195444,1.78174587 7.49074517,1.78435974 C7.58759073,1.81692409 7.68620849,1.84781848 7.67953668,1.98613531 C7.631861,2.08644224 7.62810811,2.19549835 7.62279151,2.30422772 C7.62810811,2.38758086 7.62588417,2.47129703 7.6355444,2.55435974 C7.77471429,2.93877888 7.84720077,3.33859076 7.89015058,3.74566337 C7.8949112,3.7909703 7.87802317,3.86227063 7.94915444,3.86826073 C8.02341313,3.87454125 8.01055598,3.80153465 8.0224749,3.75619142 C8.05433977,3.63486469 8.10288417,3.52707921 8.20890347,3.45516172 C8.24219305,3.43258086 8.26762934,3.39740264 8.29685328,3.36781518 C8.33632819,3.39079538 8.33240154,3.43708251 8.35012355,3.47117162 C8.38462934,3.48460396 8.32347104,3.56421782 8.39939768,3.5490429 C8.48442857,3.45665017 8.58815444,3.50264686 8.68621622,3.50667657 C8.70348649,3.53470297 8.76752896,3.49237294 8.7588417,3.55938944 C8.7317722,3.62473597 8.70254826,3.68921122 8.67818919,3.75564686 C8.64802703,3.83783828 8.58923166,3.8920396 8.52372973,3.94112211 C8.48317761,3.9910033 8.5609112,3.96885809 8.55521236,3.99753795 C8.58547876,4.02142574 8.61574517,4.04534983 8.64601158,4.06923762 C8.56278764,4.20076568 8.45496139,4.2770033 8.30234363,4.31435974 C8.09391892,4.36536634 7.9489112,4.53192739 7.80696139,4.6909736 C7.69896139,4.8120099 7.57893822,4.91565677 7.43684942,4.99018812 C7.20378764,5.11245875 6.96467954,5.11224092 6.72140154,5.02910561 C6.69130888,5.00656106 6.71903861,4.99690429 6.73057529,4.98358086 C6.82345946,4.94960066 6.92388417,4.98793729 7.01635135,4.95090759 C7.31640927,4.91351485 7.50259459,4.58191749 7.4753166,4.24828713" id="Fill-5" fill="#F4E01F"></path>
                    <path d="M7.4753166,4.24828713 C7.57098069,4.56006271 7.36345946,4.95119802 7.04022394,4.98318152 C6.9463668,5.00329373 6.85146718,4.9869934 6.7572278,4.99229373 C6.71830888,4.99331023 6.6797722,5.00314851 6.64047104,4.99933663 C6.55158301,4.95279538 6.46422394,4.90247855 6.37297297,4.86163696 C6.33749421,4.84573597 6.28161776,4.82983498 6.26003861,4.87928053 C6.24016216,4.92484158 6.28318147,4.96092739 6.31410811,4.98906271 C6.48277992,5.14262706 6.68759073,5.22427393 6.89452124,5.30014851 C7.21355212,5.41719142 7.54578764,5.48148515 7.87270656,5.56730693 C7.99026255,5.59812871 8.11150193,5.62771617 8.20011197,5.72657096 C8.30557529,5.82560726 8.43032432,5.91190099 8.4202471,6.08793729 C8.40394981,6.14068647 8.40638224,6.19289109 8.42476448,6.24480528 C8.42580695,6.40653795 8.34199228,6.52437954 8.23705019,6.62842574 C8.20087645,6.66433003 8.15320077,6.6869835 8.09982625,6.65877558 C8.14791892,6.49624422 8.03689575,6.42349175 7.93633205,6.34681848 C7.6462471,6.12583828 7.3115444,6.00516502 6.97764093,5.88205941 C6.75681081,5.80063036 6.53132432,5.73121782 6.32293436,5.61613531 C6.30264093,5.59591419 6.28537066,5.57217162 6.26003861,5.55779538 C6.19453668,5.522 6.12896525,5.48616832 6.06342857,5.45040924 C6.039139,5.40869637 5.99132432,5.39660726 5.96140541,5.3619736 C5.88989189,5.22990099 5.85517761,5.08392409 5.81518147,4.9399802 C5.81757915,4.92179208 5.82546718,4.90705281 5.84040927,4.8969604 C5.87317761,4.87888119 5.90653668,4.89975578 5.93951351,4.89568977 C5.95723552,4.89351155 5.98194208,4.89507261 5.96203089,4.86327063 C5.92630888,4.82645875 5.90723166,4.78053465 5.89256757,4.73210561 C5.88686873,4.70168317 5.8716139,4.67808581 5.84614286,4.66171287 C5.83502317,4.65216502 5.82515444,4.64134653 5.81594595,4.62983828 C5.79871042,4.5980363 5.77025097,4.58213531 5.73862934,4.57051815 C5.71993436,4.55951815 5.70596525,4.5449967 5.70450579,4.52107261 C5.71079537,4.45772277 5.77699228,4.48142904 5.80183784,4.44672277 C5.74505792,4.38261056 5.66159073,4.36925083 5.59612355,4.32336304 C5.56606564,4.29453795 5.53413127,4.2690165 5.49284942,4.25972277 C5.41125869,4.22969967 5.36535521,4.16130363 5.32365637,4.08847855 C5.31493436,4.07159736 5.30833205,4.05330033 5.29721236,4.03819802 C5.24425483,4.03267987 5.25693822,4.09225413 5.23004247,4.1120396 C5.2020695,4.15110231 5.1643668,4.17535314 5.12117375,4.19158086 C5.08135135,4.20479538 5.04632432,4.23086139 5.00445174,4.23873927 C4.92800386,4.24683498 4.85141699,4.24222442 4.77479537,4.24309571 C4.65814286,4.22309241 4.57901931,4.15894389 4.55076834,4.03507591 C4.54948263,3.96686139 4.55069884,3.89857426 4.54934363,3.83032343 C4.54750193,3.77267327 4.56147104,3.72282838 4.61241313,3.69142574 C4.64608494,3.68038944 4.67030502,3.69912211 4.69403861,3.71959736 C4.74800386,3.78421782 4.77726255,3.87432343 4.86677606,3.90256766 C4.89693822,3.92035644 4.92574517,3.91465677 4.95389189,3.89712211 C5.02505792,3.87141914 5.08409653,3.82760066 5.12395367,3.7610198 C5.16808494,3.68739604 5.22180695,3.66430693 5.29696911,3.70990429 C5.31066023,3.71821782 5.32657529,3.7149505 5.33977992,3.70445875 C5.37425097,3.63584488 5.36459073,3.56911881 5.33446332,3.5030462 C5.29418919,3.39417162 5.22837452,3.2950264 5.21996525,3.1739901 C5.22833977,3.14825083 5.24630502,3.13322112 5.27017761,3.12472607 C5.28807336,3.12007921 5.30586486,3.12076898 5.32355212,3.12585149 C5.3404749,3.13147855 5.35579923,3.14033663 5.37008108,3.15108251 C5.43269884,3.18230363 5.50323938,3.20470297 5.51734749,3.29150495 C5.67434363,3.74983828 5.92658687,4.14271617 6.27247876,4.46737954 C6.58761776,4.76314521 7.14905792,4.7330132 7.44154054,4.41680858 C7.49227413,4.3619538 7.46405792,4.30408581 7.4753166,4.24828713" id="Fill-6" fill="#326C37"></path>
                    <path d="M1.48906564,4.62145215 C1.48666795,4.61190429 1.48427027,4.60239274 1.48190734,4.59284488 C1.44761004,4.56877558 1.45188417,4.5330165 1.45528958,4.49751155 C1.47735521,4.45550825 1.50414672,4.49645875 1.52840154,4.49293729 C1.68213127,4.48110231 1.83189961,4.53548515 1.98597683,4.52234323 C2.03942085,4.51776898 2.09369884,4.52394059 2.14679537,4.51166997 C2.22525869,4.51050825 2.30403475,4.51127063 2.38069112,4.48923432 C2.43020849,4.48349835 2.48066409,4.49173927 2.52955598,4.47765347 C2.57076834,4.46781518 2.61211969,4.45855776 2.65451351,4.45561716 C2.69607336,4.44694059 2.7378417,4.43318152 2.77860232,4.45841254 C2.78826255,4.46549175 2.79566409,4.47482178 2.80080695,4.48593069 C2.81362934,4.51853135 2.80744402,4.55149505 2.80209266,4.58380528 C2.83524324,4.63535644 2.84538996,4.56837624 2.86818533,4.56939274 C3.04648263,4.45961056 3.20142857,4.32027723 3.34209266,4.16257426 C3.36902317,4.14068317 3.39557143,4.11752145 3.43365637,4.12659736 C3.54547876,4.22262046 3.6017027,4.35480198 3.65076834,4.49173927 C3.6323166,4.55033333 3.6054556,4.60475248 3.57400772,4.65677558 C3.54996139,4.68469307 3.53335135,4.71747525 3.51851351,4.75138284 C3.47274903,4.82994389 3.42038224,4.90331353 3.35998842,4.97033003 C3.32874903,4.99726733 3.30366023,5.02965017 3.2830888,5.06606271 C3.2473668,5.11256766 3.20726641,5.15453465 3.1626139,5.19181848 C3.12341699,5.21323762 3.09495753,5.24841584 3.06232819,5.27836634 C3.04669112,5.28940264 3.02896911,5.2949934 3.01107336,5.30054785 C2.79458687,5.31336304 2.57803089,5.302 2.3616834,5.30668317 C2.30542471,5.33144224 2.3382278,5.38263036 2.33172973,5.42143894 C2.31682239,5.51005611 2.3598417,5.60589769 2.30153282,5.68943234 C2.23995753,5.74054785 2.16267568,5.75445215 2.09182239,5.78320462 C1.79513514,5.90362376 1.51592664,6.06237954 1.23084556,6.20806601 C1.19554054,6.22287789 1.16079151,6.23881518 1.13042085,6.26346535 C1.02214286,6.32812211 0.930057915,6.41884488 0.817262548,6.47649505 C0.80027027,6.48215842 0.782930502,6.48444554 0.765138996,6.48422772 C0.727888031,6.48194059 0.694285714,6.46622112 0.659745174,6.45366007 C0.557861004,6.38577228 0.52957529,6.28154455 0.528949807,6.16370297 C0.529540541,6.12525743 0.529054054,6.08673927 0.529749035,6.04825743 C0.530444015,5.98345545 0.548061776,5.92453465 0.586111969,5.87283828 C0.605953668,5.83620792 0.640563707,5.81043234 0.655749035,5.77028053 C0.934054054,5.50123432 1.26653282,5.34639934 1.63355212,5.2650429 C1.78672587,5.23109901 1.94087259,5.20176568 2.09369884,5.16633333 C2.24569112,5.1310462 2.39017761,5.07383168 2.52371815,4.98877228 C2.53177992,4.97751815 2.53883398,4.96550165 2.54578378,4.95475578 C2.53959846,4.93235644 2.5216332,4.95137954 2.51075676,4.94477228 C2.48111583,4.94183168 2.4606139,4.96985809 2.4317722,4.96873267 C2.25323166,5.01629043 2.07757529,5.0100099 1.90528958,4.93892739 C1.86272201,4.94386469 1.82185714,4.94121452 1.78721236,4.91039274 C1.75903089,4.88832013 1.72153668,4.88548845 1.69443243,4.86131023 C1.64088417,4.81509571 1.57774517,4.78035314 1.53719305,4.71849175 C1.51147876,4.69140924 1.50487645,4.65394389 1.48906564,4.62145215" id="Fill-7" fill="#F4E01F"></path>
                    <path d="M2.52976448,8.73810231 C2.71667954,8.38131023 2.90484556,8.02531683 3.09016216,7.66768977 C3.42868726,7.01447855 3.7656139,6.36039604 4.10271429,5.70638614 C4.11866409,5.67538284 4.12971429,5.64165677 4.14302317,5.60912871 C4.17200386,5.51270627 4.26433205,5.44717822 4.37347876,5.44565347 C4.53176062,5.7050066 4.65915058,5.98222112 4.79915444,6.25210231 C5.23410811,7.09049835 5.66649035,7.93038284 6.09984556,8.76968647 C6.08549421,8.8899967 6.02555212,8.99415182 5.99010811,9.1070198 C5.93298069,9.10545875 5.93061776,9.0499868 5.91240927,9.01480858 C5.39937452,8.02132343 4.88776448,7.0270396 4.3758417,6.03293729 C4.3578417,5.9979769 4.33848649,5.96377888 4.31951351,5.92870957 C4.27517375,5.94671617 4.2677722,5.99013531 4.25029344,6.0239703 C3.73621622,7.02141254 3.22307722,8.01943564 2.70806178,9.01636964 C2.69027027,9.05074917 2.68943629,9.10542244 2.63446332,9.11025083 C2.59297297,8.9880165 2.51683784,8.87670957 2.52976448,8.73810231" id="Fill-8" fill="#F4E01F"></path>
                    <path d="M6.75156371,9.33685809 C6.83228571,9.15417822 6.90011583,8.96993729 6.86206564,8.7610099 C6.83777606,8.62813861 6.85681853,8.49806271 6.9262471,8.35989109 C6.63445946,8.36308581 6.41137066,8.25805941 6.29242471,7.97619802 C6.28453668,7.96566997 6.28130502,7.95372607 6.28272973,7.94047525 C6.28113127,7.90054125 6.28238224,7.86242244 6.33148263,7.85356436 C6.37453668,7.84811881 6.41567954,7.86042574 6.45560618,7.87356766 C6.70440927,7.95568647 6.90018533,7.8829703 7.04442857,7.65683498 C7.06979537,7.62249175 7.09311197,7.58734983 7.08689189,7.54026403 C7.08842085,7.52418152 7.09311197,7.5090066 7.0992278,7.49430363 C7.11802703,7.46184818 7.11754054,7.42383828 7.12654054,7.38847855 C7.13974517,7.35645875 7.1406834,7.31932013 7.16382625,7.29129373 C7.17279151,7.28210891 7.18311197,7.27542904 7.1947529,7.27060066 C7.27672587,7.25615182 7.36085328,7.26784158 7.44237452,7.24722112 C7.54797683,7.26617162 7.66372587,7.21658086 7.76001544,7.29819142 C7.69545174,7.33540264 7.62532819,7.32385809 7.55739382,7.31939274 C7.50370656,7.31579868 7.47608108,7.32538284 7.49060618,7.38960396 C7.53657915,7.59243234 7.57834749,7.79682178 7.68645174,7.97670627 C7.80445946,8.173 7.91968726,8.22139274 8.13183012,8.16693729 C8.18725483,8.1479868 8.21032819,8.16316172 8.18847104,8.22564026 C8.09037452,8.45293729 7.91909653,8.53088119 7.6894749,8.45616832 C7.58995367,8.42374917 7.50579151,8.36283168 7.41009266,8.29051485 C7.39973745,8.45337294 7.39945946,8.60036634 7.36669112,8.74391089 C7.29802703,9.04446865 7.14457529,9.28650495 6.91443243,9.47771617 C6.8723861,9.41523762 6.81692664,9.36982178 6.75156371,9.33685809" id="Fill-9" fill="#326C37"></path>
                    <path d="M2.31094981,8.14464686 C2.20392278,8.39049505 2.04744788,8.4420099 1.7692471,8.3110264 C1.90549807,8.65863366 1.90720077,9.02490099 1.9927529,9.37308911 C1.97833205,9.40910231 1.96001931,9.44057756 1.91727799,9.44348185 C1.89868726,9.44337294 1.88416216,9.43052145 1.86692664,9.4259835 C1.50637066,9.10433333 1.34753282,8.68466337 1.32974131,8.17877228 C1.1860888,8.33745545 1.03837066,8.42919472 0.851976834,8.31077228 C0.72288417,8.22876238 0.721250965,8.08405611 0.701513514,7.94791749 C0.717498069,7.9459571 0.725594595,7.94221782 0.731119691,7.94465017 C1.03003089,8.07763036 1.17587259,7.95423432 1.34072201,7.65835974 C1.40021236,7.55159076 1.43711583,7.43211551 1.46428958,7.31078878 C1.50901158,7.19686799 1.54511583,7.18942574 1.68178378,7.26580858 C1.72282239,7.33169967 1.70249421,7.40579538 1.70621236,7.47651485 C1.70972201,7.54422112 1.70117375,7.61276238 1.72174517,7.67890759 C1.72647104,7.6969868 1.72945946,7.71561056 1.73192664,7.73408911 C1.74322008,7.82063696 1.7694556,7.89658416 1.85900386,7.92711551 C1.96651737,7.97253135 2.07337066,7.9639637 2.18025869,7.9250099 C2.22279151,7.90950825 2.26205792,7.88289769 2.3094556,7.88340594 C2.38371429,7.90631353 2.34448263,7.96959076 2.35271815,8.0160231 C2.33499614,8.05755446 2.35435135,8.11222772 2.31094981,8.14464686" id="Fill-10" fill="#F4E01F"></path>
                    <path d="M7.76001544,7.29819142 C7.64937452,7.29260066 7.53741313,7.31329373 7.42819691,7.27982178 C7.34320077,7.29928053 7.25521622,7.26878548 7.17074131,7.29673927 L7.1676834,7.29133003 C7.15844015,7.31754125 7.13720849,7.33206271 7.11740154,7.34818152 C7.07069884,7.36724092 7.02632432,7.41243894 6.97301931,7.36317492 C6.96116988,7.34208251 6.95811197,7.31921122 6.95977992,7.29521452 C6.97913514,7.18888119 7.01190347,7.08821122 7.07566795,7.00090099 C7.10145174,6.97069637 7.13084942,6.9440495 7.15635521,6.91344554 C7.20107722,6.86940924 7.25459073,6.84007591 7.3097027,6.81335644 C7.34000386,6.80050495 7.37110425,6.79026733 7.4032471,6.78358746 C7.45981853,6.76554455 7.5239305,6.80569637 7.57577606,6.75861056 C7.46398842,6.61365017 7.45905405,6.45881518 7.56076448,6.35963366 C7.60715444,6.31439934 7.6572278,6.29719142 7.69572973,6.36108581 C7.78041313,6.50187129 7.89991506,6.5850429 8.0533668,6.6200396 C8.06865637,6.62352475 8.0784556,6.63732013 8.08484942,6.65260396 C8.23920463,6.63147525 8.37764479,6.45126403 8.4006834,6.24139274 C8.3986332,6.190967 8.39116216,6.14079538 8.39564479,6.09011551 C8.39995367,5.92809241 8.26061004,5.85047525 8.20004247,5.72657096 C8.60170656,5.90133663 8.75227413,6.36213861 8.54412741,6.75153135 C8.53293822,6.77247855 8.52140154,6.79335314 8.50809266,6.81281188 C8.42205405,6.93838614 8.34334749,7.05274257 8.31836293,7.22511221 C8.28483012,7.45658416 8.09294595,7.57246535 7.85474131,7.60985809 C7.88066409,7.52494389 7.88101158,7.44605611 7.87427027,7.36422772 C7.866139,7.26522772 7.82954826,7.26079868 7.76001544,7.29819142" id="Fill-11" fill="#F4E01F"></path>
                    <path d="M7.65684556,1.97967327 C7.66129344,1.86233993 7.55089575,1.86825743 7.4952973,1.81536304 C7.41745946,1.80276568 7.33965637,1.79205611 7.26279151,1.82117162 C7.19516988,1.8539538 7.13088417,1.89192739 7.07879537,1.94910561 C7.21410811,1.58675908 7.60923938,1.46761056 7.9000888,1.7040198 C7.93525483,1.73259076 7.96121236,1.74268317 8.00183398,1.72122772 C8.18537838,1.62426073 8.34379923,1.67940594 8.48908494,1.81205941 C8.52960232,1.84905281 8.57130116,1.8849571 8.61466795,1.91824752 C8.7175251,1.99713531 8.82952124,2.04247855 8.96935135,1.99905941 C8.94433205,2.12826403 8.87142857,2.19081518 8.77208108,2.22486799 C8.71530116,2.24436304 8.65866023,2.25452805 8.71092278,2.33926073 C8.72603861,2.36380198 8.72433591,2.40173927 8.72496139,2.43365017 C8.72791506,2.58750495 8.76162162,2.72193729 8.93133591,2.77439604 C8.6509112,2.9659703 8.29667954,2.79269307 8.08988803,2.37193399 C7.98550193,2.46835644 7.86780695,2.52390099 7.72613514,2.49093729 C7.59992664,2.46937294 7.58727799,2.44849835 7.61167181,2.30212211 C7.6714749,2.20156106 7.71133205,2.09784158 7.65684556,1.97967327" id="Fill-12" fill="#326C37"></path>
                    <path d="M0.774243243,6.45859736 C0.789289575,6.45464026 0.804301158,6.45071947 0.81934749,6.44672607 C0.884432432,6.44955776 0.949413127,6.44233333 1.00810425,6.41434323 C1.07694208,6.38148845 1.12937838,6.33117162 1.11110039,6.23914191 C1.14126255,6.20773927 1.17830502,6.18933333 1.21840541,6.17659076 C1.33735135,6.27025413 1.40559846,6.38911221 1.38037066,6.54982838 C1.37077992,6.61089109 1.39475676,6.63684818 1.44750579,6.65329373 C1.50637066,6.67162706 1.56700772,6.68353465 1.62444788,6.70673267 C1.66579923,6.74826403 1.68894208,6.80591419 1.73501931,6.84352475 C1.76306178,6.87717822 1.78262548,6.91827393 1.818139,6.94542904 C1.85146332,6.9879769 1.8827027,7.03172277 1.89152896,7.0879934 C1.89962548,7.19842904 1.98159846,7.30534323 1.9062278,7.41977228 C1.85080309,7.44046535 1.82474131,7.39425083 1.79308494,7.36353795 C1.76278378,7.33420462 1.73519305,7.30178548 1.69891506,7.27974917 C1.68341699,7.27016502 1.66791892,7.26094389 1.64905019,7.2609802 C1.56752896,7.21324092 1.47454054,7.2600363 1.39135135,7.22660066 C1.31295753,7.23128383 1.24398069,7.19429043 1.17253668,7.16165347 C1.14432046,7.48272277 1.12955212,7.52378218 0.991320463,7.63842904 C1.00146718,7.46242904 0.885370656,7.37569967 0.789637066,7.27571947 C0.722675676,7.20587129 0.694111969,7.12092079 0.697795367,7.02518812 C0.699671815,6.97643234 0.688343629,6.94539274 0.649563707,6.91409901 C0.318891892,6.64737624 0.270382239,6.29926073 0.511957529,5.94878548 C0.575583012,5.9400363 0.543370656,5.99155116 0.551640927,6.01754455 C0.545976834,6.06713531 0.524814672,6.11781518 0.559980695,6.1650099 C0.569084942,6.26862046 0.598864865,6.36221122 0.6786139,6.43151485 C0.70884556,6.44690759 0.735254826,6.47693069 0.774243243,6.45859736" id="Fill-13" fill="#326C37"></path>
                    <path d="M5.32021622,1.59427393 C5.49681081,1.47251155 5.65606564,1.32479208 5.84103475,1.21544554 C5.87408108,1.19591419 5.90372201,1.17093729 5.94357915,1.16857756 C6.01276448,1.16447525 6.03820077,1.22016502 6.05362934,1.27128053 C6.07225483,1.33314191 5.99250579,1.35684818 5.97850193,1.35045875 C5.87126641,1.30126733 5.83655212,1.39841584 5.78008494,1.44847855 C5.74815058,1.47679538 5.7221583,1.51244554 5.69349035,1.54479208 C5.68209266,1.58026073 5.6537722,1.60131683 5.62996911,1.62622112 C5.45949035,1.85115842 5.30068726,2.0840462 5.18243629,2.34448845 C5.17155985,2.37378548 5.1535251,2.39255446 5.1210695,2.39033993 C5.06446332,2.37443894 5.00942085,2.3540363 4.95688031,2.32651815 C4.90607722,2.30658746 4.85232046,2.30008911 4.79960618,2.28854455 C4.75891506,2.28643894 4.71808494,2.28930693 4.67774131,2.28168317 C4.64323552,2.2679967 4.60765251,2.26182508 4.57067954,2.263967 C4.50038224,2.26229703 4.42994595,2.26719802 4.35978764,2.25921122 C4.31662934,2.24327393 4.27208108,2.23721122 4.22635135,2.23986139 C4.12755985,2.23437954 4.02796911,2.25169637 3.92987259,2.22809901 C3.86690734,2.18772937 3.8879305,2.12456106 3.88956371,2.06654785 C3.89842471,2.03133333 3.90523552,1.99557426 3.90749421,1.9590165 C3.92010811,1.91969967 3.9275444,1.8790396 3.93637066,1.83863366 C3.95402317,1.79376238 3.96823552,1.74707591 3.99728571,1.70786799 C4.03954054,1.67058416 4.08325483,1.63656766 4.14333591,1.64284818 C4.22579537,1.65678878 4.29692664,1.70245875 4.37358301,1.73284488 C4.437,1.76348515 4.50535135,1.7720165 4.57345946,1.78167327 C4.6440695,1.78225413 4.71464479,1.78218152 4.78508108,1.78178218 C4.81284556,1.78276238 4.83915058,1.7760099 4.86444788,1.76435644 C4.88418533,1.7570231 4.90444402,1.75179538 4.92525869,1.74943564 C4.96563707,1.74834653 5.00379151,1.73821782 5.03937452,1.71774257 C5.09351351,1.69911881 5.14202317,1.66571947 5.19793436,1.65192409 C5.23685328,1.62839934 5.28511969,1.62669307 5.32021622,1.59427393" id="Fill-14" fill="#8D8173"></path>
                    <path d="M1.76695367,1.75858416 C1.69773359,1.73785479 1.66055212,1.66089109 1.58740541,1.64724092 C1.52485714,1.6249505 1.46029344,1.64175908 1.39698069,1.63660396 C1.36219691,1.63852805 1.33676062,1.66256106 1.30781467,1.67820792 C1.25482239,1.7060165 1.20575676,1.73745545 1.19880695,1.80763036 C1.18761776,1.9189736 1.16228571,2.03191419 1.23341699,2.13381848 C1.24999228,2.19767657 1.26653282,2.26146205 1.17555985,2.2780165 C1.05716988,2.30952805 0.948196911,2.28367987 0.846173745,2.21194389 C0.81323166,2.62014191 0.660092664,2.75141584 0.321289575,2.65219802 C0.463795367,2.50916172 0.385679537,2.30379208 0.477694981,2.13563366 C0.33623166,2.14024422 0.25307722,2.07547855 0.223992278,1.93305941 C0.379876448,1.93411221 0.488675676,1.85141254 0.58680695,1.73908911 C0.663254826,1.65152475 0.753637066,1.58044224 0.875849421,1.57666667 C0.912301158,1.56679208 0.936833977,1.65540924 0.97992278,1.59042574 C1.24811583,1.3510396 1.54032046,1.37463696 1.73015444,1.65014521 C1.75291506,1.68321782 1.77550193,1.71469307 1.76695367,1.75858416" id="Fill-15" fill="#F4E020"></path>
                    <path d="M6.713861,9.95982838 C6.75653282,10.0807921 6.74009653,10.2036799 6.72605792,10.3268218 C6.70969112,10.4701485 6.69846718,10.6132574 6.77592278,10.7445677 C6.78527027,10.8192805 6.71709266,10.7699439 6.69732046,10.7981518 C6.65930502,10.7905644 6.62122008,10.7830132 6.58313514,10.7753894 C6.53243629,10.7485974 6.56788031,10.7039076 6.56249421,10.6677855 C6.60533977,10.6055974 6.56871429,10.5300132 6.5845251,10.4762838 C6.57628958,10.523297 6.58918147,10.5845413 6.5790695,10.6438614 C6.54511969,10.6811089 6.57246718,10.7516106 6.51356757,10.7752805 C6.4818417,10.7885677 6.44090734,10.8169934 6.41696525,10.7874422 C6.34656371,10.7005314 6.22000772,10.7015116 6.16055212,10.5999703 C6.14752124,10.5777162 6.12767954,10.5584752 6.09835135,10.5514686 C6.07743243,10.5464224 6.04553282,10.531901 6.04202317,10.5159274 C6.01776834,10.4052376 6.0012973,10.2952013 5.85392664,10.2940396 C5.83359846,10.2938581 5.82699614,10.2493861 5.87453282,10.2342838 C5.96981467,10.2038251 6.05814672,10.1540891 6.13966795,10.093934 C6.19231274,10.0550165 6.2477027,10.0174422 6.27240927,9.9489736 C6.29426641,9.88845545 6.35486873,9.8859868 6.39993822,9.86042904 C6.45887259,9.83610561 6.51773745,9.81134653 6.58306564,9.83142244 C6.65388417,9.84391089 6.72161004,9.8600297 6.713861,9.95982838" id="Fill-16" fill="#F3DF20"></path>
                    <path d="M5.16315058,2.45608581 C5.21756757,2.5900462 5.28049807,2.53682508 5.35058687,2.44987789 C5.35809266,2.52894719 5.44173359,2.56289109 5.41542857,2.64479208 C5.4142471,2.64849505 5.42300386,2.65764356 5.4287722,2.66149175 C5.51369884,2.71819802 5.51376834,2.71805281 5.46251351,2.84536964 C5.45153282,2.884033 5.42838996,2.8969934 5.39190347,2.8820363 C5.36167181,2.86707921 5.33018919,2.8560066 5.29630888,2.85350165 C5.27671042,2.85023432 5.25843243,2.8429736 5.24095367,2.83335314 C5.22781853,2.82645545 5.21523938,2.81850495 5.20248649,2.81084488 C5.16742471,2.78637624 5.12607336,2.79668647 5.08812741,2.78866337 C5.07822394,2.78739274 5.06845946,2.7849967 5.05886873,2.78227393 C5.03027027,2.77014851 5.00240154,2.77131023 4.9753668,2.78775578 C4.96146718,2.79468977 4.94697683,2.79937294 4.93161776,2.80075248 C4.91594595,2.80089769 4.9012471,2.79675908 4.88724324,2.78986139 C4.87831274,2.78550495 4.86986873,2.78005941 4.8618417,2.774033 C4.83956757,2.75268647 4.81371429,2.74484488 4.78389961,2.75221452 C4.77413514,2.75359406 4.7644749,2.75344884 4.75474517,2.75254125 C4.73525097,2.74989109 4.71686873,2.74310231 4.69862548,2.7360231 C4.68038224,2.72988779 4.66168726,2.72545875 4.64344402,2.71965017 C4.62533977,2.71180858 4.60709653,2.71068317 4.58850579,2.71823432 C4.56876834,2.72433333 4.54885714,2.72818152 4.52821622,2.72553135 C4.45944788,2.68908251 4.38671815,2.70233333 4.31471815,2.70737954 C4.28337452,2.69961056 4.25422008,2.67343564 4.21943629,2.69543564 C4.19796139,2.7070165 4.17738996,2.72084818 4.15285714,2.72462376 C4.12766409,2.72647525 4.10254054,2.72959736 4.077139,2.72643894 C3.95252896,2.73914521 3.82767568,2.66370627 3.70327413,2.72847195 C3.69138996,2.73112211 3.67961004,2.73152145 3.66762162,2.73028713 C3.60152896,2.70756106 3.51503861,2.75083498 3.46889189,2.66359736 C3.44790347,2.60910561 3.4273668,2.55628383 3.52171042,2.58732343 C3.58436293,2.60794389 3.56549421,2.55766337 3.56733591,2.52626073 C3.56073359,2.51653135 3.55864865,2.50585809 3.56111583,2.49420462 C3.60747104,2.44588449 3.64930888,2.48244224 3.69344015,2.50320792 C3.70244015,2.46370957 3.69145946,2.41658746 3.73378378,2.39135644 C3.76231274,2.38271617 3.78323166,2.39948845 3.80460232,2.41422772 C3.81836293,2.42217822 3.83003861,2.43793399 3.84876834,2.42635314 C3.86256371,2.40584158 3.85967954,2.38017492 3.86937452,2.35861056 C3.87344015,2.34833663 3.879139,2.33936964 3.88598456,2.3309835 C3.90648649,2.31029043 3.93094981,2.30266667 3.95881853,2.30618812 C4.00013514,2.31831353 4.03599614,2.30756766 4.06723552,2.27721782 C4.08603475,2.26487459 4.10601544,2.25739604 4.12853282,2.25971947 C4.20070656,2.28139274 4.2156834,2.3500429 4.24174517,2.4090363 C4.27517375,2.44327063 4.28243629,2.3869637 4.30603089,2.38837954 C4.31607336,2.38667327 4.32566409,2.38805281 4.33483784,2.39269967 C4.36757143,2.39509571 4.33654054,2.47946535 4.3974556,2.44519472 C4.40409266,2.43724422 4.41149421,2.43078218 4.41966023,2.42482838 C4.45618147,2.40068647 4.48728185,2.41811221 4.51747876,2.43731683 C4.54642471,2.42018152 4.53620849,2.36848515 4.5772471,2.3630033 C4.60313514,2.36162376 4.62217761,2.3760363 4.64000386,2.39186469 C4.64830888,2.39117492 4.65418147,2.38739934 4.65744788,2.37846865 C4.70376834,2.30738614 4.74894208,2.28763696 4.79164865,2.38050165 C4.79647876,2.39219142 4.79745174,2.40664026 4.8112471,2.41219472 C4.82848263,2.40751155 4.84540541,2.40315512 4.86288417,2.40892739 C4.91149807,2.42363036 4.89551351,2.48806931 4.93509266,2.50934323 C4.96250965,2.49921452 5.00080309,2.53591749 5.01765637,2.486 C5.03409266,2.44751815 5.05195367,2.41081518 5.09691892,2.40210231 C5.13406564,2.39992409 5.15071042,2.42522772 5.16315058,2.45608581" id="Fill-17" fill="#326C37"></path>
                    <path d="M5.22458687,1.67966007 C5.16537452,1.70147855 5.10623166,1.72329703 5.04705405,1.74507921 C5.01230502,1.76261386 4.97373359,1.76228713 4.93710811,1.77114521 C4.92018533,1.77873267 4.9032278,1.78632013 4.88627027,1.79387129 C4.85033977,1.77412211 4.82049035,1.81126073 4.78594981,1.80548845 C4.71127413,1.80556106 4.63666795,1.80559736 4.56202703,1.80548845 C4.49440541,1.78341584 4.42323938,1.78559406 4.35447104,1.77179868 C4.28691892,1.73923432 4.21943629,1.70666997 4.15191892,1.67406931 C4.08367181,1.62015842 4.05330116,1.69733993 4.00708494,1.71973927 C4.00701544,1.76747855 3.99659073,1.81075248 3.95888803,1.84233663 C3.95159073,1.8499604 3.94290347,1.85348185 3.93251351,1.85242904 C3.90401931,1.84382508 3.87969498,1.82523762 3.85165251,1.81550825 C3.82837066,1.80556106 3.80519305,1.79550495 3.78271042,1.78356106 C3.71314286,1.74424422 3.64183784,1.74820132 3.56973359,1.7739769 C3.50402317,1.78425083 3.46579923,1.86684158 3.38935135,1.84956106 C3.35422008,1.79692079 3.36909266,1.74994389 3.40411969,1.70521782 C3.49596139,1.67054785 3.55816216,1.59416502 3.62929344,1.53037954 C3.66185328,1.52417162 3.67978378,1.49189769 3.70966795,1.4810066 C3.77103475,1.48761386 3.82253282,1.53346535 3.88650579,1.52972607 C3.93157529,1.55706271 3.98592278,1.52173927 4.03033205,1.55306931 L4.0283166,1.55281518 C4.11386873,1.570967 4.1994556,1.57133003 4.28497297,1.55252475 L4.28264479,1.55266997 C4.32086873,1.52155776 4.37434749,1.56080198 4.41086873,1.52224752 C4.41865251,1.51357096 4.42779151,1.50681848 4.43804247,1.50173597 C4.48495367,1.48158746 4.53704247,1.50434983 4.58391892,1.48264026 C4.59104247,1.48093399 4.59806178,1.47890099 4.60501158,1.47654125 C4.64657143,1.46361716 4.68691506,1.4469538 4.72826641,1.43352145 C4.91573745,1.34352475 5.09580695,1.24122112 5.24922394,1.09419142 C5.28894208,1.07807261 5.3153861,1.04478218 5.34388031,1.01417822 C5.37619691,0.978092409 5.40597683,0.928646865 5.45969884,0.939283828 C5.54431274,0.956056106 5.55758687,1.01875248 5.49781853,1.09382838 C5.45302703,1.06235314 5.4161583,1.07680198 5.38349421,1.11535644 C5.31086873,1.18919802 5.23827799,1.2630396 5.16568726,1.33684488 C5.1336139,1.37078878 5.10873359,1.41315512 5.0634556,1.43145215 C5.03381467,1.45835314 5.00417375,1.48518152 4.97453282,1.51208251 C4.95510811,1.53676898 4.93742085,1.56428713 4.9013861,1.56294389 C4.89110039,1.56051155 4.88144015,1.55659076 4.87257915,1.55056436 C4.88394208,1.56105611 4.89808494,1.56268977 4.91240154,1.56385149 C4.92807336,1.56236304 4.94357143,1.56156436 4.95451737,1.57670297 L4.95312741,1.5759769 C4.98794595,1.60585479 5.03544788,1.57114851 5.07030116,1.6010264 L5.06825097,1.60011881 C5.10619691,1.62527723 5.14824324,1.61079208 5.18816988,1.61177228 C5.24199614,1.61315182 5.24102317,1.64034323 5.22458687,1.67966007" id="Fill-18" fill="#8D8173"></path>
                    <path d="M3.43386486,3.17308251 C3.44067568,3.1649505 3.44741699,3.15681848 3.4542278,3.14868647 C3.46753668,3.12617822 3.47080309,3.09833333 3.48835135,3.077967 C3.51827027,3.04812541 3.55374903,3.02565347 3.5854749,2.9980264 C3.61351737,2.97951155 3.64361004,2.97246865 3.67627413,2.98081848 C3.69858301,2.98655446 3.71991892,3.00064026 3.74438224,2.98956766 C3.75251351,2.9840132 3.76095753,2.97951155 3.76961004,2.97519142 C3.78802703,2.96611551 3.80703475,2.96056106 3.82753668,2.96263036 C3.84783012,2.96520792 3.86732432,2.97134323 3.88681853,2.97747855 C3.93084556,2.99624752 3.97758301,2.98728053 4.02296525,2.99174587 C4.03318147,2.99254455 4.04322394,2.99461386 4.05316216,2.99715512 C4.10737066,3.02267657 4.15952896,3.01291089 4.21071429,2.98666337 C4.26110039,2.98274257 4.31054826,3.00546865 4.36128185,2.99174587 C4.38755212,2.98989439 4.41385714,2.99040264 4.44005792,2.98778878 C4.48811583,2.98557426 4.53485328,2.97482838 4.58145174,2.9629571 C4.62176062,2.96186799 4.65543243,2.98386799 4.69167568,2.99722772 C4.72559073,3.022967 4.78772201,3.0060495 4.79564479,3.07150495 C4.78626255,3.10385149 4.76273745,3.11909901 4.73372201,3.12784818 C4.69727027,3.13608911 4.65737838,3.126033 4.62381081,3.15017492 C4.49576062,3.2179538 4.35850193,3.26206271 4.22683784,3.32043894 C4.167,3.33742904 4.11233977,3.36411221 4.06890347,3.41217822 C3.96260618,3.46946535 3.88132819,3.57507261 3.75345174,3.59090099 C3.63718147,3.58817822 3.52025097,3.60306271 3.40526641,3.57412871 C3.38069884,3.5780132 3.35640927,3.57754125 3.33257143,3.56944554 C3.23760232,3.51368317 3.26425483,3.43653795 3.29841313,3.35794059 C3.30581467,3.32933333 3.31863707,3.30341254 3.33458687,3.27908911 C3.36488803,3.2409703 3.40196525,3.20967657 3.43386486,3.17308251" id="Fill-19" fill="#8D8173"></path>
                    <path d="M2.33058301,9.88380858 C2.38541699,9.91343234 2.43097297,9.95340264 2.46902317,10.0052442 C2.55290734,10.1196007 2.66844788,10.1883234 2.79399614,10.2411089 C2.835,10.2605314 2.85192278,10.28333 2.80355212,10.3152772 L2.80518533,10.3138251 C2.78416216,10.336297 2.75681467,10.3226832 2.73297683,10.3282376 C2.71674903,10.3320495 2.68662162,10.3112838 2.68780309,10.3520528 C2.68106178,10.4311947 2.68947104,10.5213366 2.57340927,10.5196667 C2.56458301,10.5195215 2.5487722,10.5275446 2.54783398,10.5336799 C2.52799228,10.6673498 2.3725251,10.6212442 2.32450193,10.7175941 C2.32071429,10.7251452 2.30010811,10.7321155 2.29343629,10.7281584 C2.18835521,10.6654983 2.06940927,10.7523729 1.96300772,10.6916733 C2.06989575,10.5849406 2.04397297,10.4451716 2.0430695,10.3127723 C2.04227027,10.2009208 2.02107336,10.0883432 2.06360618,9.97961386 C2.06430116,9.97434983 2.06503089,9.96915842 2.06572587,9.96389439 C2.07378764,9.93143894 2.09540154,9.90885809 2.11743243,9.88653135 C2.14307722,9.86674587 2.17560232,9.86721782 2.20378378,9.85411221 C2.2375251,9.84616172 2.27081467,9.84325743 2.30219305,9.86286139 C2.31147104,9.87015842 2.32092278,9.87716502 2.33058301,9.88380858" id="Fill-20" fill="#F3DF20"></path>
                    <path d="M4.10295753,1.14479868 C3.98613127,1.19159406 3.85693436,1.2200198 3.80821622,1.36614191 C3.67074903,1.24746535 3.64079537,0.966910891 3.74629344,0.826887789 C3.7673166,0.799006601 3.78364865,0.766151815 3.79713127,0.733333333 C3.86982625,0.557224422 3.9490888,0.52640264 4.12106178,0.609683168 C4.15556757,0.63469637 4.19653668,0.644171617 4.23451737,0.660508251 C4.25418533,0.663920792 4.27430502,0.66649835 4.28737066,0.68530363 C4.39881081,0.765135314 4.40503089,0.869544554 4.3057529,0.994683168 C4.28198456,1.10929373 4.17228185,1.09731353 4.10295753,1.14479868" id="Fill-21" fill="#326C37"></path>
                    <path d="M4.72267181,3.09728053 C4.74494595,3.08954785 4.76718533,3.08185149 4.78945946,3.07411881 C4.79481081,3.07306601 4.80019691,3.0720132 4.80551351,3.07088779 C4.86319691,3.06754785 4.91000386,3.07480858 4.88084942,3.15569307 C4.82681467,3.21465017 4.7484556,3.21566667 4.68257143,3.24659736 C4.64233205,3.25189769 4.60594981,3.26863366 4.57085328,3.2889637 C4.53019691,3.30816832 4.48950579,3.32730033 4.45923938,3.36356766 C4.37545946,3.41381188 4.30286873,3.4839505 4.2100888,3.51807591 C4.17405405,3.50083168 4.16932819,3.54294389 4.14830502,3.55441584 C4.11908108,3.57078878 4.09795367,3.59718152 4.0735251,3.61961716 C3.86298069,3.81213531 3.62349035,3.90485479 3.34160618,3.85156106 C3.28906564,3.83515182 3.2363166,3.81928713 3.18662548,3.79441914 C3.15357915,3.77554125 3.11267954,3.79790429 3.08091892,3.77238284 L3.0834556,3.77332673 C3.02500772,3.74693399 2.96346718,3.76857096 2.90390734,3.76069307 C2.87332819,3.75659076 2.83222008,3.77844554 2.81880695,3.72664026 C2.8241583,3.68648845 2.84514672,3.65661056 2.87551737,3.6329769 C2.89157143,3.59188119 2.92857915,3.56537954 2.9447027,3.52432013 C2.9575251,3.511033 2.97034749,3.49770957 2.98320463,3.48438614 C3.01583398,3.47026403 3.03869884,3.44445215 3.05892278,3.41544554 C3.14426641,3.35783168 3.22961004,3.30021782 3.31495367,3.24260396 C3.35098842,3.23516172 3.38636293,3.22840924 3.36009266,3.28820132 C3.35039768,3.3159736 3.34066795,3.34374587 3.33093822,3.37151815 C3.29448649,3.40088779 3.27082239,3.44154785 3.24423938,3.47959406 C3.20778764,3.51760396 3.16525483,3.54642904 3.11962934,3.57082508 C3.10190734,3.59032013 3.04766409,3.58563696 3.08050193,3.63733333 C3.12105405,3.64630033 3.1626139,3.63787789 3.20257529,3.64862376 C3.2688417,3.67283828 3.33503861,3.67236634 3.40116602,3.64847855 C3.43389961,3.64049175 3.46736293,3.64234323 3.50051351,3.64092739 C3.54235135,3.63987459 3.5800888,3.6230297 3.617861,3.60629373 C3.636,3.59623762 3.65518147,3.58937624 3.67523166,3.58494719 C3.70966795,3.58019142 3.74598069,3.58284158 3.7746834,3.55615842 C3.87990347,3.52675248 3.94457143,3.42150825 4.05118147,3.39475248 C4.09698069,3.344 4.16578378,3.33270957 4.21616988,3.28983498 C4.347,3.23370957 4.47779537,3.17754785 4.60862548,3.12138614 C4.64650193,3.11267327 4.68691506,3.1170297 4.72267181,3.09728053" id="Fill-22" fill="#8D8073"></path>
                    <path d="M2.76376448,4.59161056 C2.77092278,4.5600264 2.77811583,4.52844224 2.78523938,4.49678548 C2.80118919,4.46124422 2.78329344,4.45576238 2.75486873,4.45953795 C2.72293436,4.4620429 2.68811583,4.45550825 2.66684942,4.49072277 C2.62831274,4.49892739 2.58970656,4.50713201 2.55116988,4.51533663 C2.4966834,4.5140297 2.44038996,4.48985149 2.38910039,4.52927723 C2.31438996,4.56133333 2.23710811,4.54525083 2.16052124,4.54238284 C2.12636293,4.5210363 2.11249807,4.49889109 2.16455212,4.48709241 C2.20364479,4.47823432 2.2463166,4.4950066 2.28419305,4.47184488 C2.63084942,4.37676568 2.9482471,4.22530693 3.20149807,3.95088779 C3.22203475,3.92863366 3.25264865,3.9120429 3.24809653,3.87305281 C3.35050193,3.90550825 3.38396525,3.99387129 3.40881081,4.08934983 C3.40467568,4.12841254 3.37440927,4.15357096 3.36078764,4.18762376 C3.22787259,4.36024752 3.06910425,4.49950825 2.87704633,4.59560396 C2.83885714,4.60722112 2.799,4.67176898 2.76376448,4.59161056" id="Fill-23" fill="#306435"></path>
                    <path d="M4.21227799,0.228023102 C3.81335907,0.164092409 3.51020849,0.375089109 3.36057915,0.820679868 C3.34761776,0.836689769 3.34386486,0.873973597 3.31095753,0.844386139 C3.25132819,0.774066007 3.22971429,0.703273927 3.29330502,0.619267327 C3.31266023,0.593636964 3.32110425,0.550653465 3.31867181,0.516854785 C3.3083166,0.372983498 3.37652896,0.292207921 3.50044402,0.250349835 C3.51121622,0.246719472 3.52428185,0.242181518 3.53064093,0.233541254 C3.63818919,0.0861122112 3.81037066,0.095950495 3.9563166,0.0432739274 C4.05820077,0.00649834983 4.19087259,0.0779438944 4.26203861,0.199524752 C4.2622471,0.241092409 4.23962548,0.239059406 4.21227799,0.228023102" id="Fill-24" fill="#316A36"></path>
                    <path id="Fill-25" fill="#F1DD22"></path>
                    <path d="M4.21227799,0.228023102 C4.22885328,0.218547855 4.24546332,0.209036304 4.26203861,0.199524752 C4.34800772,0.17639934 4.37698842,0.193752475 4.3307722,0.288867987 C4.29640541,0.359587459 4.27993436,0.438765677 4.28181081,0.532211221 C4.35381081,0.4969967 4.41277992,0.450419142 4.48634363,0.447188119 C4.5379112,0.444937294 4.51803475,0.406419142 4.52084942,0.377085809 C4.52505405,0.333376238 4.49694208,0.265488449 4.55910811,0.256666667 C4.61633977,0.248534653 4.63764093,0.309669967 4.65216602,0.361511551 C4.66954054,0.368554455 4.65633591,0.439165017 4.70192664,0.387650165 C4.72465251,0.372874587 4.74682239,0.315768977 4.77079923,0.386561056 C4.7843861,0.413389439 4.78727027,0.440326733 4.7717722,0.467518152 C4.75874131,0.490643564 4.74101931,0.510429043 4.72826641,0.533772277 C4.71169112,0.561871287 4.71141313,0.588917492 4.73281853,0.614656766 C4.75297297,0.660871287 4.832861,0.650343234 4.82646718,0.721534653 C4.80815444,0.733841584 4.77691506,0.760016502 4.77340541,0.756422442 C4.69094595,0.672524752 4.60476834,0.722405941 4.52957143,0.755841584 C4.50253668,0.729231023 4.52105792,0.717432343 4.52422008,0.70439934 C4.53568726,0.657023102 4.57519691,0.590333333 4.53450579,0.565610561 C4.47908108,0.531993399 4.40732432,0.549963696 4.35718147,0.607759076 C4.3343861,0.634042904 4.31068726,0.659455446 4.28737066,0.685267327 C4.27051737,0.692455446 4.25373359,0.699643564 4.23691506,0.706831683 C4.17676448,0.662250825 4.15827799,0.602894389 4.18965637,0.533590759 C4.20842085,0.49220462 4.19340927,0.446389439 4.2136332,0.406891089 C4.19556371,0.347425743 4.29473745,0.286943894 4.21227799,0.228023102" id="Fill-26" fill="#306735"></path>
                    <path id="Fill-27" fill="#BD262B"></path>
                    <path d="M3.40877606,1.84142904 C3.44418533,1.79608581 3.49338996,1.77266997 3.54276834,1.74958086 C3.62786873,1.73084818 3.71342085,1.70467327 3.79351737,1.76664356 C3.81902317,1.76958416 3.84609266,1.7670066 3.86649035,1.78860726 C3.89376834,1.81365677 3.92375676,1.83580198 3.94491892,1.86749505 C3.95770656,1.90314521 3.92883012,1.92946535 3.92559846,1.96152145 C3.92532046,1.97281188 3.9221583,1.98308581 3.91614672,1.99248845 C3.88004247,2.00439604 3.85627413,1.98058086 3.83097683,1.96086799 C3.80223938,1.93276898 3.77336293,1.90477888 3.73479151,1.89141914 C3.6863166,1.87032673 3.63811969,1.87148845 3.59002703,1.89254455 C3.55197683,1.89374257 3.53043243,1.91948185 3.51208494,1.94994059 C3.4848417,1.97092409 3.45881467,1.99292409 3.44957143,2.02948185 C3.43393436,2.07576898 3.4362278,2.12169307 3.45148263,2.16732673 C3.46010039,2.20119802 3.46611197,2.23641254 3.4975251,2.25765017 C3.53064093,2.29126733 3.57150579,2.31029043 3.61417761,2.32630033 C3.64889189,2.34539604 3.69844402,2.33432343 3.71849421,2.38275248 C3.70772201,2.50150165 3.70772201,2.50150165 3.57049807,2.47017162 C3.54669498,2.46036964 3.51983398,2.4610231 3.49735135,2.44668317 C3.40085328,2.39774587 3.33667181,2.32110891 3.31189575,2.21067327 C3.29514672,2.13788449 3.29730116,2.0649505 3.31061004,1.99194389 C3.31332046,1.95244554 3.3336834,1.92111551 3.35401158,1.88974917 C3.37260232,1.87406601 3.38358301,1.8489802 3.40877606,1.84142904" id="Fill-28" fill="#8D8073"></path>
                    <path id="Fill-29" fill="#F0DD22"></path>
                    <path id="Fill-30" fill="#EFDC23"></path>
                    <path d="M3.38469498,4.08165347 C3.33917375,4.01213201 3.29358301,3.94257426 3.24806178,3.8730165 C3.23763707,3.86517492 3.22717761,3.85726073 3.21671815,3.84938284 C3.23350193,3.76769967 3.28065637,3.82393399 3.31571815,3.82549505 C3.36235135,3.84615182 3.39967181,3.87769967 3.43271815,3.91879538 C3.58530116,4.10855446 3.690139,4.32521452 3.76686486,4.55770297 C3.78681081,4.6180033 3.80335135,4.68178878 3.75758687,4.74020132 C3.64051737,4.7009934 3.63759846,4.59818152 3.63322008,4.49624092 C3.56469498,4.37734653 3.49613514,4.25848845 3.42764479,4.13959406 C3.41124324,4.1219505 3.39682239,4.10274587 3.38469498,4.08165347" id="Fill-31" fill="#8B7F72"></path>
                    <path id="Fill-32" fill="#316A36"></path>
                    <path id="Fill-33" fill="#2C5D33"></path>
                    <path id="Fill-34" fill="#1D2116"></path>
                    <path id="Fill-35" fill="#333A21"></path>
                    <path id="Fill-36" fill="#172629"></path>
                    <path id="Fill-37" fill="#635F2C"></path>
                    <path id="Fill-38" fill="#264628"></path>
                    <path id="Fill-39" fill="#1F311F"></path>
                    <path id="Fill-40" fill="#20232A"></path>
                    <path id="Fill-41" fill="#58592A"></path>
                    <path id="Fill-42" fill="#1D202B"></path>
                    <path id="Fill-43" fill="#455228"></path>
                    <path id="Fill-44" fill="#353C22"></path>
                    <path id="Fill-45" fill="#313D23"></path>
                    <path id="Fill-46" fill="#17251C"></path>
                    <path id="Fill-47" fill="#3E4728"></path>
                    <path id="Fill-48" fill="#151F1C"></path>
                    <path id="Fill-49" fill="#323131"></path>
                    <path id="Fill-50" fill="#1C1F3D"></path>
                    <path id="Fill-51" fill="#877F35"></path>
                    <path id="Fill-52" fill="#242527"></path>
                    <path id="Fill-53" fill="#1B1E29"></path>
                    <path id="Fill-54" fill="#4C463F"></path>
                    <path id="Fill-55" fill="#171B29"></path>
                    <path id="Fill-56" fill="#66602C"></path>
                    <path id="Fill-57" fill="#0F1824"></path>
                    <path id="Fill-58" fill="#181D27"></path>
                    <path id="Fill-59" fill="#121E31"></path>
                    <path id="Fill-60" fill="#1D1F1F"></path>
                    <path id="Fill-61" fill="#303436"></path>
                    <path id="Fill-62" fill="#1C242D"></path>
                    <path id="Fill-63" fill="#555128"></path>
                    <path id="Fill-64" fill="#121D2E"></path>
                    <path id="Fill-65" fill="#111C2B"></path>
                    <path id="Fill-66" fill="#424022"></path>
                    <path id="Fill-67" fill="#121B1F"></path>
                    <path id="Fill-68" fill="#3C3F2D"></path>
                    <path id="Fill-69" fill="#6A662E"></path>
                    <path id="Fill-70" fill="#161B36"></path>
                    <path id="Fill-71" fill="#191D27"></path>
                    <path id="Fill-72" fill="#252635"></path>
                    <path id="Fill-73" fill="#101524"></path>
                    <path id="Fill-74" fill="#292A38"></path>
                    <path id="Fill-75" fill="#2C1415"></path>
                    <path id="Fill-76" fill="#121D1C"></path>
                    <path id="Fill-77" fill="#0F120F"></path>
                    <path id="Fill-78" fill="#7B7630"></path>
                    <path id="Fill-79" fill="#70692F"></path>
                    <path id="Fill-80" fill="#292D1F"></path>
                    <path id="Fill-81" fill="#222530"></path>
                    <path id="Fill-82" fill="#2E2E39"></path>
                    <path id="Fill-83" fill="#1C2027"></path>
                    <path id="Fill-84" fill="#3B3D2D"></path>
                    <path id="Fill-85" fill="#1D1F26"></path>
                    <path id="Fill-86" fill="#2B2C38"></path>
                    <path id="Fill-87" fill="#171B1B"></path>
                    <path id="Fill-88" fill="#383734"></path>
                    <path id="Fill-89" fill="#2F2F3B"></path>
                    <path id="Fill-90" fill="#232324"></path>
                    <path id="Fill-91" fill="#292A38"></path>
                    <path id="Fill-92" fill="#0E1615"></path>
                    <path id="Fill-93" fill="#101627"></path>
                    <path id="Fill-94" fill="#24262A"></path>
                    <path id="Fill-95" fill="#0E1720"></path>
                    <path id="Fill-96" fill="#2C2C31"></path>
                    <path d="M4.09510425,10.3590594 C4.02178378,10.2623465 3.89679151,10.2498218 3.81308108,10.1700264 C3.76234749,10.1392046 3.70150193,10.1270792 3.65994208,10.0794125 C3.62369884,10.0717525 3.58787259,10.0632211 3.56532046,10.0280066 C3.53206564,9.99776568 3.49498842,9.97115512 3.47643243,9.92679208 L3.47980309,9.92744554 C3.44800772,9.90257756 3.46381853,9.8770198 3.47865637,9.85138944 C3.51851351,9.8200231 3.56205405,9.8010363 3.61330888,9.8090231 C3.66233977,9.94537954 3.78465637,9.97772607 3.89567954,10.0255017 C3.96430888,10.0550165 4.03867181,10.0715347 4.09698069,10.1239571 C4.17780695,10.1825512 4.18062162,10.1306733 4.18044788,10.0630033 C4.17930116,9.59926073 4.17950965,9.13555446 4.18044788,8.67184818 C4.18055212,8.62890099 4.16918919,8.58388449 4.19264479,8.54278878 C4.27162934,8.50739274 4.34977992,8.50176568 4.42671429,8.54877888 C4.44304633,8.86055446 4.43043243,9.17262046 4.4334556,9.48457756 C4.43554054,9.69673597 4.43279537,9.908967 4.43477606,10.1210891 C4.4351583,10.1609868 4.41357915,10.212538 4.47004633,10.2351914 C4.6062278,10.1781947 4.72732819,10.0958218 4.83821236,9.99631353 C4.85979151,9.9699934 4.8799112,9.94189439 4.91354826,9.93078548 C4.99294981,9.88460726 4.94266795,9.83991749 4.90204633,9.81940594 C4.7809112,9.75819802 4.86312741,9.72541584 4.91410425,9.68766007 C4.99965637,9.62434653 5.09750965,9.58633663 5.19220077,9.54161056 C5.25207336,9.51333003 5.30346718,9.47306931 5.32535907,9.40336634 C5.39131274,9.46617162 5.35037838,9.53805281 5.34120463,9.60713861 C5.30680309,9.74737954 5.24415058,9.87019472 5.13719305,9.96552805 C5.11425869,9.9800495 5.08746718,9.985967 5.06460232,10.00067 C5.01963707,10.0437624 4.97470656,10.0869274 4.92974131,10.1299835 C4.90103861,10.1636007 4.87612355,10.2018284 4.83220077,10.2167492 C4.82452124,10.2175479 4.81857915,10.2212871 4.81437452,10.2280759 C4.7934556,10.253198 4.77211969,10.2777756 4.74088031,10.2893201 C4.67294595,10.3409076 4.60501158,10.392495 4.53707722,10.4440825 C4.51654054,10.4702574 4.49492664,10.4950165 4.46316602,10.5067789 C4.45969112,10.5083036 4.45548649,10.5091023 4.45277606,10.511571 C4.30683012,10.6452772 4.30686486,10.6452772 4.2102278,10.4608548 C4.16821622,10.4314488 4.14076448,10.3840363 4.09510425,10.3590594" id="Fill-97" fill="#F4E01F"></path>
                    <path d="M4.54037838,7.56792739 C4.5377722,7.57221122 4.53693822,7.57685809 4.5378417,7.58183168 C4.34620077,7.60909571 4.15469884,7.61432343 3.96330116,7.57994389 C3.96152896,7.56662046 3.95979151,7.55329703 3.95801931,7.53993729 C3.94332046,7.29688449 3.94147876,7.05394059 3.95913127,6.8109967 C3.96646332,6.80591419 3.97386486,6.80086799 3.98123166,6.79582178 C4.14941699,6.76380198 4.31881853,6.78242574 4.48773359,6.78322442 C4.51115444,6.78333333 4.53259459,6.7940429 4.54948263,6.81241254 C4.59764479,6.96412541 4.56456371,7.12030363 4.57081853,7.27430363 C4.57481467,7.37265017 4.58701158,7.47433663 4.54037838,7.56792739" id="Fill-98" fill="#FFFFFE"></path>
                    <path d="M3.61330888,9.8090231 C3.58109653,9.84387459 3.53460232,9.84136964 3.49540541,9.8579967 C3.47226255,9.8740066 3.4524556,9.8959703 3.42364865,9.90188779 C3.41600386,9.90279538 3.40957529,9.90624422 3.40450193,9.91230693 C3.3840695,9.92733663 3.37711969,9.97148185 3.33795753,9.94581518 C3.3281583,9.90010891 3.31839382,9.85447525 3.30862934,9.80873267 C3.25584556,9.69524752 3.28114286,9.5799835 3.30154054,9.46475578 C3.32072201,9.40608911 3.2635251,9.33213861 3.33469112,9.28389109 C3.40262548,9.33075908 3.47059459,9.37762706 3.53852896,9.42449505 C3.57202703,9.43473267 3.59183398,9.46243234 3.61316988,9.48817162 C3.62310811,9.49859076 3.63297683,9.5089736 3.64288031,9.51939274 C3.66783012,9.54190099 3.69493436,9.56255776 3.70396911,9.59842574 C3.70348263,9.60532343 3.70581081,9.6109868 3.71084942,9.61545215 C3.74865637,9.65578548 3.76961004,9.70581188 3.78583784,9.75856106 C3.75866409,9.82967987 3.70271815,9.78557096 3.65959459,9.79308581 C3.64420077,9.79842244 3.6287722,9.80372277 3.61330888,9.8090231" id="Fill-99" fill="#F3DF20"></path>
                    <path id="Fill-100" fill="#F3E020"></path>
                    <path id="Fill-101" fill="#F3DF20"></path>
                    <path id="Fill-102" fill="#EDDA24"></path>
                    <path d="M4.63298456,7.49234323 C4.61036293,7.50766337 4.58774131,7.5229835 4.56511969,7.53830363 C4.53026641,7.34110231 4.55976834,7.1420495 4.54892664,6.94423102 C4.54645946,6.89808911 4.56550193,6.84857096 4.53301158,6.80609571 C4.42052896,6.77447525 4.3056139,6.80035974 4.1923668,6.78986799 C4.1563668,6.78652805 4.10167181,6.81092409 4.09816216,6.73860726 C4.27003089,6.69729373 4.44356757,6.72325083 4.61654826,6.72448515 C4.63093436,6.73029373 4.64201931,6.74013201 4.65001158,6.75389109 C4.67913127,6.9819868 4.66321622,7.21073597 4.65873359,7.43933993 C4.65835135,7.45992409 4.64448649,7.47618812 4.63298456,7.49234323" id="Fill-103" fill="#E4E4DF"></path>
                    <path id="Fill-104" fill="#2D3C20"></path>
                    <path id="Fill-105" fill="#EBD825"></path>
                    <path id="Fill-106" fill="#303A1F"></path>
                    <path id="Fill-107" fill="#F0DC23"></path>
                    <path id="Fill-108" fill="#9F9F9B"></path>
                    <path id="Fill-109" fill="#394336"></path>
                    <path id="Fill-110" fill="#ECD924"></path>
                    <path id="Fill-111" fill="#EAD726"></path>
                    <path id="Fill-112" fill="#7E827B"></path>
                    <path id="Fill-113" fill="#5C5D59"></path>
                    <path id="Fill-114" fill="#29512B"></path>
                    <path id="Fill-115" fill="#6F6F6C"></path>
                    <path id="Fill-116" fill="#263224"></path>
                    <path id="Fill-117" fill="#3D483A"></path>
                    <path id="Fill-118" fill="#474A26"></path>
                    <path id="Fill-119" fill="#E0CE2A"></path>
                    <path id="Fill-120" fill="#344123"></path>
                    <path id="Fill-121" fill="#3E4B26"></path>
                    <path id="Fill-122" fill="#40572B"></path>
                    <path id="Fill-123" fill="#E2D02A"></path>
                    <path id="Fill-124" fill="#363E22"></path>
                    <path id="Fill-125" fill="#314023"></path>
                    <path id="Fill-126" fill="#353E21"></path>
                    <path id="Fill-127" fill="#363E22"></path>
                    <path id="Fill-128" fill="#363920"></path>
                    <path id="Fill-129" fill="#303B20"></path>
                    <path id="Fill-130" fill="#4F582A"></path>
                    <path id="Fill-131" fill="#333C21"></path>
                    <path id="Fill-132" fill="#4B572B"></path>
                    <path id="Fill-133" fill="#3A4223"></path>
                    <path id="Fill-134" fill="#2C5B30"></path>
                    <path id="Fill-135" fill="#3C4725"></path>
                    <path id="Fill-136" fill="#394424"></path>
                    <path id="Fill-137" fill="#383B21"></path>
                    <path id="Fill-138" fill="#445129"></path>
                    <path id="Fill-139" fill="#344827"></path>
                    <path id="Fill-140" fill="#425028"></path>
                    <path id="Fill-141" fill="#2C4325"></path>
                    <path id="Fill-142" fill="#475128"></path>
                    <path id="Fill-143" fill="#384C28"></path>
                    <path id="Fill-144" fill="#414524"></path>
                    <path id="Fill-145" fill="#384324"></path>
                    <path id="Fill-146" fill="#494B26"></path>
                    <path id="Fill-147" fill="#455028"></path>
                    <path id="Fill-148" fill="#48552A"></path>
                    <path id="Fill-149" fill="#354223"></path>
                    <path id="Fill-150" fill="#50592A"></path>
                    <path id="Fill-151" fill="#465329"></path>
                    <path id="Fill-152" fill="#364827"></path>
                    <path id="Fill-153" fill="#425129"></path>
                    <path id="Fill-154" fill="#435129"></path>
                    <path id="Fill-155" fill="#262B56"></path>
                    <path id="Fill-156" fill="#1B2116"></path>
                    <path id="Fill-157" fill="#384124"></path>
                    <path id="Fill-158" fill="#15211B"></path>
                    <path id="Fill-159" fill="#353D23"></path>
                    <path id="Fill-160" fill="#2F3820"></path>
                    <path id="Fill-161" fill="#3C4325"></path>
                    <path id="Fill-162" fill="#3A4123"></path>
                    <path d="M4.37347876,5.44565347 C4.29664865,5.50014521 4.21985328,5.55467327 4.14302317,5.60916502 C4.02001158,5.62205281 3.92219305,5.71426403 3.79949421,5.72813201 C3.75883784,5.74751815 3.71807722,5.74624752 3.6772471,5.72878548 C3.60104247,5.65338284 3.58467568,5.55216832 3.5677529,5.45120792 C3.5477027,5.41192739 3.56066409,5.36854455 3.55354054,5.32770297 C3.53276062,5.28286799 3.53230888,5.23505611 3.53481081,5.18688119 C3.54919691,5.08773597 3.57119305,4.99076898 3.62800772,4.90756106 C3.65698842,4.86515842 3.69100772,4.82645875 3.74740541,4.82529703 C3.77374517,4.83226733 3.79073745,4.85078218 3.80342085,4.87459736 C3.8807027,5.02042904 3.82760618,5.15406271 3.76780309,5.2870066 C3.75025483,5.33028053 3.74035135,5.37536964 3.7403166,5.42256436 C3.73687645,5.44550825 3.72898842,5.46710891 3.72127413,5.48881848 C3.72759846,5.47491419 3.73044788,5.45966667 3.73611197,5.44536304 C3.74240154,5.39976568 3.74434749,5.35336964 3.75939382,5.30936964 C3.7746139,5.1450231 3.915139,5.17613531 4.00896139,5.13464026 C4.04888803,5.11993729 4.08805019,5.10316502 4.12491892,5.08094719 C4.07908494,5.10719472 4.03085328,5.12741584 3.98039768,5.14244554 C3.85874131,5.17569967 3.85780309,5.17573597 3.8536332,5.05175908 C3.84338224,4.743033 3.80838996,4.43848185 3.72249035,4.14144554 C3.7079305,4.0909835 3.67630888,4.01470957 3.73976062,3.99339934 C3.80216988,3.97245215 3.83313127,4.04538614 3.85620463,4.10176568 C3.87569884,4.14950495 3.88973745,4.19938614 3.90725097,4.24770627 C3.91510425,4.27678548 3.92097683,4.30662706 3.92848263,4.3359967 C3.93379923,4.35120792 3.94523166,4.3300066 3.93199228,4.33821122 C3.91420077,4.30027393 3.91652896,4.25569307 3.89571429,4.21866337 C3.88938996,4.18711551 3.87726255,4.15778218 3.86642085,4.12783168 C3.85269498,4.08985809 3.84143629,4.04687459 3.87180695,4.01470957 C3.90356757,3.98112871 3.933139,4.02766997 3.96774903,4.03010231 C3.96733205,3.86168977 4.06362162,3.76236304 4.19556371,3.69926733 C4.41934749,3.59228053 4.65334749,3.51633333 4.89815444,3.48188119 C4.97178764,3.47149835 5.0453861,3.47055446 5.08955212,3.55252805 C5.10223552,3.60407921 5.08440927,3.64306931 5.04451737,3.67312871 C5.00525097,3.69218812 4.96605405,3.71168317 4.92564093,3.72831023 C4.88408108,3.73847525 4.84165251,3.73484488 4.79957143,3.73669637 C4.76433591,3.73876568 4.73271429,3.72693069 4.70279537,3.70910561 C4.6781583,3.68961056 4.65272201,3.67632343 4.62262934,3.6979604 C4.59469112,3.73361056 4.57999228,3.7739802 4.58256371,3.82055776 C4.56626641,3.89643234 4.5666139,3.97230693 4.58266795,4.04818152 C4.61588803,4.13451155 4.67892278,4.18464686 4.76256371,4.20984158 C4.84717761,4.23358416 4.93408494,4.21049505 5.01918533,4.22320132 C5.1085251,4.3400264 5.11168726,4.48164686 5.11533591,4.61974587 C5.1173166,4.69612871 5.04243243,4.69053795 4.98909266,4.70041254 C5.16228185,4.65071287 5.3208417,4.6699901 5.46682239,4.7799901 C5.54302703,4.87350825 5.61474903,4.97018482 5.65477992,5.0880264 C5.65717761,5.14240924 5.66350193,5.1970462 5.64501544,5.2500495 C5.56742085,5.32919142 5.52120463,5.32933663 5.46237452,5.25084818 C5.45872587,5.19955116 5.48933977,5.14825413 5.463,5.09673927 C5.45469498,5.07764356 5.44757143,5.05793069 5.43864093,5.03908911 C5.42526255,5.00608911 5.40674131,4.97878878 5.37018533,4.97105611 C5.35086486,4.96579208 5.33196139,4.95954785 5.31371815,4.95127063 C5.26559073,4.9140231 5.21058301,4.91645545 5.15519305,4.92146535 C5.12179923,4.93148515 5.08812741,4.94081518 5.05883398,4.96168977 C4.98450579,5.00677888 4.91375676,5.0580396 4.83716988,5.0989901 C4.81166409,5.11071617 4.78476834,5.1200462 4.7663166,5.14411551 C4.74977606,5.16121452 4.73264479,5.17751485 4.71113514,5.18767987 C4.68486486,5.19875248 4.66509266,5.21871947 4.64601544,5.23977558 C4.63538224,5.25088449 4.62374131,5.26057756 4.61126641,5.26925413 C4.57957529,5.28744224 4.54451351,5.29738944 4.5125444,5.31477888 C4.46618919,5.35841584 4.41983398,5.4020165 4.37347876,5.44565347" id="Fill-163" fill="#8D8173"></path>
                    <path d="M5.62374903,5.06555446 C5.5692973,4.9820198 5.51488031,4.89841254 5.46046332,4.81480528 C5.32282239,4.61139604 5.2955444,4.37741914 5.28883784,4.13770627 C5.29773359,4.10568647 5.29530116,4.06408251 5.3442973,4.06589769 C5.38662162,4.13244224 5.42581853,4.20221782 5.50188417,4.23427393 C5.53572973,4.25133663 5.57058301,4.26658416 5.59852124,4.2939934 C5.69488031,4.33581518 5.79401931,4.37233663 5.87130116,4.45053465 C5.84412741,4.48164686 5.84384942,4.47892409 5.77257915,4.48694719 C5.75075676,4.48941584 5.6953668,4.45754125 5.71263707,4.52829703 C5.72122008,4.54648515 5.73727413,4.54815512 5.75381467,4.54880858 C5.79009266,4.55541584 5.80923938,4.58529373 5.83133977,4.61117822 C5.84127799,4.62174257 5.85121622,4.63227063 5.86115444,4.64283498 C5.88634749,4.66537954 5.91383398,4.686 5.92227799,4.72252145 C5.93315444,4.77447195 5.96234363,4.81629373 5.99125483,4.85826073 C5.99080309,4.92988779 5.98208108,4.93330033 5.87946718,4.90218812 C5.8537529,4.89881188 5.81803089,4.87964356 5.83001931,4.93638614 C5.90486873,5.06907591 5.93708108,5.21726733 5.97280309,5.36422442 C5.97957915,5.37417162 5.9778417,5.38212211 5.96759073,5.38807591 C5.93718533,5.36640264 5.90674517,5.34469307 5.87633977,5.3229835 C5.84902703,5.28758746 5.80527799,5.28824092 5.76983398,5.27045215 C5.7184749,5.23952145 5.67437838,5.20122112 5.64998456,5.14269967 C5.64581467,5.11536304 5.63333977,5.0910033 5.62374903,5.06555446" id="Fill-164" fill="#F4E020"></path>
                    <path id="Fill-165" fill="#182B43"></path>
                    <path id="Fill-166" fill="#151B1E"></path>
                    <path id="Fill-167" fill="#232A1D"></path>
                    <path id="Fill-168" fill="#11162F"></path>
                    <path id="Fill-169" fill="#1C2932"></path>
                    <path id="Fill-170" fill="#0D161E"></path>
                    <path id="Fill-171" fill="#1E271F"></path>
                    <path id="Fill-172" fill="#101D26"></path>
                    <path id="Fill-173" fill="#112434"></path>
                    <path id="Fill-174" fill="#1D2A37"></path>
                    <path id="Fill-175" fill="#1A2A39"></path>
                    <path id="Fill-176" fill="#232954"></path>
                    <path id="Fill-177" fill="#2B2E1C"></path>
                    <path id="Fill-178" fill="#2C321D"></path>
                    <path id="Fill-179" fill="#4A4A26"></path>
                    <path d="M6.31410811,5.80436964 C6.33255985,5.7349934 6.28967954,5.65665017 6.34242857,5.59224752 C6.70155985,5.73136304 7.06208108,5.86652145 7.41923166,6.01086469 C7.67039768,6.11236964 7.90894981,6.24124752 8.10597683,6.43877558 C8.19795753,6.5309505 8.19086873,6.57883498 8.08505792,6.65253135 C7.90196525,6.6439637 7.76077992,6.56445875 7.68023166,6.38715182 C7.65159846,6.32423762 7.6354749,6.32311221 7.58936293,6.37843894 C7.48747876,6.50067327 7.49602703,6.62875248 7.62817761,6.75781188 C7.65427413,6.80177558 7.61886486,6.79912541 7.59589575,6.8019934 C7.52803089,6.81037954 7.45822008,6.78888779 7.39146718,6.81607921 C7.36818533,6.8239934 7.34493822,6.83194389 7.32165637,6.83989439 C7.27269498,6.85855446 7.25035135,6.82 7.22998842,6.78819802 C7.04230888,6.49533663 6.79972587,6.25791089 6.54049807,6.036967 C6.52555598,6.02422442 6.51561776,6.00661716 6.50401158,5.99071617 C6.47336293,5.89226073 6.36195753,5.88369307 6.31410811,5.80436964" id="Fill-180" fill="#282E60"></path>
                    <path d="M5.02846332,3.65508581 C5.05817375,3.63493729 5.07801544,3.60966997 5.06946718,3.56951815 C5.06644402,3.48994059 5.04656757,3.4139934 5.02373745,3.33877228 C4.99955212,3.29557096 4.97307336,3.25374917 4.95128571,3.20905941 C4.93888031,3.16161056 4.89638224,3.12672277 4.89839768,3.07306601 C4.9067027,3.05015842 4.92341699,3.0369802 4.94471815,3.0290297 C4.97745174,3.01930033 5.0076139,3.03113531 5.03801931,3.04115512 C5.04802703,3.04387789 5.05761776,3.04772607 5.067139,3.05175578 C5.10008108,3.06809241 5.13865251,3.06279208 5.1712471,3.08083498 C5.20095753,3.10330693 5.24237838,3.11728383 5.23122394,3.16974257 C5.27420849,3.27505941 5.3172278,3.38037624 5.3602471,3.48565677 C5.39649035,3.57256766 5.39235521,3.65976898 5.3622278,3.74718812 C5.34130888,3.77310891 5.32216216,3.79064356 5.29314672,3.75365017 C5.22976448,3.67276568 5.19265251,3.69814191 5.14952896,3.78233003 C5.11054054,3.85845875 5.04667181,3.91908581 4.95385714,3.92547525 C4.92265251,3.96228713 4.89183012,3.9619967 4.86135521,3.92453135 C4.74946332,3.92442244 4.72399228,3.82687459 4.68062548,3.74954785 C4.65918533,3.71622112 4.65025483,3.6860165 4.69876448,3.67015182 C4.72208108,3.69661716 4.75144402,3.70594719 4.78501158,3.70351485 C4.82705792,3.72094059 4.87094595,3.70994059 4.91389575,3.71269967 C4.95611583,3.70224422 4.98881467,3.67109571 5.02846332,3.65508581" id="Fill-181" fill="#F3E020"></path>
                    <path d="M5.31969498,4.13821452 C5.31208494,4.37611221 5.39583012,4.59328053 5.46046332,4.81480528 C5.30669884,4.70219142 5.13055598,4.70466007 4.95232819,4.70237294 C4.97578378,4.69231683 4.9986834,4.6760165 5.02283398,4.67343894 C5.08479151,4.66683168 5.09625869,4.63920462 5.08225483,4.57694389 C5.05671429,4.463967 5.04128571,4.34848515 5.02168726,4.2340198 C5.00858687,4.22425413 5.00816988,4.21394389 5.02050579,4.20308911 C5.05045946,4.18007261 5.08242857,4.16239274 5.12096525,4.16261056 C5.17267181,4.21390759 5.16572201,4.28662376 5.18365251,4.35022772 C5.20804633,4.43673927 5.21242471,4.53047525 5.274,4.60529703 C5.28112355,4.42936964 5.19564093,4.26542244 5.21033977,4.08913201 C5.22896525,4.05489769 5.24640927,4.01993729 5.2666332,3.98675578 C5.2756332,3.97190759 5.28060232,3.94268317 5.30523938,3.95332013 C5.33018919,3.96413861 5.32146718,3.99383498 5.32504633,4.01612541 C5.31437838,4.05638614 5.30489189,4.09671947 5.31969498,4.13821452" id="Fill-182" fill="#0F100C"></path>
                    <path id="Fill-183" fill="#F0DC22"></path>
                    <path id="Fill-184" fill="#8C8073"></path>
                    <path id="Fill-185" fill="#3D4424"></path>
                    <path id="Fill-186" fill="#1F2618"></path>
                    <path id="Fill-187" fill="#394926"></path>
                    <path id="Fill-188" fill="#274A28"></path>
                    <path id="Fill-189" fill="#293223"></path>
                    <path id="Fill-190" fill="#364123"></path>
                    <path id="Fill-191" fill="#253421"></path>
                    <path id="Fill-192" fill="#363D25"></path>
                    <path id="Fill-193" fill="#2F4224"></path>
                    <path id="Fill-194" fill="#847E36"></path>
                    <path id="Fill-195" fill="#29512B"></path>
                    <path id="Fill-196" fill="#313C21"></path>
                    <path id="Fill-197" fill="#435029"></path>
                    <path id="Fill-198" fill="#3F4E28"></path>
                    <path d="M2.25611583,5.68572937 C2.32585714,5.71390099 2.3436834,5.78146205 2.29666795,5.8449571 C2.28064865,5.86666667 2.26056371,5.88510891 2.24232046,5.9050396 C2.24207722,5.92141254 2.23954054,5.93894719 2.22849035,5.94969307 C2.13060232,6.04469967 2.05321622,6.15887459 1.96259073,6.26059736 C1.84878764,6.36133993 1.78314672,6.49943894 1.70266795,6.62592079 C1.68199228,6.65837624 1.67351351,6.70237624 1.62792278,6.71079868 C1.60589189,6.73261716 1.5875444,6.75490759 1.54994595,6.73432343 C1.47544402,6.69348185 1.39277606,6.67870627 1.30058687,6.66890429 C1.38388031,6.49653465 1.36855598,6.34950495 1.22066409,6.23155446 C1.20342857,6.21783168 1.20926641,6.19572277 1.21823166,6.17677228 C1.55387259,5.98882838 1.8934749,5.81075908 2.25611583,5.68572937" id="Fill-199" fill="#282E60"></path>
                    <path d="M3.54214286,5.29081848 C3.40432819,5.29136304 3.26654826,5.29245215 3.12873359,5.29212541 C3.09537452,5.29205281 3.05881853,5.30083828 3.03237452,5.26820132 C3.03918533,5.26050495 3.04599614,5.25277228 3.0528417,5.2450033 C3.09113514,5.22982838 3.11667568,5.19563036 3.15041699,5.17363036 C3.18148263,5.12447525 3.2148417,5.07764356 3.26783398,5.05146865 C3.28791892,5.01607261 3.32065251,4.98989769 3.33535135,4.95061716 C3.38709266,4.87924422 3.43879923,4.80783498 3.49054054,4.73646205 C3.5244556,4.71812871 3.52584556,4.67844884 3.54304633,4.64911551 C3.56796139,4.59484158 3.57637066,4.529967 3.63322008,4.49624092 C3.67161776,4.57687129 3.71008494,4.65753795 3.74851737,4.73816832 C3.76641313,4.74964026 3.77325869,4.76735644 3.77464865,4.78823102 C3.77311969,4.80914191 3.76603089,4.82674917 3.74757915,4.83753135 C3.62380309,4.90959406 3.61164093,5.0480198 3.5677529,5.16764026 C3.53939768,5.20419802 3.57362548,5.2549505 3.54214286,5.29081848" id="Fill-200" fill="#326C37"></path>
                    <path id="Fill-201" fill="#242B57"></path>
                    <path id="Fill-202" fill="#3C4826"></path>
                    <path id="Fill-203" fill="#47542A"></path>
                    <path id="Fill-204" fill="#273E23"></path>
                    <path id="Fill-205" fill="#3A4729"></path>
                    <path id="Fill-206" fill="#2D3D22"></path>
                    <path id="Fill-207" fill="#2B2D1C"></path>
                    <path id="Fill-208" fill="#444E27"></path>
                    <path id="Fill-209" fill="#3D4C27"></path>
                    <path id="Fill-210" fill="#3E4C27"></path>
                    <path id="Fill-211" fill="#151A14"></path>
                    <path id="Fill-212" fill="#3D4927"></path>
                    <path d="M6.34899614,7.88362376 C6.26879537,7.83686469 6.30083398,7.75470957 6.29176448,7.68551485 C6.31556757,7.64710561 6.31897297,7.60481188 6.31334363,7.56081188 C6.29711583,7.26424752 6.30833977,6.96750165 6.30767954,6.67082838 C6.30764479,6.65790429 6.31584556,6.6489736 6.32293436,6.63989769 C6.35403475,6.61524752 6.38857529,6.61706271 6.41957143,6.6359769 C6.67709653,6.79324422 6.86696525,7.01357096 6.98285328,7.30189439 C6.98504247,7.32309571 6.98719691,7.34426073 6.9893861,7.36546205 C7.08953282,7.40909901 7.08713514,7.5060297 7.09894981,7.59559076 C7.0919305,7.62031353 7.09245174,7.64725083 7.07886486,7.6700495 C6.91161776,7.95535974 6.71837838,8.01192079 6.34899614,7.88362376" id="Fill-213" fill="#282E60"></path>
                    <path id="Fill-214" fill="#D8C72B"></path>
                    <path id="Fill-215" fill="#334123"></path>
                    <path id="Fill-216" fill="#434F28"></path>
                    <path id="Fill-217" fill="#1D2518"></path>
                    <path id="Fill-218" fill="#1F2618"></path>
                    <path d="M2.29076062,6.70531683 C2.33680309,6.72433993 2.3185251,6.76681518 2.31862934,6.7990165 C2.31981081,7.12865347 2.31828185,7.45829043 2.31946332,7.78789109 C2.31963707,7.83857096 2.31244402,7.88340594 2.27720849,7.92036304 C2.13498069,7.99384158 1.9906332,8.03929373 1.83603475,7.96029703 C1.78696911,7.91538944 1.7712278,7.85806601 1.77835135,7.79221122 C1.79444015,7.68961716 1.81674903,7.58865677 1.85674517,7.49281518 C1.91561004,7.4419538 1.91925869,7.36912871 1.92732046,7.29808251 C1.98576834,7.09942904 2.08782625,6.92531683 2.20604247,6.76057096 C2.22689189,6.73156436 2.25132046,6.7049901 2.29076062,6.70531683" id="Fill-219" fill="#282E60"></path>
                    <path id="Fill-220" fill="#316A36"></path>
                    <path id="Fill-221" fill="#1A2418"></path>
                    <path id="Fill-222" fill="#3E4926"></path>
                    <path d="M6.98285328,7.30189439 C6.90383398,7.23807261 6.8687027,7.1399802 6.81070656,7.05964026 C6.68998842,6.89242574 6.54536293,6.75483498 6.37356371,6.64777558 C6.35876062,6.6349967 6.33401931,6.64011551 6.32456757,6.61782508 C6.28881081,6.37386469 6.31859073,6.12921452 6.30754054,5.87556106 C6.39138996,5.90783498 6.42009266,6.0000099 6.50032819,6.01119142 C6.54915058,6.03308251 6.58789575,6.06749835 6.61750193,6.11338614 C6.63880309,6.1549538 6.6726834,6.18530363 6.70423552,6.21775908 C6.72473745,6.24041254 6.74336293,6.26477228 6.76045946,6.29033003 C6.7750888,6.31763036 6.79760618,6.33854125 6.81550193,6.36326403 C6.82196525,6.37121452 6.82749035,6.37992739 6.8327027,6.38885809 C6.84816602,6.42276568 6.87808494,6.44440264 6.89959459,6.47326403 C6.956861,6.55411221 6.99553668,6.64548845 7.0362278,6.73581188 C7.06284556,6.79821782 7.08960232,6.86058746 7.10878378,6.92611551 C7.11288417,6.95483168 7.11660232,6.98347525 7.10242471,7.01063036 C7.05120463,7.10266007 7.01537838,7.20151485 6.98285328,7.30189439" id="Fill-223" fill="#F3E020"></path>
                    <path d="M6.80990734,6.4059934 C6.80344402,6.40131023 6.8003861,6.39492079 6.80073359,6.38671617 C6.79041313,6.35179208 6.76539382,6.32979208 6.73849807,6.30942574 C6.72112355,6.28677228 6.70381853,6.26411881 6.68644402,6.24146535 C6.66889575,6.19735644 6.63508494,6.16838614 6.60026641,6.14039604 C6.57945174,6.08677558 6.50084942,6.0820198 6.50036293,6.01122772 C6.4996332,6.0040033 6.50084942,5.99717822 6.50397683,5.99071617 C6.60363707,6.02132013 6.66847876,6.10416502 6.74322394,6.17009241 C6.94556757,6.34859736 7.12581081,6.54866667 7.26487645,6.78631023 C7.27835907,6.80943564 7.28933977,6.83757096 7.32162162,6.83989439 C7.27338996,6.87209571 7.2250888,6.90436964 7.17678764,6.93664356 C7.14905792,6.94107261 7.12522008,6.99345875 7.09314672,6.9440495 C7.07452124,6.87340264 7.05169112,6.80457096 7.01350193,6.74227393 C6.96547876,6.65685149 6.9174556,6.57135644 6.86946718,6.48589769 C6.86206564,6.44912211 6.83534363,6.42806601 6.80990734,6.4059934" id="Fill-224" fill="#326A36"></path>
                    <path id="Fill-225" fill="#56552A"></path>
                    <path id="Fill-226" fill="#384625"></path>
                    <path d="M2.29076062,6.70531683 C2.14279923,6.87855776 2.04296525,7.08229373 1.95081081,7.29089439 C1.89264093,7.30505281 1.91011969,7.2460231 1.90198842,7.22482178 C1.88412741,7.1779901 1.88047876,7.12491419 1.85698842,7.07877228 C1.83568726,7.03963696 1.81442085,7.00050165 1.79318919,6.96136634 C1.75162934,6.9160231 1.73849421,6.85866337 1.73039768,6.79923432 C1.73738224,6.58438944 1.83676448,6.4079901 1.94552896,6.23547525 C2.0249305,6.10605281 2.12844788,6.00019142 2.24245946,5.90489439 C2.26775676,5.91179208 2.31727413,5.85214521 2.31723938,5.92464356 C2.31723938,6.17052805 2.33065251,6.41666667 2.30962934,6.66229703 C2.30834363,6.67710891 2.29725869,6.6910132 2.29076062,6.70531683" id="Fill-227" fill="#326C37"></path>
                    <path id="Fill-228" fill="#EEDB23"></path>
                    <path id="Fill-229" fill="#223922"></path>
                    <path id="Fill-230" fill="#24331F"></path>
                    <path id="Fill-231" fill="#8D8073"></path>
                    <path id="Fill-232" fill="#262820"></path>
                    <path id="Fill-233" fill="#3D3933"></path>
                    <path id="Fill-234" fill="#897D70"></path>
                    <path id="Fill-235" fill="#36332E"></path>
                    <path id="Fill-236" fill="#3F3A34"></path>
                    <path id="Fill-237" fill="#4F4941"></path>
                    <path id="Fill-238" fill="#3C3832"></path>
                    <path id="Fill-239" fill="#5C544B"></path>
                    <path id="Fill-240" fill="#3E3A34"></path>
                    <path id="Fill-241" fill="#4C463F"></path>
                    <path id="Fill-242" fill="#5A524A"></path>
                    <path id="Fill-243" fill="#393530"></path>
                    <path id="Fill-244" fill="#22211D"></path>
                    <path id="Fill-245" fill="#36332E"></path>
                    <path id="Fill-246" fill="#3D3832"></path>
                    <path id="Fill-247" fill="#4C453E"></path>
                    <path id="Fill-248" fill="#554E46"></path>
                    <path id="Fill-249" fill="#5B562A"></path>
                    <path id="Fill-250" fill="#F1DD22"></path>
                    <path id="Fill-251" fill="#326C37"></path>
                    <path id="Fill-252" fill="#8A7E71"></path>
                    <path id="Fill-253" fill="#897D70"></path>
                    <path id="Fill-254" fill="#243620"></path>
                    <path id="Fill-255" fill="#1C231E"></path>
                    <path id="Fill-256" fill="#364927"></path>
                    <path id="Fill-257" fill="#293925"></path>
                    <path id="Fill-258" fill="#2A3925"></path>
                    <path id="Fill-259" fill="#1F271B"></path>
                    <path id="Fill-260" fill="#37382E"></path>
                    <path id="Fill-261" fill="#343D2D"></path>
                    <path id="Fill-262" fill="#3C4625"></path>
                    <path id="Fill-263" fill="#3B4525"></path>
                    <path id="Fill-264" fill="#364725"></path>
                    <path id="Fill-265" fill="#13182D"></path>
                    <path id="Fill-266" fill="#273423"></path>
                    <path id="Fill-267" fill="#2D3A28"></path>
                    <path id="Fill-268" fill="#274827"></path>
                    <path id="Fill-269" fill="#3B4525"></path>
                    <path id="Fill-270" fill="#203320"></path>
                    <path id="Fill-271" fill="#273523"></path>
                    <path id="Fill-272" fill="#1F301E"></path>
                    <path id="Fill-273" fill="#282B29"></path>
                    <path id="Fill-274" fill="#3C4625"></path>
                    <path id="Fill-275" fill="#1E2E1D"></path>
                    <path id="Fill-276" fill="#3F3B35"></path>
                    <path id="Fill-277" fill="#403B35"></path>
                    <path id="Fill-278" fill="#34322C"></path>
                    <path id="Fill-279" fill="#3D3933"></path>
                    <path id="Fill-280" fill="#4B453E"></path>
                    <path id="Fill-281" fill="#326C37"></path>
                    <path id="Fill-282" fill="#8B7F72"></path>
                    <path id="Fill-283" fill="#32302B"></path>
                    <path id="Fill-284" fill="#312F2A"></path>
                    <path id="Fill-285" fill="#283524"></path>
                    <path id="Fill-286" fill="#4F4841"></path>
                    <path id="Fill-287" fill="#31372A"></path>
                    <path id="Fill-288" fill="#3B3731"></path>
                    <path id="Fill-289" fill="#2F3428"></path>
                    <path id="Fill-290" fill="#655D50"></path>
                    <path id="Fill-291" fill="#464130"></path>
                    <path id="Fill-292" fill="#484528"></path>
                    <path id="Fill-293" fill="#2F3522"></path>
                    <path id="Fill-294" fill="#5E592A"></path>
                    <path id="Fill-295" fill="#5C572A"></path>
                    <path id="Fill-296" fill="#7E7733"></path>
                    <path d="M3.75553668,4.78118812 C3.75320849,4.76684818 3.75088031,4.75250825 3.74851737,4.73816832 C3.76047104,4.69024752 3.75338224,4.64483168 3.73920463,4.59767327 C3.65333977,4.31181848 3.51688031,4.05736634 3.31637838,3.84168647 C3.32350193,3.83438944 3.33059073,3.82709241 3.33767954,3.81979538 C3.62032819,3.86190759 3.86207722,3.76744554 4.07557529,3.57866667 C4.10730116,3.57783168 4.12703861,3.54980528 4.15497683,3.54022112 C4.17950965,3.5290033 4.2066139,3.52468317 4.22940927,3.50889109 C4.38619691,3.40135974 4.56046332,3.34258416 4.74268726,3.30522772 C4.84540541,3.28420792 4.94746332,3.27139274 5.04882625,3.31129043 C5.09243629,3.39417162 5.11328571,3.4790132 5.06946718,3.56951815 C5.03336293,3.50511551 4.97404633,3.51059736 4.91719691,3.51851155 C4.66401544,3.55379868 4.42296139,3.63526403 4.19132432,3.74428383 C4.03342471,3.81859736 4.00711969,3.88612211 4.00350579,4.14358746 C3.93633591,4.13015512 3.95492664,4.03670957 3.88230116,4.01347525 C3.89432432,4.09014851 3.90537452,4.16010561 3.91635521,4.23006271 C3.92726641,4.25525743 3.93473745,4.27867327 3.89397683,4.27685809 C3.85637838,4.17680528 3.81596525,4.07845875 3.72877992,4.0039637 C3.75876834,4.11980858 3.79577606,4.23423762 3.81728571,4.35178878 C3.86186873,4.59571287 3.89689575,4.84010891 3.88351737,5.09154785 C3.87719305,5.21047855 3.96747104,5.09550495 4.005,5.12411221 C4.02967181,5.1100264 4.0303668,5.12516502 4.02769112,5.14444224 C3.93518919,5.18956766 3.80578378,5.17544554 3.77346718,5.31721122 C3.75244402,5.3220033 3.7405251,5.31775578 3.75039382,5.29183498 C3.76662162,5.15689439 3.85495367,5.02725413 3.77784556,4.88541584 C3.78816602,4.84653465 3.77204247,4.81382508 3.75553668,4.78118812" id="Fill-297" fill="#0B0B09"></path>
                    <path id="Fill-298" fill="#8B7F72"></path>
                    <path id="Fill-299" fill="#43402C"></path>
                    <path id="Fill-300" fill="#443F38"></path>
                    <path id="Fill-301" fill="#4B453E"></path>
                    <path id="Fill-302" fill="#1E1D1A"></path>
                    <path id="Fill-303" fill="#433E38"></path>
                    <path id="Fill-304" fill="#433D37"></path>
                    <path id="Fill-305" fill="#454039"></path>
                    <path id="Fill-306" fill="#181715"></path>
                    <path id="Fill-307" fill="#181815"></path>
                    <path id="Fill-308" fill="#6C6359"></path>
                    <path id="Fill-309" fill="#281F17"></path>
                    <path id="Fill-310" fill="#F3DD21"></path>
                    <path id="Fill-311" fill="#7A6F63"></path>
                    <path id="Fill-312" fill="#272D5E"></path>
                    <path id="Fill-313" fill="#34322D"></path>
                    <path id="Fill-314" fill="#8C7F72"></path>
                    <path id="Fill-315" fill="#212328"></path>
                    <path id="Fill-316" fill="#222327"></path>
                    <path id="Fill-317" fill="#2B2B2E"></path>
                    <path id="Fill-318" fill="#3C3832"></path>
                    <path id="Fill-319" fill="#25272D"></path>
                    <path id="Fill-320" fill="#605B2B"></path>
                    <path id="Fill-321" fill="#E5D328"></path>
                    <path id="Fill-322" fill="#7C7533"></path>
                    <path id="Fill-323" fill="#605B2B"></path>
                    <path id="Fill-324" fill="#5F5A2B"></path>
                    <path id="Fill-325" fill="#68622C"></path>
                    <path id="Fill-326" fill="#326C37"></path>
                    <path id="Fill-327" fill="#EBD925"></path>
                    <path id="Fill-328" fill="#364826"></path>
                    <path id="Fill-329" fill="#5E592A"></path>
                    <path id="Fill-330" fill="#374223"></path>
                    <path id="Fill-331" fill="#F2DF21"></path>
                    <path id="Fill-332" fill="#A29838"></path>
                    <path id="Fill-333" fill="#8D8173"></path>
                    <path id="Fill-334" fill="#25231F"></path>
                    <path id="Fill-335" fill="#514A43"></path>
                    <path id="Fill-336" fill="#201F1E"></path>
                    <path id="Fill-337" fill="#312F2A"></path>
                    <path id="Fill-338" fill="#141821"></path>
                    <path id="Fill-339" fill="#4B453E"></path>
                    <path id="Fill-340" fill="#61594F"></path>
                    <path id="Fill-341" fill="#3C3834"></path>
                    <path id="Fill-342" fill="#3D3A36"></path>
                    <path id="Fill-343" fill="#21291E"></path>
                    <path id="Fill-344" fill="#6D6459"></path>
                    <path id="Fill-345" fill="#3A3B21"></path>
                    <path id="Fill-346" fill="#504D33"></path>
                    <path id="Fill-347" fill="#373431"></path>
                    <path id="Fill-348" fill="#363431"></path>
                    <path id="Fill-349" fill="#252A59"></path>
                    <path id="Fill-350" fill="#11162E"></path>
                    <path id="Fill-351" fill="#31311D"></path>
                    <path id="Fill-352" fill="#464423"></path>
                    <path id="Fill-353" fill="#171D15"></path>
                    <path id="Fill-354" fill="#374124"></path>
                    <path id="Fill-355" fill="#2F3A21"></path>
                    <path id="Fill-356" fill="#354024"></path>
                    <path id="Fill-357" fill="#323C22"></path>
                    <path id="Fill-358" fill="#84786B"></path>
                    <path id="Fill-359" fill="#252A59"></path>
                    <path id="Fill-360" fill="#3A3733"></path>
                    <path id="Fill-361" fill="#8A8235"></path>
                    <path id="Fill-362" fill="#213721"></path>
                    <path id="Fill-363" fill="#7E7367"></path>
                    <path id="Fill-364" fill="#272C5D"></path>
                    <path id="Fill-365" fill="#20232B"></path>
                    <path id="Fill-366" fill="#3D3B3A"></path>
                    <path id="Fill-367" fill="#5E592A"></path>
                </g>
            </g>
        </g>
    </g>
</svg>