<?xml version="1.0" encoding="UTF-8" standalone="no"?>
<svg width="36px" height="28px" viewBox="0 0 36 28" version="1.1" xmlns="http://www.w3.org/2000/svg" xmlns:xlink="http://www.w3.org/1999/xlink">
    <!-- Generator: Sketch 40.1 (33804) - http://www.bohemiancoding.com/sketch -->
    <title>SB Copy</title>
    <desc>Created with Sketch.</desc>
    <defs>
        <filter x="-50%" y="-50%" width="200%" height="200%" filterUnits="objectBoundingBox" id="filter-1">
            <feOffset dx="0" dy="2" in="SourceAlpha" result="shadowOffsetOuter1"></feOffset>
            <feGaussianBlur stdDeviation="2" in="shadowOffsetOuter1" result="shadowBlurOuter1"></feGaussianBlur>
            <feColorMatrix values="0 0 0 0 0   0 0 0 0 0   0 0 0 0 0  0 0 0 0.5 0" type="matrix" in="shadowBlurOuter1" result="shadowMatrixOuter1"></feColorMatrix>
            <feMerge>
                <feMergeNode in="shadowMatrixOuter1"></feMergeNode>
                <feMergeNode in="SourceGraphic"></feMergeNode>
            </feMerge>
        </filter>
        <rect id="path-2" x="0" y="0" width="28" height="20" rx="2"></rect>
        <linearGradient x1="50%" y1="0%" x2="50%" y2="100%" id="linearGradient-4">
            <stop stop-color="#1CBE4F" offset="0%"></stop>
            <stop stop-color="#159B3F" offset="100%"></stop>
        </linearGradient>
        <linearGradient x1="50%" y1="0%" x2="50%" y2="100%" id="linearGradient-5">
            <stop stop-color="#0660D5" offset="0%"></stop>
            <stop stop-color="#0051BB" offset="100%"></stop>
        </linearGradient>
        <polygon id="path-6" points="0 0 28 0 0 20"></polygon>
        <filter x="-50%" y="-50%" width="200%" height="200%" filterUnits="objectBoundingBox" id="filter-7">
            <feMorphology radius="0.5" operator="dilate" in="SourceAlpha" result="shadowSpreadOuter1"></feMorphology>
            <feOffset dx="0" dy="0" in="shadowSpreadOuter1" result="shadowOffsetOuter1"></feOffset>
            <feColorMatrix values="0 0 0 0 0   0 0 0 0 0   0 0 0 0 0  0 0 0 0.06 0" type="matrix" in="shadowOffsetOuter1"></feColorMatrix>
        </filter>
    </defs>
    <g id="Page-1" stroke="none" stroke-width="1" fill="none" fill-rule="evenodd">
        <g id="SB-Copy" filter="url(#filter-1)" transform="translate(4.000000, 2.000000)">
            <mask id="mask-3" fill="white">
                <use xlink:href="#path-2"></use>
            </mask>
            <use id="Mask" fill="#FFFFFF" xlink:href="#path-2"></use>
            <rect id="Mask-Copy" fill="url(#linearGradient-4)" mask="url(#mask-3)" x="0" y="0" width="28" height="20"></rect>
            <g id="Rectangle-253" mask="url(#mask-3)">
                <use fill="black" fill-opacity="1" filter="url(#filter-7)" xlink:href="#path-6"></use>
                <use fill="url(#linearGradient-5)" fill-rule="evenodd" xlink:href="#path-6"></use>
            </g>
            <polygon id="Rectangle-253" fill="#2C7442" mask="url(#mask-3)" transform="translate(14.000000, 10.000000) scale(-1, 1) translate(-14.000000, -10.000000) " points="0 0 28 20 0 20"></polygon>
            <rect id="Rectangle-2" fill="#FFD646" mask="url(#mask-3)" x="-5.33333333" y="8.66666667" width="38.6666667" height="2.66666667"></rect>
            <path d="M3,3.83333333 L2.02035791,4.34836166 L2.2074529,3.25751416 L1.41490581,2.48497168 L2.51017896,2.32581917 L3,1.33333333 L3.48982104,2.32581917 L4.58509419,2.48497168 L3.7925471,3.25751416 L3.97964209,4.34836166 L3,3.83333333 Z M9.66666667,3.83333333 L8.68702458,4.34836166 L8.87411957,3.25751416 L8.08157247,2.48497168 L9.17684562,2.32581917 L9.66666667,1.33333333 L10.1564877,2.32581917 L11.2517609,2.48497168 L10.4592138,3.25751416 L10.6463088,4.34836166 L9.66666667,3.83333333 Z M9.66666667,7.83333333 L8.68702458,8.34836166 L8.87411957,7.25751416 L8.08157247,6.48497168 L9.17684562,6.32581917 L9.66666667,5.33333333 L10.1564877,6.32581917 L11.2517609,6.48497168 L10.4592138,7.25751416 L10.6463088,8.34836166 L9.66666667,7.83333333 Z M3,7.83333333 L2.02035791,8.34836166 L2.2074529,7.25751416 L1.41490581,6.48497168 L2.51017896,6.32581917 L3,5.33333333 L3.48982104,6.32581917 L4.58509419,6.48497168 L3.7925471,7.25751416 L3.97964209,8.34836166 L3,7.83333333 Z M6.33333333,5.83333333 L5.35369125,6.34836166 L5.54078624,5.25751416 L4.74823914,4.48497168 L5.84351229,4.32581917 L6.33333333,3.33333333 L6.82315438,4.32581917 L7.91842753,4.48497168 L7.12588043,5.25751416 L7.31297542,6.34836166 L6.33333333,5.83333333 Z" id="Star-2" fill="#FFFFFF" mask="url(#mask-3)"></path>
        </g>
    </g>
</svg>