<?xml version="1.0" encoding="UTF-8" standalone="no"?>
<svg width="28px" height="20px" viewBox="0 0 28 20" version="1.1" xmlns="http://www.w3.org/2000/svg" xmlns:xlink="http://www.w3.org/1999/xlink">
    <!-- Generator: Sketch 40.1 (33804) - http://www.bohemiancoding.com/sketch -->
    <title>CX</title>
    <desc>Created with Sketch.</desc>
    <defs>
        <rect id="path-1" x="0" y="0" width="28" height="20" rx="2"></rect>
        <polygon id="path-3" points="0 19.9974026 35.9673877 19.9974026 35.9673877 0.00181818182 0 0.00181818182"></polygon>
    </defs>
    <g id="Page-1" stroke="none" stroke-width="1" fill="none" fill-rule="evenodd">
        <g id="CX">
            <mask id="mask-2" fill="white">
                <use xlink:href="#path-1"></use>
            </mask>
            <use id="Mask" fill="#FFFFFF" xlink:href="#path-1"></use>
            <rect id="Mask-Copy" fill="#EA403F" mask="url(#mask-2)" x="0" y="0" width="28" height="20"></rect>
            <g id="2" mask="url(#mask-2)">
                <g transform="translate(-4.000000, 0.000000)">
                    <g id="Group-5" stroke-width="1" fill="none">
                        <mask id="mask-4" fill="white">
                            <use xlink:href="#path-3"></use>
                        </mask>
                        <g id="Clip-2"></g>
                        <path d="M0.00916938519,19.95671 C0.00916938519,13.3578355 0.00907904642,6.75896104 0.0113826851,0.16008658 C0.0114278545,0.10969697 -0.0300828105,0.0432900433 0.0451242158,0.00502164502 C0.444737767,0.108398268 0.766614806,0.356190476 1.12015558,0.543679654 C1.50712171,0.748917749 1.88898369,0.963809524 2.26908407,1.18116883 C2.82380928,1.49831169 3.38860728,1.79887446 3.94482309,2.11372294 C4.43911167,2.39350649 4.94013049,2.66251082 5.43572898,2.94038961 C5.99325471,3.25294372 6.55466499,3.55896104 7.11137767,3.87290043 C7.61655207,4.15770563 8.12750816,4.43307359 8.63358595,4.7165368 C9.17584442,5.02021645 9.71963864,5.32142857 10.2637491,5.62194805 C10.7768281,5.90532468 11.2885069,6.19108225 11.8010439,6.47541126 C12.3446123,6.77692641 12.8880452,7.07883117 13.4314329,7.38064935 C13.9282961,7.65662338 14.4266048,7.93021645 14.921074,8.21008658 C14.9876989,8.24774892 15.0627252,8.27463203 15.1021581,8.34575758 C15.1347252,8.43480519 15.0955182,8.51441558 15.0668356,8.59571429 C14.706926,9.6152381 14.7105395,10.6290043 15.1751518,11.6151082 C15.5579172,12.4274026 16.1564115,13.0385281 17.055192,13.3593074 C17.5882359,13.5494805 18.1244417,13.5678355 18.6588858,13.4414286 C19.3224693,13.2845022 19.8612497,12.9179654 20.2931142,12.4097403 C20.4675583,12.2043723 20.6094806,11.9787879 20.7421882,11.7474459 C20.7767428,11.6873593 20.8059222,11.6229004 20.8754831,11.5899134 C20.9368231,11.5668831 20.9932848,11.58329 21.0471267,11.6118182 C21.5078996,11.8558009 21.9601355,12.1141126 22.4156236,12.3668831 C22.8037641,12.5822511 23.1927177,12.7962338 23.579458,13.0138528 C24.1260527,13.3214719 24.6777967,13.6206494 25.2235784,13.929697 C25.7229711,14.2125541 26.2293199,14.4839394 26.7299322,14.7648918 C27.2821731,15.0748052 27.8365822,15.3811688 28.3909009,15.687619 C28.8935006,15.9654978 29.3947905,16.2454978 29.896803,16.5242857 C30.4505345,16.8317316 31.003995,17.1399134 31.5584492,17.4461039 C32.0663338,17.7266234 32.5725019,18.01 33.0799799,18.2912554 C33.6236386,18.5926407 34.1682008,18.8922944 34.7101882,19.1964502 C35.0663036,19.3963636 35.427207,19.588355 35.7811995,19.7918615 C35.8324216,19.8213853 35.8889737,19.8453247 35.9194178,19.8981385 C35.9591217,19.9671861 35.9133199,19.9754113 35.8564969,19.9739394 C23.9836788,19.9738528 12.1114931,19.9739827 0.239262233,19.9730303 C0.162700125,19.9730303 0.0835633626,19.9908225 0.00916938519,19.95671" id="Fill-1" fill="#27357E" mask="url(#mask-4)"></path>
                        <path d="M15.0761405,8.3547619 C14.6450891,8.14077922 14.2294404,7.90164502 13.8177666,7.65528139 C13.638941,7.5482684 13.4493199,7.45614719 13.2645772,7.35939394 C12.8624341,7.14883117 12.4732999,6.91701299 12.0717892,6.70532468 C11.6317942,6.47324675 11.2032723,6.21987013 10.7671619,5.97974026 C10.3157842,5.73116883 9.86666499,5.47878788 9.41519699,5.23021645 C8.95347553,4.97597403 8.49478043,4.7165368 8.03265245,4.46264069 C7.58104893,4.21454545 7.12976161,3.96536797 6.6815458,3.71190476 C6.22267001,3.45246753 5.75634128,3.20562771 5.29877541,2.9447619 C4.8511468,2.68952381 4.39398745,2.45034632 3.94694605,2.19510823 C3.48915433,1.93372294 3.02336763,1.68632035 2.56399498,1.42818182 C2.11474028,1.17584416 1.66878294,0.918874459 1.21225596,0.678051948 C0.81481054,0.468398268 0.433580928,0.23047619 0.0451242158,0.00502164502 C11.9641506,0.00502164502 23.8831769,0.00528138528 35.8022033,0.00181818182 C35.9369887,0.00181818182 35.9674329,0.0309090909 35.9673877,0.16008658 C35.9635483,6.75896104 35.964,13.3578355 35.964,19.95671 C35.949862,19.9733766 35.9388407,19.9716017 35.931207,19.9514286 C35.5525972,19.7493506 35.185325,19.5288745 34.8062635,19.3269264 C34.2757491,19.044329 33.7613601,18.7338961 33.2364015,18.4415584 C33.0743338,18.3512987 32.9116788,18.2599567 32.7473526,18.1756277 C32.3431317,17.9682684 31.9553074,17.7342857 31.5538419,17.5224242 C31.0929787,17.2791342 30.6441305,17.0141991 30.1857967,16.7650216 C29.7486023,16.527316 29.3180025,16.2779221 28.8818018,16.0378355 C28.5774053,15.870303 28.2711117,15.7051515 27.9699674,15.532987 C27.5123112,15.2712987 27.0444467,15.0268398 26.586926,14.7658442 C26.1341932,14.5074892 25.6735107,14.2629004 25.219197,14.0076623 C24.7699423,13.7552814 24.3211393,13.502684 23.868,13.2564502 C23.4048783,13.0046753 22.9480351,12.7419481 22.4851844,12.4890476 C22.0329486,12.2419481 21.5951669,11.9704329 21.1306449,11.7435065 C21.0483915,11.7034199 20.9961757,11.6161905 20.8949962,11.6061039 C20.8276939,11.5068831 20.8908858,11.414632 20.9219172,11.3275325 C21.084256,10.8722511 21.1572949,10.4060606 21.1503388,9.92493506 C21.1393626,9.16554113 20.9379975,8.46125541 20.4924467,7.83099567 C20.0002811,7.1347619 19.3522811,6.6621645 18.462399,6.50761905 C17.5203463,6.34402597 16.7358444,6.62878788 16.0375709,7.20770563 C15.7076537,7.48116883 15.4607578,7.81770563 15.258941,8.18658009 C15.2189661,8.25961039 15.1889285,8.35082251 15.0761405,8.3547619" id="Fill-3" fill="#1B8242" mask="url(#mask-4)"></path>
                        <path d="M35.931207,19.9514286 C35.9417315,19.9709334 35.9527077,19.9799188 35.964,19.9781656 C35.9561857,20.0318588 35.9821581,20.1600649 35.9460678,20.154586 C35.898143,20.1471347 35.8501731,20.1526136 35.8022033,20.1526136 C23.9251393,20.1526136 12.0480301,20.1530519 0.170966123,20.141875 C0.118388959,20.141875 0.0490539523,20.3430601 0.00916938519,19.9781656 C11.9054304,19.9781656 23.8016462,19.9781656 35.6979523,19.9770698 C35.7756437,19.9770698 35.8534253,19.9601948 35.931207,19.9514286" id="Fill-4" fill="#FFFFFF" mask="url(#mask-4)"></path>
                    </g>
                    <path d="M15.0761405,8.3547619 C15.2169335,8.14415584 15.3191066,7.91311688 15.4727729,7.70787879 C15.6434228,7.47987013 15.8328181,7.26896104 16.0539674,7.09017316 C16.4728231,6.75147186 16.9467403,6.52770563 17.4975358,6.43225108 C17.7358043,6.39099567 17.9719046,6.35463203 18.2017716,6.38536797 C18.7556386,6.45935065 19.2758545,6.61930736 19.7354078,6.955671 C20.480793,7.50125541 20.9202459,8.21982684 21.1242309,9.0808658 C21.3273576,9.93787879 21.2424843,10.775368 20.8976161,11.5890909 C20.8954479,11.5942424 20.8958093,11.6003896 20.8949962,11.6061039 C20.6359046,12.1532035 20.2653802,12.6204762 19.77999,12.9990909 C19.6318795,13.1145887 19.4630364,13.2112554 19.2913476,13.2925974 C18.6699975,13.5870563 18.0089887,13.6841991 17.338133,13.5236797 C16.629064,13.3541126 16.0517992,12.9729004 15.5939624,12.4131169 C14.9147503,11.582684 14.6881807,10.6366667 14.7557541,9.60865801 C14.784256,9.17458874 14.9235583,8.76203463 15.0761405,8.3547619" id="Fill-6" fill="#F8C334"></path>
                    <path d="M7.01333787,12 C7.08578125,12.1789385 7.15163471,12.3269422 7.20444562,12.4782227 C7.23323076,12.5606117 7.27386862,12.5638495 7.36200883,12.5399364 C7.50922953,12.5000293 7.65388748,12.4459225 7.83094588,12.4336344 C7.74065479,12.5926778 7.66116385,12.7391601 7.57403043,12.8822875 C7.54675548,12.927188 7.55348269,12.9437282 7.59549345,12.9817629 C7.6954406,13.0722659 7.81515753,13.1378806 7.93157949,13.2085666 C7.97226311,13.2332209 8.00621952,13.2733621 7.99903467,13.3062474 C7.9907515,13.343853 7.92833029,13.3333593 7.8877382,13.3387037 C7.82211356,13.3473249 7.75621433,13.3545807 7.69068121,13.3637481 C7.41468245,13.4023289 7.41564348,13.4024069 7.44030993,13.6356473 C7.45275756,13.7535353 7.46113225,13.8717354 7.45298637,14 C7.36301563,13.8789132 7.21062367,13.8145078 7.12339872,13.6929138 C7.07356244,13.6234762 6.9908223,13.5656635 6.9143975,13.6691178 C6.82383183,13.791882 6.66031938,13.8540639 6.54408047,13.9809632 C6.55337043,13.8376797 6.5520433,13.6930699 6.57519955,13.5514248 C6.5942371,13.4346291 6.58494714,13.3671029 6.41626343,13.363475 C6.27879033,13.3605102 6.14223249,13.3274298 6,13.3069496 C6.00695603,13.2360296 6.06777552,13.206226 6.12470513,13.1745109 C6.22941168,13.1161131 6.325652,13.0497962 6.41900924,12.978252 C6.47365068,12.9363553 6.46742686,12.9108818 6.44024343,12.8646551 C6.35979146,12.7280033 6.28455651,12.5890889 6.20401302,12.4451813 C6.35640497,12.4237258 6.48774579,12.4836841 6.6159747,12.5282334 C6.75450036,12.5762937 6.8086384,12.5396243 6.84570671,12.4293433 C6.89114972,12.2942129 6.94931494,12.1622033 7.01333787,12" id="Fill-7" fill="#FFFFFE"></path>
                    <path d="M11.6478942,11.5400016 C11.7511646,11.5751652 11.7945165,11.5481435 11.8250835,11.4621224 C11.8753682,11.3205632 11.9352866,11.1816394 12.0077649,11 C12.0715099,11.1684629 12.1273317,11.2952329 12.166542,11.4258181 C12.2018808,11.5435022 12.2583329,11.5838971 12.3982927,11.5319777 C12.5160587,11.4883181 12.6449891,11.4677077 12.8166863,11.4250708 C12.7383106,11.5611627 12.6835692,11.6596916 12.6253164,11.7566473 C12.5154735,11.9395453 12.5196601,11.966803 12.7041423,12.0931403 C12.7790516,12.1444698 12.8607585,12.188208 12.9378286,12.2372955 C12.9646141,12.2542873 13.0109372,12.2648678 12.997657,12.3045941 C12.9858174,12.339915 12.9402146,12.3386957 12.908027,12.3432977 C12.7845887,12.3610761 12.6607453,12.3792873 12.5362266,12.3875472 C12.4433553,12.3937225 12.4174702,12.4261721 12.4213417,12.5062933 C12.4293098,12.6712555 12.4237276,12.8367291 12.4237276,12.9992133 C12.3246889,12.8877045 12.1785617,12.8027848 12.0790278,12.6771554 C12.0401776,12.628068 11.9792688,12.5936517 11.9238971,12.6657489 C11.8244532,12.7951542 11.6787313,12.8863672 11.5485854,13 C11.5196841,12.8475063 11.5737952,12.6921413 11.5767214,12.5361076 C11.5785221,12.43868 11.5673577,12.3819619 11.4341056,12.377478 C11.3162045,12.373584 11.1992488,12.3460116 11.0820679,12.3280758 C11.0501054,12.3231986 11.000406,12.3360604 11.0000008,12.2914569 C10.9998208,12.2718298 11.028632,12.24705 11.0511859,12.2330868 C11.1714279,12.1588263 11.2914898,12.0861391 11.4021431,11.999292 C11.4677338,11.9478446 11.4672386,11.9196429 11.4317647,11.8593062 C11.350733,11.721405 11.2797853,11.5790198 11.1900201,11.4108323 C11.3575307,11.4572845 11.5058186,11.4917008 11.6478942,11.5400016 Z" id="Fill-8" fill="#FFFFFE"></path>
                    <path d="M10.7935314,15.4242272 C10.7728755,15.576935 10.6729933,15.6860618 10.5987498,15.7972418 C10.5084707,15.9323235 10.5798605,15.9892694 10.6882134,16.0520648 C10.8007338,16.117262 10.9089056,16.1859069 11,16.2854265 C10.8588965,16.3387309 10.7070574,16.3323778 10.5635079,16.3485318 C10.4409766,16.3623228 10.4192336,16.4023398 10.4250317,16.4962036 C10.434499,16.6493763 10.4275684,16.803285 10.4275684,16.9735802 C10.3175394,16.8696831 10.1999909,16.7696599 10.0982062,16.6589448 C10.0226943,16.57678 9.97472368,16.56849 9.89522558,16.655652 C9.79493568,16.7656311 9.67824787,16.8646858 9.53533249,17 C9.54937489,16.794995 9.55811741,16.6303944 9.57297518,16.4662586 C9.57972459,16.3918416 9.55893278,16.3565507 9.46081718,16.3488805 C9.30802682,16.3371039 9.15704838,16.3083985 9,16.2860851 C9.07315637,16.165724 9.20424896,16.1128845 9.31862656,16.0436197 C9.42593767,15.9786937 9.50289908,15.9166344 9.40333394,15.7882932 C9.31350788,15.6723871 9.25910491,15.5364531 9.1821888,15.3968002 C9.35001812,15.4476253 9.52210545,15.4533199 9.6635713,15.5478035 C9.70701214,15.5768575 9.77052002,15.5988223 9.79987317,15.5027504 C9.85019931,15.3378399 9.93191701,15.1799024 10.0086066,15 C10.0797699,15.1743627 10.1597663,15.3230805 10.1985414,15.4792361 C10.2343269,15.6234214 10.3297246,15.5767026 10.3966751,15.5352909 C10.518844,15.4597505 10.6526545,15.4486325 10.7935314,15.4242272" id="Fill-9" fill="#FFFFFE"></path>
                    <path d="M9.79589746,9.41270795 C9.73932604,9.56340961 9.66030424,9.70097892 9.57125994,9.83326327 C9.52359741,9.90408984 9.51945478,9.94937241 9.60475734,10.0023822 C9.73745518,10.0848197 9.85968507,10.1809101 10,10.2810041 C9.84823715,10.3381378 9.69647431,10.3392189 9.55166039,10.355274 C9.44012116,10.3676456 9.41415176,10.4081637 9.41896256,10.4966869 C9.42773781,10.6590795 9.46497695,10.8204712 9.44586739,10.992553 C9.29178824,10.935059 9.23036148,10.8003724 9.1227867,10.7099674 C9.03240607,10.634016 8.97770552,10.6402218 8.88719125,10.7088864 C8.77645382,10.7928853 8.71324528,10.9185234 8.55408806,11 C8.56807501,10.8192701 8.57774115,10.6588393 8.59399987,10.498969 C8.60259694,10.4141293 8.59310898,10.3615599 8.47413083,10.3532721 C8.32428339,10.3428223 8.17639591,10.3101115 8,10.2827258 C8.14775385,10.1783476 8.27310185,10.0791744 8.41078866,9.99649671 C8.49560124,9.9455288 8.49934297,9.90485056 8.45377403,9.83014033 C8.36682331,9.6874462 8.29114234,9.53918684 8.20414709,9.38119833 C8.38049845,9.37963686 8.50575737,9.46775969 8.64495869,9.5184073 C8.73507205,9.55119813 8.78843627,9.56677277 8.82865988,9.44485817 C8.8752088,9.30368546 8.91365064,9.15246332 9.02616985,9 C9.09151651,9.16951935 9.15632865,9.31477589 9.20185305,9.46479691 C9.22724337,9.5485156 9.26011715,9.55380057 9.34724604,9.53658439 C9.49767255,9.50683643 9.61126083,9.37559306 9.79589746,9.41270795" id="Fill-10" fill="#FFFFFE"></path>
                    <path d="M10.5136886,13 C10.5421705,13.0906028 10.5718167,13.1809529 10.5987162,13.2719769 C10.6152859,13.3281579 10.6425138,13.3593509 10.7136289,13.3541006 C10.8063592,13.3472499 10.9001045,13.352416 11,13.352416 C10.9808628,13.4333886 10.9091506,13.4596962 10.8536797,13.4931353 C10.7437229,13.5594519 10.7053292,13.6374203 10.7567697,13.7566331 C10.7851023,13.8222759 10.8237946,13.890221 10.8035826,13.9761069 C10.749485,13.9444647 10.7016868,13.9209647 10.6608449,13.8775865 C10.5540827,13.7640172 10.4895656,13.7699132 10.376504,13.8848022 C10.3293924,13.9326726 10.2737423,13.9715866 10.1985072,14 C10.2269891,13.9068142 10.2486043,13.8227813 10.278549,13.741556 C10.3145246,13.6441306 10.2778624,13.5775613 10.1923571,13.5244125 C10.1273026,13.4840385 10.0640394,13.4411096 10,13.3992756 C10.000627,13.3875677 10.0012838,13.3758318 10.0019107,13.3640958 C10.0958053,13.3640958 10.1899089,13.3602212 10.2834751,13.3653031 C10.3614868,13.3695988 10.3958203,13.3397535 10.4113151,13.2694219 C10.4310494,13.1798018 10.4618301,13.0923435 10.4878041,13.0039307 C10.4964323,13.0026111 10.5050605,13.0013196 10.5136886,13" id="Fill-11" fill="#FFFEFE"></path>
                    <path d="M29.5088921,6.14414785 C29.6922423,6.16140439 29.8198782,6.28350577 29.9489548,6.39743301 C30.0286614,6.46776477 30.0130082,6.53806814 29.9160692,6.57232579 C29.8770055,6.58611967 29.8537335,6.60280856 29.8399642,6.64223181 C29.8331211,6.66187248 29.8156671,6.68670714 29.7981023,6.6919579 C29.6792765,6.7274076 29.6113998,6.81360516 29.5542726,6.92006781 C29.5222181,6.97975614 29.4584694,7.01055112 29.3902326,7.01875365 C29.25966,7.03453431 29.1436878,7.07358859 29.0261364,7.14653153 C28.8794119,7.23755411 28.7066172,7.2861449 28.5426326,7.34603191 C28.2146635,7.46574917 27.8961971,7.60048076 27.6023602,7.79893098 C27.3605252,7.9622721 27.1142298,8.11871627 26.876412,8.28869888 C26.8335527,8.31932357 26.7740982,8.33098876 26.7204618,8.33944674 C26.4910108,8.37566277 26.3104588,8.51470849 26.1114831,8.62068863 C25.8575688,8.75601625 25.5890818,8.87019893 25.2983479,8.90630143 C25.2780403,8.92560151 25.2484516,8.92775857 25.2275899,8.94612203 C24.7445848,9.02022866 24.2616074,9.01577261 23.7786855,8.94575306 C23.7571589,8.92832622 23.7277364,8.92582857 23.7073457,8.90630143 C23.4875914,8.86534552 23.2688622,8.82192034 23.0659247,8.71931772 C22.9987129,8.68531552 22.996829,8.68920392 23.0015942,8.63067926 C23.0319032,8.60831388 23.0627664,8.60890991 23.0941005,8.62840866 C23.5170693,8.67921329 23.9403706,8.72726481 24.3667194,8.7335941 C24.7160489,8.73873133 25.0678996,8.7363472 25.40551,8.63993195 C25.7222033,8.54947702 26.0296155,8.42950432 26.3114007,8.24331531 C26.5160005,8.10815799 26.7176082,7.96914066 26.9171657,7.82680257 C27.0093395,7.761012 27.096471,7.68789876 27.1865392,7.61898613 C27.3349537,7.50539948 27.3662601,7.32641963 27.4312001,7.16551941 C27.504036,6.98512043 27.5748771,6.80656631 27.5940211,6.60783226 C27.6090648,6.45155838 27.5469507,6.33394142 27.4473797,6.2376397 C27.1679216,5.96729668 26.8811218,5.71057724 26.5468359,5.50386771 C26.1672528,5.2691163 25.8423312,4.95574545 25.5623744,4.59886428 C25.5144451,4.53775682 25.4614736,4.48065129 25.4159824,4.41775574 C25.356805,4.33590069 25.3815176,4.27944796 25.480673,4.25878552 C25.5757835,4.23894618 25.6654916,4.27062101 25.7470544,4.30848323 C25.7938478,4.33025258 25.8405027,4.35031899 25.8889583,4.35942976 C26.1555614,4.40941129 26.4145179,4.4913231 26.6641103,4.59318778 C26.9750964,4.72005742 27.2609543,4.8967383 27.4909593,5.15504716 C27.5318793,5.20096999 27.5742399,5.24757401 27.6472974,5.24748886 C27.7232085,5.24737533 27.7638514,5.2224839 27.7699464,5.14003283 C27.7813331,4.98631337 27.7898939,4.83168568 27.8141355,4.67986785 C27.8512045,4.44778439 27.7917778,4.2601195 27.6292616,4.0897963 C27.464335,3.91694706 27.359888,3.7012119 27.2933134,3.46773771 C27.2800429,3.42124722 27.2647221,3.37132246 27.2364355,3.33405627 C27.0846411,3.1339031 27.0851952,2.87982323 27.0004185,2.65653834 C26.9475855,2.51729394 26.8843355,2.38193794 26.8203929,2.24749018 C26.7946275,2.19336481 26.7780323,2.13662825 26.7999745,2.08542628 C26.8234127,2.03067649 26.841781,1.96255857 26.9409087,2.02474456 C27.1320162,2.14463211 27.2625057,2.32653536 27.4219467,2.47789907 C27.5627424,2.61152374 27.68722,2.76390922 27.813249,2.9130591 C28.0659442,3.21212518 28.3250393,3.5080692 28.4777203,3.87860234 C28.5571499,4.07140446 28.5586737,4.28154826 28.5817518,4.48593043 C28.6297919,4.91115659 28.6467195,5.34041307 28.7390595,5.75970729 C28.7574832,5.84343558 28.7808937,5.92741931 28.8138347,6.00603875 C28.8938738,6.19713792 29.0929326,6.27079043 29.2843726,6.18873671 C29.3280631,6.17000428 29.3747179,6.15853776 29.4199875,6.14372211 C29.4497147,6.1233435 29.4793311,6.12328673 29.5088921,6.14414785" id="Fill-12" fill="#F8C334"></path>
                    <path d="M17.5513325,10.6558874 C17.3933752,10.5624675 17.2425546,10.4945887 17.0426349,10.5797403 C16.9407327,10.6231602 16.8166524,10.5558009 16.7673275,10.4401732 C16.723468,10.3375325 16.6488934,10.3104329 16.5419322,10.3120779 C16.3385797,10.3151948 16.1348657,10.3144156 15.9316487,10.30671 C15.8118143,10.3021645 15.7659222,10.3709091 15.7217014,10.4580952 C15.6828105,10.5346753 15.6396738,10.622987 15.5355132,10.6237662 C15.461345,10.6243723 15.3972949,10.5727706 15.3738068,10.5049784 C15.3425044,10.4145022 15.388803,10.3381818 15.4533952,10.2721212 C15.485601,10.2392208 15.5104442,10.1881818 15.5495609,10.1748052 C15.7974053,10.0902165 15.8376964,9.89961039 15.8466399,9.68294372 C15.8496662,9.6095671 15.8858018,9.54402597 15.9713977,9.50943723 C16.1466098,9.43865801 16.2191066,9.18393939 16.1078093,9.03948052 C16.0552321,8.97125541 15.9951568,8.90787879 15.9342233,8.84614719 C15.8119046,8.72220779 15.7997089,8.54268398 15.9106449,8.41177489 C15.957079,8.35688312 16.0057265,8.34164502 16.0474178,8.41839827 C16.146655,8.60099567 16.2726324,8.76649351 16.4042108,8.92818182 C16.5156888,9.06519481 16.6404015,9.16160173 16.845064,9.11987013 C16.9600201,9.09636364 17.0886625,9.10645022 17.1523513,9.23316017 C17.1879448,9.30393939 17.2468908,9.3082684 17.3155935,9.31103896 C17.9310263,9.33623377 18.4120803,9.08181818 18.8191016,8.66121212 C18.9646826,8.51077922 19.1013199,8.36454545 19.0673526,8.13852814 C19.0608934,8.09528139 19.0824391,8.05809524 19.1264341,8.0425974 C19.1711518,8.02683983 19.2114429,8.04025974 19.2311368,8.08354978 C19.2778871,8.18649351 19.3212949,8.11909091 19.3582886,8.07991342 C19.4352572,7.99839827 19.4923513,7.90757576 19.5049536,7.7930303 C19.5107804,7.73991342 19.5186851,7.6704329 19.5916788,7.66017316 C19.6558645,7.65121212 19.6534253,7.71887446 19.677862,7.75402597 C19.7658971,7.88051948 19.8908356,7.85541126 19.989079,7.79463203 C20.1148306,7.71679654 20.1464944,7.74619048 20.1415709,7.87186147 C20.1354279,8.02805195 20.1671819,8.1782684 20.2005621,8.33069264 C20.2388657,8.505671 20.2295609,8.68515152 20.1631619,8.8561039 C20.1275232,8.94787879 20.1499724,9.00627706 20.2446926,9.05012987 C20.4429862,9.14186147 20.4441606,9.24584416 20.2750464,9.41051948 C20.1533149,9.52904762 19.9892597,9.58320346 19.8626951,9.70112554 C19.7104743,9.84298701 19.630931,10.0171429 19.5299774,10.1832035 C19.5060376,10.2226407 19.4944291,10.2829437 19.4520602,10.2935065 C19.1529486,10.3685714 19.2253551,10.5975325 19.2501531,10.7793506 C19.2911669,11.0802597 19.2389511,11.3627273 19.1140577,11.6301299 C19.0000954,11.8742857 19.0276035,12.124632 19.0324818,12.3739827 C19.0353726,12.5194372 18.9901581,12.5644589 18.8398344,12.5521212 C18.6724366,12.5384416 18.5081104,12.5135065 18.342926,12.4868398 C18.2309059,12.4687879 18.2128833,12.4232035 18.2292346,12.3230303 C18.2813601,12.0057143 18.3130238,11.6863636 18.3076035,11.364026 C18.2987503,10.8366667 18.212793,10.7474892 17.6666499,10.7161472 C17.632276,10.6889177 17.5843061,10.6856277 17.5513325,10.6558874" id="Fill-17" fill="#1C8242"></path>
                </g>
            </g>
        </g>
    </g>
</svg>