<?xml version="1.0" encoding="UTF-8" standalone="no"?>
<svg width="28px" height="20px" viewBox="0 0 28 20" version="1.1" xmlns="http://www.w3.org/2000/svg" xmlns:xlink="http://www.w3.org/1999/xlink">
    <!-- Generator: Sketch 40.1 (33804) - http://www.bohemiancoding.com/sketch -->
    <title>MS</title>
    <desc>Created with Sketch.</desc>
    <defs>
        <linearGradient x1="50%" y1="0%" x2="50%" y2="100%" id="linearGradient-1">
            <stop stop-color="#FFFFFF" offset="0%"></stop>
            <stop stop-color="#F0F0F0" offset="100%"></stop>
        </linearGradient>
        <rect id="path-2" x="0" y="0" width="28" height="20" rx="2"></rect>
        <mask id="mask-3" maskContentUnits="userSpaceOnUse" maskUnits="objectBoundingBox" x="0" y="0" width="28" height="20" fill="white">
            <use xlink:href="#path-2"></use>
        </mask>
        <mask id="mask-5" maskContentUnits="userSpaceOnUse" maskUnits="objectBoundingBox" x="0" y="0" width="28" height="20" fill="white">
            <use xlink:href="#path-2"></use>
        </mask>
    </defs>
    <g id="Page-1" stroke="none" stroke-width="1" fill="none" fill-rule="evenodd">
        <g id="MS">
            <mask id="mask-4" fill="white">
                <use xlink:href="#path-2"></use>
            </mask>
            <g id="Mask" stroke="#F5F5F5" mask="url(#mask-3)" fill="#FFFFFF">
                <use mask="url(#mask-5)" xlink:href="#path-2"></use>
            </g>
            <g id="MS-01" mask="url(#mask-4)">
                <path d="M0.0716783217,20.0963142 C0.0716783217,13.5082512 0.0733986014,6.92011784 0.0647972028,0.331984471 C0.0645104895,0.0911550582 0.112965035,0.0438191368 0.358391608,0.0439598082 C13.7622378,0.0514857273 27.1660839,0.0519077415 40.5699301,0.0427641014 C40.873201,0.0425530943 40.9926171,0.104729847 40.9283217,0.402320164 C40.82575,0.552557205 40.6830385,0.650323818 40.5192535,0.731420872 C37.7580612,2.09839507 34.9688427,3.41001507 32.2005542,4.7630628 C31.2926049,5.20688102 30.3776311,5.63860151 29.4686066,6.08143503 C27.168736,7.20181229 24.8639196,8.31234254 22.5606084,9.4258269 C19.3356573,10.9846769 16.111208,12.5445819 12.8859703,14.1029395 C9.66058916,15.6614378 6.4343479,17.218248 3.21025699,18.7793487 C2.3429493,19.1993231 1.47370629,19.6163435 0.602814685,20.0297063 C0.438456294,20.1077086 0.270012238,20.2410651 0.0716783217,20.0963142" id="Fill-1" fill="#273776"></path>
                <path d="M0.0716783217,21.1513496 L0.0716783217,20.7996712 C0.184284965,20.6330459 0.353302448,20.566438 0.542963287,20.5100991 C4.08071853,19.4596355 7.6167535,18.4035451 11.1548671,17.3540662 C14.1677937,16.4603106 17.1796451,15.5628975 20.192715,14.6697045 C22.4869948,13.9895583 24.7786224,13.3007609 27.0727587,12.6201224 C30.06325,11.732908 33.0518776,10.8397853 36.0435157,9.95615803 C37.482243,9.53126011 38.9183899,9.09778123 40.3569738,8.67217995 C40.5495734,8.61520804 40.7467605,8.53038319 40.9283217,8.70193195 L40.9283217,21.1513496 C40.8045332,21.2173245 40.6704231,21.1848997 40.5416171,21.1848997 C27.1805629,21.1865878 13.8195087,21.1865878 0.458454545,21.1848997 C0.329648601,21.1848997 0.195538462,21.2173245 0.0716783217,21.1513496" id="Fill-2" fill="#273776"></path>
                <path d="M0.0716783217,20.0963142 C0.626325175,19.919631 1.12456119,19.623166 1.64344056,19.372771 C11.8826171,14.4300005 22.1192133,9.48188445 32.3556661,4.53376844 C35.126965,3.19415483 37.8964003,1.85074309 40.6671259,0.510004111 C40.7516346,0.469068737 40.8411608,0.437980361 40.9283217,0.402320164 L40.9283217,4.55212606 C40.8049633,4.74421283 40.6005367,4.81518155 40.4002675,4.89156611 C37.6532675,5.93963827 34.9211766,7.02470701 32.1823479,8.09282485 C28.0893007,9.6890934 23.9975437,11.2883864 19.9055,12.887187 C13.4852727,15.3954985 7.06296678,17.8987458 0.643097902,20.4079013 C0.46038986,20.4792217 0.273954545,20.6009025 0.0716783217,20.4479927 L0.0716783217,20.0963142" id="Fill-3" fill="#D0712D"></path>
                <path d="M0.0716783217,20.4479927 C1.18871329,20.021477 2.30861538,19.6019246 3.42242483,19.1673907 C13.9247325,15.0703366 24.4260367,10.9709614 34.9274126,6.87144554 C36.8158497,6.13425714 38.7026381,5.39320027 40.5909318,4.6556602 C40.7000979,4.61303677 40.815715,4.58623887 40.9283217,4.55212606 L40.9283217,8.70193195 C40.1975612,8.81249966 39.5098077,9.07738388 38.8076469,9.28585887 C26.6791731,12.8869057 14.5532797,16.4962521 2.42666958,20.1034885 C1.64207867,20.3368623 0.856699301,20.5676337 0.0716783217,20.7996712 L0.0716783217,20.4479927" id="Fill-4" fill="#FFFFFF"></path>
                <path d="M3.80497203,8.78478739 C4.4048479,8.52116922 5.04887762,8.36256223 5.70588112,8.01833935 C4.3228479,7.93485088 3.01622378,7.8560749 1.70959965,7.77722859 C1.70952797,7.759715 1.70938462,7.74227175 1.70931294,7.7248285 C3.00038287,7.64886595 4.2914528,7.57297374 5.58245105,7.49701119 C5.64115559,7.41471843 5.55435315,7.40444942 5.51700874,7.36970359 C4.94702273,7.15313999 4.37696503,6.93657639 3.80690734,6.72001279 C3.80626224,6.58503859 3.88862063,6.63349989 3.95836364,6.65396757 C4.5893479,6.74568532 5.22040385,6.83733272 5.94256294,6.94220324 C5.32283217,6.49965106 4.7721993,6.10654487 4.22156643,5.71336835 C4.23726399,5.68382736 4.25296154,5.65421603 4.26865909,5.62474538 C4.8644493,5.88245536 5.46023951,6.14016533 6.0561014,6.39787531 C6.07416434,6.37607125 6.09215559,6.35426718 6.11021853,6.33253346 C5.69849825,5.83195433 5.28677797,5.33144554 4.87505769,4.83093674 C4.89727797,4.80617858 4.91949825,4.78142042 4.94164685,4.75666225 C5.45593881,5.16425759 5.97023077,5.57192327 6.48452273,5.97951861 C6.50674301,5.96552181 6.52896329,5.95145467 6.55118357,5.93745787 C6.28325,5.34291025 6.01538811,4.74843298 5.74745455,4.15388536 C5.77390385,4.13693446 5.80028147,4.11998356 5.82673077,4.10310299 C6.23185664,4.6448285 6.63698252,5.18655401 7.09672727,5.8013583 C6.98748951,5.0750016 6.89172727,4.43804156 6.79596503,3.8012222 C6.76385315,3.72645536 6.79919056,3.705847 6.86936364,3.71302124 C7.10733566,4.31453208 7.34537937,4.91604293 7.58342308,5.51755378 C7.60700524,5.51389632 7.63065909,5.5103092 7.65424126,5.50665175 C7.73724476,4.18820918 7.82039161,2.86976661 7.9033951,1.55125371 C7.91615385,1.55118338 7.92898427,1.55111304 7.94167133,1.55111304 C8.02438811,2.86399909 8.1071049,4.1768148 8.18975,5.48970084 C8.21376224,5.49694542 8.23777448,5.50426033 8.26178671,5.51150491 C8.49818182,4.91280749 8.73457692,4.31411007 8.97104371,3.71541265 C9.1095979,3.71372459 9.06042657,3.79615803 9.04085839,3.86536835 C8.94738986,4.48242338 8.85392133,5.09947842 8.74661888,5.80818086 C9.18744056,5.21553231 9.57686888,4.69195341 9.9662972,4.16844485 C9.99826573,4.18856086 10.0302343,4.20867687 10.0622028,4.22872254 C9.80803147,4.79386983 9.55393182,5.35901713 9.29976049,5.92409409 C9.31753671,5.94027129 9.33531294,5.9564485 9.35316084,5.97262571 C9.81871154,5.61510939 10.2843339,5.25759306 10.7499563,4.90007673 C10.7951136,4.90647728 10.8212762,4.93179813 10.8281573,4.97610961 C10.4631713,5.4328696 10.0981853,5.8896296 9.73327098,6.34631925 C9.74488287,6.36629459 9.75642308,6.38626992 9.76803497,6.40617493 C10.3739318,6.14354145 10.9798287,5.88090797 11.5857255,5.61820416 C11.605007,5.64514273 11.6242168,5.67201096 11.6434266,5.69894953 C11.0849808,6.09761224 10.5264633,6.49634528 9.90207343,6.94206257 C10.6227273,6.83810642 11.2540699,6.74702169 11.8854126,6.65593697 C11.9568042,6.62935008 12.0340734,6.58939941 12.0361521,6.71994245 C11.465521,6.9369984 10.8948182,7.15398401 10.3241154,7.37103996 C10.2854091,7.40466042 10.1998252,7.4148591 10.258458,7.49729253 C11.5268776,7.57156702 12.7953689,7.64591185 14.0638601,7.72025668 C14.0635734,7.74065403 14.0632867,7.76105138 14.063,7.78144873 C12.7800297,7.85867732 11.4969878,7.93590591 10.2140175,8.01320484 C10.2051294,8.03409454 10.1962413,8.05498424 10.1872815,8.07594428 C10.8037867,8.31170952 11.420292,8.54740443 12.0367255,8.78316967 C12.043965,8.84949623 12.0285542,8.88895456 11.9500664,8.85343503 C11.2795157,8.75665312 10.608965,8.6598712 9.89325699,8.55661841 C10.5149231,8.99931126 11.100535,9.41633158 11.6860752,9.83335191 C11.6716678,9.8579694 11.6572605,9.88251656 11.6428531,9.90713405 C11.0228357,9.63774834 10.4028182,9.36836264 9.7828007,9.09897694 C9.76480944,9.11993697 9.74681818,9.14096734 9.72882692,9.16192738 C10.143271,9.66679699 10.5576434,10.1716666 10.9720874,10.6765362 C10.9485769,10.6986919 10.9250664,10.720707 10.9016276,10.7427924 C10.391278,10.3389952 9.881,9.93533866 9.37057867,9.53154145 C9.34692483,9.54666362 9.3231993,9.5617858 9.29947378,9.57683763 C9.56518531,10.1692752 9.83096853,10.7617127 10.0967517,11.3540799 C10.0704458,11.3705385 10.0440682,11.3871377 10.0177622,11.4036666 C9.61141783,10.8592683 9.20507343,10.3149404 8.74783741,9.70238685 C8.85427972,10.4060955 8.9476049,11.0227285 9.04085839,11.6395725 C9.061,11.7089235 9.10852273,11.7906536 8.97133042,11.7900909 C8.74217483,11.2066563 8.51309091,10.6233624 8.28400699,10.0399278 C8.25311364,10.0420379 8.22222028,10.0440776 8.19132692,10.0461174 C8.10767832,11.3490158 8.02402972,12.6519845 7.9404528,13.9548828 C7.92776573,13.9547422 7.91507867,13.9547422 7.90239161,13.9546015 C7.82024825,12.6381987 7.73803322,11.3217958 7.65581818,10.005393 C7.63409965,9.99660105 7.61238112,9.98787942 7.59059091,9.9791578 C7.35011014,10.5831304 7.10962937,11.1870327 6.8691486,11.7910756 C6.79811538,11.7988828 6.76421154,11.7771491 6.79610839,11.7028746 C6.89172727,11.068728 6.98741783,10.4347221 7.09801748,9.70140215 C6.63318357,10.3266161 6.2211049,10.8807207 5.8090979,11.4348253 C5.78329371,11.4223759 5.75756119,11.4098561 5.73175699,11.397266 C6.00449301,10.7889326 6.27708566,10.1805289 6.54975,9.57219548 C6.52881993,9.55580726 6.50796154,9.53948938 6.48703147,9.52310116 C5.97252448,9.92985248 5.45808916,10.3366038 4.94358217,10.7432848 C4.9206451,10.720496 4.89777972,10.6977072 4.87484266,10.6749185 C5.28584615,10.1750427 5.69684965,9.67523727 6.10778147,9.17543183 C6.0917972,9.15123636 6.07581294,9.12704088 6.05982867,9.1028454 C5.44382517,9.36955835 4.82789336,9.63620096 4.21203322,9.90291391 C4.19604895,9.87949212 4.18006469,9.85607034 4.1641521,9.83264855 C4.73363636,9.42470153 5.30312063,9.01682485 5.94306469,8.55851747 C5.21574476,8.66331765 4.5827535,8.75454305 3.94969056,8.84576844 C3.87758217,8.87988125 3.80619056,8.91258735 3.80497203,8.78478739" id="Fill-6" fill="#FFFFFF"></path>
                <path d="M12.0361521,6.96882397 C11.9859056,6.90684569 11.9357308,6.84466287 11.8854126,6.78268459 C12.0018182,6.5490899 12.1316993,6.59122694 12.279715,6.59449972 C12.213986,6.8972319 12.1220227,6.91605039 12.0361521,6.96882397" id="Fill-7" fill="#BCC7D9"></path>
                <path d="M3.95836364,6.77814932 C3.9079021,6.8407246 3.85736888,6.90329987 3.80690734,6.96587515 C3.71386888,6.89250414 3.62083042,6.81913313 3.45948252,6.69198337 C3.6830472,6.54204261 3.82497028,6.5362449 3.95836364,6.77814932" id="Fill-8" fill="#AEBCD3"></path>
                <path d="M10.9023516,5.16055012 C10.8515066,5.11126358 10.8006616,5.06197704 10.7499563,5.01255359 C10.8373985,4.89604569 10.9442569,4.68781006 11.0882712,4.82813979 C11.2321458,4.96819571 11.0213625,5.07457249 10.9023516,5.16055012" id="Fill-9" fill="#FFFFFF"></path>
                <path d="M3.80497203,8.78478739 C3.85321154,8.84341453 3.90145105,8.90204167 3.94969056,8.96066881 C3.82131469,9.18949722 3.68276049,9.20045177 3.52155594,9.11484398 C3.60577797,8.85984636 3.71193357,8.86430932 3.80497203,8.78478739" id="Fill-10" fill="#BDC8DA"></path>
                <path d="M11.9500664,8.99543331 C11.9806847,8.92467876 12.0113029,8.85392422 12.0419211,8.78316967 C12.1402337,8.87198469 12.2385463,8.96101218 12.3368589,9.04982719 C12.1982032,9.18559943 12.0685126,9.23255665 11.9500664,8.99543331" id="Fill-11" fill="#BFC9DA"></path>
                <path d="M6.90704859,11.7028746 C6.98083347,11.7335779 7.05440133,11.7642812 7.12818621,11.7949845 C7.03356796,11.8906935 6.93916671,11.9864025 6.84454846,12.082185 C6.73907949,11.9432122 6.65444389,11.8150371 6.90704859,11.7028746" id="Fill-12" fill="#BFC9DA"></path>
                <path d="M7.10642008,3.71302124 C7.04309647,3.74235122 6.97995801,3.77175154 6.91681956,3.80115186 C6.70203773,3.6940306 6.77350824,3.57157616 6.71962762,3.40368486 C7.00421355,3.51973875 7.05753869,3.61595798 7.10642008,3.71302124" id="Fill-13" fill="#BFCADB"></path>
                <path d="M9.16547839,3.89060881 C9.10060029,3.83703518 9.03572218,3.78346155 8.97104371,3.72996327 C9.0005882,3.64715396 9.03672031,3.5656256 9.27646985,3.51129847 C9.41760468,3.65175029 9.37169095,3.77411819 9.16547839,3.89060881" id="Fill-14" fill="#A6B5CF"></path>
                <path d="M8.97133042,11.7970665 C9.03695316,11.744593 9.10277906,11.692046 9.16840179,11.6395725 C9.4099666,11.7515846 9.3646605,11.8741208 9.33134122,12.0188828 C9.03695316,11.9567684 9.00099271,11.8775798 8.97133042,11.7970665" id="Fill-15" fill="#A6B5CF"></path>
                <path d="M5.51700874,7.36976608 C5.67840591,7.36578535 5.80347652,7.48834973 5.90380119,7.69723295 C5.8120096,7.71462242 5.72033991,7.73180238 5.62842642,7.74898235 C5.59124656,7.62264676 5.5540667,7.49631118 5.51700874,7.36976608" id="Fill-16" fill="#48629D"></path>
                <path d="M10.3729314,7.75000389 C10.2814652,7.7316698 10.1902452,7.7133357 10.0989021,7.69521234 C10.1996011,7.48869035 10.3219664,7.3576121 10.4856946,7.37173146 C10.4481479,7.49775203 10.4104781,7.62377259 10.3729314,7.75000389" id="Fill-17" fill="#4A639E"></path>
            </g>
        </g>
    </g>
</svg>