<?xml version="1.0" encoding="UTF-8" standalone="no"?>
<svg width="28px" height="20px" viewBox="0 0 28 20" version="1.1" xmlns="http://www.w3.org/2000/svg" xmlns:xlink="http://www.w3.org/1999/xlink">
    <!-- Generator: Sketch 40.1 (33804) - http://www.bohemiancoding.com/sketch -->
    <title>TK</title>
    <desc>Created with Sketch.</desc>
    <defs>
        <linearGradient x1="50%" y1="0%" x2="50%" y2="100%" id="linearGradient-1">
            <stop stop-color="#FFFFFF" offset="0%"></stop>
            <stop stop-color="#F0F0F0" offset="100%"></stop>
        </linearGradient>
        <rect id="path-2" x="0" y="0" width="28" height="20" rx="2"></rect>
    </defs>
    <g id="Page-1" stroke="none" stroke-width="1" fill="none" fill-rule="evenodd">
        <g id="TK">
            <mask id="mask-3" fill="white">
                <use xlink:href="#path-2"></use>
            </mask>
            <use id="Mask" fill="#FFFFFF" xlink:href="#path-2"></use>
            <rect id="Mask-Copy" fill="#E31F37" mask="url(#mask-3)" x="0" y="0" width="28" height="20"></rect>
            <g id="10-01" mask="url(#mask-3)">
                <path d="M40.8852641,20.9701215 C27.297518,20.9701215 13.7097719,20.9700684 0.122025749,20.9723013 C0.036872209,20.9723013 0.0176841396,20.9526835 0.0177359993,20.8653873 C0.0200178237,13.9529848 0.0200178237,7.04047595 0.0177359993,0.128020253 C0.0176841396,0.0407772152 0.036872209,0.0211063291 0.122025749,0.0211063291 C13.7097719,0.0233924051 27.297518,0.0232860759 40.8852641,0.0232860759 C40.9061635,0.0635848101 40.8957916,0.107073418 40.8957916,0.148967089 C40.8963621,7.04744051 40.8963621,13.9459671 40.8957916,20.8444405 C40.8957916,20.8863342 40.9061635,20.9298228 40.8852641,20.9701215" id="Fill-1" fill="#282E60"></path>
                <path d="M7.4001393,17.8911494 C7.89507755,17.3246278 8.40446428,16.7967038 8.90392931,16.2421975 C9.88943406,15.1481241 10.8969526,13.2392576 15.2846681,8.94726557 C19.6723837,4.65527354 25.0713702,1.36030602 25.035063,1.40576172 C24.40798,2.19063007 23.8453085,8.95410143 24.4902345,11.4682616 C25.1351606,13.9824217 26.1451305,17.1070259 26.7685549,18.1120487 C27.0006298,18.4861677 23.0882214,18.338157 21.8148941,18.3191241 C20.9327302,18.3058861 20.0505972,18.2988152 19.1684643,18.286481 C17.5150735,18.2633544 15.8616517,18.2382076 14.2082609,18.2143367 C13.1045018,18.1984405 12.0007117,18.1839266 10.8969526,18.1675519 C9.7027509,18.1498481 8.50854921,18.1307089 7.31434752,18.1120481 C7.2991549,18.0047089 7.35006567,17.9484076 7.4001393,17.8911494 Z" id="Fill-3" fill="#F8CE23"></path>
                <path d="M27.32104,19.6615291 C27.2070334,19.7332481 21.8935857,19.6157544 20.3646193,19.5873114 C19.1387612,19.5645038 17.912903,19.5408456 16.6870139,19.5176127 C15.456629,19.4943266 14.226213,19.4710937 12.9958281,19.4477544 C11.76997,19.4245215 10.5440808,19.4011823 9.31819167,19.3780025 C8.63517502,19.3650835 7.95212737,19.3473266 7.26907972,19.3449873 C7.1621423,19.3446684 7.08993087,19.2797544 7.02333139,19.1563595 C6.9188434,18.9626278 6.92166488,18.8661342 7.02736209,18.6724025 C7.08571414,18.5655418 7.14840694,18.5259873 7.23546993,18.5276886 C8.39798417,18.5500177 9.56059142,18.5650101 10.7231367,18.5824481 C12.2611876,18.6054684 13.7992075,18.6292329 15.3372274,18.6521468 C16.4093301,18.6681494 17.4814947,18.6830354 18.5535974,18.6987722 C20.1278005,18.7218987 21.7020657,18.7447063 23.2762688,18.7688962 C23.8959726,18.7784658 27.1834073,18.799838 27.2069714,18.8251975" id="Fill-4" fill="#F8CF23"></path>
                <path d="M7.80575849,13.9267747 C7.89402361,14.2028051 7.97876227,14.4490633 8.04970627,14.699362 C8.07620655,14.7928785 8.1179017,14.8155266 8.20704844,14.8132405 C8.45919004,14.8068076 8.71159094,14.8109544 8.99593739,14.8109544 C8.87728252,14.9014405 8.78071985,14.9760835 8.68317186,15.0493443 C8.5675767,15.1361089 8.45488569,15.2280304 8.33353412,15.3055975 C8.26575356,15.3488734 8.26751679,15.3914582 8.28888296,15.4564253 C8.37268815,15.711243 8.45317432,15.9672304 8.54351383,16.2498532 C8.31709461,16.0815873 8.10950044,15.9327266 7.90854431,15.7749873 C7.83500733,15.7173038 7.78475533,15.7100203 7.7074326,15.7714785 C7.50647647,15.9310785 7.29732651,16.0797797 7.07018126,16.2487367 C7.15756476,15.9712709 7.23198335,15.7176228 7.31884826,15.4684937 C7.34908244,15.3818354 7.33077598,15.342281 7.26050616,15.2925722 C7.05011157,15.1437114 6.84588828,14.9855468 6.61246801,14.8109544 L7.3367917,14.8109544 C7.52426433,14.8109544 7.52379759,14.8107949 7.58348804,14.6223797 C7.65417274,14.3995671 7.72579091,14.1770203 7.80575849,13.9267747" id="Fill-5" fill="#FFFFFF"></path>
                <path d="M2.06142097,7.16971899 C2.31278468,7.16971899 2.53422537,7.16679494 2.75545862,7.17147342 C2.82370592,7.17290886 2.85430311,7.15158987 2.8741135,7.08396456 C2.93717483,6.86848861 3.00728907,6.65519241 3.08481924,6.40904051 C3.16105292,6.65200253 3.23002625,6.8618962 3.29179109,7.07391646 C3.31372772,7.14925063 3.34759207,7.17455696 3.4262113,7.17211139 C3.64158441,7.16525316 3.85726869,7.16971899 4.08814783,7.16971899 C4.01383296,7.2541443 3.92660503,7.30263038 3.84964532,7.36302532 C3.75380869,7.43835949 3.65714231,7.51326835 3.55528996,7.57940506 C3.48901333,7.62246835 3.47853768,7.66505316 3.50441565,7.73943038 C3.56877347,7.92460253 3.62421143,8.11301772 3.68281283,8.30021013 C3.68950273,8.32147595 3.69380708,8.34353924 3.70646083,8.39425823 C3.52583368,8.26060253 3.36149046,8.14901013 3.20897124,8.02231899 C3.11878731,7.94741013 3.05660759,7.94002025 2.96274163,8.01955443 C2.80690339,8.15156203 2.63675189,8.26581266 2.45228713,8.40265823 C2.52841709,8.1631519 2.59251561,7.94927089 2.66543028,7.73863291 C2.6916194,7.66313924 2.67699498,7.62347848 2.61351877,7.57871392 C2.43465485,7.45260759 2.26108061,7.31852658 2.06142097,7.16971899" id="Fill-6" fill="#FFFFFF"></path>
                <path d="M7.80669196,1.53906076 C7.88318494,1.78345823 7.95257315,1.99473418 8.01449357,2.2082962 C8.03658578,2.28432152 8.07179848,2.3083519 8.14953609,2.30606582 C8.36361271,2.29968608 8.57800049,2.30383291 8.82340034,2.30383291 C8.62239235,2.45487342 8.44798836,2.5921443 8.26658331,2.71872911 C8.20611496,2.76094177 8.20196619,2.79815696 8.22239889,2.86009367 C8.29199454,3.07099747 8.35811559,3.28312405 8.40847131,3.50987089 C8.24054977,3.38557215 8.06936108,3.26552658 7.90615877,3.13506076 C7.83127344,3.0751443 7.78024354,3.07525063 7.7049952,3.13580506 C7.5397185,3.26892911 7.36552195,3.39051646 7.17462659,3.53182785 C7.25065283,3.29200253 7.3168776,3.07493165 7.38901437,2.85993418 C7.41089914,2.79475443 7.40280903,2.75955949 7.34374089,2.71803797 C7.16404722,2.59171899 6.99052484,2.4560962 6.78759804,2.30383291 C7.01837347,2.30383291 7.21995192,2.29803797 7.42095991,2.30622532 C7.52613127,2.31047848 7.57975415,2.28511899 7.60869183,2.1706557 C7.66008474,1.96735443 7.7329994,1.76968861 7.80669196,1.53906076" id="Fill-7" fill="#FFFFFF"></path>
                <path d="M10.997616,5.96272405 C11.1928158,5.96272405 11.3546179,5.95639747 11.5157458,5.96501013 C11.6174944,5.97048608 11.6694578,5.94608354 11.6954395,5.83443797 C11.7333489,5.67170127 11.7950618,5.51481266 11.8533002,5.33469114 C11.915843,5.52959241 11.9757927,5.69886835 12.0230368,5.87175949 C12.0438326,5.94783797 12.079149,5.96602025 12.1497818,5.96415949 C12.322993,5.95969367 12.4963598,5.96272405 12.706184,5.96272405 C12.5779351,6.05868608 12.4747344,6.13678481 12.3706521,6.21355443 C12.1791344,6.35475949 12.1792381,6.35433418 12.2521528,6.58581266 C12.2913068,6.71021772 12.3291125,6.83499494 12.3671775,6.95971899 C12.3680591,6.96264304 12.3647401,6.9668962 12.3608506,6.97715696 C12.2201554,6.87263544 12.0762448,6.77486582 11.9433286,6.66322025 C11.8721253,6.60341013 11.8243625,6.61457468 11.759538,6.66561266 C11.626155,6.77066582 11.4881046,6.8695519 11.3259395,6.99039494 C11.3890527,6.79097468 11.4366598,6.62456962 11.4952612,6.46231139 C11.5229024,6.38559494 11.5187536,6.34173418 11.4459946,6.29330127 C11.3010987,6.19675443 11.1645522,6.08707595 10.997616,5.96272405" id="Fill-8" fill="#FFFFFE"></path>
            </g>
        </g>
    </g>
</svg>