<?xml version="1.0" encoding="UTF-8" standalone="no"?>
<svg width="36px" height="28px" viewBox="0 0 36 28" version="1.1" xmlns="http://www.w3.org/2000/svg" xmlns:xlink="http://www.w3.org/1999/xlink">
    <!-- Generator: Sketch 40.1 (33804) - http://www.bohemiancoding.com/sketch -->
    <title>TR Copy@1x</title>
    <desc>Created with Sketch.</desc>
    <defs>
        <filter x="-50%" y="-50%" width="200%" height="200%" filterUnits="objectBoundingBox" id="filter-1">
            <feOffset dx="0" dy="2" in="SourceAlpha" result="shadowOffsetOuter1"></feOffset>
            <feGaussianBlur stdDeviation="2" in="shadowOffsetOuter1" result="shadowBlurOuter1"></feGaussianBlur>
            <feColorMatrix values="0 0 0 0 0   0 0 0 0 0   0 0 0 0 0  0 0 0 0.5 0" type="matrix" in="shadowBlurOuter1" result="shadowMatrixOuter1"></feColorMatrix>
            <feMerge>
                <feMergeNode in="shadowMatrixOuter1"></feMergeNode>
                <feMergeNode in="SourceGraphic"></feMergeNode>
            </feMerge>
        </filter>
        <rect id="path-2" x="0" y="0" width="28" height="20" rx="2"></rect>
    </defs>
    <g id="Page-1" stroke="none" stroke-width="1" fill="none" fill-rule="evenodd">
        <g id="TR-Copy" filter="url(#filter-1)" transform="translate(4.000000, 2.000000)">
            <mask id="mask-3" fill="white">
                <use xlink:href="#path-2"></use>
            </mask>
            <use id="Mask" fill="#FFFFFF" xlink:href="#path-2"></use>
            <rect id="Mask-Copy" fill="#E92434" mask="url(#mask-3)" x="0" y="0" width="28" height="20"></rect>
            <polygon id="Star-8" fill="#FFFFFF" mask="url(#mask-3)" points="18.6857803 10.8124704 17.1183529 11.929849 17.6966815 10.093848 16.1496296 8.94842503 18.0744836 8.93109264 18.6857803 7.10580368 19.297077 8.93109264 21.221931 8.94842503 19.6748791 10.093848 20.2532076 11.929849 18.6857803 10.8124704 18.6857803 10.8124704"></polygon>
            <path d="M17.4027613,13.6841141 C16.3048507,15.0935058 14.5916202,16 12.6666667,16 C9.35295817,16 6.66666667,13.3137085 6.66666667,10 C6.66666667,6.6862915 9.35295817,4 12.6666667,4 C14.5916202,4 16.3048507,4.90649423 17.4027613,6.31588587 C16.5555329,5.70011138 15.4903254,5.33333333 14.3333333,5.33333333 C11.5719096,5.33333333 9.33333333,7.42267117 9.33333333,10 C9.33333333,12.5773288 11.5719096,14.6666667 14.3333333,14.6666667 C15.4903254,14.6666667 16.5555329,14.2998886 17.4027613,13.6841141 Z" id="Oval-41" fill="#FFFFFF" mask="url(#mask-3)"></path>
        </g>
    </g>
</svg>