<?xml version="1.0" encoding="UTF-8" standalone="no"?>
<svg width="28px" height="20px" viewBox="0 0 28 20" version="1.1" xmlns="http://www.w3.org/2000/svg" xmlns:xlink="http://www.w3.org/1999/xlink">
    <!-- Generator: Sketch 40.1 (33804) - http://www.bohemiancoding.com/sketch -->
    <title>CW@1x</title>
    <desc>Created with Sketch.</desc>
    <defs>
        <rect id="path-1" x="0" y="0" width="28" height="20" rx="2"></rect>
        <mask id="mask-2" maskContentUnits="userSpaceOnUse" maskUnits="objectBoundingBox" x="0" y="0" width="28" height="20" fill="white">
            <use xlink:href="#path-1"></use>
        </mask>
        <mask id="mask-4" maskContentUnits="userSpaceOnUse" maskUnits="objectBoundingBox" x="0" y="0" width="28" height="20" fill="white">
            <use xlink:href="#path-1"></use>
        </mask>
    </defs>
    <g id="Page-1" stroke="none" stroke-width="1" fill="none" fill-rule="evenodd">
        <g id="CW">
            <mask id="mask-3" fill="white">
                <use xlink:href="#path-1"></use>
            </mask>
            <g id="Mask" stroke="#F5F5F5" mask="url(#mask-2)" fill="#FFFFFF">
                <use mask="url(#mask-4)" xlink:href="#path-1"></use>
            </g>
            <g id="3-01" mask="url(#mask-3)">
                <path d="M0.00903058639,12.4823619 C0.00903058639,8.37794286 0.00967834997,4.27348571 0.00590607971,0.169066667 C0.00579176849,0.0444571429 0.0339885361,0.0163809524 0.15862587,0.0164190476 C10.0812589,0.0198095238 20.003892,0.0195428571 29.926525,0.0195428571 C29.9575796,0.0769142857 29.9423,0.139085714 29.9423,0.198819048 C29.9431383,4.23428571 29.9431002,8.26979048 29.9425667,12.3052952 C29.9425667,12.3656762 29.9522832,12.4271238 29.9320501,12.4865905 C29.8879259,12.5372952 29.8279506,12.5457143 29.7661083,12.5482667 C29.6996554,12.5510476 29.6332024,12.5500952 29.5667495,12.5500952 C19.8357402,12.5501333 10.1046927,12.5502857 0.373683379,12.5488 C0.249960535,12.5487619 0.115911577,12.5837333 0.00903058639,12.4823619" id="Fill-1" fill="#083D7A"></path>
                <path d="M29.926525,19.9600381 C20.0030918,19.9600381 10.0796205,19.9597714 0.15618723,19.9635048 C0.0261391657,19.963581 0.00575366475,19.928419 0.00609659841,19.8081905 C0.0104785285,18.1971429 0.00903058639,16.586019 0.00903058639,14.9749333 C0.0590989008,14.9237714 0.122313006,14.9091048 0.191014049,14.9082667 C0.257505075,14.9075048 0.323957998,14.9072 0.390449024,14.9072 C10.1134185,14.9071619 19.8363879,14.9070476 29.5593955,14.9087619 C29.6830802,14.9088 29.816329,14.8723429 29.927249,14.9654476 C29.953693,15.012 29.9424905,15.0630095 29.9425286,15.112 C29.9431383,16.6792762 29.9431383,18.2466286 29.9424524,19.8139429 C29.9424143,19.8627429 29.9549123,19.9139429 29.926525,19.9600381" id="Fill-2" fill="#083D7A"></path>
                <path d="M29.921,14.9749333 L0.00903058639,14.9749333 L0.00903058639,12.4823619 L29.921,12.4823619 C29.9497683,12.5084571 29.9424143,12.5433143 29.9424143,12.5756571 C29.9427953,13.3443048 29.9427953,14.1129905 29.9424143,14.8816762 C29.9424143,14.9139429 29.9497683,14.9488381 29.921,14.9749333" id="Fill-3" fill="#F6E91B"></path>
                <path d="M4.59199603,5.97489524 C5.06692104,5.97489524 5.54085536,5.97051429 6.01459916,5.97798095 C6.13089178,5.97980952 6.17554936,5.94247619 6.20919496,5.83340952 C6.34800689,5.38335238 6.49821183,4.9367619 6.65718063,4.44921905 C6.808643,4.91321905 6.95949571,5.33577143 7.08089422,5.76662857 C7.13020046,5.94171429 7.20793209,5.98384762 7.37833202,5.97908571 C7.82513647,5.96659048 8.27255059,5.97489524 8.7657654,5.97489524 C8.55878588,6.12761905 8.38507093,6.25695238 8.21017477,6.38464762 C8.0047575,6.53459048 7.8019313,6.68853333 7.59076037,6.82986667 C7.4923003,6.89577143 7.46715184,6.95291429 7.5086087,7.07127619 C7.64326732,7.4559619 7.76279875,7.84594286 7.88587383,8.23462857 C7.90153447,8.284 7.94512515,8.33268571 7.90058188,8.39794286 C7.75971235,8.33424762 7.64684907,8.22758095 7.52244036,8.13954286 C7.26516391,7.95744762 7.00994506,7.77226667 6.75849848,7.58224762 C6.68347221,7.5255619 6.63119388,7.5263619 6.55609141,7.5824 C6.22363628,7.8303619 5.88706594,8.0728381 5.55080044,8.31561905 C5.49997005,8.35230476 5.45542678,8.41161905 5.3752184,8.38895238 C5.52245125,7.9384381 5.66579752,7.4903619 5.81687885,7.04491429 C5.85048635,6.94590476 5.81844111,6.89668571 5.74135724,6.84182857 C5.38097207,6.58537143 5.02394002,6.32434286 4.66675556,6.06346667 C4.63852069,6.04289524 4.59127205,6.03668571 4.59199603,5.97489524" id="Fill-5" fill="#FFFFFF"></path>
                <path d="M4.30819937,4.68255238 C3.99727285,4.45752381 3.71004686,4.25546667 3.43044161,4.04342857 C3.35251947,3.98434286 3.30660446,3.99100952 3.23279751,4.0464 C2.94797206,4.26015238 2.65727862,4.46609524 2.35202956,4.68708571 C2.47289463,4.32068571 2.58316685,3.97786667 2.70029775,3.63737143 C2.73081884,3.54860952 2.69317235,3.50982857 2.62786254,3.46335238 C2.34616159,3.26285714 2.06796618,3.05748571 1.75181945,2.8271619 C2.13758171,2.8271619 2.4776957,2.82354286 2.81765727,2.82933333 C2.92179479,2.83112381 2.97331104,2.80335238 3.00508956,2.69664762 C3.102216,2.37059048 3.21298357,2.04857143 3.33171482,1.68426667 C3.41626702,1.93893333 3.48828309,2.15889524 3.56243297,2.37813333 C3.61158679,2.52342857 3.61109145,2.71653333 3.72418335,2.80057143 C3.83868508,2.8856381 4.02379305,2.82350476 4.17784647,2.82601905 C4.40471614,2.82975238 4.63170012,2.82567619 4.858646,2.8256 C4.86146568,2.8256 4.86432346,2.83417143 4.87682148,2.85417143 C4.60841874,3.05001905 4.34298808,3.25302857 4.06696459,3.44041905 C3.95878807,3.51390476 3.94533745,3.57775238 3.9875945,3.69645714 C4.0996957,4.01150476 4.19564092,4.33230476 4.30819937,4.68255238" id="Fill-6" fill="#FFFFFE"></path>
            </g>
        </g>
    </g>
</svg>