<?xml version="1.0" encoding="UTF-8" standalone="no"?>
<svg width="28px" height="20px" viewBox="0 0 28 20" version="1.1" xmlns="http://www.w3.org/2000/svg" xmlns:xlink="http://www.w3.org/1999/xlink">
    <!-- Generator: Sketch 40.1 (33804) - http://www.bohemiancoding.com/sketch -->
    <title>AQ@1x</title>
    <desc>Created with Sketch.</desc>
    <defs>
        <rect id="path-1" x="0" y="0" width="28" height="20" rx="2"></rect>
        <mask id="mask-2" maskContentUnits="userSpaceOnUse" maskUnits="objectBoundingBox" x="0" y="0" width="28" height="20" fill="white">
            <use xlink:href="#path-1"></use>
        </mask>
        <mask id="mask-4" maskContentUnits="userSpaceOnUse" maskUnits="objectBoundingBox" x="0" y="0" width="28" height="20" fill="white">
            <use xlink:href="#path-1"></use>
        </mask>
    </defs>
    <g id="Page-1" stroke="none" stroke-width="1" fill="none" fill-rule="evenodd">
        <g id="AQ">
            <mask id="mask-3" fill="white">
                <use xlink:href="#path-1"></use>
            </mask>
            <g id="Mask" stroke="#F5F5F5" mask="url(#mask-2)" fill="#FFFFFF">
                <use mask="url(#mask-4)" xlink:href="#path-1"></use>
            </g>
            <g id="6-01" mask="url(#mask-3)">
                <g transform="translate(-4.000000, 0.000000)">
                    <path d="M4.0961194,0.551353632 C4.09549254,0.192289595 4.13498507,0.0615244396 4.55937313,0.0622446254 C13.519791,0.0778829445 22.4803134,0.0778829445 31.4406269,0.0622446254 C31.8650149,0.0615244396 31.9045075,0.192289595 31.9038806,0.551353632 C31.8921791,6.46243249 69.4169945,25.2783195 28.7373056,25.2783195 C-11.9423833,25.2783195 4.1078209,6.46243249 4.0961194,0.551353632 Z" id="Fill-1" fill="#74A1DE"></path>
                    <path d="M8.51458209,6.24706759 C8.73408955,6.10776309 8.51552239,5.85436059 8.67286567,5.66814114 C8.73252239,5.70795712 8.80461194,5.73172325 8.83637313,5.78079876 C9.36053731,6.5912135 10.2377313,6.90161355 11.0494179,7.30502046 C11.1568209,7.3583142 11.3043433,7.38804759 11.3619104,7.47467564 C11.6877761,7.9653279 12.1089254,7.9647106 12.6134478,7.78939681 C12.9658507,7.66686235 13.3399851,7.58990536 13.7007463,7.49679563 C13.9346716,7.4365058 14.1503134,7.10079636 14.2633582,6.84173525 C14.4308358,6.45767048 14.453403,6.01218416 14.6225522,5.62925111 C14.8487463,5.1167875 14.6590149,4.41388621 15.4138657,4.11233415 C15.6274179,4.02704358 15.7592687,3.62487128 16.0543134,3.46128624 C16.0977761,3.43710857 16.1574328,3.33772294 16.2494776,3.34163252 C16.7226567,3.3612833 16.7225522,3.36334097 16.9365224,2.96404942 C17.3615373,3.41684049 17.9746119,3.33391624 18.4576119,3.30335979 C19.0980597,3.26272074 19.4729254,3.58330628 19.8884328,3.89401499 C20.0917463,4.04607706 20.2909851,4.11305434 20.5120597,4.06387594 C21.0923284,3.93496269 21.5016716,4.09381509 21.7114627,4.66605411 C21.768403,4.82140846 21.8014179,4.8911636 22.0348209,4.78673666 C22.4424925,4.6043239 22.8269701,4.8911636 23.2099851,5.02439796 C23.3208358,5.06297934 23.4113134,5.19467045 23.5177761,5.20290114 C24.2762836,5.26205926 24.4223433,5.72812232 24.3573582,6.36229731 C24.3318657,6.61065851 24.4952687,6.81632299 24.5671493,7.04328438 C24.7578209,7.64525678 24.7884328,8.24815514 24.5451045,8.84364587 C24.5036269,8.94488341 24.5105224,9.03398067 24.6049701,9.04396039 C25.016403,9.08696577 25.2397761,9.53913953 25.6807761,9.50981768 C25.7790896,9.50333601 25.868209,9.48831499 25.8681045,9.66085092 C25.8681045,10.1186833 25.9527313,10.5786762 25.8101194,11.0301298 C25.7744925,11.1425817 25.6822388,11.2897053 25.8208806,11.3522586 C26.2741045,11.5567913 26.1138358,11.8473349 25.9764478,12.153208 C25.8623582,12.4071249 26.0225224,12.7134097 25.6642687,12.9484989 C25.3951343,13.1251501 25.0805522,13.4696047 25.3106119,13.9431783 C25.4893731,14.3112961 25.0975821,14.441341 24.8864328,14.5152115 C24.6253433,14.6064693 24.5810448,14.7501978 24.5610896,14.9613151 C24.5185672,15.4111226 24.3947612,15.8010517 23.8652687,15.9066104 C23.8048806,15.9186478 23.700403,15.9915923 23.7059403,16.0107287 C23.942791,16.8129127 23.222,16.9478961 22.783194,17.2063399 C22.3653881,17.4522319 21.9301343,17.8816684 21.3468358,17.5348475 C21.2467463,17.4753807 21.1962836,17.5774413 21.1251343,17.6162285 C20.5984627,17.9027595 20.0615522,17.9688108 19.5093881,17.6821769 C19.4664478,17.6598511 19.4062687,17.6375254 19.364791,17.6497685 C18.8231791,17.8105757 18.3820746,17.5854662 17.9119254,17.2755806 C18.5049403,16.6406854 18.9685075,15.964431 18.2677761,15.0770593 C17.953403,15.4870507 17.5494925,15.423983 17.1352388,15.2499039 C16.4406716,14.95792 15.7598955,14.9424874 14.9977313,15.0780881 C14.1806119,15.2233599 13.3266119,15.0507211 12.5858657,14.5853782 C12.4991493,14.5309527 12.4203731,14.4250854 12.3319851,14.418398 C11.7040746,14.3705571 11.5635522,13.9704424 11.5145522,13.44018 C11.4904179,13.1795756 11.5453731,12.845821 11.1182687,12.7250355 C10.9817164,12.6864541 11.1269403,12.2618532 10.8767164,12.1073219 C10.7813284,11.9881826 10.6708955,12.1818097 10.5739403,12.0933297 C10.3004179,12.0617444 10.1246866,11.91709 10.0722388,11.6492838 C10.0566716,11.570372 10.0724478,11.4126513 10.0886418,11.4107994 C10.6960746,11.3381635 10.374806,10.9117107 10.3532836,10.6555303 C10.3246567,10.315294 10.6088358,10.1857634 10.7277313,9.95180597 C10.9025224,9.60755718 10.9067015,9.56084799 10.5429104,9.35600658 C10.4879552,9.32493571 10.4785522,9.21711362 10.4458507,9.146021 C10.3377164,8.91010872 10.2995821,8.60269229 9.88397015,8.7779032 C9.72756716,8.84385163 9.62768657,8.6561918 9.53971642,8.5219286 C9.42656716,8.34898114 9.48695522,8.19342102 9.628,8.12726681 C9.96702985,7.9679 9.80592537,7.77242101 9.63332836,7.69505248 C9.01701493,7.41901557 8.81328358,6.86766194 8.59502985,6.31569101 C8.50925373,6.35993099 8.48637313,6.33246105 8.51458209,6.24706759" id="Fill-3" fill="#FFFFFF"></path>
                    <path d="M8.5608718,5.24706759 C8.60122079,5.26990777 8.64156979,5.29285083 8.68176179,5.31569101 C8.65695579,5.41106418 8.73796779,5.52464776 8.57625779,5.59440289 C8.5588308,5.6019134 8.4666718,5.56590411 8.4690268,5.55746765 C8.4986998,5.45396667 8.2956988,5.3188804 8.5608718,5.24706759" id="Fill-4" fill="#ABC2DB"></path>
                    <path d="M10.5739403,11.1266102 C10.8032687,10.8843884 10.8032687,10.8843884 10.8767164,11.1437855 C10.7727612,11.2167804 10.6706866,11.2397649 10.5739403,11.1266102" id="Fill-5" fill="#98B4D4"></path>
                </g>
            </g>
        </g>
    </g>
</svg>