<?xml version="1.0" encoding="UTF-8" standalone="no"?>
<svg width="28px" height="20px" viewBox="0 0 28 20" version="1.1" xmlns="http://www.w3.org/2000/svg" xmlns:xlink="http://www.w3.org/1999/xlink">
    <!-- Generator: Sketch 40.1 (33804) - http://www.bohemiancoding.com/sketch -->
    <title>GF</title>
    <desc>Created with Sketch.</desc>
    <defs>
        <rect id="path-1" x="0" y="0" width="28" height="20" rx="2"></rect>
    </defs>
    <g id="Page-1" stroke="none" stroke-width="1" fill="none" fill-rule="evenodd">
        <g id="GF">
            <mask id="mask-2" fill="white">
                <use xlink:href="#path-1"></use>
            </mask>
            <use id="Mask" fill="#FFFFFF" xlink:href="#path-1"></use>
            <rect id="Mask-Copy" fill="#07319C" mask="url(#mask-2)" x="0" y="0" width="28" height="20"></rect>
            <g id="2-01" mask="url(#mask-2)">
                <g transform="translate(-2.000000, -1.000000)">
                    <path d="M0.0307826087,0.0423694217 C0.0387826087,0.0309977323 0.0122608696,0.00381983387 0.0491304348,0.00500529955 C0.0979130435,0.00658592047 0.14673913,0.00540045478 0.195608696,0.00540045478 C11.0735217,0.00540045478 21.9514783,0.00570779774 32.8293913,0.00193187 C32.9666957,0.00193187 32.9976957,0.0331930391 32.9976087,0.171848618 C32.9937391,7.51365713 32.9942174,14.8554656 32.9942174,22.1972742 C32.9813913,22.2117632 32.9663043,22.2158025 32.9484348,22.2076799 C32.793087,22.1471333 32.6448696,22.0746443 32.5051739,21.9804656 C27.8011739,18.8105743 23.0953478,15.643493 18.3888696,12.4774654 C18.2473043,12.382233 18.1308696,12.2538514 17.9787826,12.1739862 C17.949,12.1343828 17.9276087,12.0900376 17.9084783,12.0446826 C17.713,11.5828779 17.7295217,11.5139452 18.1227391,11.21793 C18.5676957,10.883014 19.0216087,10.5605235 19.4702174,10.2307006 C19.5288261,10.1876287 19.5923913,10.1506158 19.6411739,10.0804538 C19.5805217,10.0274591 19.5114783,10.0470851 19.4496522,10.0468656 C18.8152609,10.0446703 18.1807826,10.0483584 17.5463913,10.044319 C17.2788696,10.0426067 17.2708261,10.0334303 17.1817391,9.77846737 C16.9786087,9.19754527 16.811913,8.604549 16.6122609,8.02252925 C16.5889565,7.95460646 16.5826522,7.8768926 16.5134783,7.81963899 C16.4461304,7.86543309 16.439913,7.94288352 16.4172174,8.00883054 C16.219087,8.58487905 16.0541304,9.171948 15.854087,9.74742573 C15.751913,10.0414651 15.7528696,10.0439239 15.4376957,10.0446264 C15.2243478,10.0451093 15.0106957,10.0557346 14.7976957,10.0347036 C14.6257391,9.9132153 14.4384783,9.81631445 14.2637826,9.69877773 C9.61165217,6.56774333 4.96169565,3.43345987 0.308173913,0.304489056 C0.200695652,0.232219556 0.0973913043,0.157710842 0.0307826087,0.0423694217" id="Fill-1" fill="#128242"></path>
                    <path d="M0.0307826087,0.0423694217 C0.0993913043,0.0309977323 0.144217391,0.0770991756 0.194391304,0.110906901 C5.02695652,3.36443942 9.85956522,6.61788413 14.6919565,9.87168009 C14.7268261,9.89516988 14.7585217,9.92353324 14.7916522,9.94961349 C14.7515652,10.0734727 14.6439565,10.0411139 14.5601304,10.042475 C14.1515652,10.0491926 13.7428261,10.045285 13.3083043,10.0451971 C13.6462609,10.310478 13.9817826,10.5440148 14.3095217,10.7878694 C14.5500435,10.9668309 14.7933913,11.1418846 15.0346957,11.3197045 C15.2681739,11.4917287 15.2734783,11.5243949 15.1887391,11.7995985 C15.014913,12.3642315 14.8314348,12.9256153 14.644913,13.4860332 C14.6103913,13.5897395 14.577913,13.6939727 14.5554783,13.8331991 C14.7767391,13.6868599 14.962087,13.5389401 15.1536087,13.4003724 C15.550087,13.1135775 15.9412174,12.8192747 16.3386522,12.5336652 C16.4613478,12.4454578 16.5658261,12.4471702 16.6874783,12.5347629 C17.2187826,12.9170097 17.742913,13.3092232 18.2717826,13.6948069 C18.3243478,13.7331809 18.369,13.787844 18.4521739,13.7917956 C18.4528696,13.6947191 18.4196957,13.6091021 18.392,13.5232217 C18.2672609,13.1366721 18.1340435,12.7530642 18.0137826,12.3651096 C17.9895652,12.2869128 17.9415652,12.1976516 18.0513043,12.1390369 C19.2891739,12.9698727 20.5278696,13.7993913 21.7647826,14.6316322 C25.4408261,17.1051722 29.1161739,19.5796781 32.7915217,22.054228 C32.852,22.0949729 32.9086522,22.1413816 32.9670435,22.1851561 C32.9048261,22.2453075 32.8277826,22.214178 32.7586522,22.214178 C21.9152609,22.2158464 11.0718261,22.2158025 0.228391304,22.2149244 C0.162565217,22.2149244 0.0940434783,22.2320039 0.0307826087,22.1972742 L0.0307826087,0.0423694217" id="Fill-2" fill="#F9DD1E"></path>
                    <path d="M18.0513043,12.1390369 C18.2280435,12.7007281 18.4054783,13.2621998 18.5805217,13.8244617 C18.6018696,13.8929992 18.6437826,13.9582437 18.629913,14.0403921 C18.5608261,14.0444754 18.5233913,13.991349 18.478087,13.9582876 C17.8753043,13.5178213 17.27,13.0806479 16.6741739,12.6306539 C16.5450435,12.5331823 16.4662174,12.5454321 16.3444783,12.6367568 C15.7473043,13.0849068 15.1427826,13.52309 14.5402174,13.9639076 C14.492087,13.9991204 14.4501304,14.0468024 14.3679565,14.05914 C14.5535652,13.48195 14.7362174,12.9142875 14.9186087,12.3465812 C14.988087,12.1303874 15.0496087,11.9111201 15.1289565,11.6987022 C15.1733478,11.5798483 15.153087,11.514999 15.0483478,11.439656 C14.4325652,10.9962919 13.8226087,10.5448051 13.2114348,10.0949428 C13.1642609,10.060213 13.1055217,10.0364159 13.067087,9.94961349 L14.7916522,9.94961349 C15.0417391,9.95167707 15.2921304,9.94627662 15.5416522,9.9590094 C15.6626522,9.96515626 15.708087,9.91887919 15.7426957,9.80893822 C15.971,9.08360885 16.2056522,8.36029916 16.4390435,7.63659431 C16.4568696,7.58122867 16.4622609,7.5191893 16.5265652,7.45662306 C16.6573913,7.85827639 16.784087,8.24504555 16.9092174,8.63229767 C17.0336957,9.0174423 17.161,9.40170881 17.2776957,9.78922437 C17.3143043,9.91088827 17.3624348,9.96133642 17.4997391,9.95979971 C18.2501304,9.95141364 19.0006522,9.95580425 19.751087,9.95580425 L19.9420435,9.95580425 C19.922087,10.0295666 19.8687826,10.0495878 19.8281739,10.0794878 C19.2073043,10.5358482 18.5871304,10.9931306 17.9634348,11.4454956 C17.8764348,11.5086326 17.8387391,11.5659301 17.8839565,11.6731489 C17.9481739,11.8249763 17.971,11.9926099 18.0513043,12.1390369" id="Fill-4" fill="#C9252B"></path>
                </g>
            </g>
        </g>
    </g>
</svg>