<?xml version="1.0" encoding="UTF-8" standalone="no"?>
<svg width="28px" height="20px" viewBox="0 0 28 20" version="1.1" xmlns="http://www.w3.org/2000/svg" xmlns:xlink="http://www.w3.org/1999/xlink">
    <!-- Generator: Sketch 40.1 (33804) - http://www.bohemiancoding.com/sketch -->
    <title>SR</title>
    <desc>Created with Sketch.</desc>
    <defs>
        <rect id="path-1" x="0" y="0" width="28" height="20" rx="2"></rect>
    </defs>
    <g id="Page-1" stroke="none" stroke-width="1" fill="none" fill-rule="evenodd">
        <g id="SR">
            <mask id="mask-2" fill="white">
                <use xlink:href="#path-1"></use>
            </mask>
            <use id="Mask" fill="#FFFFFF" xlink:href="#path-1"></use>
            <rect id="Mask-Copy" fill="#07319C" mask="url(#mask-2)" x="0" y="0" width="28" height="20"></rect>
            <g id="4-01" mask="url(#mask-2)">
                <g transform="translate(-1.000000, 0.000000)">
                    <path d="M0.00933545108,13.9908779 L0.00933545108,5.99942748 C0.0584155019,5.94431298 0.123172808,5.93022901 0.19478399,5.92950382 C0.274982211,5.92870229 0.355141042,5.92778626 0.435299873,5.92778626 C10.4631893,5.92774809 20.4910788,5.92774809 30.5189682,5.9278626 C30.6105502,5.9278626 30.7022109,5.92694656 30.7938323,5.9319084 C30.9032579,5.93782443 30.9584828,5.98458015 30.955568,6.09946565 C30.9499746,6.31576336 30.9539924,6.53229008 30.9539924,6.74870229 C30.9539924,9.10160305 30.9539924,11.4545038 30.953953,13.8073664 C30.953953,14.0458015 30.9419784,14.0572519 30.690906,14.0618321 C30.6565578,14.0624809 30.6221703,14.0624427 30.5878221,14.0624427 C20.5141614,14.0625573 10.4404219,14.0626718 0.366721728,14.0609924 C0.245045743,14.0609924 0.111040661,14.0963359 0.00933545108,13.9908779" id="Fill-1" fill="#A4262F"></path>
                    <path d="M0.00933545108,13.9908779 C10.2491042,13.9908779 20.4888729,13.9903817 30.7286417,13.9948092 C30.898925,13.9948855 30.9417814,13.9597328 30.9413875,13.7908397 C30.9348094,11.2548092 30.9352427,8.71881679 30.9406785,6.18282443 C30.941033,6.03 30.899831,5.99599237 30.7458551,5.99603053 C20.5003355,5.99977099 10.2548551,5.99942748 0.00933545108,5.99942748 L0.00933545108,4.00156489 C0.0584155019,3.94645038 0.123133418,3.93259542 0.19478399,3.93164122 C0.297867853,3.93022901 0.400951715,3.93 0.503996188,3.93 C10.4798907,3.92996183 20.4557853,3.92992366 30.4316798,3.93 C30.891953,3.93 30.8627649,3.95145038 30.8629225,3.51496183 C30.8631194,2.43843511 30.8620953,1.3619084 30.863986,0.285419847 C30.8641436,0.187671756 30.8446849,0.0822900763 30.9368183,0.00583969466 C30.9474142,0.0130916031 30.9727027,-0.0109923664 30.9715604,0.022519084 C30.9700635,0.066870229 30.9712058,0.111259542 30.9712058,0.155687023 C30.9712058,6.71530534 30.9712846,13.2749618 30.9690788,19.8345802 C30.9690394,19.8833206 31.0087052,19.9474809 30.9368183,19.9844275 C30.8446849,19.9079389 30.8641436,19.8026336 30.863986,19.7048855 C30.8620953,18.6006489 30.8632376,17.4964122 30.8628437,16.3921374 C30.8627255,16.0609924 30.8622922,16.0604198 30.5176684,16.0604198 C20.4844612,16.0603053 10.4513329,16.0605725 0.418125794,16.0582824 C0.280457433,16.0582443 0.12856925,16.1039695 0.00933545108,15.9887405 L0.00933545108,13.9908779" id="Fill-2" fill="#FFFFFF"></path>
                    <path d="M30.9368183,0.00583969466 C30.9368183,1.27660305 30.9337459,2.54740458 30.9408361,3.81812977 C30.9416633,3.97129771 30.8994371,4.00496183 30.7456582,4.00492366 C20.5001779,4.00118321 10.2547764,4.00156489 0.00933545108,4.00156489 C0.00933545108,2.71961832 0.0114625159,1.43763359 0.00594790343,0.155687023 C0.00543583227,0.0307633588 0.0351359593,0.00270992366 0.16398094,0.0027480916 C10.4215934,0.00610687023 20.6792058,0.00583969466 30.9368183,0.00583969466" id="Fill-3" fill="#35773C"></path>
                    <path d="M0.00933545108,15.9887405 C10.2490648,15.9887405 20.4887548,15.9891603 30.7284447,15.9847328 C30.8985311,15.9846947 30.9426874,16.0194656 30.9415451,16.1888168 C30.9329187,17.4539695 30.9368183,18.7192366 30.9368183,19.9844275 C20.6792058,19.9844275 10.4215934,19.9841603 0.16398094,19.9875191 C0.0351359593,19.9875954 0.00543583227,19.959542 0.00594790343,19.8345802 C0.0114625159,18.5526336 0.00933545108,17.2706489 0.00933545108,15.9887405" id="Fill-4" fill="#35773C"></path>
                    <path d="M11.6199187,9.16110687 C11.6743952,9.12725191 11.7327319,9.14454198 11.7872478,9.14442748 C12.6458729,9.1430916 13.5045769,9.13992366 14.3631233,9.14694656 C14.5102846,9.14816794 14.5701182,9.10145038 14.6136836,8.96748092 C14.8710584,8.17633588 15.1386353,7.38835878 15.4032186,6.59946565 C15.4201563,6.54889313 15.4405604,6.49938931 15.4758145,6.40568702 C15.5636544,6.66408397 15.6382198,6.88076336 15.7110127,7.0979771 C15.9225769,7.72919847 16.1360712,8.35980916 16.3419632,8.99278626 C16.3791474,9.10717557 16.4342541,9.14698473 16.5593177,9.14622137 C17.4236544,9.14103053 18.2879911,9.14351145 19.1523672,9.14351145 L19.3322224,9.14351145 C19.307446,9.21740458 19.2524574,9.23767176 19.2096404,9.26790076 C18.5068424,9.76385496 17.8052262,10.2614122 17.0987649,10.7524427 C16.9976506,10.8227099 16.9751194,10.8815649 17.0150216,10.9978244 C17.2905947,11.8006489 17.558014,12.606145 17.8267726,13.411145 C17.8436709,13.4618321 17.8752224,13.5108397 17.8614358,13.5804198 C17.2586099,13.1562214 16.6621652,12.7365267 16.0657598,12.3167557 C15.9361665,12.2255344 15.7970801,12.1443511 15.6798158,12.0400763 C15.5363964,11.9125191 15.4285464,11.9200763 15.2708285,12.0346947 C14.5891436,12.5301527 13.8956811,13.0104198 13.2063545,13.4960305 C13.1695642,13.5219847 13.1313164,13.5459924 13.0631321,13.5912214 C13.120169,13.4136641 13.1660978,13.2646183 13.2157687,13.1168321 C13.4508094,12.4174427 13.6826201,11.7169847 13.926169,11.0203817 C13.9740673,10.8834351 13.9416493,10.8163359 13.8254485,10.735916 C13.1275349,10.2524046 12.4355299,9.76083969 11.7419886,9.27141221 C11.6979504,9.24034351 11.6415438,9.22068702 11.6199187,9.16110687" id="Fill-5" fill="#E5C52A"></path>
                </g>
            </g>
        </g>
    </g>
</svg>