<?xml version="1.0" encoding="UTF-8" standalone="no"?>
<svg width="28px" height="20px" viewBox="0 0 28 20" version="1.1" xmlns="http://www.w3.org/2000/svg" xmlns:xlink="http://www.w3.org/1999/xlink">
    <!-- Generator: Sketch 40.1 (33804) - http://www.bohemiancoding.com/sketch -->
    <title>UY@1x</title>
    <desc>Created with Sketch.</desc>
    <defs>
        <rect id="path-1" x="0" y="0" width="28" height="20" rx="2"></rect>
        <mask id="mask-2" maskContentUnits="userSpaceOnUse" maskUnits="objectBoundingBox" x="0" y="0" width="28" height="20" fill="white">
            <use xlink:href="#path-1"></use>
        </mask>
        <mask id="mask-4" maskContentUnits="userSpaceOnUse" maskUnits="objectBoundingBox" x="0" y="0" width="28" height="20" fill="white">
            <use xlink:href="#path-1"></use>
        </mask>
    </defs>
    <g id="Page-1" stroke="none" stroke-width="1" fill="none" fill-rule="evenodd">
        <g id="UY">
            <mask id="mask-3" fill="white">
                <use xlink:href="#path-1"></use>
            </mask>
            <g id="Mask" stroke="#F5F5F5" mask="url(#mask-2)" fill="#FFFFFF">
                <use mask="url(#mask-4)" xlink:href="#path-1"></use>
            </g>
            <g id="5-01" mask="url(#mask-3)">
                <path d="M0.0102254642,11.1050099 C0.0102254642,7.45940358 0.0107824934,3.81379722 0.00736074271,0.168190855 C0.00724137931,0.0586481113 0.0233952255,0.029860835 0.141286472,0.0299005964 C10.0430769,0.0335586481 19.9447878,0.0335586481 29.846618,0.029860835 C29.9693236,0.0297813121 29.9900133,0.0584095427 29.9899337,0.17554672 C29.9865517,6.72986083 29.9866313,13.284175 29.9895756,19.8385288 C29.9896552,19.9514911 29.9751326,19.9861233 29.84813,19.9860835 C19.9463793,19.9820278 10.0446286,19.9821074 0.142838196,19.9855268 C0.0281299735,19.9855666 0.00580901857,19.9620278 0.00688328912,19.8489066 C0.0134880637,19.1509344 0.0102254642,18.4528032 0.0102254642,17.7547117 C0.0638594164,17.7058847 0.130862069,17.7034592 0.19770557,17.70167 C0.275291777,17.6995626 0.35295756,17.7006362 0.430583554,17.7006362 C10.128183,17.7005964 19.8257825,17.7006759 29.523382,17.7003579 C29.9386074,17.7003579 29.8979045,17.7256859 29.8991379,17.3221074 C29.9007294,16.8234195 29.9009284,16.3246918 29.8987798,15.8260437 C29.8979841,15.6342346 29.8806366,15.6194433 29.6891777,15.6148708 C29.6226525,15.6132803 29.5561273,15.6143936 29.4895623,15.6143936 C19.7808621,15.6143936 10.0721618,15.6145129 0.363501326,15.613161 C0.244535809,15.6131213 0.118050398,15.6430616 0.0102254642,15.5603181 L0.0102254642,13.3326839 C0.0638594164,13.2838569 0.130862069,13.2814314 0.19770557,13.2796024 C0.275291777,13.2775348 0.35295756,13.2785288 0.430583554,13.2785288 C10.128183,13.2785288 19.8257825,13.2785686 29.523382,13.27833 C29.9385676,13.27833 29.8979045,13.3036978 29.8991379,12.9000398 C29.9007294,12.3902982 29.9009284,11.8804771 29.8987798,11.3706958 C29.8979841,11.1789662 29.8806366,11.164175 29.6891777,11.1595626 C29.6226525,11.1579722 29.5560875,11.159165 29.4895623,11.159165 C19.7808621,11.1591252 10.0721618,11.1592445 0.363461538,11.1578529 C0.244496021,11.1578131 0.11801061,11.1877137 0.0102254642,11.1050099" id="Fill-1" fill="#FFFFFF"></path>
                <path d="M0.0102254642,11.1050099 C0.0820026525,11.1078728 0.153740053,11.1132406 0.225557029,11.1132406 C10.0654775,11.1135984 19.9054775,11.1141551 29.7454377,11.1092247 C29.9236074,11.1091849 29.9605305,11.1593241 29.9577454,11.326998 C29.9475199,11.9362227 29.9488727,12.5458052 29.9572679,13.1550696 C29.9592175,13.2970577 29.929695,13.3367396 29.7796154,13.3365805 C25.6772546,13.3316899 21.5750133,13.3326839 17.4726923,13.3326839 L0.0102254642,13.3326839 L0.0102254642,11.1050099" id="Fill-2" fill="#233A82"></path>
                <path d="M0.0102254642,15.5603181 C0.0710212202,15.5582107 0.131856764,15.5543539 0.192692308,15.5543539 C10.0447082,15.5540358 19.8966844,15.5544334 29.7487003,15.5506163 C29.9070159,15.5506163 29.9627188,15.5752684 29.9588992,15.7517694 C29.9454907,16.3664414 29.9507825,16.9816302 29.9561538,17.5966203 C29.9572281,17.7175746 29.9382493,17.7645328 29.7985544,17.764493 C19.9077454,17.7605964 10.0169363,17.760994 0.126127321,17.7607157 C0.0874933687,17.7606759 0.0488594164,17.7567793 0.0102254642,17.7547117 L0.0102254642,15.5603181" id="Fill-3" fill="#233A82"></path>
                <path d="M20.5396552,6.68294235 C23.616565,6.68294235 26.6933952,6.68417495 29.7701857,6.67928429 C29.9226525,6.67904573 29.9595756,6.71813121 29.9574271,6.86775348 C29.9484748,7.48262425 29.9493899,8.09769384 29.95687,8.71256461 C29.9586605,8.85685885 29.9312069,8.90862823 29.7713395,8.90636183 C29.0618435,8.89634195 28.3521485,8.90202783 27.6425729,8.90202783 C22.1985279,8.90202783 16.7544828,8.90210736 11.3103979,8.90170974 C11.0703581,8.90170974 11.098687,8.92735586 11.0982891,8.68827038 C11.0971751,8.07884692 11.1033422,7.46934394 11.093992,6.86007952 C11.0916844,6.71232604 11.1302387,6.67924453 11.2759416,6.67944334 C14.3638329,6.68409543 17.4517639,6.68294235 20.5396552,6.68294235" id="Fill-4" fill="#233A82"></path>
                <path d="M20.5344828,4.4615507 C17.4525199,4.4615507 14.3705968,4.46063618 11.2886737,4.46449304 C11.1444032,4.46465209 11.0906897,4.43920477 11.0935146,4.27836978 C11.1043369,3.66369781 11.1029443,3.04866799 11.094191,2.4339165 C11.092122,2.28811133 11.1282493,2.25085487 11.2759416,2.25109344 C14.1804509,2.25586481 17.0850398,2.25467197 19.9895889,2.25467197 C23.2488859,2.25467197 26.5082228,2.255666 29.7675199,2.25137177 C29.9151724,2.25117296 29.9603316,2.28294235 29.9577851,2.43781312 C29.9477984,3.04699801 29.9479178,3.65650099 29.9576658,4.26568588 C29.9601724,4.42091451 29.9291777,4.46616302 29.7636207,4.46588469 C26.6872281,4.46 23.6108355,4.4615507 20.5344828,4.4615507" id="Fill-5" fill="#233A82"></path>
                <path d="M2.61282493,8.4933996 C2.99661804,7.93836978 3.38037135,7.38333996 3.7751061,6.81240557 C3.48517241,6.80250497 3.23824934,6.88302187 3.001313,7.00083499 C2.89774536,7.05236581 2.79807692,7.11196819 2.69793103,7.1700994 C2.36144562,7.36548708 2.04831565,7.28584493 1.69706897,7.07697813 C1.81440318,7.07697813 1.88474801,7.07972167 1.95477454,7.07646123 C2.17615385,7.06600398 2.36522546,6.9899006 2.49246684,6.79817097 C2.72900531,6.44178926 3.05367374,6.19296223 3.43997347,6.01888668 C3.46034483,6.00970179 3.48250663,6.00548708 3.47872679,5.96528827 C2.78522546,5.83904573 2.0885809,5.71224652 1.39185676,5.58544732 C1.39221485,5.57717694 1.39253316,5.56890656 1.39285146,5.56063618 C2.06200265,5.43805169 2.73115385,5.31542744 3.42354111,5.18858847 C3.20502653,4.96656064 2.95484085,4.84787276 2.68706897,4.75980119 C2.60860743,4.73399602 2.5278382,4.71530815 2.44850133,4.69220676 C2.05074271,4.57638171 1.85876658,4.36059642 1.78066313,3.93852883 C1.79602122,3.94735586 1.81209549,3.95176938 1.82088859,3.96230616 C2.04139257,4.22596421 2.30518568,4.34035785 2.65770557,4.26019881 C3.00067639,4.18222664 3.33915119,4.25797217 3.66851459,4.36524851 C3.70527851,4.37725646 3.73838196,4.39892644 3.8047878,4.37809145 C3.41200265,3.80974155 3.02355438,3.24763419 2.6351061,2.68552684 C2.64405836,2.67463221 2.65301061,2.66373757 2.66192308,2.6528827 C3.21039788,3.03081511 3.75891247,3.40870775 4.32740053,3.80043738 C4.31637931,3.51252485 4.25029178,3.26337972 4.13136605,3.02759443 C4.09165782,2.94882704 4.05027851,2.87013917 4.00133952,2.79697813 C3.76639257,2.44552684 3.81405836,2.10361829 4.04391247,1.73574553 C4.05322281,1.86922465 4.05990716,1.97463221 4.06806366,2.07992048 C4.08023873,2.23673956 4.14234748,2.37502982 4.27038462,2.46333996 C4.65827586,2.73101392 4.95262599,3.07296223 5.15080902,3.56067594 C5.28763926,2.81188867 5.41527851,2.11367793 5.54295756,1.41542744 C5.55047745,1.41411531 5.55807692,1.41280318 5.5656366,1.41149105 C5.68929708,2.08485089 5.81295756,2.75821074 5.93984085,3.44926441 C6.18409814,3.19789264 6.3267374,2.91117296 6.39911141,2.58914513 C6.47622016,2.24592445 6.63143236,1.97188867 6.98976127,1.85463221 C7.04411141,1.83685885 7.09332891,1.82095427 7.15181698,1.83554672 C7.13375332,1.89817097 7.0783687,1.93029821 7.03734748,1.97212724 C6.85340849,2.15992048 6.81421751,2.3833002 6.86546419,2.63157058 C6.94420424,3.01296223 6.87262599,3.3782505 6.74518568,3.73725646 C6.73591512,3.76333996 6.72258621,3.78779324 6.74458886,3.82807157 C7.32159151,3.42934394 7.89732095,3.03145129 8.4730504,2.63359841 C8.48148541,2.63940358 8.48996021,2.64524851 8.49843501,2.65105368 C8.11062334,3.21252485 7.72277188,3.77395626 7.32453581,4.35049702 C7.68342175,4.33343936 7.99822281,4.2394831 8.27653846,4.05332008 C8.63996021,3.8100994 8.99550398,3.80743539 9.36576923,4.04755467 C9.26884615,4.10421471 9.16193634,4.07065606 9.0632626,4.08421471 C8.91421751,4.10465209 8.77611406,4.14918489 8.68921751,4.27153082 C8.41149867,4.66262425 8.06832891,4.97192843 7.57360743,5.16831014 C8.31962865,5.30481113 9.01547745,5.43208748 9.71136605,5.55940358 C9.71236074,5.56815109 9.71331565,5.57689861 9.71431034,5.58564612 C9.04448276,5.70795229 8.37465517,5.83025845 7.68445623,5.95630219 C7.89533156,6.17395626 8.14098143,6.29813121 8.40982759,6.38333996 C8.55151194,6.42823062 8.6970557,6.46262425 8.8353183,6.51610338 C9.09923077,6.6182505 9.31301061,6.93240557 9.31511936,7.20811133 C9.2452122,7.14262425 9.17840849,7.07821074 9.10969496,7.0159841 C8.93291777,6.8559841 8.72331565,6.83968191 8.50269231,6.88437376 C8.12080902,6.96178926 7.75551724,6.89141153 7.39555703,6.76656064 C7.37518568,6.75952286 7.35362069,6.755666 7.33241379,6.75145129 C7.32767905,6.75049702 7.3219496,6.75439364 7.30030504,6.76131213 C7.69289125,7.3293837 8.08269231,7.89355865 8.47249337,8.45769384 C8.46342175,8.46858847 8.45438992,8.4794831 8.4453183,8.49033797 C7.90114058,8.11479125 7.35692308,7.73920477 6.79376658,7.35057654 C6.78441645,7.7205169 6.91472149,8.02270378 7.08505305,8.31371769 C7.18583554,8.48584493 7.28279841,8.6594831 7.26445623,8.8711332 C7.24810345,9.05940358 7.1814191,9.22743539 7.05982759,9.4215507 C7.05982759,9.32063618 7.0617374,9.26131213 7.05950928,9.20210736 C7.05051724,8.96349901 6.97392573,8.76290258 6.76328912,8.62290258 C6.3994695,8.38115308 6.15135279,8.04163022 5.95842175,7.59522863 C5.82167109,8.34115308 5.69435013,9.03570577 5.56698939,9.73033797 C5.55871353,9.7295825 5.55047745,9.7288668 5.54224138,9.72811133 C5.4198939,9.05848907 5.29754642,8.38882704 5.17114058,7.69685885 C4.91415119,7.96560636 4.76960212,8.26465209 4.70096817,8.59872763 C4.62318302,8.97729622 4.40259947,9.21610338 4.0356366,9.32604374 C3.99505305,9.33821074 3.95558355,9.35952286 3.9104244,9.33137177 C4.16852785,9.11757455 4.32612732,8.87538767 4.2433687,8.51387674 C4.16128647,8.15542744 4.2306366,7.79968191 4.34733422,7.45459245 C4.3578382,7.42353877 4.37912467,7.39562624 4.34538462,7.33192843 C3.77212202,7.72727634 3.20176393,8.12063618 2.63136605,8.51399602 C2.62519894,8.50715706 2.61903183,8.50027833 2.61282493,8.4933996" id="Fill-6" fill="#0B0B09"></path>
                <path d="M6.35689655,6.61264414 C5.90793103,6.90775348 5.43958886,6.97868787 4.94896552,6.72357853 C4.4012069,6.4387674 4.13809019,5.82127237 4.30177719,5.21940358 C4.45802387,4.64500994 5.00757294,4.24930417 5.60932361,4.27801193 C6.23665782,4.30791252 6.72688329,4.74465209 6.83769231,5.35673956 C6.90624668,5.73570577 6.79328912,6.06385686 6.59371353,6.37483101 C6.55237401,6.49149105 6.47255968,6.5699006 6.35689655,6.61264414" id="Fill-7" fill="#F7CF23"></path>
                <path d="M5.51884615,2.11976143 C5.51884615,2.75137177 5.51343501,3.3871173 5.52310345,4.02262425 C5.5252122,4.16083499 5.47754642,4.1989662 5.35456233,4.21677932 C5.09220159,4.25471173 5.09649867,4.26079523 5.14476127,4.00341948 C5.25354111,3.42298211 5.35905836,2.84194831 5.46409814,2.26083499 C5.47388594,2.20687873 5.47643236,2.15292247 5.51884615,2.11976143" id="Fill-8" fill="#F1CA25"></path>
                <path d="M5.10123342,6.89622266 C5.12629973,6.89244533 5.13704244,6.88779324 5.14619363,6.8899006 C5.26734748,6.91781312 5.44301061,6.90906561 5.49509284,6.98489066 C5.55787798,7.07626243 5.51812997,7.23968191 5.51840849,7.37192843 C5.51944297,7.92218688 5.51884615,8.47244533 5.49187003,9.02791252 C5.36236074,8.3212326 5.23289125,7.61459245 5.10123342,6.89622266" id="Fill-9" fill="#F0CA25"></path>
                <path d="M7.98672414,3.26075547 C7.58072944,3.84664016 7.19828912,4.39852883 6.80860743,4.96087475 C6.73289125,4.85729622 6.66568966,4.75872763 6.59112732,4.66600398 C6.55348806,4.61924453 6.5833687,4.59737575 6.6101061,4.5706163 C7.04005305,4.14131213 7.47015915,3.71212724 7.90106101,3.28373757 C7.91005305,3.27479125 7.92887268,3.27570577 7.98672414,3.26075547" id="Fill-10" fill="#F6CE24"></path>
                <path d="M4.94562334,6.82266402 C4.37880637,7.21483101 3.82639257,7.59701789 3.27346154,7.97960239 C3.2285809,7.92099404 3.27954907,7.90218688 3.3022679,7.87932406 C3.70818302,7.47109344 4.1168435,7.0655666 4.52068966,6.65534791 C4.58454907,6.5904175 4.62377984,6.58270378 4.69289125,6.64687873 C4.76061008,6.70974155 4.84535809,6.75435388 4.94562334,6.82266402" id="Fill-11" fill="#F6CE24"></path>
                <path d="M6.63429708,6.41852883 C6.71072944,6.36131213 6.73249337,6.26198807 6.8096817,6.18238569 C7.2016313,6.75335984 7.58757294,7.31558648 7.97351459,7.87777336 C7.9620557,7.88998012 7.9480504,7.89725646 7.93149867,7.89972167 C7.88335544,7.89900596 7.84913793,7.87049702 7.81770557,7.83940358 C7.41409814,7.44007952 7.01267905,7.03860835 6.61309019,6.63530815 C6.53765252,6.55912525 6.49619363,6.47789264 6.63429708,6.41852883" id="Fill-12" fill="#F6CE23"></path>
                <path d="M3.34229443,3.22166998 C3.87429708,3.58584493 4.40622016,3.95005964 4.94761273,4.32071571 C4.83612732,4.41153082 4.71413793,4.45638171 4.63507958,4.55634195 C4.56354111,4.59475149 4.52005305,4.54369781 4.47835544,4.50234592 C4.10259947,4.12946322 3.72751989,3.75582505 3.35486737,3.37984095 C3.32013263,3.34481113 3.28416446,3.30862823 3.28846154,3.25236581 C3.29816976,3.22767396 3.31145889,3.20922465 3.34229443,3.22166998" id="Fill-13" fill="#F6CE23"></path>
                <path d="M4.53588859,4.6549503 C4.4416313,4.73502982 4.38855438,4.84524851 4.30671088,4.9711332 C3.93401857,4.42878728 3.56765252,3.89554672 3.20128647,3.36234592 C3.1887931,3.33145129 3.20749337,3.31864811 3.23204244,3.30922465 C3.30366048,3.30485089 3.33823607,3.36115308 3.3798939,3.40266402 C3.73909814,3.76039761 4.09838196,4.11809145 4.45527851,4.47817097 C4.50171088,4.5250497 4.58064987,4.56373757 4.53588859,4.6549503" id="Fill-14" fill="#F6CE23"></path>
                <path d="M7.92759947,3.1493837 C7.47740053,3.59836978 7.02656499,4.04671968 6.57795756,4.49725646 C6.52730769,4.54815109 6.49372679,4.56767396 6.42986737,4.51093439 C6.35633952,4.44560636 6.2680504,4.39693837 6.16328912,4.32540755 C6.74661804,3.9212326 7.32525199,3.52027833 7.90396552,3.11932406 C7.9118435,3.12934394 7.91972149,3.13936382 7.92759947,3.1493837" id="Fill-15" fill="#F7CF23"></path>
                <path d="M7.75742706,7.91626243 C7.23083554,7.55594433 6.70424403,7.19558648 6.16754642,6.8283499 C6.25404509,6.7627833 6.3267374,6.70767396 6.39942971,6.65252485 C6.4437931,6.54576541 6.51278515,6.53602386 6.59064987,6.61292247 C6.98777188,7.00508946 7.38222812,7.40003976 7.77529178,7.79630219 C7.79928382,7.8205169 7.81484085,7.84942346 7.81114058,7.88544732 C7.80159151,7.91017893 7.78846154,7.9288668 7.75742706,7.91626243" id="Fill-16" fill="#F6CE23"></path>
                <path d="M5.59710875,9.0133996 C5.59710875,8.35518887 5.59750663,7.69693837 5.59643236,7.03872763 C5.59635279,6.98119284 5.60546419,6.95093439 5.67564987,6.94564612 C5.77937666,6.93793241 5.88171088,6.91172962 6.00819629,6.88918489 C5.87896552,7.6015507 5.75064987,8.30870775 5.62233422,9.01586481 C5.61393899,9.01502982 5.60554377,9.01419483 5.59710875,9.0133996" id="Fill-17" fill="#F7CF23"></path>
                <path d="M4.30846154,6.17614314 C4.33710875,6.22333996 4.35346154,6.25204771 4.37148541,6.27960239 C4.42523873,6.36190855 4.5362069,6.45753479 4.52033156,6.52246521 C4.49765252,6.61530815 4.38397878,6.68707753 4.30635279,6.76508946 C3.91348806,7.16 3.51970822,7.55395626 3.0971618,7.92508946 C3.49671088,7.34815109 3.89629973,6.77125249 4.30846154,6.17614314" id="Fill-18" fill="#F7CF23"></path>
                <path d="M5.62030504,2.12966203 C5.74511936,2.8073161 5.8698939,3.48500994 5.99470822,4.16266402 C6.00692308,4.22890656 6.0006366,4.27685885 5.91334218,4.24648111 C5.90812997,4.24465209 5.90295756,4.24238569 5.89758621,4.2412326 C5.59706897,4.17809145 5.59706897,4.17809145 5.59706897,3.86560636 L5.59706897,2.13749503 C5.60482759,2.13487078 5.61258621,2.13228628 5.62030504,2.12966203" id="Fill-19" fill="#F7CF23"></path>
                <path d="M6.86470822,6.02667992 C6.88651194,5.93153082 6.91893899,5.86075547 6.9153183,5.79192843 C6.90604775,5.61769384 7.00122016,5.61129225 7.13840849,5.61276342 C7.7533687,5.61924453 8.36840849,5.61558648 8.98619363,5.64071571 C8.28632626,5.76803181 7.5864191,5.89534791 6.86470822,6.02667992" id="Fill-20" fill="#F7CF23"></path>
                <path d="M2.13330239,5.615666 C2.78156499,5.615666 3.42986737,5.61864811 4.07809019,5.6128827 C4.1977321,5.61180915 4.17644562,5.69284294 4.18838196,5.75411531 C4.24133952,6.02576541 4.23935013,6.02807157 3.97897878,5.98063618 C3.36561008,5.86894632 2.75259947,5.75518887 2.1394695,5.64230616 C2.13740053,5.6333996 2.13533156,5.6245328 2.13330239,5.615666" id="Fill-21" fill="#F7CF23"></path>
                <path d="M8.97095491,5.50079523 C8.91771883,5.54894632 8.86718833,5.53220676 8.82179045,5.53228628 C8.24128647,5.53367793 7.66082228,5.5304175 7.08043767,5.535666 C6.97165782,5.53666004 6.92172414,5.51646123 6.92208223,5.39594433 C6.92232095,5.31049702 6.88846154,5.22497018 6.86538462,5.11892644 C7.56962865,5.24664016 8.26460212,5.3726839 8.97095491,5.50079523" id="Fill-22" fill="#F6CE23"></path>
                <path d="M6.71550398,2.16186879 C6.57561008,2.48087475 6.57628647,2.83017893 6.5002122,3.16302187 C6.41649867,3.52922465 6.29013263,3.87689861 6.08307692,4.22493042 C6.04129973,4.00715706 6.00576923,3.81996024 5.96932361,3.6328827 C5.95782493,3.57403579 5.97401857,3.52954274 6.01651194,3.48417495 C6.26892573,3.21471173 6.41017241,2.88815109 6.49702918,2.53411531 C6.52985411,2.40011928 6.5677321,2.26715706 6.66334218,2.1605169 C6.68104775,2.14747515 6.69843501,2.14795229 6.71550398,2.16186879" id="Fill-23" fill="#F6CE23"></path>
                <path d="M7.1370557,8.77423459 C7.06245358,8.59371769 6.94730769,8.43809145 6.8298939,8.28485089 C6.52281167,7.8840159 6.28460212,7.44823062 6.14423077,6.95013917 C6.29291777,6.95976143 6.37671088,7.08516899 6.4953183,7.1427833 C6.64846154,7.2172167 6.71574271,7.33371769 6.72350133,7.50540755 C6.73698939,7.80389662 6.85679045,8.07069583 7.00400531,8.32644135 C7.07240053,8.44524851 7.15448276,8.55864811 7.17047745,8.70099404 C7.17266578,8.73149105 7.20079576,8.77379722 7.1370557,8.77423459" id="Fill-24" fill="#F6CE23"></path>
                <path d="M5.03041114,6.93367793 C5.06697613,7.13005964 5.10003979,7.30910537 5.13374005,7.48799205 C5.14778515,7.56250497 5.13616711,7.62357853 5.07962865,7.68417495 C4.85204244,7.92823062 4.71724138,8.22163022 4.63309019,8.54234592 C4.58900531,8.7104175 4.55920424,8.8883499 4.40403183,9.02536779 C4.59003979,8.31662028 4.59465517,7.57359841 5.03041114,6.93367793" id="Fill-25" fill="#F6CE23"></path>
                <path d="M2.20814324,5.49017893 C2.84848806,5.37383698 3.48919098,5.25920477 4.12885942,5.13912525 C4.21706897,5.12258449 4.25550398,5.11900596 4.22319629,5.22652087 C4.19482759,5.32087475 4.18213528,5.41992048 4.16255968,5.51689861 C4.13450928,5.54143141 4.10013263,5.53510934 4.06762599,5.53514911 C3.48759947,5.5354672 2.90761273,5.5361829 2.32758621,5.53367793 C2.28704244,5.53347913 2.22477454,5.56648111 2.20814324,5.49017893" id="Fill-26" fill="#F7CF23"></path>
                <path d="M8.88167109,6.68994036 C8.45574271,6.57753479 8.00912467,6.56333996 7.59019894,6.41725646 C7.36122016,6.33741551 7.14011936,6.2415507 6.8996817,6.10178926 C7.12408488,6.0594831 7.31852785,6.02318091 7.5127321,5.98588469 C7.56787798,5.97530815 7.6069496,5.9994831 7.6454244,6.03510934 C7.92437666,6.29316103 8.2597878,6.43622266 8.62543767,6.52258449 C8.73091512,6.54751491 8.84041114,6.57491054 8.92579576,6.65196819 C8.92965517,6.68620278 8.91851459,6.70298211 8.88167109,6.68994036" id="Fill-27" fill="#F6CE23"></path>
                <path d="M3.9635809,2.33371769 C4.0193634,2.52337972 4.13932361,2.67638171 4.25606101,2.82914513 C4.56338196,3.23133201 4.81145889,3.66353877 4.95254642,4.15252485 C4.95823607,4.17228628 4.96090186,4.19300199 4.97136605,4.24497018 C4.78165782,4.11463221 4.61602122,4.00063618 4.45006631,3.8871173 C4.408687,3.85880716 4.40244032,3.8187674 4.40112732,3.77212724 C4.39125995,3.42723658 4.27850133,3.11439364 4.10431034,2.81992048 C4.03169761,2.69717694 3.95128647,2.57666004 3.931313,2.43001988 C3.93183024,2.39447316 3.88225464,2.34218688 3.9635809,2.33371769" id="Fill-28" fill="#F6CE23"></path>
                <path d="M2.37338196,7.15033797 C2.60423077,7.03904573 2.80090186,6.87638171 3.00736074,6.72846918 C3.36950928,6.46922465 3.76213528,6.27447316 4.228687,6.15451292 C4.09854111,6.34306163 3.98391247,6.50707753 3.87190981,6.67280318 C3.8465252,6.7104175 3.8135809,6.71848907 3.77311671,6.72027833 C3.37559682,6.73817097 3.02072944,6.88166998 2.68619363,7.08707753 C2.61147215,7.13292247 2.53472149,7.17892644 2.44285146,7.18425447 C2.40759947,7.19769384 2.37083554,7.21423459 2.37338196,7.15033797" id="Fill-29" fill="#F6CE23"></path>
                <path d="M8.78972149,3.98604374 C8.53324934,4.07423459 8.33391247,4.25415507 8.11921751,4.40799205 C7.75229443,4.67089463 7.35624668,4.86930417 6.91496021,4.9867992 C6.9427321,4.91324056 7.19972149,4.51367793 7.24396552,4.46222664 C7.27297082,4.42846918 7.30659151,4.42326044 7.34649867,4.42230616 C7.71624668,4.41359841 8.04720159,4.28524851 8.3598939,4.09705765 C8.46342175,4.03471173 8.56810345,3.97105368 8.69176393,3.95316103 C8.7293634,3.94930417 8.78057029,3.90516899 8.78972149,3.98604374" id="Fill-30" fill="#F6CE23"></path>
                <path d="M2.21057029,4.452167 C2.62997347,4.57161034 3.07277188,4.58 3.48763926,4.72151093 C3.72728117,4.80326044 3.96087533,4.89733598 4.2022679,5.04457256 C3.99179045,5.08413519 3.80614058,5.11904573 3.62049072,5.15387674 C3.55714854,5.16572565 3.50391247,5.15328032 3.45397878,5.10636183 C3.18051724,4.84930417 2.84470822,4.71522863 2.48749337,4.62508946 C2.37517241,4.59673956 2.26388594,4.56580517 2.17213528,4.48966203 C2.16517241,4.45693837 2.17356764,4.43992048 2.21057029,4.452167" id="Fill-31" fill="#F6CE23"></path>
                <path d="M7.03488064,8.7554672 C6.95037135,8.66544732 6.85706897,8.59308151 6.76022546,8.52671968 C6.38407162,8.26898608 6.15497347,7.89996024 5.99709549,7.48707753 C5.93848806,7.33379722 6.0387931,7.17483101 6.07145889,7.01419483 C6.2448939,7.68035785 6.68602122,8.19224652 7.03488064,8.7554672" id="Fill-32" fill="#F6CE23"></path>
                <path d="M4.15309019,4.91630219 C3.56872679,4.57200795 2.90570292,4.52170974 2.26742706,4.38500994 C2.84228117,4.27840954 3.19412467,4.29153082 3.61201592,4.4250497 C3.91372679,4.52147117 3.94690981,4.55025845 4.15309019,4.91630219" id="Fill-33" fill="#F6CE24"></path>
                <path d="M6.97432361,6.24815109 C7.54615385,6.56536779 8.18462865,6.63343936 8.8085809,6.75371769 C8.203687,6.87757455 7.89911141,6.84954274 7.43403183,6.70588469 C7.19057029,6.63065606 7.0783687,6.45697813 6.97432361,6.24815109" id="Fill-34" fill="#F6CE24"></path>
                <path d="M2.47102122,6.94691849 C2.70831565,6.60027833 3.00370027,6.32528827 3.37949602,6.12369781 C3.63039788,5.98910537 3.86037135,6.01145129 4.13112732,6.09972167 C3.57246684,6.25367793 3.10965517,6.54067594 2.67338196,6.87685885 C2.62145889,6.91685885 2.56281167,6.94803181 2.5072679,6.9833002 C2.4714191,6.99479125 2.46290451,6.97908549 2.47102122,6.94691849" id="Fill-35" fill="#F6CE24"></path>
                <path d="M6.76448276,2.32727634 C6.76679045,2.62918489 6.86275862,2.92572565 6.80144562,3.23244533 C6.75700265,3.45467197 6.70285146,3.67316103 6.60803714,3.87793241 C6.53996021,4.02489066 6.37874005,4.06584493 6.23637931,4.13864811 C6.31066313,3.95956262 6.391313,3.78282306 6.45787798,3.60091451 C6.58925729,3.24194831 6.62554377,2.86163022 6.69545093,2.48894632 C6.70559682,2.43502982 6.72111406,2.38214712 6.73412467,2.32878728 C6.74343501,2.312167 6.7535809,2.3116501 6.76448276,2.32727634" id="Fill-36" fill="#F6CE24"></path>
                <path d="M7.03547745,5.04397614 C7.64832891,4.87375746 8.13839523,4.48687873 8.65599469,4.14294235 C8.4880504,4.40250497 8.31616711,4.6539165 8.05428382,4.8245328 C7.95744032,4.88767396 7.85212202,4.93821074 7.75746684,5.00417495 C7.52809019,5.1640159 7.28844828,5.14735586 7.03547745,5.04397614" id="Fill-37" fill="#F6CE24"></path>
                <path d="M4.14087533,2.5017495 C4.38755968,2.63395626 4.59835544,2.80250497 4.76578249,3.02182903 C4.90396552,3.20286282 5.00745358,3.40409543 5.09618037,3.61260437 C5.16732095,3.77972167 5.0504244,3.93308151 5.04055703,4.10616302 C4.85494695,3.50528827 4.49092838,3.00950298 4.14087533,2.5017495" id="Fill-38" fill="#F6CE24"></path>
                <path d="M4.34001326,8.67761431 C4.26751989,8.27483101 4.28769231,7.88166998 4.41059682,7.48636183 C4.48635279,7.24266402 4.63714854,7.0954672 4.87607427,6.99713718 C4.57929708,7.54318091 4.50322281,8.14664016 4.39619363,8.74206759 C4.33464191,8.75785288 4.36416446,8.69435388 4.34001326,8.67761431" id="Fill-39" fill="#F6CE23"></path>
                <path d="M7.79733422,7.87693837 C7.38927056,7.46596421 6.97814324,7.05801193 6.57576923,6.64159046 C6.49488064,6.55785288 6.45616711,6.62572565 6.39942971,6.65252485 C6.38526525,6.63924453 6.37106101,6.62592445 6.35689655,6.61264414 C6.43583554,6.5333996 6.51477454,6.45411531 6.59371353,6.37483101 C6.60724138,6.3893837 6.62076923,6.40393638 6.63429708,6.41852883 C6.60509284,6.4749503 6.54222812,6.51407555 6.62458886,6.59383698 C7.06297082,7.01836978 7.49323607,7.45121272 7.92632626,7.88115308 C7.97236074,7.90604374 8.00797082,7.94091451 8.03025199,7.98870775 C8.04724138,8.00210736 8.07278515,8.01228628 8.07938992,8.02962227 C8.09061008,8.05924453 8.15932361,8.0695825 8.11639257,8.11447316 C8.08722812,8.14497018 8.04958886,8.14485089 8.02002653,8.10306163 C8.00482759,8.08147117 7.98171088,8.06544732 7.96213528,8.04695825 C7.90241379,7.99491054 7.8264191,7.95864811 7.79733422,7.87693837" id="Fill-40" fill="#14130E"></path>
                <path d="M4.53588859,4.6549503 C4.54229443,4.61765408 4.52164456,4.59328032 4.49725464,4.56906561 C4.07820955,4.15383698 3.65948276,3.73829026 3.24071618,3.3227833 C3.16647215,3.30775348 3.14506631,3.22186879 3.07587533,3.20015905 C3.06413793,3.18214712 3.04905836,3.16544732 3.04145889,3.14580517 C3.02848806,3.11224652 2.9455305,3.09761431 3.00895225,3.04318091 C3.07885942,2.98326044 3.10866048,3.03996024 3.13786472,3.0926839 C3.19842175,3.14306163 3.27218833,3.18047714 3.30278515,3.26031809 C3.71844828,3.67868787 4.13415119,4.09697813 4.54961538,4.51558648 C4.57356764,4.53972167 4.59775862,4.56119284 4.63507958,4.55634195 C4.6020557,4.58922465 4.56895225,4.62206759 4.53588859,4.6549503" id="Fill-41" fill="#12120D"></path>
                <path d="M2.20814324,5.50124877 C2.2617374,5.7302058 2.32535809,5.62284994 2.38412467,5.62408866 C2.97692308,5.63606296 3.56972149,5.63647587 4.16255968,5.63998558 C4.14051724,5.82331637 4.10454907,5.77500623 4.07295756,5.77500623 C3.40961538,5.77748367 2.74627321,5.77707076 2.06745358,5.77707076 C2.11444297,5.53118454 2.15653846,5.45252573 2.20814324,5.50124877" id="Fill-42" fill="#BC9F34"></path>
                <path d="M7.8324065,7.87693837 C7.95537876,7.98208696 8.06796006,8.09937846 8.14204244,8.26155375 C7.98258965,8.22188692 7.86896178,8.09587051 7.75742706,7.96589642 C7.78239528,7.93621375 7.80743827,7.90662104 7.8324065,7.87693837" id="Fill-43" fill="#C9AA31"></path>
                <path d="M3.44814708,3.47729928 C3.32388442,3.37402969 3.2164646,3.2505988 3.13786472,3.0926839 C3.29880732,3.12808019 3.41288942,3.25415667 3.52248011,3.38862609 C3.49770243,3.41818382 3.47292476,3.44774155 3.44814708,3.47729928" id="Fill-44" fill="#C4A632"></path>
                <path d="M2.47696476,7.15033797 C2.51431603,7.20917724 2.5516673,7.26781006 2.58901857,7.32644288 C2.46971271,7.62476831 2.33750719,7.45754091 2.20440318,7.38734669 C2.29527843,7.30827497 2.38608951,7.2294097 2.47696476,7.15033797" id="Fill-45" fill="#BDA031"></path>
                <path d="M3.07587533,3.20118298 C3.29134536,3.17912681 3.35196661,3.36740204 3.46049072,3.49063503 C3.42976233,3.52170139 3.39921962,3.55286159 3.36849124,3.5840218 C3.27101449,3.45637758 3.17335208,3.32882721 3.07587533,3.20118298" id="Fill-46" fill="#C5A731"></path>
                <path d="M8.90599992,4.25724348 C8.85970684,4.02312511 8.75963723,4.16784907 8.69176393,4.08650636 C8.80888888,3.86663329 8.93993657,3.91143372 9.07637931,3.96635037 C9.0742909,4.2588951 8.99066751,4.25972092 8.90599992,4.25724348" id="Fill-47" fill="#7F6E2F"></path>
                <path d="M4.34001326,8.67761431 C4.43687105,8.7187578 4.53393491,8.75997747 4.63099878,8.80112096 C4.62502244,8.89079852 4.55680983,8.97064735 4.34001326,9.0622297 L4.34001326,8.67761431" id="Fill-48" fill="#CCAE30"></path>
                <path d="M4.2258857,2.42710846 C4.02104179,2.47755129 4.1323252,2.57388369 4.0587545,2.64334302 C3.83227215,2.52844051 3.90769758,2.39612853 3.93510627,2.25872763 C4.19888917,2.2662271 4.2038351,2.34952472 4.2258857,2.42710846" id="Fill-49" fill="#806F30"></path>
                <path d="M7.1370557,8.82360766 C7.19475821,8.78273645 7.25246072,8.74193181 7.31016323,8.70099404 C7.53726382,8.79877874 7.46307488,8.90515038 7.37693328,9.08560942 C7.25699449,8.95454198 7.1970251,8.8891081 7.1370557,8.82360766" id="Fill-50" fill="#BEA133"></path>
                <path d="M2.4718435,4.62264531 C2.43189313,4.67703631 2.39194276,4.73142731 2.35199238,4.78599153 C2.21638444,4.73315951 2.13673184,4.60289826 2.08722812,4.40837248 C2.2511239,4.37130345 2.36415119,4.48718746 2.4718435,4.62264531" id="Fill-51" fill="#C2A431"></path>
                <path d="M7.19573862,9.2966631 C7.16297184,9.18579211 7.13020506,9.07492113 7.08218833,8.91204771 C7.43273108,9.04745664 7.29609978,9.17374826 7.19573862,9.2966631" id="Fill-52" fill="#292618"></path>
                <path d="M2.46066313,7.09252485 C2.27094477,7.43461844 2.17842595,7.3832115 2.07604775,7.26057807 C2.16747108,7.22052607 2.25899401,7.18068053 2.46066313,7.09252485" id="Fill-53" fill="#232115"></path>
                <path d="M2.64874521,6.94691849 C2.67965271,6.99399376 2.71045855,7.04137874 2.74136605,7.08860886 C2.65484538,7.22425997 2.56283456,7.34303212 2.35675066,7.33064389 C2.48017733,7.16851294 2.56446127,7.05763829 2.64874521,6.94691849" id="Fill-54" fill="#C8AA31"></path>
                <path d="M8.30305085,8.26238874 C8.17742791,8.13804356 8.05180497,8.01383622 7.92632626,7.88949103 C7.98329648,7.88563109 8.0402667,7.88177115 8.09723692,7.87777336 C8.23281161,7.97344471 8.34170406,8.08179873 8.30305085,8.26238874" id="Fill-55" fill="#C6A833"></path>
                <path d="M6.89136401,2.5800647 L6.81243522,2.57970858 L6.73412467,2.58457562 C6.80151296,2.46183108 6.86890124,2.33908654 6.94515099,2.19996024 C7.15865028,2.35938569 6.99893797,2.46776651 6.89136401,2.5800647" id="Fill-56" fill="#AA9135"></path>
                <path d="M6.89172109,2.45010246 C6.81542058,2.4483571 6.73946848,2.44645306 6.66334218,2.44470769 C6.71351237,2.26207885 6.88144317,2.19575491 7.04048966,2.06548708 C7.07289124,2.26430023 6.99554552,2.36235811 6.89172109,2.45010246" id="Fill-57" fill="#AB9133"></path>
                <path d="M8.88167109,6.83292978 C8.93290822,6.77248293 8.9842842,6.71241505 9.03566019,6.65196819 C9.15799058,6.71260454 9.33350205,6.81492837 9.23977559,6.98868939 C9.17173713,7.11507828 8.9876167,6.96614025 8.88167109,6.83292978" id="Fill-58" fill="#D2B230"></path>
                <path d="M5.02830239,6.18164991 C5.37720159,6.03994092 5.7247878,6.03965142 6.07448276,6.17846544 C5.91481432,6.54617545 5.21745358,6.55896158 5.02830239,6.18164991" id="Fill-59" fill="#12120B"></path>
                <path d="M4.76462865,5.2035435 C4.87977454,5.08471269 5.11269231,5.04516254 5.23472149,5.12579613 C5.28863395,5.16142282 5.33618037,5.20291214 5.26718833,5.27479689 C5.20575597,5.26722058 5.18514589,5.32643305 5.15220159,5.36521654 C5.15005305,5.3998962 5.07970822,5.36715571 5.10405836,5.42817207 C5.01393899,5.49234522 4.93448276,5.47998862 4.86640584,5.38573571 C4.87754642,5.33139373 4.87169761,5.28399669 4.82407162,5.25387184 C4.79578249,5.24967781 4.77938992,5.22785083 4.76462865,5.2035435" id="Fill-60" fill="#18160E"></path>
                <path d="M6.23677719,5.3934936 C6.19404509,5.46245351 6.13416446,5.4759158 6.06624668,5.46332352 C6.02291777,5.42060135 5.96438992,5.39880525 5.93470822,5.33721755 C5.91179045,5.2911527 5.87602122,5.27178348 5.83118037,5.27095926 C5.75590186,5.1851028 5.83599469,5.15707925 5.87753316,5.12827727 C5.99952255,5.04374873 6.22400531,5.08262453 6.34149867,5.20140408 C6.32876658,5.22059014 6.31125995,5.23318242 6.29474801,5.2471484 C6.25933687,5.28748949 6.24421751,5.33845388 6.23677719,5.3934936" id="Fill-61" fill="#15140D"></path>
                <path d="M5.72037135,5.23997704 C5.97310345,4.74390425 6.29972149,4.72498975 6.53637931,5.19900631 C6.37758621,5.1611132 6.25133952,5.02621115 6.10746684,5.03332813 C5.9683687,5.04025276 5.8421618,5.11379489 5.72037135,5.23997704" id="Fill-62" fill="#19180E"></path>
                <path d="M4.58395225,5.16684571 C4.85383289,4.7236149 5.21359416,4.76047624 5.39454907,5.24086663 C5.13867374,4.90207629 4.86179045,5.02381416 4.58395225,5.16684571" id="Fill-63" fill="#19180E"></path>
                <path d="M5.0801061,6.09332314 C5.17102122,5.95638171 5.28441645,5.94080199 5.28596817,5.70870775 C5.34596817,5.94553415 5.46119363,5.96162349 5.5493634,5.9707238 C5.64608753,5.98077054 5.75363395,5.91524833 5.82214854,5.74066803 C5.84920424,5.82293481 5.87279841,5.93170168 5.91819629,5.98965244 C5.6497878,6.20012434 5.37720159,5.99074448 5.0801061,6.09332314" id="Fill-64" fill="#222113"></path>
                <path d="M6.05743021,5.35453331 C6.08749132,5.48061951 6.21632461,5.47941869 6.21567394,5.64503191 C6.07369704,5.57418347 5.87257396,5.66764737 5.83106101,5.31760807 C5.91246023,5.24295703 5.98982527,5.22804684 6.05743021,5.35453331" id="Fill-65" fill="#312E1A"></path>
                <path d="M5.14130054,5.65220237 C5.11421599,5.63662979 5.08705803,5.62092958 5.05997347,5.60535701 C5.1054814,5.54855541 5.15106273,5.49175382 5.19657066,5.43495223 C5.27422773,5.36219513 5.33536983,5.1971514 5.44458886,5.300926 C5.4211009,5.61850434 5.40965052,5.63177932 5.14130054,5.65220237" id="Fill-66" fill="#262315"></path>
                <path d="M5.51572579,5.45072353 C5.3885277,5.49457197 5.26121665,5.53842041 5.13401857,5.58226885 C5.31973229,5.11283996 5.31973229,5.11283996 5.51211092,5.36941599 C5.51934066,5.3961009 5.52058327,5.42328693 5.51572579,5.45072353" id="Fill-67" fill="#D5B52E"></path>
                <path d="M6.21567639,5.56595258 C6.08743441,5.54980314 5.95919243,5.53365369 5.83106101,5.51750425 C5.83117156,5.47693369 5.83139267,5.43623183 5.83139267,5.39552998 C6.1418267,4.87244551 6.10346466,5.45842091 6.21567639,5.56595258" id="Fill-68" fill="#D0B02F"></path>
                <path d="M5.85675066,6.74206053 C5.71797192,6.80812568 5.60591454,6.8698553 5.47213528,6.68714388 C5.61591351,6.39872822 5.72590213,6.43754149 5.85675066,6.74206053" id="Fill-69" fill="#6D5E2B"></path>
                <path d="M4.81830157,5.18934394 C4.8917584,5.21490679 4.96521523,5.24035238 5.03867205,5.26591523 C5.15355908,5.36371073 5.15301394,5.4666657 5.0573429,5.57395932 C4.75561115,5.54781017 4.65939497,5.42726608 4.81830157,5.18934394" id="Fill-70" fill="#8E7B33"></path>
                <path d="M4.85719853,5.49558711 C4.84771883,5.41727525 4.83844522,5.33905278 4.82896552,5.26074092 C4.88337074,5.20495713 4.96456642,5.16785733 5.11953887,5.18189268 C4.96559682,5.30329394 5.40805142,5.45312348 5.02288717,5.5635289 C4.96765762,5.54091144 4.91242808,5.51820457 4.85719853,5.49558711" id="Fill-71" fill="#F2CB25"></path>
                <path d="M6.30353567,5.57217006 C6.13170606,5.42317908 6.22537654,5.30096571 6.40609129,5.18755467 C6.63996629,5.28373168 6.6774646,5.38278103 6.41738596,5.48590725 C6.37943586,5.51463063 6.34148577,5.54344667 6.30353567,5.57217006" id="Fill-72" fill="#EFC927"></path>
                <path d="M6.278658,5.56874301 C6.4235541,5.4407451 6.47737266,5.3139204 6.26387268,5.19096732 C6.39220923,5.1892075 6.52015151,5.18744767 6.64848806,5.18580517 C6.5400624,5.31849595 6.85015979,5.59443645 6.278658,5.56874301" id="Fill-73" fill="#423C20"></path>
                <path d="M5.1821618,6.3110989 C5.44412467,6.15972577 5.65969496,6.16695804 5.89034483,6.28654281 C5.70095491,6.66733032 5.47440318,6.68414955 5.1821618,6.3110989" id="Fill-74" fill="#DCB92B"></path>
            </g>
        </g>
    </g>
</svg>